G04*
G04 #@! TF.GenerationSoftware,Altium Limited,Altium Designer,25.5.2 (35)*
G04*
G04 Layer_Color=65535*
%FSLAX44Y44*%
%MOMM*%
G71*
G04*
G04 #@! TF.SameCoordinates,B6E77A7C-BDCE-411E-9E10-EA7D0F22C657*
G04*
G04*
G04 #@! TF.FilePolarity,Positive*
G04*
G01*
G75*
%ADD10C,0.5000*%
%ADD11C,0.2000*%
%ADD12C,0.6000*%
%ADD13C,0.2500*%
%ADD14C,0.1500*%
%ADD15C,0.3000*%
%ADD16C,0.2540*%
%ADD17C,0.1270*%
D10*
X-113000Y-232000D02*
G03*
X-95000Y-242000I38166J47499D01*
G01*
X-113000Y-232000D02*
G03*
X-154000Y-241000I-16000J-25000D01*
G01*
X-164000Y-253000D02*
G03*
X-154000Y-241000I-25000J31000D01*
G01*
X-209000Y-219000D02*
G03*
X-203000Y-247000I35667J-7000D01*
G01*
X-153000Y-70000D02*
G03*
X-156750Y-40750I-123432J-959D01*
G01*
X-203000Y-247000D02*
G03*
X-164000Y-253000I22500J16500D01*
G01*
X-204081Y-196714D02*
G03*
X-209000Y-219000I149302J-44644D01*
G01*
X-200130Y-188398D02*
G03*
X-204081Y-196714I84364J-45174D01*
G01*
X-173250Y-153500D02*
G03*
X-189500Y-170000I99627J-114369D01*
G01*
X-185182Y-128227D02*
G03*
X-174250Y-137000I79591J87982D01*
G01*
X-142792Y18393D02*
G03*
X-135727Y308I130543J40572D01*
G01*
X-189500Y-170000D02*
G03*
X-200130Y-188398I91549J-65164D01*
G01*
X-195500Y-118000D02*
G03*
X-185182Y-128227I53245J43400D01*
G01*
X-213250Y-68750D02*
G03*
X-195500Y-118000I92239J5420D01*
G01*
X-213250Y-68750D02*
G03*
X-215190Y-55422I-47738J-143D01*
G01*
X74250Y-245000D02*
G03*
X95000Y-242000I-3907J100288D01*
G01*
X152233Y-240726D02*
G03*
X164000Y-253000I34343J21148D01*
G01*
X148759Y-235566D02*
G03*
X152233Y-240726I14338J5904D01*
G01*
X148759Y-235566D02*
G03*
X145214Y-232138I-10582J-7396D01*
G01*
X-241000Y16000D02*
G03*
X-259000Y-22000I10000J-28000D01*
G01*
D02*
G03*
X-235000Y-42000I28470J9765D01*
G01*
X-163954Y-22857D02*
G03*
X-185500Y1750I-78298J-46821D01*
G01*
X-156750Y-40750D02*
G03*
X-163954Y-22857I-121047J-38341D01*
G01*
X-224115Y-45162D02*
G03*
X-235000Y-42000I-32707J-92264D01*
G01*
X-206479Y12833D02*
G03*
X-241000Y16000I-22333J-53710D01*
G01*
X-185500Y1750D02*
G03*
X-206479Y12833I-44827J-59455D01*
G01*
X-215190Y-55422D02*
G03*
X-224115Y-45162I-14504J-3606D01*
G01*
X-45410Y206111D02*
G03*
X-67332Y197085I45279J-141105D01*
G01*
D02*
G03*
X-87332Y184779I65867J-129457D01*
G01*
X-95000Y-242000D02*
G03*
X-65610Y-244868I21540J68698D01*
G01*
X-116786Y-36848D02*
G03*
X-120286Y-28214I-64162J-20977D01*
G01*
X-87332Y184779D02*
G03*
X-105399Y169250I90929J-124057D01*
G01*
X-149104Y57389D02*
G03*
X-147101Y36932I177310J7030D01*
G01*
Y36932D02*
G03*
X-142792Y18393I129079J20239D01*
G01*
X-105399Y169250D02*
G03*
X-125121Y145051I111434J-110956D01*
G01*
X-10001Y212977D02*
G03*
X-21623Y211875I2007J-83001D01*
G01*
X-147226Y88475D02*
G03*
X-149104Y57389I153998J-24906D01*
G01*
X-139188Y117927D02*
G03*
X-147226Y88475I134293J-52470D01*
G01*
X5687Y212890D02*
G03*
X-10001Y212977I-9302J-263976D01*
G01*
X-125121Y145051D02*
G03*
X-139188Y117927I120477J-79693D01*
G01*
X-135727Y308D02*
G03*
X-125417Y-18815I192553J91470D01*
G01*
X-120286Y-28214D02*
G03*
X-125418Y-18815I-105407J-51452D01*
G01*
X-21623Y211875D02*
G03*
X-45410Y206111I27617J-165957D01*
G01*
X195500Y-118000D02*
G03*
X205697Y-102607I-155959J114393D01*
G01*
X-83642Y-203993D02*
G03*
X-86522Y-204240I-659J-9212D01*
G01*
X-71274Y-208505D02*
G03*
X-65506Y-209865I11633J36449D01*
G01*
X-92088Y-207099D02*
G03*
X-93981Y-209259I6477J-7583D01*
G01*
X86522Y-204240D02*
G03*
X83642Y-203993I-2221J-8964D01*
G01*
X92088Y-207099D02*
G03*
X89511Y-205366I-8802J-10304D01*
G01*
X93981Y-209259D02*
G03*
X92088Y-207099I-8370J-5423D01*
G01*
X65506Y-209865D02*
G03*
X71274Y-208505I-5865J37809D01*
G01*
X-89511Y-205366D02*
G03*
X-92088Y-207099I6225J-12037D01*
G01*
X-79938Y-229780D02*
G03*
X-73599Y-231726I17189J44686D01*
G01*
X-93479Y-221581D02*
G03*
X-90775Y-224289I9965J7246D01*
G01*
X-95002Y-218435D02*
G03*
X-93479Y-221581I9511J2662D01*
G01*
X-76699Y-206282D02*
G03*
X-71274Y-208505I16572J32703D01*
G01*
X-86522Y-204240D02*
G03*
X-89511Y-205366I3285J-13260D01*
G01*
X-80506Y-204649D02*
G03*
X-83642Y-203993I-3985J-11219D01*
G01*
X-76699Y-206282D02*
G03*
X-80506Y-204649I-14672J-28954D01*
G01*
X28098Y-224031D02*
G03*
X36113Y-228317I29841J46169D01*
G01*
X67017Y-232787D02*
G03*
X73599Y-231726I-4404J48279D01*
G01*
X59522Y-233106D02*
G03*
X67017Y-232787I457J77470D01*
G01*
X114364Y-60500D02*
G03*
X114092Y-57775I-387676J-37370D01*
G01*
X115250Y-71250D02*
G03*
X114500Y-61940I-388562J-26620D01*
G01*
X57517Y-233062D02*
G03*
X59522Y-233106I2372J62061D01*
G01*
X80506Y-204649D02*
G03*
X76699Y-206282I10865J-30587D01*
G01*
X83642Y-203993D02*
G03*
X80506Y-204649I849J-11876D01*
G01*
X89511Y-205366D02*
G03*
X86522Y-204240I-6275J-12135D01*
G01*
X71274Y-208505D02*
G03*
X76699Y-206282I-11147J34926D01*
G01*
X95522Y-214644D02*
G03*
X95129Y-211798I-10490J0D01*
G01*
D02*
G03*
X93981Y-209259I-8968J-2527D01*
G01*
X94937Y-218657D02*
G03*
X95522Y-214644I-13481J4013D01*
G01*
X163000Y-145000D02*
G03*
X135147Y-129933I-50530J-60133D01*
G01*
X-161500Y-143771D02*
G03*
X-163000Y-145000I49030J-61362D01*
G01*
X-102401Y-127236D02*
G03*
X-159534Y-142250I-10069J-77897D01*
G01*
X-153000Y-70000D02*
G03*
X-103750Y-98500I38875J10375D01*
G01*
X-132077Y97500D02*
G03*
X-134566Y88107I192342J-55982D01*
G01*
D02*
G03*
X-135914Y80778I68639J-16413D01*
G01*
X133472Y-94904D02*
G03*
X153000Y-70000I-19347J35279D01*
G01*
X-117082Y-76598D02*
G03*
X-114750Y-63500I-30020J12101D01*
G01*
X115250Y-71250D02*
G03*
X153000Y-70000I18766J3919D01*
G01*
X205697Y-102607D02*
G03*
X212000Y-79000I-58276J28204D01*
G01*
X213250Y-68750D02*
G03*
X212000Y-79000I74204J-14250D01*
G01*
X125764Y-22163D02*
G03*
X114092Y-57775I67975J-41999D01*
G01*
X-114750Y-63500D02*
G03*
X-116786Y-36848I-168786J508D01*
G01*
X-153000Y-70000D02*
G03*
X-117082Y-76598I19143J3145D01*
G01*
X125764Y-22163D02*
G03*
X135727Y308I-135512J73527D01*
G01*
X-95129Y-211798D02*
G03*
X-95522Y-214644I10097J-2845D01*
G01*
X-59522Y-233106D02*
G03*
X-42912Y-230742I-366J62105D01*
G01*
X-67017Y-232787D02*
G03*
X-59522Y-233106I7038J77151D01*
G01*
X-93981Y-209259D02*
G03*
X-95129Y-211798I7819J-5066D01*
G01*
X-95522Y-214644D02*
G03*
X-95002Y-218435I14066J-0D01*
G01*
X-86695Y-226784D02*
G03*
X-79938Y-229780I33233J65834D01*
G01*
X-90775Y-224289D02*
G03*
X-86695Y-226784I17332J23757D01*
G01*
X-73599Y-231726D02*
G03*
X-67017Y-232787I10986J47218D01*
G01*
X-136750Y61500D02*
G03*
X-135635Y41663I175431J-92D01*
G01*
X-135635D02*
G03*
X-132223Y24808I98375J11143D01*
G01*
X-136556Y72905D02*
G03*
X-136750Y61500I344849J-11586D01*
G01*
X-135914Y80778D02*
G03*
X-136556Y72905I82069J-10652D01*
G01*
X-42912Y-230742D02*
G03*
X-28098Y-224031I-15027J52880D01*
G01*
X-132223Y24808D02*
G03*
X-125792Y8192I103559J30532D01*
G01*
X-125792D02*
G03*
X-119317Y-4216I216737J105210D01*
G01*
X260480Y-8134D02*
G03*
X241000Y16000I-29480J-3866D01*
G01*
X235000Y-42000D02*
G03*
X224115Y-45162I21822J-95426D01*
G01*
X185182Y-128227D02*
G03*
X195500Y-118000I-42927J53627D01*
G01*
X241000Y16000D02*
G03*
X206479Y12833I-12188J-56877D01*
G01*
X-174250Y-137000D02*
G03*
X-163000Y-145000I68956J85060D01*
G01*
X224115Y-45162D02*
G03*
X215190Y-55422I5579J-13865D01*
G01*
D02*
G03*
X213250Y-68750I45798J-13471D01*
G01*
X204081Y-196714D02*
G03*
X200130Y-188398I-88315J-36858D01*
G01*
D02*
G03*
X189500Y-170000I-102179J-46766D01*
G01*
X235000Y-42000D02*
G03*
X257962Y-24620I-4471J29765D01*
G01*
X189500Y-170000D02*
G03*
X173250Y-153500I-115877J-97870D01*
G01*
X203000Y-247000D02*
G03*
X209000Y-219000I-29667J21000D01*
G01*
X209000Y-219000D02*
G03*
X204081Y-196714I-154222J-22359D01*
G01*
X174250Y-137000D02*
G03*
X185182Y-128227I-68659J96755D01*
G01*
X206479Y12833D02*
G03*
X185500Y1750I23848J-70539D01*
G01*
X95000Y-242000D02*
G03*
X113000Y-232000I-20166J57499D01*
G01*
X21448Y-227880D02*
G03*
X65610Y-244868I53760J73860D01*
G01*
X67332Y197085D02*
G03*
X45410Y206111I-67201J-132079D01*
G01*
X21623Y211875D02*
G03*
X10001Y212977I-13629J-81899D01*
G01*
X139188Y117927D02*
G03*
X125121Y145051I-134544J-52568D01*
G01*
X87332Y184779D02*
G03*
X67332Y197085I-85867J-117152D01*
G01*
X0Y-204744D02*
G03*
X21448Y-227880I106159J76902D01*
G01*
X-21448D02*
G03*
X0Y-204744I-84711J100038D01*
G01*
X-65610Y-244868D02*
G03*
X-21448Y-227880I-9598J90848D01*
G01*
X163000Y-145000D02*
G03*
X174250Y-137000I-57706J93060D01*
G01*
X-163000Y-145000D02*
G03*
X-173250Y-153500I120255J-155443D01*
G01*
X164000Y-253000D02*
G03*
X203000Y-247000I16500J22500D01*
G01*
X145214Y-232138D02*
G03*
X113000Y-232000I-16214J-24862D01*
G01*
X173250Y-153500D02*
G03*
X163000Y-145000I-130505J-146943D01*
G01*
X64039Y-244609D02*
G03*
X74250Y-245000I7851J71566D01*
G01*
X45410Y206111D02*
G03*
X21623Y211875I-51404J-160194D01*
G01*
X105399Y169250D02*
G03*
X87332Y184779I-108996J-108528D01*
G01*
X156750Y-40750D02*
G03*
X153000Y-70000I119682J-30209D01*
G01*
X163954Y-22857D02*
G03*
X156750Y-40750I113843J-56234D01*
G01*
X185500Y1750D02*
G03*
X163954Y-22857I56752J-71428D01*
G01*
X125121Y145051D02*
G03*
X105399Y169250I-131157J-86757D01*
G01*
X149104Y57389D02*
G03*
X147226Y88475I-155876J6180D01*
G01*
X10001Y212977D02*
G03*
X-5687Y212890I-6386J-264063D01*
G01*
X135727Y308D02*
G03*
X142792Y18393I-123479J58657D01*
G01*
X142792Y18393D02*
G03*
X147101Y36932I-124769J38777D01*
G01*
Y36932D02*
G03*
X149104Y57389I-175308J27487D01*
G01*
X147226Y88475D02*
G03*
X139188Y117927I-142331J-23019D01*
G01*
D11*
X78060Y-157210D02*
G03*
X78060Y-157210I-1000J0D01*
G01*
X-13206Y-81875D02*
G03*
X-14592Y-82520I2946J-8146D01*
G01*
X-7553Y-77063D02*
G03*
X-1431Y-78130I8740J32060D01*
G01*
X-12179Y-74924D02*
G03*
X-7553Y-77063I8657J12650D01*
G01*
X-11240Y-81246D02*
G03*
X-13206Y-81875I7552J-26950D01*
G01*
X-8801Y-80927D02*
G03*
X-11240Y-81246I-111J-8627D01*
G01*
X22669Y-90332D02*
G03*
X24218Y-88555I-3973J5024D01*
G01*
D02*
G03*
X25927Y-85269I-30807J18115D01*
G01*
X-23541Y-82703D02*
G03*
X-17446Y-89242I14561J7463D01*
G01*
X22655Y-89792D02*
G03*
X23769Y-87990I-14142J9992D01*
G01*
X21306Y-88120D02*
G03*
X24838Y-83407I-9130J10522D01*
G01*
X23769Y-87990D02*
G03*
X25093Y-85375I-54127J29055D01*
G01*
X-28280Y-73407D02*
G03*
X-28182Y-75293I30041J612D01*
G01*
X-164700Y-213800D02*
G03*
X-190700Y-213800I-13000J-11186D01*
G01*
Y-236200D02*
G03*
X-164700Y-236200I13000J11186D01*
G01*
X-24372Y-80380D02*
G03*
X-23541Y-82703I9292J2014D01*
G01*
X-22031Y-67081D02*
G03*
X-23550Y-69052I6211J-6360D01*
G01*
X-16036Y-64664D02*
G03*
X-17740Y-64807I-268J-7056D01*
G01*
X-16829Y-67592D02*
G03*
X-15255Y-71738I10908J1770D01*
G01*
X-17740Y-64807D02*
G03*
X-20056Y-65641I1785J-8588D01*
G01*
X-9490Y-67292D02*
G03*
X-11179Y-66718I-12145J-32940D01*
G01*
X-20056Y-65641D02*
G03*
X-22031Y-67081I3994J-7552D01*
G01*
X-12887Y-66233D02*
G03*
X-14393Y-65887I-7533J-29378D01*
G01*
X-15255Y-71738D02*
G03*
X-12179Y-74924I9283J5884D01*
G01*
X-13999Y-64888D02*
G03*
X-16036Y-64664I-2580J-14112D01*
G01*
X21854Y-69495D02*
G03*
X18407Y-67429I-7271J-8222D01*
G01*
X-28182Y-75293D02*
G03*
X-27868Y-78097I49686J4145D01*
G01*
X-27868D02*
G03*
X-27431Y-80329I21043J2962D01*
G01*
X4394Y-82284D02*
G03*
X515Y-81571I-8441J-34983D01*
G01*
X-24928Y-74038D02*
G03*
X-24847Y-77251I25621J-964D01*
G01*
D02*
G03*
X-24372Y-80380I25115J2211D01*
G01*
X-27431Y-80329D02*
G03*
X-26932Y-81935I14979J3776D01*
G01*
X-27081Y-77793D02*
G03*
X-27705Y-74553I-187526J-34439D01*
G01*
X-8400Y-66515D02*
G03*
X-5187Y-67390I7086J19678D01*
G01*
X-11513Y-65487D02*
G03*
X-13999Y-64888I-6623J-22027D01*
G01*
X-11179Y-66718D02*
G03*
X-12887Y-66233I-10286J-32966D01*
G01*
X-9490Y-67292D02*
G03*
X-5986Y-68322I9366J25403D01*
G01*
X-30765Y-78088D02*
G03*
X-30258Y-80009I28202J6416D01*
G01*
X-1431Y-78130D02*
G03*
X4997Y-77899I2215J28032D01*
G01*
X-8400Y-66515D02*
G03*
X-11513Y-65487I-20733J-57575D01*
G01*
X-5986Y-68322D02*
G03*
X-2668Y-68758I4136J18653D01*
G01*
X-5187Y-67390D02*
G03*
X-1945Y-67720I3558J18876D01*
G01*
D02*
G03*
X2183Y-67545I577J35140D01*
G01*
X-23550Y-69052D02*
G03*
X-24533Y-71440I8928J-5068D01*
G01*
X24434Y-72712D02*
G03*
X21854Y-69495I-10620J-5874D01*
G01*
X25910Y-78013D02*
G03*
X24434Y-72712I-11870J-449D01*
G01*
X10566Y-76158D02*
G03*
X14643Y-73144I-6205J12657D01*
G01*
X13985Y-66537D02*
G03*
X8510Y-66793I-1303J-30875D01*
G01*
X12135Y-91608D02*
G03*
X13811Y-91016I-12158J37092D01*
G01*
X7381Y-92809D02*
G03*
X9439Y-92408I-1950J15487D01*
G01*
X-9740Y-91634D02*
G03*
X-7297Y-92362I11867J35370D01*
G01*
X9439Y-92408D02*
G03*
X12135Y-91608I-12653J47627D01*
G01*
X-2668Y-68758D02*
G03*
X1289Y-68660I1258J29327D01*
G01*
X6132Y-82744D02*
G03*
X4394Y-82284I-11442J-39758D01*
G01*
X4414Y-94107D02*
G03*
X15835Y-91457I-2895J38411D01*
G01*
X515Y-81571D02*
G03*
X-4277Y-81106I-10045J-78602D01*
G01*
X-18052Y-87607D02*
G03*
X-15638Y-89039I23910J37548D01*
G01*
X-24533Y-71440D02*
G03*
X-24928Y-74038I11223J-3035D01*
G01*
X-4277Y-81106D02*
G03*
X-8801Y-80927I-5619J-84589D01*
G01*
X-15732Y-83342D02*
G03*
X-16896Y-84512I8761J-9885D01*
G01*
X7936Y-83300D02*
G03*
X6132Y-82744I-15691J-47700D01*
G01*
X9551Y-83865D02*
G03*
X7936Y-83300I-15699J-42248D01*
G01*
X11690Y-67531D02*
G03*
X9378Y-67715I3249J-55479D01*
G01*
X18407Y-67429D02*
G03*
X13985Y-66537I-5031J-13535D01*
G01*
X14643Y-73144D02*
G03*
X16774Y-69205I-6416J6017D01*
G01*
X4997Y-77899D02*
G03*
X10566Y-76158I-2874J18963D01*
G01*
X9378Y-67715D02*
G03*
X7000Y-68000I6324J-62879D01*
G01*
X13679Y-67457D02*
G03*
X11690Y-67531I791J-47543D01*
G01*
X1289Y-68660D02*
G03*
X7000Y-68000I-11480J124308D01*
G01*
X2183Y-67545D02*
G03*
X8510Y-66793I-18821J185315D01*
G01*
X27281Y-81877D02*
G03*
X27410Y-79937I-3507J1208D01*
G01*
X12472Y-85454D02*
G03*
X10644Y-84340I-7591J-10405D01*
G01*
X24838Y-83407D02*
G03*
X25910Y-78013I-10780J4945D01*
G01*
X25093Y-85375D02*
G03*
X26289Y-82760I-80027J38159D01*
G01*
X13811Y-91016D02*
G03*
X15224Y-90422I-7663J20216D01*
G01*
X16151Y-88694D02*
G03*
X14454Y-87056I-22342J-21451D01*
G01*
X-12738Y-90474D02*
G03*
X-9740Y-91634I14230J32319D01*
G01*
X-17446Y-89242D02*
G03*
X-7435Y-93255I17243J28517D01*
G01*
X-7297Y-92362D02*
G03*
X-5273Y-92754I4066J15575D01*
G01*
X-15638Y-89039D02*
G03*
X-12738Y-90474I17523J31776D01*
G01*
X25927Y-85269D02*
G03*
X27281Y-81877I-34578J15770D01*
G01*
X5014Y-92980D02*
G03*
X7381Y-92809I-436J22434D01*
G01*
X-2882Y-92942D02*
G03*
X1010Y-93009I4662J156892D01*
G01*
X-7435Y-93255D02*
G03*
X4414Y-94107I8801J39588D01*
G01*
X15835Y-91457D02*
G03*
X21306Y-88120I-7166J17901D01*
G01*
X1010Y-93009D02*
G03*
X5014Y-92980I806J164395D01*
G01*
X-5273Y-92754D02*
G03*
X-2882Y-92942I3122J24405D01*
G01*
X14454Y-87056D02*
G03*
X12472Y-85454I-17106J-19131D01*
G01*
X38100Y-192620D02*
Y-177380D01*
X33020Y-197700D02*
X38100Y-192620D01*
X-38100D02*
Y-177380D01*
X-12700D02*
X-7620Y-172300D01*
X-12700Y-192620D02*
Y-177380D01*
X-38100Y-192620D02*
X-33020Y-197700D01*
X17780D02*
X33020D01*
X17700Y-172300D02*
X33020D01*
X38100Y-177380D01*
X16000Y-166000D02*
Y-116000D01*
X-16000D02*
X16000D01*
X-16000Y-166000D02*
X16000D01*
X-16000D02*
Y-116000D01*
X-12700Y-192620D02*
X-7620Y-197700D01*
X12700Y-192620D02*
Y-177380D01*
X-7700Y-172300D02*
X7620D01*
X-33100D02*
X-17780D01*
X-12700Y-177380D01*
X-17780Y-197700D02*
X-12700Y-192620D01*
X-38100Y-177380D02*
X-33020Y-172300D01*
X12700Y-192620D02*
X17780Y-197700D01*
X7620D02*
X12700Y-192620D01*
X7620Y-172300D02*
X12700Y-177380D01*
X17780Y-172300D01*
X-7620Y-197700D02*
X7620D01*
X-33020D02*
X-17780D01*
X66671Y-65002D02*
Y-74998D01*
X71669D01*
X73335Y-73332D01*
Y-66668D01*
X71669Y-65002D01*
X66671D01*
X76668D02*
Y-74998D01*
X81666D01*
X83332Y-73332D01*
Y-66668D01*
X81666Y-65002D01*
X76668D01*
X93329D02*
X89997Y-66668D01*
X86664Y-70000D01*
Y-73332D01*
X88331Y-74998D01*
X91663D01*
X93329Y-73332D01*
Y-71666D01*
X91663Y-70000D01*
X86664D01*
X-93329Y-65002D02*
Y-74998D01*
X-88331D01*
X-86664Y-73332D01*
Y-66668D01*
X-88331Y-65002D01*
X-93329D01*
X-83332D02*
Y-74998D01*
X-78334D01*
X-76668Y-73332D01*
Y-66668D01*
X-78334Y-65002D01*
X-83332D01*
X-66671D02*
X-73335D01*
Y-70000D01*
X-70003Y-68334D01*
X-68337D01*
X-66671Y-70000D01*
Y-73332D01*
X-68337Y-74998D01*
X-71669D01*
X-73335Y-73332D01*
X-132829Y-157002D02*
Y-166998D01*
X-127831D01*
X-126165Y-165332D01*
Y-158668D01*
X-127831Y-157002D01*
X-132829D01*
X-122832D02*
Y-166998D01*
X-117834D01*
X-116168Y-165332D01*
Y-158668D01*
X-117834Y-157002D01*
X-122832D01*
X-112836D02*
X-106171D01*
Y-158668D01*
X-112836Y-165332D01*
Y-166998D01*
X-11663Y-101002D02*
Y-110998D01*
X-6665D01*
X-4998Y-109332D01*
Y-102668D01*
X-6665Y-101002D01*
X-11663D01*
X-1666D02*
Y-110998D01*
X3332D01*
X4998Y-109332D01*
Y-102668D01*
X3332Y-101002D01*
X-1666D01*
X8331Y-110998D02*
X11663D01*
X9997D01*
Y-101002D01*
X8331Y-102668D01*
X19337Y-203002D02*
X26002Y-212998D01*
Y-203002D02*
X19337Y-212998D01*
X29334D02*
Y-203002D01*
X34332D01*
X35998Y-204668D01*
Y-208000D01*
X34332Y-209666D01*
X29334D01*
X39331Y-212998D02*
X42663D01*
X40997D01*
Y-203002D01*
X39331Y-204668D01*
X-205329Y-52002D02*
Y-61998D01*
X-200331D01*
X-198664Y-60332D01*
Y-53668D01*
X-200331Y-52002D01*
X-205329D01*
X-195332D02*
Y-61998D01*
X-190334D01*
X-188668Y-60332D01*
Y-53668D01*
X-190334Y-52002D01*
X-195332D01*
X-180337Y-61998D02*
Y-52002D01*
X-185336Y-57000D01*
X-178671D01*
X-188663Y-188002D02*
Y-197998D01*
Y-193000D01*
X-181998D01*
Y-188002D01*
Y-197998D01*
X-178666Y-188002D02*
Y-197998D01*
X-172002D01*
X-168669D02*
X-165337D01*
X-167003D01*
Y-188002D01*
X-168669Y-189668D01*
X-83329Y-130252D02*
Y-140248D01*
X-78331D01*
X-76665Y-138582D01*
Y-131918D01*
X-78331Y-130252D01*
X-83329D01*
X-73332D02*
Y-140248D01*
X-68334D01*
X-66668Y-138582D01*
Y-131918D01*
X-68334Y-130252D01*
X-73332D01*
X-63335Y-131918D02*
X-61669Y-130252D01*
X-58337D01*
X-56671Y-131918D01*
Y-133584D01*
X-58337Y-135250D01*
X-60003D01*
X-58337D01*
X-56671Y-136916D01*
Y-138582D01*
X-58337Y-140248D01*
X-61669D01*
X-63335Y-138582D01*
X135671Y-113502D02*
Y-123498D01*
X140669D01*
X142336Y-121832D01*
Y-115168D01*
X140669Y-113502D01*
X135671D01*
X145668D02*
Y-123498D01*
X150666D01*
X152332Y-121832D01*
Y-115168D01*
X150666Y-113502D01*
X145668D01*
X162329Y-123498D02*
X155665D01*
X162329Y-116834D01*
Y-115168D01*
X160663Y-113502D01*
X157331D01*
X155665Y-115168D01*
D12*
X-3000Y-126000D02*
G03*
X-3000Y-126000I-3000J0D01*
G01*
D13*
X-26000Y-113450D02*
G03*
X-26000Y-113450I-1250J0D01*
G01*
D14*
X96247Y-57151D02*
G03*
X63753Y-57151I-16247J26401D01*
G01*
X-63753D02*
G03*
X-96247Y-57151I-16247J26401D01*
G01*
X-235317Y-40108D02*
G03*
X-202753Y-40151I16317J26358D01*
G01*
X-63750Y-162000D02*
Y-158000D01*
X-76530Y-175034D02*
Y-167750D01*
Y-152250D02*
Y-144969D01*
X-202753Y-40151D02*
X-202750Y12500D01*
X-77740Y-57151D02*
X-63753D01*
X-96247D02*
X-82260D01*
X82260D02*
X96247D01*
X63753D02*
X77740D01*
X-235250Y-40000D02*
X-235247Y12651D01*
X-76530Y-175034D02*
X-66250D01*
X-76530Y-144969D02*
X-65750D01*
X-216740Y12651D02*
X-202753D01*
X-235247D02*
X-221260D01*
X-154950Y-219986D02*
Y-209986D01*
X-159950Y-215000D02*
X-149950D01*
D15*
X257962Y-24620D02*
G03*
X260480Y-8134I-17193J11061D01*
G01*
D16*
X-24150Y-203000D02*
G03*
X-24150Y-203000I-1250J0D01*
G01*
D17*
X79750Y-147500D02*
Y-108500D01*
X130250Y-147500D02*
Y-108500D01*
M02*
