M48
;Layer_Color=9474304
;FILE_FORMAT=4:4
METRIC,LZ
;TYPE=PLATED
T01F00S00C0.5000
T02F00S00C0.7000
T03F00S00C0.7500
T04F00S00C0.8000
T06F00S00C0.9000
T07F00S00C1.0000
T08F00S00C1.2000
;TYPE=NON_PLATED
T09F00S00C2.0000
T10F00S00C3.0000
%
T01
X00045Y-00177
X00086Y-00137
X00111Y-00122
X-00046Y-00135
T02
X-00152Y-0020175
Y-0015175
X-00105Y-0022
X-00055
X00065Y-00153
X00106Y-001715
X00122
X00138
X0013Y-001835
X00114
X00145Y-00153
X002005Y-0008925
Y-0003925
X00145Y-00103
X00105Y-0007
X00055
X00065Y-00103
X00026Y-001
X-00024
X-00055Y-0007
X-00105
X-001825Y-0008725
Y-0003725
T03
X-00219Y-00033
Y-0002025
Y-0000725
Y000055
X-0008Y-000115
Y-0002425
Y-0003725
Y-0005
X0008
Y-0003725
Y-0002425
Y-000115
T04
X-00125Y-002162
X-0009Y-001781
X000465Y-001544
Y-002306
X0017275Y-001046
Y-000284
X-0009Y-001019
X-00125Y-0014
T06
X-001904Y-00225
X-00165
T07
X-000254Y-00185
X0
X000254
T08
X00185Y-00015
X0025
X00125Y00095
X-00075
T09
X-00015Y-00001
X-00096Y00139
X00066
T10
X00116Y00037
M30
