G04*
G04 #@! TF.GenerationSoftware,Altium Limited,Altium Designer,25.5.2 (35)*
G04*
G04 Layer_Physical_Order=1*
G04 Layer_Color=255*
%FSLAX44Y44*%
%MOMM*%
G71*
G04*
G04 #@! TF.SameCoordinates,B6E77A7C-BDCE-411E-9E10-EA7D0F22C657*
G04*
G04*
G04 #@! TF.FilePolarity,Positive*
G04*
G01*
G75*
%ADD10C,0.5000*%
%ADD13C,0.2500*%
%ADD16C,0.2540*%
%ADD18O,1.4500X0.6000*%
G04:AMPARAMS|DCode=19|XSize=1.76mm|YSize=0.6mm|CornerRadius=0.075mm|HoleSize=0mm|Usage=FLASHONLY|Rotation=90.000|XOffset=0mm|YOffset=0mm|HoleType=Round|Shape=RoundedRectangle|*
%AMROUNDEDRECTD19*
21,1,1.7600,0.4500,0,0,90.0*
21,1,1.6100,0.6000,0,0,90.0*
1,1,0.1500,0.2250,0.8050*
1,1,0.1500,0.2250,-0.8050*
1,1,0.1500,-0.2250,-0.8050*
1,1,0.1500,-0.2250,0.8050*
%
%ADD19ROUNDEDRECTD19*%
%ADD20R,0.7620X0.7620*%
%ADD21R,1.3200X0.5900*%
%ADD22R,1.4500X0.6000*%
%ADD34C,1.2000*%
%ADD35R,1.2000X1.2000*%
%ADD36R,1.2000X1.2000*%
%ADD39R,1.4500X1.4500*%
%ADD40C,1.4500*%
%ADD41C,1.1500*%
%ADD42C,2.0000*%
%ADD43C,1.7000*%
%ADD44O,1.2000X2.3000*%
%ADD45C,1.1000*%
%ADD46C,1.0000*%
G36*
X-1265Y218645D02*
X2797Y218563D01*
X6862Y218419D01*
X10928Y218216D01*
X14990Y217951D01*
X19049Y217627D01*
X21075Y217434D01*
X21078Y217434D01*
X21079Y217434D01*
X21079Y217434D01*
X21079Y217434D01*
X22606Y217289D01*
X25648Y216894D01*
X28675Y216395D01*
X31682Y215792D01*
X33179Y215438D01*
X33179Y215438D01*
X34471Y215132D01*
X37050Y214496D01*
X39622Y213834D01*
X42188Y213148D01*
X43472Y212792D01*
X43472Y212792D01*
X44610Y212474D01*
X46593Y211885D01*
X48658Y211231D01*
X50631Y210568D01*
X51682Y210196D01*
X51733Y210178D01*
X51736Y210177D01*
X51739Y210176D01*
X51739Y210176D01*
X52845Y209780D01*
X54755Y209062D01*
X56747Y208270D01*
X58569Y207509D01*
X59710Y207010D01*
X59710Y207010D01*
X60887Y206493D01*
X63231Y205434D01*
X65563Y204350D01*
X67884Y203242D01*
X69038Y202676D01*
X72981Y200742D01*
X80630Y196424D01*
X88016Y191670D01*
X95114Y186496D01*
X98507Y183708D01*
X101927Y180897D01*
X108439Y174898D01*
X114601Y168540D01*
X120394Y161843D01*
X123096Y158336D01*
X123099Y158333D01*
X123099Y158333D01*
X125824Y154796D01*
X130870Y147428D01*
X135496Y139788D01*
X139686Y131901D01*
X141558Y127843D01*
X141558Y127843D01*
X143442Y123760D01*
X146755Y115401D01*
X149605Y106873D01*
X151983Y98201D01*
X153290Y92151D01*
X153885Y88816D01*
X154359Y85462D01*
X154711Y82093D01*
X154826Y80403D01*
X154827Y80399D01*
X154827Y80399D01*
X154827D01*
X154975Y78219D01*
X155198Y73855D01*
X155346Y69487D01*
X155421Y65118D01*
Y62933D01*
X155421Y60748D01*
X155346Y56379D01*
X155198Y52012D01*
X154975Y47648D01*
X154827Y45468D01*
X154826Y45463D01*
X154826Y45463D01*
X154711Y43773D01*
X154359Y40404D01*
X153885Y37050D01*
X153290Y33715D01*
X152931Y32055D01*
X152931Y32055D01*
X152551Y30293D01*
X151717Y26786D01*
X150812Y23296D01*
X149835Y19825D01*
X149311Y18100D01*
X149310Y18096D01*
X149310Y18096D01*
X148804Y16431D01*
X147716Y13125D01*
X146552Y9844D01*
X145314Y6592D01*
X144658Y4980D01*
X144656Y4976D01*
X144656Y4976D01*
X143982Y3318D01*
X142559Y34D01*
X141064Y-3217D01*
X139497Y-6435D01*
X137785Y-9762D01*
X135939Y-13204D01*
X134035Y-16613D01*
X132073Y-19989D01*
X131061Y-21665D01*
X130345Y-22865D01*
X128954Y-25289D01*
X127616Y-27744D01*
X126334Y-30228D01*
X125713Y-31480D01*
X125710Y-31487D01*
X125188Y-32579D01*
X124201Y-34789D01*
X123289Y-37032D01*
X122455Y-39304D01*
X122064Y-40456D01*
X121715Y-41550D01*
X121077Y-43756D01*
X120520Y-45984D01*
X120044Y-48231D01*
X119837Y-49361D01*
X119639Y-50558D01*
X119297Y-52961D01*
X119030Y-55373D01*
X118837Y-57792D01*
X118769Y-59004D01*
X118769Y-59254D01*
X118734Y-60006D01*
X118672Y-61510D01*
X118621Y-63015D01*
X118579Y-64520D01*
X118563Y-65272D01*
X118562Y-65281D01*
X118558Y-65698D01*
X118569Y-66530D01*
X118610Y-67362D01*
X118679Y-68192D01*
X118724Y-68606D01*
X118725Y-68614D01*
X118768Y-68934D01*
X118878Y-69571D01*
X119022Y-70202D01*
X119200Y-70823D01*
X119301Y-71130D01*
X119303Y-71135D01*
X119303Y-71135D01*
X119429Y-71491D01*
X119701Y-72197D01*
X119997Y-72893D01*
X120317Y-73578D01*
X120486Y-73917D01*
X120629Y-74192D01*
X120930Y-74736D01*
X121248Y-75269D01*
X121584Y-75792D01*
X121759Y-76049D01*
X121761Y-76052D01*
Y-76052D01*
X121917Y-76271D01*
X122242Y-76696D01*
X122589Y-77105D01*
X122955Y-77496D01*
X123145Y-77685D01*
X123148Y-77688D01*
Y-77688D01*
X123340Y-77870D01*
X123736Y-78217D01*
X123738Y-78219D01*
X123953Y-78389D01*
X123954Y-78390D01*
X124153Y-78548D01*
X124156Y-78550D01*
X124583Y-78856D01*
X124642Y-78894D01*
X124804Y-79001D01*
X124807Y-79003D01*
X124808Y-79004D01*
X125061Y-79163D01*
X125572Y-79465D01*
X125577Y-79468D01*
X125828Y-79605D01*
X125829Y-79605D01*
X125850Y-79616D01*
X126103Y-79754D01*
X126639Y-80021D01*
X126917Y-80150D01*
X127367Y-80351D01*
X128275Y-80733D01*
X129193Y-81090D01*
X130121Y-81422D01*
X130194Y-81447D01*
X130588Y-81579D01*
X130595Y-81581D01*
X130909Y-81677D01*
X131547Y-81829D01*
X131548Y-81829D01*
X131749Y-81861D01*
X132197Y-81930D01*
X132198Y-81930D01*
X132852Y-81978D01*
X132918Y-81978D01*
X133180Y-81981D01*
X133185Y-81981D01*
X133185Y-81981D01*
X133510Y-81972D01*
X134157Y-81913D01*
X134158Y-81913D01*
X134408Y-81869D01*
X134800Y-81801D01*
X134801Y-81801D01*
X135430Y-81637D01*
X135487Y-81619D01*
X135739Y-81536D01*
X135747Y-81534D01*
X135747D01*
X136203Y-81371D01*
X137108Y-81025D01*
X138003Y-80653D01*
X138888Y-80256D01*
X139041Y-80183D01*
X139325Y-80048D01*
X139331Y-80045D01*
Y-80045D01*
X139884Y-79767D01*
X140371Y-79493D01*
X140372Y-79493D01*
X140378Y-79489D01*
X140965Y-79160D01*
X142006Y-78487D01*
X142529Y-78103D01*
X143004Y-77753D01*
X143145Y-77639D01*
X143486Y-77363D01*
X143491Y-77359D01*
X143490Y-77359D01*
X143854Y-77036D01*
X144523Y-76332D01*
X145107Y-75555D01*
X145598Y-74717D01*
X145642Y-74622D01*
X145806Y-74278D01*
X145808Y-74273D01*
X145809Y-74272D01*
X145809Y-74272D01*
X146051Y-73691D01*
X146233Y-73178D01*
X146472Y-72503D01*
X146804Y-71288D01*
X146938Y-70606D01*
X147046Y-70051D01*
X147067Y-69902D01*
X147133Y-69427D01*
X147135Y-69417D01*
X147135Y-69417D01*
X147269Y-68268D01*
X147275Y-68206D01*
X147512Y-65965D01*
X147723Y-63660D01*
X147900Y-61351D01*
X147977Y-60196D01*
X147977Y-59946D01*
X147977Y-59946D01*
X148060Y-58617D01*
X148278Y-55964D01*
X148549Y-53315D01*
X148872Y-50672D01*
X149222Y-48207D01*
X149616Y-45925D01*
X150079Y-43655D01*
X150610Y-41401D01*
X150909Y-40282D01*
X151202Y-39185D01*
X151856Y-37009D01*
X152577Y-34855D01*
X153363Y-32724D01*
X154262Y-30502D01*
X155261Y-28184D01*
X156311Y-25889D01*
X157412Y-23619D01*
X158335Y-21818D01*
X159054Y-20474D01*
X159797Y-19144D01*
X160349Y-18192D01*
X160957Y-17174D01*
X160957Y-17174D01*
X160957Y-17173D01*
X161585Y-16164D01*
X162001Y-15516D01*
X162739Y-14438D01*
X163181Y-13828D01*
X163907Y-12859D01*
Y-12859D01*
X164658Y-11900D01*
X165261Y-11154D01*
X166198Y-10046D01*
X167162Y-8961D01*
X167657Y-8429D01*
X168348Y-7687D01*
X169744Y-6213D01*
X171153Y-4752D01*
X172397Y-3485D01*
X173292Y-2585D01*
Y-2585D01*
X174190Y-1688D01*
X175607Y-293D01*
X177167Y1218D01*
X178739Y2716D01*
X180043Y3938D01*
X181094Y4867D01*
X182171Y5764D01*
X183274Y6630D01*
X183839Y7046D01*
X184368Y7437D01*
X185453Y8184D01*
X186563Y8895D01*
X187695Y9569D01*
X188272Y9887D01*
X189065Y10325D01*
X190664Y11180D01*
X192274Y12015D01*
X193894Y12829D01*
X194709Y13226D01*
X194713Y13228D01*
X195872Y13792D01*
X198211Y14875D01*
X200571Y15914D01*
X202950Y16907D01*
X204153Y17382D01*
X204153Y17382D01*
X204157Y17384D01*
X205313Y17836D01*
X207248Y18532D01*
X209341Y19212D01*
X211380Y19806D01*
X212526Y20104D01*
X212526Y20104D01*
X213676Y20396D01*
X215572Y20818D01*
X217623Y21204D01*
X219684Y21521D01*
X221827Y21779D01*
X224048Y21985D01*
X226274Y22131D01*
X228360Y22211D01*
X229606Y22229D01*
X229618Y22229D01*
X229620Y22229D01*
X229623Y22229D01*
X229623Y22229D01*
X230890Y22237D01*
X231612Y22238D01*
X232939Y22225D01*
X233676Y22210D01*
X234920Y22179D01*
X234928Y22179D01*
X234930D01*
X234932Y22178D01*
X234932Y22179D01*
X236175Y22113D01*
X236244Y22108D01*
X237115Y22020D01*
X237222Y22005D01*
X238418Y21825D01*
X238418Y21825D01*
X239589Y21586D01*
X240319Y21392D01*
X241063Y21160D01*
X241430Y21028D01*
X241882Y20865D01*
X242779Y20518D01*
X243668Y20151D01*
X244548Y19764D01*
X245691Y19230D01*
X247074Y18506D01*
X248424Y17721D01*
X249736Y16876D01*
X251023Y15964D01*
X252283Y14988D01*
X253501Y13960D01*
X254336Y13194D01*
X255242Y12316D01*
X255242Y12316D01*
X255242D01*
X256112Y11419D01*
X256884Y10580D01*
X257912Y9362D01*
X258888Y8103D01*
X259349Y7454D01*
X259802Y6816D01*
X260649Y5502D01*
X261436Y4151D01*
X262162Y2766D01*
X262494Y2059D01*
X262691Y1639D01*
X263065Y791D01*
X263420Y-65D01*
X263755Y-929D01*
X263915Y-1369D01*
X263915Y-1369D01*
X264047Y-1734D01*
X264283Y-2473D01*
X264489Y-3222D01*
X264667Y-3977D01*
X264741Y-4359D01*
X264742Y-4363D01*
X264742Y-4363D01*
X264822Y-4776D01*
X264953Y-5606D01*
X265056Y-6441D01*
X265058Y-6468D01*
X265153Y-7699D01*
X265153Y-7699D01*
X265211Y-8945D01*
X265230Y-9417D01*
X265261Y-10563D01*
X265277Y-11709D01*
X265277Y-12283D01*
X265277Y-12291D01*
X265277Y-12291D01*
X265277Y-12897D01*
X265261Y-14108D01*
X265228Y-15319D01*
X265178Y-16529D01*
X265145Y-17138D01*
X265145Y-17138D01*
X265122Y-17555D01*
X265042Y-18387D01*
X264928Y-19214D01*
X264779Y-20036D01*
X264688Y-20443D01*
X264687Y-20451D01*
X264687Y-20451D01*
X264597Y-20850D01*
X264384Y-21641D01*
X264137Y-22422D01*
X263855Y-23192D01*
X263699Y-23570D01*
X263481Y-24095D01*
X263029Y-25137D01*
X262560Y-26172D01*
X262075Y-27199D01*
X261822Y-27712D01*
X261822Y-27712D01*
X261322Y-28728D01*
X260213Y-30700D01*
X258998Y-32610D01*
X257680Y-34450D01*
X256973Y-35333D01*
X256319Y-36148D01*
X254902Y-37682D01*
X253380Y-39112D01*
X251761Y-40431D01*
X250030Y-41651D01*
X248195Y-42765D01*
X246290Y-43753D01*
X244322Y-44609D01*
X243312Y-44970D01*
X243306Y-44972D01*
X243306Y-44972D01*
X242163Y-45380D01*
X239843Y-46089D01*
X237493Y-46691D01*
X235117Y-47183D01*
X233915Y-47376D01*
X233915Y-47376D01*
X232892Y-47553D01*
X230864Y-47993D01*
X228862Y-48543D01*
X226894Y-49202D01*
X225924Y-49572D01*
X225920Y-49574D01*
X225920Y-49574D01*
X225268Y-49860D01*
X224033Y-50567D01*
X222911Y-51442D01*
X221923Y-52467D01*
X221486Y-53030D01*
X221430Y-53358D01*
X220972Y-54048D01*
X220175Y-55500D01*
X219548Y-57032D01*
X219098Y-58625D01*
X218941Y-59439D01*
X218941Y-59443D01*
X218724Y-60831D01*
X218348Y-63615D01*
X218048Y-66409D01*
X217825Y-69210D01*
X217741Y-70616D01*
X217741Y-70616D01*
X217591Y-73483D01*
X216958Y-79189D01*
X215994Y-84849D01*
X214703Y-90443D01*
X213896Y-93198D01*
X213894Y-93204D01*
X213894D01*
X213126Y-95828D01*
X211237Y-100959D01*
X209007Y-105952D01*
X206444Y-110782D01*
X205002Y-113105D01*
Y-113105D01*
X203538Y-115464D01*
X200303Y-119979D01*
X196777Y-124270D01*
X192974Y-128318D01*
X190943Y-130211D01*
X190919Y-130232D01*
X177598Y-140938D01*
X177598Y-140938D01*
X177126Y-141471D01*
X176349Y-142662D01*
X175819Y-143981D01*
X175555Y-145378D01*
X175568Y-146800D01*
X175858Y-148192D01*
X176412Y-149502D01*
X177210Y-150678D01*
X177692Y-151202D01*
X179889Y-153024D01*
X184074Y-156903D01*
X188039Y-161007D01*
X191771Y-165325D01*
X193515Y-167583D01*
X193518Y-167586D01*
X193518Y-167586D01*
X195282Y-169871D01*
X198560Y-174622D01*
X201578Y-179541D01*
X204329Y-184615D01*
X205568Y-187227D01*
X205568Y-187227D01*
X206771Y-189760D01*
X208893Y-194953D01*
X210725Y-200254D01*
X212263Y-205648D01*
X212882Y-208384D01*
X213365Y-210518D01*
X214091Y-214833D01*
X214577Y-219182D01*
X214821Y-223552D01*
X214821Y-225740D01*
X214821Y-226184D01*
X214811Y-227073D01*
X214790Y-227962D01*
X214760Y-228851D01*
X214740Y-229295D01*
X214740Y-229301D01*
X214740Y-229301D01*
X214696Y-230275D01*
X214542Y-232218D01*
X214324Y-234156D01*
X214040Y-236084D01*
X213722Y-237840D01*
X213339Y-239414D01*
X212863Y-240962D01*
X212296Y-242479D01*
X211968Y-243219D01*
X211965Y-243225D01*
X211965Y-243225D01*
X211644Y-243949D01*
X210914Y-245356D01*
X210098Y-246714D01*
X209438Y-247675D01*
X208713Y-248644D01*
X208713Y-248644D01*
X208712Y-248646D01*
X207951Y-249599D01*
X206959Y-250771D01*
X205718Y-252127D01*
X204426Y-253433D01*
X203102Y-254672D01*
X201741Y-255832D01*
X200328Y-256928D01*
X198866Y-257958D01*
X198112Y-258438D01*
X198108Y-258441D01*
X197402Y-258890D01*
X195943Y-259708D01*
X194440Y-260443D01*
X192897Y-261091D01*
X192109Y-261371D01*
X192103Y-261373D01*
X191308Y-261656D01*
X189688Y-262131D01*
X188044Y-262514D01*
X186381Y-262805D01*
X185543Y-262903D01*
X185538Y-262904D01*
X185538Y-262904D01*
X184634Y-263010D01*
X182817Y-263143D01*
X180996Y-263195D01*
X179174Y-263168D01*
X177416Y-263064D01*
X175724Y-262899D01*
X174039Y-262671D01*
X172704Y-262439D01*
X171532Y-262203D01*
X171532Y-262203D01*
X170373Y-261934D01*
X169277Y-261642D01*
X167802Y-261168D01*
X166352Y-260621D01*
X164944Y-260005D01*
X163579Y-259324D01*
X162252Y-258573D01*
X160965Y-257756D01*
X160343Y-257314D01*
X159680Y-256842D01*
X158392Y-255844D01*
X157148Y-254793D01*
X156276Y-253992D01*
X155370Y-253112D01*
X155370Y-253112D01*
X154494Y-252205D01*
X153832Y-251482D01*
X152872Y-250336D01*
X151964Y-249149D01*
X151252Y-248127D01*
X150710Y-247292D01*
X150198Y-246438D01*
X149714Y-245567D01*
X149488Y-245124D01*
X149411Y-245022D01*
X149411Y-245022D01*
X148236Y-243013D01*
X145302Y-239408D01*
X141696Y-236474D01*
X137570Y-234334D01*
X133094Y-233077D01*
X128457Y-232756D01*
X123851Y-233385D01*
X119469Y-234936D01*
X117420Y-236040D01*
X117216Y-236096D01*
X116063Y-236931D01*
X113688Y-238499D01*
X111248Y-239963D01*
X108746Y-241320D01*
X105863Y-242726D01*
X102583Y-244135D01*
X99240Y-245385D01*
X95841Y-246474D01*
X92286Y-247428D01*
X88587Y-248264D01*
X84857Y-248952D01*
X81103Y-249492D01*
X77334Y-249881D01*
X73556Y-250119D01*
X69772Y-250207D01*
X65988Y-250144D01*
X62328Y-249937D01*
X58800Y-249564D01*
X55295Y-249021D01*
X51820Y-248308D01*
X50103Y-247868D01*
X48242Y-247391D01*
X44571Y-246262D01*
X40957Y-244961D01*
X37409Y-243491D01*
X35671Y-242673D01*
X35671Y-242673D01*
X33864Y-241822D01*
X30324Y-239970D01*
X26864Y-237971D01*
X23492Y-235829D01*
X21852Y-234688D01*
X20239Y-233567D01*
X17112Y-231188D01*
X14089Y-228678D01*
X11175Y-226042D01*
X9776Y-224664D01*
X9772Y-224660D01*
X6040Y-220870D01*
X6040Y-220870D01*
X5407Y-220296D01*
X3989Y-219346D01*
X2412Y-218690D01*
X738Y-218355D01*
X-970Y-218353D01*
X-2645Y-218683D01*
X-4223Y-219333D01*
X-5645Y-220279D01*
X-6279Y-220852D01*
X-6279Y-220851D01*
X-7253Y-221892D01*
X-9257Y-223920D01*
X-11316Y-225891D01*
X-13429Y-227806D01*
X-15648Y-229709D01*
X-17974Y-231597D01*
X-20350Y-233422D01*
X-22775Y-235182D01*
X-24010Y-236029D01*
X-24014Y-236032D01*
X-24014D01*
X-25135Y-236801D01*
X-27432Y-238257D01*
X-29780Y-239629D01*
X-32177Y-240916D01*
X-35552Y-242575D01*
X-39975Y-244442D01*
X-44497Y-246053D01*
X-49104Y-247403D01*
X-51443Y-247945D01*
X-51443Y-247945D01*
X-53805Y-248492D01*
X-58584Y-249323D01*
X-63401Y-249888D01*
X-68241Y-250185D01*
X-70666Y-250199D01*
X-73085Y-250213D01*
X-77906Y-249972D01*
X-82707Y-249463D01*
X-87472Y-248686D01*
X-89829Y-248166D01*
X-89834Y-248165D01*
X-89834Y-248165D01*
X-92146Y-247654D01*
X-96702Y-246362D01*
X-101174Y-244802D01*
X-105546Y-242981D01*
X-108995Y-241300D01*
X-111575Y-239896D01*
X-114089Y-238378D01*
X-116533Y-236749D01*
X-117718Y-235880D01*
X-119680Y-234821D01*
X-123868Y-233301D01*
X-128271Y-232627D01*
X-132721Y-232823D01*
X-137048Y-233883D01*
X-141085Y-235765D01*
X-144678Y-238399D01*
X-147689Y-241682D01*
X-148939Y-243528D01*
X-149227Y-244187D01*
X-149867Y-245474D01*
X-150570Y-246728D01*
X-151333Y-247946D01*
X-152171Y-249149D01*
X-153080Y-250336D01*
X-154039Y-251482D01*
X-155049Y-252584D01*
X-155577Y-253112D01*
X-155580Y-253116D01*
X-155580Y-253116D01*
X-156766Y-254301D01*
X-159353Y-256434D01*
X-162132Y-258310D01*
X-165078Y-259912D01*
X-166620Y-260569D01*
X-166624Y-260571D01*
X-168166Y-261227D01*
X-171360Y-262239D01*
X-174636Y-262941D01*
X-177964Y-263326D01*
X-179639Y-263359D01*
X-181311Y-263392D01*
X-184644Y-263137D01*
X-187937Y-262563D01*
X-191160Y-261676D01*
X-192722Y-261080D01*
X-192726Y-261079D01*
X-194284Y-260484D01*
X-197271Y-258999D01*
X-200099Y-257232D01*
X-202744Y-255200D01*
X-203962Y-254061D01*
X-203962Y-254061D01*
X-204872Y-253192D01*
X-205924Y-252128D01*
X-207165Y-250773D01*
X-208159Y-249599D01*
X-208915Y-248651D01*
X-208917Y-248648D01*
X-208920Y-248644D01*
X-209646Y-247675D01*
X-210306Y-246714D01*
X-211121Y-245356D01*
X-211678Y-244283D01*
X-212175Y-243219D01*
D01*
X-212630Y-242138D01*
X-213070Y-240962D01*
X-213546Y-239414D01*
X-213838Y-238216D01*
X-214074Y-237043D01*
X-214074Y-237043D01*
X-214280Y-235859D01*
X-214531Y-234155D01*
X-214750Y-232217D01*
X-214882Y-230538D01*
X-214947Y-229302D01*
X-214947Y-229295D01*
X-214947Y-229295D01*
X-215067Y-226664D01*
X-214952Y-221400D01*
X-214486Y-216154D01*
X-213670Y-210952D01*
X-213351Y-209541D01*
X-213088Y-208379D01*
X-213088Y-208379D01*
X-213088Y-208379D01*
X-212469Y-205644D01*
X-210931Y-200250D01*
X-209098Y-194948D01*
X-206976Y-189756D01*
X-204536Y-184615D01*
X-201785Y-179541D01*
X-198767Y-174622D01*
X-195489Y-169871D01*
X-194464Y-168544D01*
X-193721Y-167582D01*
Y-167582D01*
X-191978Y-165323D01*
X-188246Y-161007D01*
X-184281Y-156903D01*
X-180096Y-153024D01*
X-177900Y-151203D01*
X-177413Y-150672D01*
X-176607Y-149480D01*
X-176053Y-148153D01*
X-175770Y-146742D01*
X-175734Y-146023D01*
X-175768Y-145320D01*
X-176038Y-143941D01*
X-176568Y-142640D01*
X-177338Y-141464D01*
X-177805Y-140938D01*
X-191129Y-130230D01*
X-191150Y-130211D01*
X-191150Y-130211D01*
X-193181Y-128318D01*
X-196984Y-124270D01*
X-200510Y-119979D01*
X-203745Y-115464D01*
X-206651Y-110782D01*
X-209214Y-105951D01*
X-211444Y-100959D01*
X-213333Y-95827D01*
X-214102Y-93204D01*
X-214909Y-90448D01*
X-216201Y-84851D01*
X-217165Y-79189D01*
X-217799Y-73480D01*
X-217949Y-70612D01*
X-217949D01*
X-218032Y-69210D01*
X-218256Y-66409D01*
X-218555Y-63615D01*
X-218932Y-60831D01*
X-219149Y-59439D01*
X-219149Y-59439D01*
X-219149Y-59439D01*
X-219305Y-58625D01*
X-219404Y-58274D01*
X-219755Y-57032D01*
X-220382Y-55500D01*
X-221162Y-54079D01*
X-221678Y-53060D01*
X-221694Y-53030D01*
X-221694Y-53030D01*
X-221694Y-53030D01*
X-221694Y-53029D01*
X-222130Y-52467D01*
X-222493Y-52091D01*
X-223118Y-51442D01*
X-224240Y-50567D01*
X-224995Y-50135D01*
X-225475Y-49860D01*
X-225967Y-49644D01*
X-226127Y-49574D01*
X-226129Y-49573D01*
X-226131Y-49572D01*
X-226131Y-49572D01*
X-227101Y-49203D01*
X-229067Y-48544D01*
X-231067Y-47994D01*
X-233094Y-47554D01*
X-234116Y-47377D01*
X-235176Y-47207D01*
X-237270Y-46794D01*
X-239347Y-46304D01*
X-241405Y-45738D01*
X-243304Y-45141D01*
X-245031Y-44486D01*
X-246717Y-43734D01*
X-248358Y-42887D01*
X-249153Y-42417D01*
X-249158Y-42414D01*
X-249919Y-41964D01*
X-251384Y-40972D01*
X-252787Y-39894D01*
X-253854Y-38965D01*
X-254752Y-38112D01*
X-254752Y-38112D01*
X-254752Y-38112D01*
X-255645Y-37212D01*
X-256729Y-36039D01*
X-257957Y-34576D01*
X-258967Y-33249D01*
X-259655Y-32270D01*
X-259658Y-32265D01*
X-259658Y-32265D01*
X-260736Y-30699D01*
X-262534Y-27347D01*
X-263952Y-23818D01*
X-264974Y-20155D01*
X-265086Y-19463D01*
X-265280Y-18273D01*
X-265280D01*
X-265588Y-16387D01*
X-265790Y-12571D01*
X-265579Y-8755D01*
X-264955Y-4984D01*
X-264440Y-3139D01*
X-264440Y-3139D01*
X-263924Y-1291D01*
X-262499Y2274D01*
X-260700Y5665D01*
X-258547Y8843D01*
X-257305Y10307D01*
X-257302Y10310D01*
X-257302Y10310D01*
Y10310D01*
X-256059Y11776D01*
X-253273Y14423D01*
X-250219Y16756D01*
X-246932Y18747D01*
X-245191Y19561D01*
X-244755Y19764D01*
X-243875Y20151D01*
X-242987Y20518D01*
X-242736Y20615D01*
X-241637Y21027D01*
Y21028D01*
X-240519Y21394D01*
X-239769Y21593D01*
X-239006Y21760D01*
X-238190Y21901D01*
X-237322Y22020D01*
X-236451Y22108D01*
X-235577Y22165D01*
X-234476Y22199D01*
X-233149Y22225D01*
X-231821Y22238D01*
X-230494Y22236D01*
X-226572Y22192D01*
X-220085Y21559D01*
X-213676Y20372D01*
X-207394Y18638D01*
X-204339Y17504D01*
X-201183Y16333D01*
X-195073Y13507D01*
X-189201Y10215D01*
X-183603Y6475D01*
X-180958Y4394D01*
X-178283Y2287D01*
X-173271Y-2323D01*
X-168627Y-7305D01*
X-164380Y-12628D01*
X-162467Y-15445D01*
X-160580Y-18224D01*
X-157263Y-24065D01*
X-154425Y-30153D01*
X-152083Y-36449D01*
X-151168Y-39680D01*
X-151168Y-39680D01*
X-151168D01*
X-150860Y-40823D01*
X-150774Y-41154D01*
X-150540Y-42143D01*
X-150329Y-43138D01*
X-150112Y-44279D01*
X-149882Y-45566D01*
X-149665Y-46854D01*
X-149461Y-48145D01*
X-149366Y-48792D01*
X-149365Y-48798D01*
X-149365Y-48798D01*
X-149261Y-49502D01*
X-149068Y-50911D01*
X-148889Y-52323D01*
X-148724Y-53736D01*
X-148649Y-54443D01*
X-148649Y-54693D01*
X-148649Y-54693D01*
X-148576Y-55380D01*
X-148444Y-56754D01*
X-148328Y-58130D01*
X-148227Y-59507D01*
X-148184Y-60196D01*
X-148183Y-60205D01*
X-148107Y-61359D01*
X-147929Y-63666D01*
X-147719Y-65971D01*
X-147475Y-68272D01*
X-147341Y-69421D01*
X-147340Y-69427D01*
X-147254Y-70051D01*
X-147012Y-71286D01*
X-146680Y-72501D01*
X-146260Y-73687D01*
X-146018Y-74268D01*
X-146016Y-74272D01*
X-146016Y-74272D01*
X-145807Y-74713D01*
X-145315Y-75554D01*
X-144729Y-76333D01*
X-144058Y-77040D01*
X-143693Y-77363D01*
X-143690Y-77366D01*
Y-77366D01*
X-143208Y-77755D01*
X-142727Y-78109D01*
X-142211Y-78489D01*
X-141171Y-79160D01*
X-140575Y-79495D01*
X-140091Y-79767D01*
X-139966Y-79830D01*
X-139538Y-80045D01*
X-139534Y-80047D01*
Y-80047D01*
X-139096Y-80255D01*
X-138211Y-80653D01*
X-137315Y-81025D01*
X-136409Y-81371D01*
X-135953Y-81534D01*
X-135947Y-81536D01*
X-135637Y-81637D01*
X-135007Y-81801D01*
X-134614Y-81870D01*
X-134366Y-81913D01*
X-134365Y-81913D01*
X-133717Y-81972D01*
X-133657Y-81974D01*
X-133392Y-81981D01*
X-133387D01*
X-133059Y-81978D01*
X-132405Y-81930D01*
X-132404Y-81930D01*
X-132155Y-81891D01*
X-131755Y-81829D01*
X-131754Y-81829D01*
X-131116Y-81677D01*
X-131000Y-81641D01*
X-130802Y-81581D01*
X-130799Y-81580D01*
X-130796Y-81579D01*
X-130329Y-81423D01*
X-129401Y-81090D01*
X-128482Y-80733D01*
X-127573Y-80351D01*
X-127504Y-80320D01*
X-127123Y-80150D01*
X-127117Y-80147D01*
X-127117Y-80147D01*
X-127117Y-80147D01*
X-126846Y-80021D01*
X-126312Y-79755D01*
X-126310Y-79754D01*
X-126065Y-79621D01*
X-125784Y-79468D01*
X-125781Y-79467D01*
X-125269Y-79163D01*
X-125177Y-79105D01*
X-125015Y-79004D01*
X-125012Y-79001D01*
X-125012Y-79001D01*
X-125011Y-79001D01*
X-124791Y-78856D01*
X-124363Y-78550D01*
X-124361Y-78549D01*
X-124160Y-78389D01*
X-123947Y-78221D01*
X-123946Y-78219D01*
X-123550Y-77872D01*
X-123503Y-77828D01*
X-123358Y-77691D01*
X-123355Y-77688D01*
X-123355Y-77688D01*
X-123164Y-77498D01*
X-122798Y-77107D01*
X-122797Y-77105D01*
X-122615Y-76891D01*
X-122449Y-76695D01*
X-122448Y-76693D01*
X-122122Y-76268D01*
X-121966Y-76048D01*
X-121964Y-76045D01*
X-121964Y-76045D01*
X-121963Y-76044D01*
X-121790Y-75789D01*
X-121457Y-75271D01*
X-121455Y-75269D01*
X-121320Y-75042D01*
X-121138Y-74738D01*
X-121135Y-74733D01*
X-120839Y-74197D01*
X-120769Y-74062D01*
X-120696Y-73922D01*
X-120693Y-73917D01*
X-120692Y-73915D01*
X-120524Y-73578D01*
X-120205Y-72896D01*
X-120203Y-72891D01*
X-120189Y-72857D01*
X-119918Y-72221D01*
X-119906Y-72193D01*
X-119905Y-72190D01*
X-119634Y-71486D01*
X-119505Y-71122D01*
X-119505Y-71122D01*
X-119404Y-70817D01*
X-119228Y-70200D01*
X-119228Y-70198D01*
X-119179Y-69987D01*
X-119084Y-69571D01*
X-118975Y-68937D01*
X-118933Y-68618D01*
X-118895Y-68269D01*
X-118834Y-67570D01*
X-118793Y-66869D01*
X-118781Y-66458D01*
X-118772Y-66168D01*
Y-66166D01*
X-118770Y-65817D01*
X-118776Y-65282D01*
X-118776Y-65282D01*
X-118776Y-65270D01*
X-118794Y-64528D01*
X-118806Y-64107D01*
X-118837Y-63021D01*
X-118891Y-61514D01*
X-118949Y-60178D01*
X-118991Y-59026D01*
X-118992Y-59005D01*
X-118992D01*
X-118992Y-59004D01*
X-119062Y-57781D01*
X-119258Y-55339D01*
X-119526Y-52904D01*
X-119868Y-50477D01*
X-120066Y-49268D01*
X-120067Y-49262D01*
X-120067Y-49262D01*
X-120073Y-49233D01*
X-120272Y-48133D01*
X-120278Y-48101D01*
X-120742Y-45887D01*
X-121294Y-43659D01*
X-121921Y-41477D01*
X-121927Y-41454D01*
X-122276Y-40354D01*
X-122276Y-40354D01*
X-122658Y-39219D01*
X-123481Y-36969D01*
X-124380Y-34750D01*
X-125356Y-32563D01*
X-125874Y-31478D01*
X-125874Y-31478D01*
X-126486Y-30243D01*
X-127752Y-27793D01*
X-129073Y-25373D01*
X-130450Y-22983D01*
X-131158Y-21800D01*
X-131160Y-21796D01*
X-131160Y-21796D01*
X-132620Y-19391D01*
X-135416Y-14507D01*
X-138087Y-9553D01*
X-140630Y-4533D01*
X-142919Y285D01*
X-144919Y4911D01*
X-146753Y9606D01*
X-148419Y14363D01*
X-149900Y19129D01*
X-151194Y23899D01*
X-152312Y28712D01*
X-153255Y33563D01*
X-153638Y36004D01*
X-154051Y38637D01*
X-154724Y43926D01*
X-155243Y49231D01*
X-155609Y54550D01*
X-155714Y57213D01*
X-155875Y61255D01*
X-155791Y69344D01*
X-155303Y77418D01*
X-154412Y85458D01*
X-153766Y89451D01*
X-153133Y93366D01*
X-151453Y101120D01*
X-149364Y108773D01*
X-146873Y116305D01*
X-145430Y119999D01*
X-145429D01*
X-145430Y119999D01*
X-143985Y123697D01*
X-140708Y130928D01*
X-137053Y137975D01*
X-133031Y144819D01*
X-131498Y147137D01*
X-130841Y148130D01*
X-130838Y148134D01*
X-130838Y148134D01*
X-130838Y148134D01*
X-128602Y151515D01*
X-123798Y158048D01*
X-118675Y164333D01*
X-113246Y170356D01*
X-110386Y173229D01*
X-110386Y173229D01*
Y173229D01*
X-108205Y175419D01*
X-103676Y179628D01*
X-98988Y183658D01*
X-94147Y187503D01*
X-92624Y188620D01*
X-91654Y189331D01*
X-91649Y189334D01*
Y189334D01*
X-91649Y189334D01*
X-89191Y191136D01*
X-84132Y194539D01*
X-78939Y197734D01*
X-73621Y200716D01*
X-71947Y201568D01*
X-70898Y202102D01*
Y202102D01*
X-68156Y203496D01*
X-62567Y206064D01*
X-56879Y208406D01*
X-51102Y210518D01*
X-49372Y211073D01*
X-48174Y211458D01*
X-48168Y211460D01*
X-48168Y211460D01*
X-48168Y211460D01*
X-45144Y212430D01*
X-39030Y214149D01*
X-32858Y215645D01*
X-26635Y216914D01*
X-22006Y217685D01*
X-18996Y218078D01*
X-15974Y218364D01*
X-12943Y218544D01*
X-11422Y218581D01*
X-11422Y218581D01*
X-9391Y218630D01*
X-5328Y218668D01*
X-1265Y218645D01*
D02*
G37*
%LPC*%
G36*
X67481Y150250D02*
X64519D01*
X61658Y149483D01*
X59092Y148002D01*
X56998Y145908D01*
X55517Y143342D01*
X54750Y140481D01*
Y137519D01*
X55517Y134658D01*
X56998Y132092D01*
X59092Y129998D01*
X61658Y128517D01*
X64519Y127750D01*
X67481D01*
X70342Y128517D01*
X72908Y129998D01*
X75002Y132092D01*
X76483Y134658D01*
X77250Y137519D01*
Y140481D01*
X76483Y143342D01*
X75002Y145908D01*
X72908Y148002D01*
X70342Y149483D01*
X67481Y150250D01*
D02*
G37*
G36*
X-94519D02*
X-97481D01*
X-100342Y149483D01*
X-102908Y148002D01*
X-105002Y145908D01*
X-106483Y143342D01*
X-107250Y140481D01*
Y137519D01*
X-106483Y134658D01*
X-105002Y132092D01*
X-102908Y129998D01*
X-100342Y128517D01*
X-97481Y127750D01*
X-94519D01*
X-91658Y128517D01*
X-89092Y129998D01*
X-86998Y132092D01*
X-85517Y134658D01*
X-84750Y137519D01*
Y140481D01*
X-85517Y143342D01*
X-86998Y145908D01*
X-89092Y148002D01*
X-91658Y149483D01*
X-94519Y150250D01*
D02*
G37*
G36*
X-73618Y105500D02*
X-73730D01*
Y96270D01*
X-64500D01*
Y96382D01*
X-65216Y99053D01*
X-66598Y101447D01*
X-68553Y103402D01*
X-70947Y104784D01*
X-73618Y105500D01*
D02*
G37*
G36*
X-76270D02*
X-76382D01*
X-79053Y104784D01*
X-81447Y103402D01*
X-83402Y101447D01*
X-84784Y99053D01*
X-85500Y96382D01*
Y96270D01*
X-76270D01*
Y105500D01*
D02*
G37*
G36*
X126284Y104750D02*
X123716D01*
X121237Y104086D01*
X119013Y102802D01*
X117198Y100987D01*
X115914Y98763D01*
X115250Y96284D01*
Y93716D01*
X115914Y91237D01*
X117198Y89013D01*
X119013Y87198D01*
X121237Y85914D01*
X123716Y85250D01*
X126284D01*
X128763Y85914D01*
X130987Y87198D01*
X132802Y89013D01*
X134086Y91237D01*
X134750Y93716D01*
Y96284D01*
X134086Y98763D01*
X132802Y100987D01*
X130987Y102802D01*
X128763Y104086D01*
X126284Y104750D01*
D02*
G37*
G36*
X-64500Y93730D02*
X-73730D01*
Y84500D01*
X-73618D01*
X-70947Y85216D01*
X-68553Y86598D01*
X-66598Y88553D01*
X-65216Y90947D01*
X-64500Y93618D01*
Y93730D01*
D02*
G37*
G36*
X-76270D02*
X-85500D01*
Y93618D01*
X-84784Y90947D01*
X-83402Y88553D01*
X-81447Y86598D01*
X-79053Y85216D01*
X-76382Y84500D01*
X-76270D01*
Y93730D01*
D02*
G37*
G36*
X116000Y56343D02*
X112226Y55971D01*
X108598Y54871D01*
X105253Y53083D01*
X102322Y50678D01*
X99917Y47747D01*
X98129Y44402D01*
X97029Y40774D01*
X96657Y37000D01*
X97029Y33226D01*
X98129Y29598D01*
X99917Y26253D01*
X102322Y23322D01*
X105253Y20917D01*
X108598Y19129D01*
X112226Y18029D01*
X116000Y17657D01*
X119774Y18029D01*
X123402Y19129D01*
X126747Y20917D01*
X129678Y23322D01*
X132083Y26253D01*
X133871Y29598D01*
X134972Y33226D01*
X135343Y37000D01*
X134972Y40774D01*
X133871Y44402D01*
X132083Y47747D01*
X129678Y50678D01*
X126747Y53083D01*
X123402Y54871D01*
X119774Y55971D01*
X116000Y56343D01*
D02*
G37*
G36*
X-13519Y10250D02*
X-16481D01*
X-19342Y9483D01*
X-21908Y8002D01*
X-24002Y5908D01*
X-25483Y3342D01*
X-26250Y481D01*
Y-2481D01*
X-25483Y-5342D01*
X-24002Y-7908D01*
X-21908Y-10002D01*
X-19342Y-11483D01*
X-16481Y-12250D01*
X-13519D01*
X-10658Y-11483D01*
X-8092Y-10002D01*
X-5998Y-7908D01*
X-4517Y-5342D01*
X-3750Y-2481D01*
Y481D01*
X-4517Y3342D01*
X-5998Y5908D01*
X-8092Y8002D01*
X-10658Y9483D01*
X-13519Y10250D01*
D02*
G37*
G36*
X-218078Y12500D02*
X-219922D01*
X-221702Y12023D01*
X-223298Y11101D01*
X-224601Y9798D01*
X-225523Y8202D01*
X-226000Y6422D01*
Y4579D01*
X-225523Y2798D01*
X-224601Y1202D01*
X-223298Y-101D01*
X-223058Y-240D01*
Y-1510D01*
X-223298Y-1649D01*
X-224601Y-2952D01*
X-225523Y-4548D01*
X-226000Y-6328D01*
Y-8171D01*
X-225523Y-9952D01*
X-224601Y-11548D01*
X-223637Y-12512D01*
X-223640Y-13980D01*
X-223759Y-14049D01*
X-225201Y-15491D01*
X-226222Y-17259D01*
X-226683Y-18980D01*
X-219000D01*
X-211317D01*
X-211778Y-17259D01*
X-212799Y-15491D01*
X-214241Y-14049D01*
X-214360Y-13980D01*
X-214363Y-12512D01*
X-213399Y-11548D01*
X-212477Y-9952D01*
X-212000Y-8171D01*
Y-6328D01*
X-212477Y-4548D01*
X-213399Y-2952D01*
X-214702Y-1649D01*
X-214942Y-1510D01*
Y-240D01*
X-214702Y-101D01*
X-213399Y1202D01*
X-212477Y2798D01*
X-212000Y4579D01*
Y6422D01*
X-212477Y8202D01*
X-213399Y9798D01*
X-214702Y11101D01*
X-216298Y12023D01*
X-218078Y12500D01*
D02*
G37*
G36*
X186284Y-5250D02*
X183716D01*
X181237Y-5914D01*
X179013Y-7198D01*
X177198Y-9013D01*
X175914Y-11237D01*
X175250Y-13716D01*
Y-16284D01*
X175914Y-18763D01*
X177198Y-20987D01*
X177537Y-21326D01*
X176758Y-22342D01*
X175548Y-21644D01*
X173704Y-21150D01*
X171796D01*
X169952Y-21644D01*
X168298Y-22599D01*
X166949Y-23948D01*
X165994Y-25602D01*
X165500Y-27445D01*
Y-29355D01*
X165994Y-31198D01*
X166949Y-32852D01*
X168298Y-34201D01*
X169952Y-35156D01*
X171796Y-35650D01*
X173704D01*
X175548Y-35156D01*
X177202Y-34201D01*
X178551Y-32852D01*
X179506Y-31198D01*
X180000Y-29355D01*
Y-27445D01*
X179506Y-25602D01*
X178551Y-23948D01*
X179451Y-23055D01*
X181237Y-24086D01*
X183716Y-24750D01*
X186284D01*
X188763Y-24086D01*
X190987Y-22802D01*
X192802Y-20987D01*
X194086Y-18763D01*
X194750Y-16284D01*
Y-13716D01*
X194086Y-11237D01*
X192802Y-9013D01*
X190987Y-7198D01*
X188763Y-5914D01*
X186284Y-5250D01*
D02*
G37*
G36*
X-79078Y-4500D02*
X-80922D01*
X-82702Y-4977D01*
X-84298Y-5899D01*
X-85601Y-7202D01*
X-86523Y-8798D01*
X-87000Y-10578D01*
Y-12422D01*
X-86523Y-14202D01*
X-85601Y-15798D01*
X-84796Y-16603D01*
X-84762Y-17928D01*
X-84919Y-18209D01*
X-86201Y-19491D01*
X-87222Y-21259D01*
X-87683Y-22980D01*
X-80000D01*
X-72317D01*
X-72778Y-21259D01*
X-73798Y-19491D01*
X-75081Y-18209D01*
X-75238Y-17928D01*
X-75204Y-16603D01*
X-74399Y-15798D01*
X-73477Y-14202D01*
X-73000Y-12422D01*
Y-10578D01*
X-73477Y-8798D01*
X-74399Y-7202D01*
X-75702Y-5899D01*
X-77298Y-4977D01*
X-79078Y-4500D01*
D02*
G37*
G36*
X251284Y-5250D02*
X248716D01*
X246237Y-5914D01*
X244013Y-7198D01*
X242198Y-9013D01*
X240914Y-11237D01*
X240250Y-13716D01*
Y-16284D01*
X240914Y-18763D01*
X242198Y-20987D01*
X244013Y-22802D01*
X246237Y-24086D01*
X248716Y-24750D01*
X251284D01*
X253763Y-24086D01*
X255987Y-22802D01*
X257802Y-20987D01*
X259086Y-18763D01*
X259750Y-16284D01*
Y-13716D01*
X259086Y-11237D01*
X257802Y-9013D01*
X255987Y-7198D01*
X253763Y-5914D01*
X251284Y-5250D01*
D02*
G37*
G36*
X-175250Y-30000D02*
X-189750D01*
Y-44500D01*
X-175250D01*
Y-30000D01*
D02*
G37*
G36*
X207750Y-32000D02*
X193250D01*
Y-46500D01*
X207750D01*
Y-32000D01*
D02*
G37*
G36*
X87683Y-25520D02*
X80000D01*
X72317D01*
X72778Y-27241D01*
X73798Y-29009D01*
X75241Y-30452D01*
X75360Y-30520D01*
X75363Y-31988D01*
X74399Y-32952D01*
X73477Y-34548D01*
X73000Y-36328D01*
Y-38172D01*
X73477Y-39952D01*
X74399Y-41548D01*
X75702Y-42851D01*
X75942Y-42990D01*
Y-44260D01*
X75702Y-44399D01*
X74399Y-45702D01*
X73477Y-47298D01*
X73000Y-49078D01*
Y-50922D01*
X73477Y-52702D01*
X74399Y-54298D01*
X75702Y-55601D01*
X77298Y-56523D01*
X79078Y-57000D01*
X80922D01*
X82702Y-56523D01*
X84298Y-55601D01*
X85601Y-54298D01*
X86523Y-52702D01*
X87000Y-50922D01*
Y-49078D01*
X86523Y-47298D01*
X85601Y-45702D01*
X84298Y-44399D01*
X84058Y-44260D01*
Y-42990D01*
X84298Y-42851D01*
X85601Y-41548D01*
X86523Y-39952D01*
X87000Y-38172D01*
Y-36328D01*
X86523Y-34548D01*
X85601Y-32952D01*
X84637Y-31988D01*
X84640Y-30520D01*
X84759Y-30452D01*
X86201Y-29009D01*
X87222Y-27241D01*
X87683Y-25520D01*
D02*
G37*
G36*
X80922Y-4500D02*
X79078D01*
X77298Y-4977D01*
X75702Y-5899D01*
X74399Y-7202D01*
X73477Y-8798D01*
X73000Y-10578D01*
Y-12422D01*
X73477Y-14202D01*
X74399Y-15798D01*
X75204Y-16603D01*
X75238Y-17928D01*
X75081Y-18209D01*
X73798Y-19491D01*
X72778Y-21259D01*
X72317Y-22980D01*
X80000D01*
X87683D01*
X87468Y-22176D01*
X88629Y-21604D01*
X89949Y-23324D01*
X91083Y-26062D01*
X91462Y-28942D01*
X91451Y-29000D01*
Y-44479D01*
X91473Y-44587D01*
X91044Y-48943D01*
X89741Y-53236D01*
X87627Y-57192D01*
X84850Y-60576D01*
X84758Y-60637D01*
X47147Y-98248D01*
X47147Y-98248D01*
X47116Y-98216D01*
X44691Y-101170D01*
X42890Y-104540D01*
X41781Y-108197D01*
X41406Y-112000D01*
X41451D01*
Y-117929D01*
X41479Y-118070D01*
X41001Y-121700D01*
X39546Y-125213D01*
X37317Y-128118D01*
X37198Y-128198D01*
X36419Y-128976D01*
X35461Y-129728D01*
X34216Y-130683D01*
X33597Y-130940D01*
X33158Y-130647D01*
X31500Y-130317D01*
X23000D01*
X21342Y-130647D01*
X19936Y-131586D01*
X18997Y-132992D01*
X18667Y-134650D01*
X18997Y-136308D01*
X19936Y-137714D01*
X21342Y-138653D01*
X23000Y-138983D01*
X31500D01*
X33158Y-138653D01*
X34564Y-137714D01*
X35503Y-136308D01*
X35636Y-135640D01*
X37650Y-134564D01*
X39923Y-132699D01*
X40043Y-132600D01*
X40834Y-131836D01*
X40835Y-131835D01*
X40920Y-131731D01*
X43280Y-128855D01*
X45098Y-125455D01*
X46217Y-121765D01*
X46595Y-117929D01*
X46549D01*
Y-112000D01*
X46522Y-111863D01*
X46994Y-108274D01*
X48432Y-104802D01*
X50636Y-101930D01*
X50752Y-101853D01*
X88363Y-64242D01*
X88389Y-64268D01*
X91241Y-60929D01*
X93536Y-57185D01*
X95217Y-53127D01*
X96242Y-48857D01*
X96586Y-44479D01*
X96549D01*
Y-29000D01*
X96579D01*
X96263Y-25789D01*
X95326Y-22701D01*
X93805Y-19855D01*
X91758Y-17360D01*
X91758Y-17360D01*
X90838Y-16484D01*
X86953Y-12598D01*
X87000Y-12422D01*
Y-10578D01*
X86523Y-8798D01*
X85601Y-7202D01*
X84298Y-5899D01*
X82702Y-4977D01*
X80922Y-4500D01*
D02*
G37*
G36*
X-53730Y-62058D02*
Y-68730D01*
X-47058D01*
X-47545Y-66912D01*
X-48598Y-65088D01*
X-50088Y-63598D01*
X-51912Y-62545D01*
X-53730Y-62058D01*
D02*
G37*
G36*
X-56270D02*
X-58088Y-62545D01*
X-59912Y-63598D01*
X-61402Y-65088D01*
X-62455Y-66912D01*
X-62942Y-68730D01*
X-56270D01*
Y-62058D01*
D02*
G37*
G36*
X56270Y-62058D02*
Y-68730D01*
X62942D01*
X62455Y-66912D01*
X61402Y-65088D01*
X59912Y-63598D01*
X58088Y-62545D01*
X56270Y-62058D01*
D02*
G37*
G36*
X53730Y-62058D02*
X51912Y-62545D01*
X50088Y-63598D01*
X48598Y-65088D01*
X47545Y-66912D01*
X47058Y-68730D01*
X53730D01*
Y-62058D01*
D02*
G37*
G36*
X112250Y-62750D02*
X97750D01*
Y-77250D01*
X112250D01*
Y-62750D01*
D02*
G37*
G36*
X-97750D02*
X-112250D01*
Y-77250D01*
X-97750D01*
Y-62750D01*
D02*
G37*
G36*
X53730Y-71270D02*
X47058D01*
X47545Y-73088D01*
X48598Y-74912D01*
X50088Y-76402D01*
X51912Y-77455D01*
X53730Y-77942D01*
Y-71270D01*
D02*
G37*
G36*
X-47058Y-71270D02*
X-53730D01*
Y-77942D01*
X-51912Y-77455D01*
X-50088Y-76402D01*
X-48598Y-74912D01*
X-47545Y-73088D01*
X-47058Y-71270D01*
D02*
G37*
G36*
X-56270D02*
X-62942D01*
X-62455Y-73088D01*
X-61402Y-74912D01*
X-59912Y-76402D01*
X-58088Y-77455D01*
X-56270Y-77942D01*
Y-71270D01*
D02*
G37*
G36*
X62942Y-71270D02*
X56270D01*
Y-77942D01*
X58088Y-77455D01*
X59912Y-76402D01*
X61402Y-74912D01*
X62455Y-73088D01*
X62942Y-71270D01*
D02*
G37*
G36*
X-211317Y-21520D02*
X-219000D01*
X-226683D01*
X-226222Y-23241D01*
X-225201Y-25009D01*
X-223919Y-26291D01*
X-223762Y-26572D01*
X-223796Y-27896D01*
X-224601Y-28702D01*
X-225523Y-30298D01*
X-226000Y-32078D01*
Y-33921D01*
X-225523Y-35702D01*
X-224601Y-37298D01*
X-223298Y-38601D01*
X-221702Y-39523D01*
X-219922Y-40000D01*
X-218078D01*
X-216298Y-39523D01*
X-216070Y-39391D01*
X-214893Y-39661D01*
X-214789Y-39704D01*
X-213750Y-40167D01*
X-212212Y-41347D01*
X-212050Y-41558D01*
X-211397Y-42652D01*
X-210654Y-43674D01*
X-209455Y-46570D01*
X-209291Y-47809D01*
X-209291D01*
X-209102Y-49059D01*
X-208350Y-54124D01*
X-208183Y-57527D01*
X-208124Y-58736D01*
X-207936Y-59989D01*
X-207771Y-63348D01*
X-206317Y-73149D01*
X-204144Y-81827D01*
X-204144Y-81827D01*
X-203938Y-82590D01*
X-203778Y-83039D01*
X-201192Y-90266D01*
X-197706Y-97635D01*
X-195602Y-101145D01*
X-195293Y-101661D01*
X-195181Y-101848D01*
X-195174Y-101883D01*
X-195173Y-101884D01*
X-194952Y-102231D01*
X-194621Y-102710D01*
X-193785Y-103546D01*
X-175968Y-121363D01*
X-175994Y-121389D01*
X-172655Y-124241D01*
X-168911Y-126536D01*
X-164853Y-128216D01*
X-160583Y-129242D01*
X-156205Y-129586D01*
Y-129549D01*
X-145636D01*
Y-129586D01*
X-141258Y-129242D01*
X-136988Y-128216D01*
X-132930Y-126536D01*
X-129186Y-124241D01*
X-125847Y-121389D01*
X-125873Y-121363D01*
X-85983Y-81473D01*
X-85637Y-81242D01*
X-85611Y-81268D01*
X-84630Y-80120D01*
X-84260Y-79749D01*
X-84065Y-79459D01*
X-82759Y-77929D01*
X-80464Y-74184D01*
X-78783Y-70127D01*
X-77758Y-65857D01*
X-77414Y-61479D01*
X-77451D01*
Y-56564D01*
X-77298Y-56523D01*
X-75702Y-55601D01*
X-74399Y-54298D01*
X-73477Y-52702D01*
X-73000Y-50922D01*
Y-49078D01*
X-73477Y-47298D01*
X-74399Y-45702D01*
X-75702Y-44399D01*
X-75942Y-44260D01*
Y-42990D01*
X-75702Y-42851D01*
X-74399Y-41548D01*
X-73477Y-39952D01*
X-73000Y-38172D01*
Y-36328D01*
X-73477Y-34548D01*
X-74399Y-32952D01*
X-75363Y-31988D01*
X-75360Y-30520D01*
X-75241Y-30452D01*
X-73798Y-29009D01*
X-72778Y-27241D01*
X-72317Y-25520D01*
X-80000D01*
X-87683D01*
X-87222Y-27241D01*
X-86201Y-29009D01*
X-84759Y-30452D01*
X-84640Y-30520D01*
X-84637Y-31988D01*
X-85601Y-32952D01*
X-86523Y-34548D01*
X-87000Y-36328D01*
Y-38172D01*
X-86523Y-39952D01*
X-85601Y-41548D01*
X-84298Y-42851D01*
X-84058Y-42990D01*
Y-44260D01*
X-84298Y-44399D01*
X-85601Y-45702D01*
X-86523Y-47298D01*
X-87000Y-49078D01*
Y-50922D01*
X-86523Y-52702D01*
X-85601Y-54298D01*
X-84298Y-55601D01*
X-82702Y-56523D01*
X-82549Y-56564D01*
Y-61479D01*
X-82527Y-61587D01*
X-82956Y-65943D01*
X-84259Y-70236D01*
X-86373Y-74192D01*
X-88486Y-76766D01*
X-129478Y-117758D01*
X-129539Y-117850D01*
X-132923Y-120627D01*
X-136879Y-122741D01*
X-141172Y-124044D01*
X-145528Y-124473D01*
X-145636Y-124451D01*
X-156205D01*
X-156313Y-124473D01*
X-160669Y-124044D01*
X-164962Y-122741D01*
X-168918Y-120627D01*
X-172302Y-117850D01*
X-172363Y-117758D01*
X-190825Y-99296D01*
X-194690Y-92304D01*
X-198035Y-84227D01*
X-199148Y-80363D01*
X-199148Y-80363D01*
X-199528Y-79151D01*
X-201283Y-72147D01*
X-202663Y-62845D01*
X-202878Y-58461D01*
X-203055Y-57203D01*
X-203162Y-54774D01*
X-204188Y-46977D01*
X-204188Y-46977D01*
X-204262Y-46369D01*
X-204448Y-45759D01*
X-205263Y-43070D01*
X-206879Y-40047D01*
X-206905Y-39917D01*
X-207217Y-39449D01*
X-207210Y-39443D01*
X-208555Y-37690D01*
X-211255Y-35619D01*
X-212335Y-35171D01*
X-212000Y-33921D01*
Y-32078D01*
X-212477Y-30298D01*
X-213399Y-28702D01*
X-214204Y-27896D01*
X-214238Y-26572D01*
X-214081Y-26291D01*
X-212799Y-25009D01*
X-211778Y-23241D01*
X-211317Y-21520D01*
D02*
G37*
G36*
X-181230Y-79308D02*
Y-85980D01*
X-174558D01*
X-175045Y-84162D01*
X-176098Y-82338D01*
X-177588Y-80848D01*
X-179412Y-79795D01*
X-181230Y-79308D01*
D02*
G37*
G36*
X-183770Y-79308D02*
X-185588Y-79795D01*
X-187412Y-80848D01*
X-188902Y-82338D01*
X-189955Y-84162D01*
X-190442Y-85980D01*
X-183770D01*
Y-79308D01*
D02*
G37*
G36*
X-174558Y-88520D02*
X-181230D01*
Y-95192D01*
X-179412Y-94705D01*
X-177588Y-93652D01*
X-176098Y-92162D01*
X-175045Y-90338D01*
X-174558Y-88520D01*
D02*
G37*
G36*
X-183770D02*
X-190442D01*
X-189955Y-90338D01*
X-188902Y-92162D01*
X-187412Y-93652D01*
X-185588Y-94705D01*
X-183770Y-95192D01*
Y-88520D01*
D02*
G37*
G36*
X201455Y-82000D02*
X199545D01*
X197702Y-82494D01*
X196048Y-83449D01*
X194699Y-84798D01*
X193744Y-86452D01*
X193250Y-88295D01*
Y-90204D01*
X193744Y-92048D01*
X194699Y-93702D01*
X196048Y-95051D01*
X197702Y-96006D01*
X199545Y-96500D01*
X201455D01*
X203298Y-96006D01*
X204952Y-95051D01*
X206301Y-93702D01*
X207256Y-92048D01*
X207750Y-90204D01*
Y-88295D01*
X207256Y-86452D01*
X206301Y-84798D01*
X204952Y-83449D01*
X203298Y-82494D01*
X201455Y-82000D01*
D02*
G37*
G36*
X34000Y-92000D02*
X27270D01*
Y-98730D01*
X34000D01*
Y-92000D01*
D02*
G37*
G36*
X24730D02*
X18000D01*
Y-98730D01*
X24730D01*
Y-92000D01*
D02*
G37*
G36*
X88200Y-92111D02*
X83700D01*
X82920Y-92266D01*
X82258Y-92708D01*
X81816Y-93370D01*
X81661Y-94150D01*
Y-100431D01*
X71817D01*
X71756Y-100202D01*
X70801Y-98548D01*
X69452Y-97199D01*
X67798Y-96244D01*
X65954Y-95750D01*
X64046D01*
X62202Y-96244D01*
X60548Y-97199D01*
X59199Y-98548D01*
X58244Y-100202D01*
X57750Y-102045D01*
Y-103954D01*
X58244Y-105798D01*
X59199Y-107452D01*
X60548Y-108801D01*
X62202Y-109756D01*
X64046Y-110250D01*
X65954D01*
X67798Y-109756D01*
X69452Y-108801D01*
X70801Y-107452D01*
X71756Y-105798D01*
X71817Y-105569D01*
X81661D01*
Y-110250D01*
X81816Y-111030D01*
X82258Y-111692D01*
X82920Y-112134D01*
X83700Y-112289D01*
X88200D01*
X88980Y-112134D01*
X89642Y-111692D01*
X90084Y-111030D01*
X90239Y-110250D01*
Y-94150D01*
X90084Y-93370D01*
X89642Y-92708D01*
X88980Y-92266D01*
X88200Y-92111D01*
D02*
G37*
G36*
X-88730Y-93958D02*
Y-100630D01*
X-82058D01*
X-82545Y-98812D01*
X-83598Y-96988D01*
X-85088Y-95498D01*
X-86912Y-94445D01*
X-88730Y-93958D01*
D02*
G37*
G36*
X-91270Y-93958D02*
X-93088Y-94445D01*
X-94912Y-95498D01*
X-96402Y-96988D01*
X-97455Y-98812D01*
X-97942Y-100630D01*
X-91270D01*
Y-93958D01*
D02*
G37*
G36*
X174020Y-96658D02*
Y-103330D01*
X180692D01*
X180205Y-101512D01*
X179152Y-99688D01*
X177662Y-98198D01*
X175838Y-97145D01*
X174020Y-96658D01*
D02*
G37*
G36*
X171480Y-96658D02*
X169662Y-97145D01*
X167838Y-98198D01*
X166348Y-99688D01*
X165295Y-101512D01*
X164808Y-103330D01*
X171480D01*
Y-96658D01*
D02*
G37*
G36*
X34000Y-101270D02*
X27270D01*
Y-108000D01*
X34000D01*
Y-101270D01*
D02*
G37*
G36*
X24730D02*
X18000D01*
Y-108000D01*
X24730D01*
Y-101270D01*
D02*
G37*
G36*
X-91270Y-103170D02*
X-97942D01*
X-97455Y-104988D01*
X-96402Y-106812D01*
X-94912Y-108302D01*
X-93088Y-109355D01*
X-91270Y-109842D01*
Y-103170D01*
D02*
G37*
G36*
X-82058D02*
X-88730D01*
Y-109842D01*
X-86912Y-109355D01*
X-85088Y-108302D01*
X-83598Y-106812D01*
X-82545Y-104988D01*
X-82058Y-103170D01*
D02*
G37*
G36*
X180692Y-105870D02*
X174020D01*
Y-112542D01*
X175838Y-112055D01*
X177662Y-111002D01*
X179152Y-109512D01*
X180205Y-107688D01*
X180692Y-105870D01*
D02*
G37*
G36*
X171480D02*
X164808D01*
X165295Y-107688D01*
X166348Y-109512D01*
X167838Y-111002D01*
X169662Y-112055D01*
X171480Y-112542D01*
Y-105870D01*
D02*
G37*
G36*
X-23045Y-92750D02*
X-24955D01*
X-26798Y-93244D01*
X-28452Y-94199D01*
X-29801Y-95548D01*
X-30756Y-97202D01*
X-31250Y-99045D01*
Y-100955D01*
X-30756Y-102798D01*
X-30301Y-103587D01*
X-30742Y-106941D01*
X-30698D01*
Y-117700D01*
X-35750D01*
Y-118126D01*
X-59980D01*
Y-118114D01*
X-64345Y-118457D01*
X-68603Y-119480D01*
X-72649Y-121156D01*
X-76383Y-123444D01*
X-79713Y-126287D01*
X-79717Y-126283D01*
X-82106Y-129193D01*
X-83881Y-132514D01*
X-84973Y-136117D01*
X-85343Y-139864D01*
X-85323D01*
Y-154915D01*
X-86670D01*
Y-165035D01*
X-76550D01*
Y-154915D01*
X-77677D01*
Y-139864D01*
X-77704Y-139726D01*
X-77327Y-136865D01*
X-76170Y-134071D01*
X-74413Y-131782D01*
X-74296Y-131704D01*
X-74212Y-131578D01*
X-71253Y-129149D01*
X-67745Y-127274D01*
X-63938Y-126119D01*
X-60128Y-125744D01*
X-59980Y-125773D01*
X-35750D01*
Y-126200D01*
X-18750D01*
Y-117700D01*
X-23052D01*
Y-107250D01*
X-23045D01*
X-21202Y-106756D01*
X-19548Y-105801D01*
X-18199Y-104452D01*
X-17244Y-102798D01*
X-16750Y-100955D01*
Y-99045D01*
X-17244Y-97202D01*
X-18199Y-95548D01*
X-19548Y-94199D01*
X-21202Y-93244D01*
X-23045Y-92750D01*
D02*
G37*
G36*
X100900Y-92111D02*
X96400D01*
X95620Y-92266D01*
X94958Y-92708D01*
X94516Y-93370D01*
X94361Y-94150D01*
Y-110042D01*
X92703Y-113143D01*
X90239Y-116146D01*
X90183Y-116183D01*
X90103Y-116303D01*
X87203Y-118528D01*
X83694Y-119982D01*
X80071Y-120459D01*
X79929Y-120431D01*
X66485D01*
Y-120369D01*
X61975Y-120813D01*
X57639Y-122128D01*
X53642Y-124264D01*
X50139Y-127139D01*
X50145Y-127145D01*
X47484Y-130388D01*
X45506Y-134088D01*
X44288Y-138103D01*
X43877Y-142278D01*
X43931D01*
Y-147583D01*
X43702Y-147644D01*
X42605Y-148277D01*
X41589Y-147655D01*
X37722Y-146053D01*
X35367Y-145488D01*
X34564Y-144286D01*
X33158Y-143347D01*
X31500Y-143017D01*
X23000D01*
X21342Y-143347D01*
X19936Y-144286D01*
X18997Y-145692D01*
X18667Y-147350D01*
X18997Y-149008D01*
X19936Y-150414D01*
X21342Y-151353D01*
X23000Y-151683D01*
X31500D01*
X33158Y-151353D01*
X34398Y-150525D01*
X37718Y-151532D01*
X39507Y-152488D01*
X39250Y-153446D01*
Y-155354D01*
X39744Y-157198D01*
X40699Y-158852D01*
X42048Y-160201D01*
X43702Y-161156D01*
X45546Y-161650D01*
X47455D01*
X49298Y-161156D01*
X50952Y-160201D01*
X52301Y-158852D01*
X53256Y-157198D01*
X53750Y-155354D01*
Y-153446D01*
X53256Y-151602D01*
X52301Y-149948D01*
X50952Y-148599D01*
X49298Y-147644D01*
X49069Y-147583D01*
Y-142278D01*
X49069Y-142277D01*
X49380Y-139116D01*
X50303Y-136075D01*
X51801Y-133273D01*
X53816Y-130818D01*
X53817Y-130817D01*
X53833Y-130792D01*
X56527Y-128581D01*
X59626Y-126925D01*
X62988Y-125905D01*
X66456Y-125564D01*
X66485Y-125569D01*
X79929D01*
Y-125615D01*
X83769Y-125237D01*
X87462Y-124116D01*
X90866Y-122297D01*
X93849Y-119849D01*
X93868Y-119868D01*
X97020Y-116027D01*
X99018Y-112289D01*
X100900D01*
X101680Y-112134D01*
X102342Y-111692D01*
X102784Y-111030D01*
X102939Y-110250D01*
Y-94150D01*
X102784Y-93370D01*
X102342Y-92708D01*
X101680Y-92266D01*
X100900Y-92111D01*
D02*
G37*
G36*
X31500Y-116852D02*
X28520D01*
Y-120680D01*
X36345D01*
X36210Y-119999D01*
X35105Y-118345D01*
X33451Y-117240D01*
X31500Y-116852D01*
D02*
G37*
G36*
X25980D02*
X23000D01*
X21049Y-117240D01*
X19395Y-118345D01*
X18290Y-119999D01*
X18155Y-120680D01*
X25980D01*
Y-116852D01*
D02*
G37*
G36*
X36345Y-123220D02*
X28520D01*
Y-127048D01*
X31500D01*
X33451Y-126660D01*
X35105Y-125555D01*
X36210Y-123901D01*
X36345Y-123220D01*
D02*
G37*
G36*
X25980D02*
X18155D01*
X18290Y-123901D01*
X19395Y-125555D01*
X21049Y-126660D01*
X23000Y-127048D01*
X25980D01*
Y-123220D01*
D02*
G37*
G36*
X113600Y-92111D02*
X109100D01*
X108320Y-92266D01*
X107658Y-92708D01*
X107216Y-93370D01*
X107061Y-94150D01*
Y-110250D01*
X107216Y-111030D01*
X107658Y-111692D01*
X108320Y-112134D01*
X108626Y-112195D01*
Y-116218D01*
X107460Y-116701D01*
X105702Y-118460D01*
X104750Y-120757D01*
Y-123243D01*
X105702Y-125540D01*
X107460Y-127298D01*
X109757Y-128250D01*
X112243D01*
X114540Y-127298D01*
X116299Y-125540D01*
X117250Y-123243D01*
Y-120757D01*
X116299Y-118460D01*
X114540Y-116701D01*
X113724Y-116363D01*
Y-112264D01*
X114380Y-112134D01*
X115042Y-111692D01*
X115484Y-111030D01*
X115639Y-110250D01*
Y-94150D01*
X115484Y-93370D01*
X115042Y-92708D01*
X114380Y-92266D01*
X113600Y-92111D01*
D02*
G37*
G36*
X-44757Y-128750D02*
X-47243D01*
X-49540Y-129701D01*
X-51298Y-131460D01*
X-52250Y-133757D01*
Y-136243D01*
X-51298Y-138540D01*
X-49540Y-140299D01*
X-47243Y-141250D01*
X-44757D01*
X-42460Y-140299D01*
X-40701Y-138540D01*
X-40154Y-137219D01*
X-34895D01*
X-34564Y-137714D01*
X-33158Y-138653D01*
X-31500Y-138983D01*
X-23000D01*
X-21342Y-138653D01*
X-19936Y-137714D01*
X-18997Y-136308D01*
X-18667Y-134650D01*
X-18997Y-132992D01*
X-19936Y-131586D01*
X-21342Y-130647D01*
X-23000Y-130317D01*
X-31500D01*
X-33158Y-130647D01*
X-34564Y-131586D01*
X-34895Y-132081D01*
X-40444D01*
X-40701Y-131460D01*
X-42460Y-129701D01*
X-44757Y-128750D01*
D02*
G37*
G36*
X-124045Y-132750D02*
X-125955D01*
X-127798Y-133244D01*
X-129452Y-134199D01*
X-130801Y-135548D01*
X-131756Y-137202D01*
X-132250Y-139045D01*
Y-140955D01*
X-131756Y-142798D01*
X-131067Y-143992D01*
X-132212Y-146135D01*
X-133615Y-150761D01*
X-134089Y-155572D01*
X-134019D01*
Y-171300D01*
X-139300D01*
X-139300Y-179091D01*
X-140050Y-180050D01*
X-140050Y-180659D01*
Y-183730D01*
X-122850D01*
Y-180050D01*
X-123600Y-179091D01*
X-123600Y-178780D01*
Y-171300D01*
X-128881D01*
Y-155572D01*
X-128891Y-155517D01*
X-128523Y-151774D01*
X-127415Y-148121D01*
X-126824Y-147017D01*
X-125955Y-147250D01*
X-124045D01*
X-122202Y-146756D01*
X-120548Y-145801D01*
X-119199Y-144452D01*
X-118244Y-142798D01*
X-117750Y-140955D01*
Y-139045D01*
X-118244Y-137202D01*
X-119199Y-135548D01*
X-120548Y-134199D01*
X-122202Y-133244D01*
X-124045Y-132750D01*
D02*
G37*
G36*
X-144000Y-143750D02*
X-150730D01*
Y-150480D01*
X-144000D01*
Y-143750D01*
D02*
G37*
G36*
X-153270D02*
X-160000D01*
Y-150480D01*
X-153270D01*
Y-143750D01*
D02*
G37*
G36*
X143730Y-145000D02*
X137000D01*
Y-151730D01*
X143730D01*
Y-145000D01*
D02*
G37*
G36*
X73000D02*
X66270D01*
Y-151730D01*
X73000D01*
Y-145000D01*
D02*
G37*
G36*
X63730D02*
X57000D01*
Y-151730D01*
X63730D01*
Y-145000D01*
D02*
G37*
G36*
X113600Y-142946D02*
X112620D01*
Y-152530D01*
X116404D01*
Y-145750D01*
X116190Y-144677D01*
X115583Y-143767D01*
X114673Y-143160D01*
X113600Y-142946D01*
D02*
G37*
G36*
X110080D02*
X109100D01*
X108027Y-143160D01*
X107117Y-143767D01*
X106510Y-144677D01*
X106296Y-145750D01*
Y-152530D01*
X110080D01*
Y-142946D01*
D02*
G37*
G36*
X-144000Y-153020D02*
X-150730D01*
Y-159750D01*
X-144000D01*
Y-153020D01*
D02*
G37*
G36*
X-153270D02*
X-160000D01*
Y-159750D01*
X-153270D01*
Y-153020D01*
D02*
G37*
G36*
X143730Y-154270D02*
X137000D01*
Y-161000D01*
X143730D01*
Y-154270D01*
D02*
G37*
G36*
X73000Y-154270D02*
X66270D01*
Y-161000D01*
X73000D01*
Y-154270D01*
D02*
G37*
G36*
X63730D02*
X57000D01*
Y-161000D01*
X63730D01*
Y-154270D01*
D02*
G37*
G36*
X87243Y-130750D02*
X84757D01*
X82460Y-131701D01*
X80702Y-133460D01*
X79750Y-135757D01*
Y-138243D01*
X80702Y-140540D01*
X82460Y-142298D01*
X83054Y-142544D01*
X82984Y-143853D01*
X82920Y-143866D01*
X82258Y-144308D01*
X81816Y-144970D01*
X81661Y-145750D01*
Y-161850D01*
X81816Y-162630D01*
X82258Y-163292D01*
X82920Y-163734D01*
X83700Y-163889D01*
X88200D01*
X88980Y-163734D01*
X89642Y-163292D01*
X90084Y-162630D01*
X90239Y-161850D01*
Y-145750D01*
X90084Y-144970D01*
X89642Y-144308D01*
X89016Y-143890D01*
X88970Y-143668D01*
X88914Y-142558D01*
X89540Y-142298D01*
X91299Y-140540D01*
X92250Y-138243D01*
Y-135757D01*
X91299Y-133460D01*
X89540Y-131701D01*
X87243Y-130750D01*
D02*
G37*
G36*
X-53690Y-145390D02*
X-63810D01*
Y-155510D01*
X-53690D01*
Y-154287D01*
X-53108Y-153776D01*
X-52420Y-153526D01*
X-49451Y-154756D01*
X-47783Y-156036D01*
X-46849Y-156849D01*
X-46849Y-156849D01*
X-43840Y-159319D01*
X-40407Y-161154D01*
X-36682Y-162284D01*
X-35008Y-162449D01*
X-34564Y-163114D01*
X-33158Y-164053D01*
X-31500Y-164383D01*
X-23000D01*
X-21342Y-164053D01*
X-19936Y-163114D01*
X-18997Y-161708D01*
X-18667Y-160050D01*
X-18997Y-158392D01*
X-19936Y-156986D01*
X-21342Y-156047D01*
X-23000Y-155717D01*
X-31500D01*
X-33158Y-156047D01*
X-34564Y-156986D01*
X-34756Y-157273D01*
X-36618Y-157027D01*
X-40169Y-155557D01*
X-42227Y-153977D01*
X-43157Y-153157D01*
X-43157Y-153157D01*
X-45880Y-150922D01*
X-48987Y-149261D01*
X-52358Y-148239D01*
X-53690Y-148108D01*
Y-145390D01*
D02*
G37*
G36*
X126300Y-92111D02*
X121800D01*
X121020Y-92266D01*
X120358Y-92708D01*
X119916Y-93370D01*
X119761Y-94150D01*
Y-110250D01*
X119916Y-111030D01*
X120358Y-111692D01*
X121020Y-112134D01*
X121800Y-112289D01*
X126300D01*
X127080Y-112134D01*
X127742Y-111692D01*
X128184Y-111030D01*
X128339Y-110250D01*
Y-105484D01*
X138160D01*
X138244Y-105798D01*
X139199Y-107452D01*
X140548Y-108801D01*
X142202Y-109756D01*
X144045Y-110250D01*
X145955D01*
X146655Y-110062D01*
X147857Y-111264D01*
X148001Y-111361D01*
X150582Y-114506D01*
X152581Y-118245D01*
X153812Y-122302D01*
X154210Y-126351D01*
X154177Y-126521D01*
Y-144774D01*
X153000Y-145000D01*
Y-145000D01*
X146270D01*
Y-153000D01*
Y-161000D01*
X149730D01*
X150273Y-162148D01*
X149373Y-163245D01*
X149296Y-163296D01*
X149261Y-163349D01*
X147041Y-165172D01*
X144452Y-166555D01*
X143032Y-166986D01*
X142145Y-166099D01*
X140605Y-165210D01*
X138889Y-164750D01*
X137111D01*
X135395Y-165210D01*
X133855Y-166099D01*
X132599Y-167355D01*
X131710Y-168895D01*
X131250Y-170611D01*
Y-172389D01*
X131710Y-174105D01*
X132599Y-175645D01*
X132948Y-175994D01*
X132281Y-177123D01*
X130889Y-176750D01*
X129111D01*
X127719Y-177123D01*
X127052Y-175994D01*
X127401Y-175645D01*
X128290Y-174105D01*
X128750Y-172389D01*
Y-170611D01*
X128290Y-168895D01*
X127401Y-167355D01*
X126145Y-166099D01*
X124605Y-165210D01*
X124416Y-165159D01*
X124583Y-163889D01*
X126300D01*
X127080Y-163734D01*
X127742Y-163292D01*
X128184Y-162630D01*
X128339Y-161850D01*
Y-145750D01*
X128184Y-144970D01*
X127742Y-144308D01*
X127080Y-143866D01*
X126300Y-143711D01*
X121800D01*
X121020Y-143866D01*
X120358Y-144308D01*
X119916Y-144970D01*
X119761Y-145750D01*
Y-161850D01*
X119916Y-162630D01*
X120358Y-163292D01*
X120727Y-163538D01*
X120692Y-164684D01*
X120624Y-164881D01*
X119395Y-165210D01*
X117855Y-166099D01*
X116599Y-167355D01*
X115710Y-168895D01*
X115250Y-170611D01*
Y-172389D01*
X115710Y-174105D01*
X116599Y-175645D01*
X116948Y-175994D01*
X116281Y-177123D01*
X114889Y-176750D01*
X113111D01*
X113076Y-176759D01*
X112256Y-175664D01*
X112989Y-174395D01*
X113424Y-172770D01*
X107270D01*
Y-178924D01*
X107401Y-178889D01*
X108238Y-179980D01*
X107710Y-180895D01*
X107250Y-182611D01*
Y-184389D01*
X107710Y-186105D01*
X108599Y-187645D01*
X109855Y-188901D01*
X111395Y-189790D01*
X113111Y-190250D01*
X114889D01*
X116605Y-189790D01*
X118145Y-188901D01*
X119401Y-187645D01*
X120290Y-186105D01*
X120750Y-184389D01*
Y-182611D01*
X120290Y-180895D01*
X119401Y-179355D01*
X119052Y-179006D01*
X119719Y-177877D01*
X121111Y-178250D01*
X122889D01*
X124281Y-177877D01*
X124948Y-179006D01*
X124599Y-179355D01*
X123710Y-180895D01*
X123250Y-182611D01*
Y-184389D01*
X123710Y-186105D01*
X124599Y-187645D01*
X125083Y-188129D01*
X124800Y-189566D01*
X124012Y-190354D01*
X123133Y-191233D01*
X122187Y-192016D01*
X120188Y-193550D01*
X116721Y-194986D01*
X113137Y-195458D01*
X113000Y-195431D01*
X103828D01*
X103818Y-195433D01*
X102197Y-195110D01*
X101814Y-194854D01*
X100825Y-194175D01*
X99608Y-192588D01*
X98842Y-190740D01*
X98581Y-188757D01*
X98569D01*
Y-176170D01*
X99839Y-175830D01*
X99999Y-176105D01*
X101395Y-177502D01*
X103105Y-178489D01*
X104730Y-178924D01*
Y-171500D01*
X106000D01*
Y-170230D01*
X113424D01*
X112989Y-168605D01*
X112001Y-166895D01*
X111031Y-165924D01*
X111557Y-164654D01*
X113600D01*
X114673Y-164440D01*
X115583Y-163833D01*
X116190Y-162923D01*
X116404Y-161850D01*
Y-155070D01*
X111350D01*
X106296D01*
Y-161850D01*
X106471Y-162730D01*
X106208Y-163324D01*
X105702Y-164000D01*
X105013D01*
X103105Y-164511D01*
X101395Y-165499D01*
X99999Y-166895D01*
X99839Y-167171D01*
X98569Y-166830D01*
Y-163889D01*
X100900D01*
X101680Y-163734D01*
X102342Y-163292D01*
X102784Y-162630D01*
X102939Y-161850D01*
Y-145750D01*
X102784Y-144970D01*
X102342Y-144308D01*
X101680Y-143866D01*
X100900Y-143711D01*
X96400D01*
X95620Y-143866D01*
X94958Y-144308D01*
X94516Y-144970D01*
X94361Y-145750D01*
Y-157756D01*
X94319Y-157819D01*
X94318Y-157821D01*
X94268Y-158069D01*
X93778Y-159253D01*
X93380Y-162273D01*
X93431D01*
Y-171130D01*
X92161Y-171382D01*
X91988Y-170965D01*
X90706Y-169294D01*
X89035Y-168012D01*
X87088Y-167206D01*
X86270Y-167098D01*
Y-180500D01*
Y-193902D01*
X87088Y-193794D01*
X89035Y-192988D01*
X90706Y-191706D01*
X91988Y-190035D01*
X92192Y-189542D01*
X93496Y-189713D01*
X93808Y-192089D01*
X95094Y-195194D01*
X97140Y-197860D01*
X97161Y-197839D01*
X99114Y-199337D01*
X101388Y-200279D01*
X103265Y-200527D01*
X103182Y-201796D01*
X-69000D01*
X-69202Y-201837D01*
X-72639Y-201384D01*
X-76030Y-199980D01*
X-78780Y-197869D01*
X-78895Y-197698D01*
X-81296Y-195296D01*
X-81295Y-195295D01*
X-83685Y-193333D01*
X-86413Y-191875D01*
X-89372Y-190977D01*
X-92450Y-190674D01*
Y-190677D01*
X-100700D01*
Y-190300D01*
X-116400D01*
Y-198700D01*
X-110163D01*
Y-214910D01*
X-110801Y-215548D01*
X-111756Y-217202D01*
X-112250Y-219046D01*
Y-220954D01*
X-111756Y-222798D01*
X-110801Y-224452D01*
X-109452Y-225801D01*
X-107798Y-226756D01*
X-105955Y-227250D01*
X-104045D01*
X-102202Y-226756D01*
X-100548Y-225801D01*
X-99199Y-224452D01*
X-98244Y-222798D01*
X-97750Y-220954D01*
Y-219046D01*
X-98244Y-217202D01*
X-99199Y-215548D01*
X-100548Y-214199D01*
X-102202Y-213244D01*
X-102516Y-213160D01*
Y-198700D01*
X-100700D01*
Y-198323D01*
X-92450D01*
X-92401Y-198314D01*
X-90342Y-198585D01*
X-88379Y-199398D01*
X-86731Y-200662D01*
X-86704Y-200704D01*
X-85200Y-202207D01*
X-84324Y-203127D01*
X-84324Y-203127D01*
X-81040Y-205822D01*
X-77293Y-207825D01*
X-73228Y-209058D01*
X-69000Y-209474D01*
Y-209443D01*
X127432D01*
Y-209446D01*
X130509Y-209143D01*
X133468Y-208246D01*
X136194Y-206788D01*
X138584Y-204827D01*
X138582Y-204825D01*
X138582Y-204825D01*
X139806Y-203602D01*
X140737Y-202737D01*
X140737Y-202737D01*
X142980Y-199814D01*
X144390Y-196410D01*
X144871Y-192757D01*
X144824D01*
Y-178743D01*
X144871D01*
X144390Y-175090D01*
X144691Y-174453D01*
X147385Y-173636D01*
X150142Y-172162D01*
X150886Y-172686D01*
X151189Y-173043D01*
X150931Y-175000D01*
Y-179230D01*
X157730D01*
Y-167098D01*
X157719Y-167100D01*
X157056Y-165906D01*
X157763Y-165044D01*
X160014Y-160834D01*
X161399Y-156266D01*
X161867Y-151515D01*
X161824D01*
Y-126521D01*
X161840D01*
X161480Y-121947D01*
X160409Y-117485D01*
X158653Y-113246D01*
X156256Y-109334D01*
X153276Y-105845D01*
X153264Y-105857D01*
X152062Y-104655D01*
X152250Y-103954D01*
Y-102045D01*
X151756Y-100202D01*
X150801Y-98548D01*
X149452Y-97199D01*
X147798Y-96244D01*
X145955Y-95750D01*
X144045D01*
X142202Y-96244D01*
X140548Y-97199D01*
X139910Y-97837D01*
X128339D01*
Y-94150D01*
X128184Y-93370D01*
X127742Y-92708D01*
X127080Y-92266D01*
X126300Y-92111D01*
D02*
G37*
G36*
X-52940Y-163690D02*
X-57480D01*
Y-168230D01*
X-52940D01*
Y-163690D01*
D02*
G37*
G36*
X-60020D02*
X-64560D01*
Y-168230D01*
X-60020D01*
Y-163690D01*
D02*
G37*
G36*
X-89045Y-170850D02*
X-90955D01*
X-92798Y-171344D01*
X-94452Y-172299D01*
X-95197Y-173044D01*
X-96277Y-172902D01*
Y-172951D01*
X-100700D01*
Y-171300D01*
X-116400D01*
Y-179700D01*
X-100700D01*
Y-178049D01*
X-97250D01*
Y-179055D01*
X-96756Y-180898D01*
X-95801Y-182552D01*
X-94452Y-183901D01*
X-92798Y-184856D01*
X-90955Y-185350D01*
X-89045D01*
X-87202Y-184856D01*
X-85548Y-183901D01*
X-84199Y-182552D01*
X-83244Y-180898D01*
X-82750Y-179055D01*
Y-177146D01*
X-83244Y-175302D01*
X-84199Y-173648D01*
X-85548Y-172299D01*
X-87202Y-171344D01*
X-89045Y-170850D01*
D02*
G37*
G36*
X31500Y-155717D02*
X23000D01*
X21342Y-156047D01*
X19936Y-156986D01*
X18997Y-158392D01*
X18667Y-160050D01*
X18997Y-161708D01*
X19936Y-163114D01*
X21342Y-164053D01*
X23000Y-164383D01*
X26642D01*
X27563Y-167418D01*
X29103Y-170299D01*
X31175Y-172824D01*
Y-172824D01*
Y-172824D01*
X31171Y-173009D01*
X30232Y-173676D01*
X29881Y-173778D01*
X26980Y-173000D01*
X26670D01*
Y-183730D01*
X37400D01*
Y-183420D01*
X36582Y-180368D01*
X35202Y-177977D01*
X36120Y-177028D01*
X38469Y-178283D01*
X38809Y-178386D01*
X39701Y-180540D01*
X41460Y-182299D01*
X43757Y-183250D01*
X46243D01*
X48540Y-182299D01*
X50299Y-180540D01*
X51250Y-178243D01*
Y-175757D01*
X50299Y-173460D01*
X48540Y-171702D01*
X46243Y-170750D01*
X43757D01*
X41460Y-171702D01*
X39917Y-173244D01*
X39020Y-172873D01*
X36602Y-171017D01*
X36560Y-170955D01*
X34802Y-169198D01*
X34749Y-169162D01*
X32951Y-166819D01*
X32292Y-165227D01*
X32890Y-164107D01*
X33158Y-164053D01*
X34564Y-163114D01*
X35503Y-161708D01*
X35833Y-160050D01*
X35503Y-158392D01*
X34564Y-156986D01*
X33158Y-156047D01*
X31500Y-155717D01*
D02*
G37*
G36*
X-52940Y-170770D02*
X-57480D01*
Y-175310D01*
X-52940D01*
Y-170770D01*
D02*
G37*
G36*
X-60020D02*
X-64560D01*
Y-175310D01*
X-60020D01*
Y-170770D01*
D02*
G37*
G36*
X160270Y-167098D02*
Y-179230D01*
X167069D01*
Y-175000D01*
X166794Y-172912D01*
X165988Y-170965D01*
X164706Y-169294D01*
X163034Y-168012D01*
X161088Y-167206D01*
X160270Y-167098D01*
D02*
G37*
G36*
X83730D02*
X82912Y-167206D01*
X80965Y-168012D01*
X79294Y-169294D01*
X78012Y-170965D01*
X77206Y-172912D01*
X76931Y-175000D01*
Y-179230D01*
X83730D01*
Y-167098D01*
D02*
G37*
G36*
X24130Y-173000D02*
X23820D01*
X20768Y-173818D01*
X18032Y-175398D01*
X15798Y-177632D01*
X14218Y-180368D01*
X13400Y-183420D01*
Y-183730D01*
X24130D01*
Y-173000D01*
D02*
G37*
G36*
X167069Y-181770D02*
X160270D01*
Y-193902D01*
X161088Y-193794D01*
X163034Y-192988D01*
X164706Y-191706D01*
X165988Y-190035D01*
X166794Y-188088D01*
X167069Y-186000D01*
Y-181770D01*
D02*
G37*
G36*
X83730D02*
X76931D01*
Y-186000D01*
X77206Y-188088D01*
X78012Y-190035D01*
X79294Y-191706D01*
X80965Y-192988D01*
X82912Y-193794D01*
X83730Y-193902D01*
Y-181770D01*
D02*
G37*
G36*
X157730D02*
X150931D01*
Y-186000D01*
X151206Y-188088D01*
X152012Y-190035D01*
X153294Y-191706D01*
X154965Y-192988D01*
X156912Y-193794D01*
X157730Y-193902D01*
Y-181770D01*
D02*
G37*
G36*
X-122850Y-186270D02*
X-140050D01*
Y-189950D01*
X-139300Y-190909D01*
X-139300Y-192358D01*
X-142951Y-193235D01*
X-146917Y-194877D01*
X-148123Y-195617D01*
X-149202Y-194994D01*
X-151046Y-194500D01*
X-152955D01*
X-154798Y-194994D01*
X-156452Y-195949D01*
X-157801Y-197298D01*
X-158756Y-198952D01*
X-159250Y-200795D01*
Y-202705D01*
X-158756Y-204548D01*
X-157801Y-206202D01*
X-156452Y-207551D01*
X-154798Y-208506D01*
X-152955Y-209000D01*
X-151046D01*
X-149202Y-208506D01*
X-147548Y-207551D01*
X-146199Y-206202D01*
X-145244Y-204548D01*
X-144750Y-202705D01*
Y-200795D01*
X-145014Y-199809D01*
X-142998Y-198731D01*
X-140320Y-197919D01*
X-139300Y-198675D01*
Y-198700D01*
X-123600D01*
X-123600Y-190909D01*
X-122850Y-189950D01*
X-122850Y-189341D01*
Y-186270D01*
D02*
G37*
G36*
X-23000Y-143017D02*
X-31500D01*
X-33158Y-143347D01*
X-34564Y-144286D01*
X-35503Y-145692D01*
X-35833Y-147350D01*
X-35503Y-149008D01*
X-34564Y-150414D01*
X-33158Y-151353D01*
X-31500Y-151683D01*
X-23000D01*
X-21342Y-151353D01*
X-19936Y-150414D01*
X-19605Y-149919D01*
X-14406D01*
X-14269Y-149892D01*
X-10687Y-150364D01*
X-7221Y-151799D01*
X-4354Y-153999D01*
X-4277Y-154115D01*
X-4202Y-154165D01*
X-2981Y-155993D01*
X-2552Y-158148D01*
X-2569Y-158237D01*
Y-174042D01*
X-4342Y-174517D01*
X-6908Y-175998D01*
X-9002Y-178092D01*
X-10483Y-180658D01*
X-11250Y-183519D01*
Y-186481D01*
X-10483Y-189342D01*
X-9002Y-191908D01*
X-6908Y-194002D01*
X-4342Y-195483D01*
X-1481Y-196250D01*
X1481D01*
X4342Y-195483D01*
X6908Y-194002D01*
X9002Y-191908D01*
X10483Y-189342D01*
X11250Y-186481D01*
Y-183519D01*
X10483Y-180658D01*
X9002Y-178092D01*
X6908Y-175998D01*
X4342Y-174517D01*
X2569Y-174042D01*
Y-158237D01*
X2614D01*
X2239Y-155386D01*
X1139Y-152731D01*
X-611Y-150450D01*
X-611Y-150450D01*
X-3568Y-148024D01*
X-6941Y-146221D01*
X-10600Y-145111D01*
X-14406Y-144736D01*
Y-144781D01*
X-19605D01*
X-19936Y-144286D01*
X-21342Y-143347D01*
X-23000Y-143017D01*
D02*
G37*
G36*
X-23919Y-173750D02*
X-26881D01*
X-29742Y-174517D01*
X-32308Y-175998D01*
X-34402Y-178092D01*
X-35883Y-180658D01*
X-36650Y-183519D01*
Y-186481D01*
X-35883Y-189342D01*
X-34402Y-191908D01*
X-32308Y-194002D01*
X-29742Y-195483D01*
X-26881Y-196250D01*
X-23919D01*
X-21058Y-195483D01*
X-18492Y-194002D01*
X-16398Y-191908D01*
X-14917Y-189342D01*
X-14150Y-186481D01*
Y-183519D01*
X-14917Y-180658D01*
X-16398Y-178092D01*
X-18492Y-175998D01*
X-21058Y-174517D01*
X-23919Y-173750D01*
D02*
G37*
G36*
X37400Y-186270D02*
X26670D01*
Y-197000D01*
X26980D01*
X30032Y-196182D01*
X32768Y-194602D01*
X35002Y-192368D01*
X36582Y-189632D01*
X37400Y-186580D01*
Y-186270D01*
D02*
G37*
G36*
X24130D02*
X13400D01*
Y-186580D01*
X14218Y-189632D01*
X15798Y-192368D01*
X18032Y-194602D01*
X20768Y-196182D01*
X23820Y-197000D01*
X24130D01*
Y-186270D01*
D02*
G37*
G36*
X-47000Y-212000D02*
X-53730D01*
Y-218730D01*
X-47000D01*
Y-212000D01*
D02*
G37*
G36*
X-56270D02*
X-63000D01*
Y-218730D01*
X-56270D01*
Y-212000D01*
D02*
G37*
G36*
X86270Y-214598D02*
Y-226730D01*
X93069D01*
Y-222500D01*
X92794Y-220412D01*
X91988Y-218465D01*
X90706Y-216794D01*
X89035Y-215512D01*
X87088Y-214706D01*
X86270Y-214598D01*
D02*
G37*
G36*
X83730D02*
X82912Y-214706D01*
X80965Y-215512D01*
X79294Y-216794D01*
X78012Y-218465D01*
X77206Y-220412D01*
X76931Y-222500D01*
Y-226730D01*
X83730D01*
Y-214598D01*
D02*
G37*
G36*
X160270D02*
Y-226730D01*
X167069D01*
Y-222500D01*
X166794Y-220412D01*
X165988Y-218465D01*
X164706Y-216794D01*
X163034Y-215512D01*
X161088Y-214706D01*
X160270Y-214598D01*
D02*
G37*
G36*
X157730D02*
X156912Y-214706D01*
X154965Y-215512D01*
X153294Y-216794D01*
X152012Y-218465D01*
X151206Y-220412D01*
X150931Y-222500D01*
Y-226730D01*
X157730D01*
Y-214598D01*
D02*
G37*
G36*
X-47000Y-221270D02*
X-53730D01*
Y-228000D01*
X-47000D01*
Y-221270D01*
D02*
G37*
G36*
X-56270D02*
X-63000D01*
Y-228000D01*
X-56270D01*
Y-221270D01*
D02*
G37*
G36*
X-156500Y-216500D02*
X-173500D01*
Y-233500D01*
X-156500D01*
Y-216500D01*
D02*
G37*
G36*
X-124045Y-208950D02*
X-125955D01*
X-127798Y-209444D01*
X-129452Y-210399D01*
X-130801Y-211748D01*
X-131756Y-213402D01*
X-132250Y-215245D01*
Y-215560D01*
X-133404Y-216176D01*
X-135696Y-218058D01*
X-135679Y-218074D01*
X-135679Y-218075D01*
X-147363Y-229758D01*
X-147424Y-229850D01*
X-150808Y-232627D01*
X-154764Y-234741D01*
X-159057Y-236043D01*
X-163413Y-236473D01*
X-163521Y-236451D01*
X-167000D01*
X-167064Y-236464D01*
X-170934Y-236083D01*
X-174716Y-234935D01*
X-178202Y-233072D01*
X-181208Y-230605D01*
X-181244Y-230551D01*
X-182858Y-228937D01*
X-182479Y-228281D01*
X-181900Y-226119D01*
Y-223881D01*
X-182479Y-221719D01*
X-183598Y-219781D01*
X-185181Y-218198D01*
X-187119Y-217079D01*
X-189281Y-216500D01*
X-191519D01*
X-193681Y-217079D01*
X-195619Y-218198D01*
X-197202Y-219781D01*
X-198321Y-221719D01*
X-198900Y-223881D01*
Y-226119D01*
X-198321Y-228281D01*
X-197202Y-230219D01*
X-195619Y-231802D01*
X-193681Y-232921D01*
X-191519Y-233500D01*
X-189281D01*
X-187119Y-232921D01*
X-186463Y-232542D01*
X-185747Y-233258D01*
X-184901Y-234207D01*
X-184901Y-234207D01*
X-181064Y-237355D01*
X-176688Y-239695D01*
X-171939Y-241136D01*
X-167000Y-241622D01*
Y-241549D01*
X-163521D01*
Y-241586D01*
X-159143Y-241242D01*
X-154873Y-240217D01*
X-150815Y-238536D01*
X-147071Y-236241D01*
X-143732Y-233389D01*
X-143758Y-233363D01*
X-132952Y-222557D01*
X-132074Y-221679D01*
X-131114Y-220933D01*
X-130778Y-220675D01*
X-129452Y-222001D01*
X-127798Y-222956D01*
X-125955Y-223450D01*
X-124045D01*
X-122202Y-222956D01*
X-120548Y-222001D01*
X-119199Y-220652D01*
X-118244Y-218998D01*
X-117750Y-217155D01*
Y-215245D01*
X-118244Y-213402D01*
X-119199Y-211748D01*
X-120548Y-210399D01*
X-122202Y-209444D01*
X-124045Y-208950D01*
D02*
G37*
G36*
X47455Y-223350D02*
X45546D01*
X43702Y-223844D01*
X42048Y-224799D01*
X40699Y-226148D01*
X39744Y-227802D01*
X39250Y-229646D01*
Y-231555D01*
X39744Y-233398D01*
X40699Y-235052D01*
X42048Y-236401D01*
X43702Y-237356D01*
X45546Y-237850D01*
X47455D01*
X49298Y-237356D01*
X50952Y-236401D01*
X52301Y-235052D01*
X53256Y-233398D01*
X53750Y-231555D01*
Y-229646D01*
X53256Y-227802D01*
X52301Y-226148D01*
X50952Y-224799D01*
X49298Y-223844D01*
X47455Y-223350D01*
D02*
G37*
G36*
X167069Y-229270D02*
X160270D01*
Y-241402D01*
X161088Y-241294D01*
X163034Y-240488D01*
X164706Y-239206D01*
X165988Y-237535D01*
X166794Y-235588D01*
X167069Y-233500D01*
Y-229270D01*
D02*
G37*
G36*
X93069Y-229270D02*
X86270D01*
Y-241402D01*
X87088Y-241294D01*
X89035Y-240488D01*
X90706Y-239206D01*
X91988Y-237535D01*
X92794Y-235588D01*
X93069Y-233500D01*
Y-229270D01*
D02*
G37*
G36*
X83730D02*
X76931D01*
Y-233500D01*
X77206Y-235588D01*
X78012Y-237535D01*
X79294Y-239206D01*
X80965Y-240488D01*
X82912Y-241294D01*
X83730Y-241402D01*
Y-229270D01*
D02*
G37*
G36*
X157730Y-229270D02*
X150931D01*
Y-233500D01*
X151206Y-235588D01*
X152012Y-237535D01*
X153294Y-239206D01*
X154965Y-240488D01*
X156912Y-241294D01*
X157730Y-241402D01*
Y-229270D01*
D02*
G37*
%LPD*%
D10*
X-77000Y-129000D02*
G03*
X-81500Y-139864I10864J-10864D01*
G01*
X-59980Y-121950D02*
G03*
X-77000Y-129000I0J-24070D01*
G01*
X-24000Y-100000D02*
G03*
X-26875Y-106941I6941J-6941D01*
G01*
X152000Y-166000D02*
G03*
X158000Y-151515I-14485J14485D01*
G01*
X141000Y-178743D02*
G03*
X138000Y-171500I-10243J0D01*
G01*
X138722D02*
G03*
X152000Y-166000I0J18778D01*
G01*
X138000Y-200000D02*
G03*
X141000Y-192757I-7243J7243D01*
G01*
X127432Y-205620D02*
G03*
X135879Y-202121I0J11945D01*
G01*
X158000Y-126521D02*
G03*
X150561Y-108560I-25400J0D01*
G01*
X145000Y-103000D02*
G03*
X141610Y-101661I-3406J-3661D01*
G01*
X-84000Y-198000D02*
G03*
X-92450Y-194500I-8450J-8450D01*
G01*
X-81599Y-200402D02*
G03*
X-69000Y-205620I12599J12599D01*
G01*
X-81500Y-160000D02*
Y-139864D01*
X-59980Y-121950D02*
X-26875D01*
Y-106941D01*
X138000Y-171500D02*
X138722D01*
X141000Y-192757D02*
Y-178743D01*
X-69000Y-205620D02*
X127432D01*
X135879Y-202121D02*
X138000Y-200000D01*
X145000Y-103000D02*
X150561Y-108560D01*
X145000Y-103000D02*
X145000Y-103000D01*
X158000Y-151515D02*
Y-126521D01*
X124050Y-101661D02*
X141610D01*
X-106847Y-194500D02*
X-92450D01*
X-84000Y-198000D02*
X-81599Y-200402D01*
X-108247Y-194500D02*
X-106847D01*
X-106339Y-218661D02*
Y-195007D01*
X-106847Y-194500D02*
X-106339Y-195007D01*
Y-218661D02*
X-105000Y-220000D01*
D13*
X27250Y-103018D02*
G03*
X26000Y-100000I-4268J0D01*
G01*
X-149000Y-181250D02*
G03*
X-139947Y-185000I9053J9053D01*
G01*
X-152000Y-174007D02*
G03*
X-149000Y-181250I10243J0D01*
G01*
X28875Y-161041D02*
G03*
X33000Y-171000I14084J0D01*
G01*
X34757Y-172757D02*
G03*
X45000Y-177000I10243J10243D01*
G01*
X28875Y-134650D02*
G03*
X38221Y-130779I0J13218D01*
G01*
X39000Y-130000D02*
G03*
X44000Y-117929I-12071J12071D01*
G01*
X48950Y-100050D02*
G03*
X44000Y-112000I11950J-11950D01*
G01*
X-90000Y-178100D02*
G03*
X-96277Y-175500I-6277J-6277D01*
G01*
X-86062Y-77947D02*
G03*
X-80000Y-61479I-19338J16468D01*
G01*
X-87439Y-79440D02*
G03*
X-86062Y-77947I-17960J17960D01*
G01*
X-145636Y-127000D02*
G03*
X-127675Y-119560I0J25400D01*
G01*
X-174166D02*
G03*
X-156205Y-127000I17960J17960D01*
G01*
X-201669Y-81102D02*
G03*
X-192819Y-100907I77223J22625D01*
G01*
X-125000Y-216200D02*
G03*
X-133877Y-219877I0J-12554D01*
G01*
X-163521Y-239000D02*
G03*
X-145561Y-231560I0J25400D01*
G01*
X-183047Y-232353D02*
G03*
X-167000Y-239000I16047J16047D01*
G01*
X86560Y-62439D02*
G03*
X94000Y-44479I-17960J17960D01*
G01*
Y-29000D02*
G03*
X89934Y-19184I-13882J0D01*
G01*
X-206705Y-47387D02*
G03*
X-209260Y-41142I-14809J-2413D01*
G01*
X-205501Y-58599D02*
G03*
X-201669Y-81102I98203J5146D01*
G01*
X-205501Y-58599D02*
G03*
X-206705Y-47387I-103165J-5406D01*
G01*
X-209260Y-40892D02*
G03*
X-213923Y-37221I-8512J-6015D01*
G01*
X-213923Y-37221D02*
G03*
X-222000Y-35000I-14101J-35488D01*
G01*
X27250Y-121950D02*
Y-103018D01*
X-139947Y-185000D02*
X-131450D01*
X-152000Y-174007D02*
Y-151750D01*
X28875Y-161041D02*
Y-160050D01*
X33000Y-171000D02*
X34757Y-172757D01*
X38221Y-130779D02*
X39000Y-130000D01*
X44000Y-117929D02*
Y-112000D01*
X-108247Y-175500D02*
X-96277D01*
X-127675Y-119560D02*
X-86062Y-77947D01*
X-156205Y-127000D02*
X-145636D01*
X-192819Y-100907D02*
X-174166Y-119560D01*
X-192819Y-100907D02*
X-192819Y-100907D01*
X-126550Y-217750D02*
X-125000Y-216200D01*
X-145561Y-231560D02*
X-133877Y-219877D01*
X-167000Y-239000D02*
X-163521D01*
X-190400Y-225000D02*
X-183047Y-232353D01*
X48950Y-100050D02*
X86560Y-62439D01*
X94000Y-44479D02*
Y-29000D01*
X80000Y-9250D02*
X89934Y-19184D01*
X-80000Y-61479D02*
Y-50000D01*
X111175Y-100300D02*
X111350Y-100125D01*
X111175Y-121825D02*
Y-100300D01*
X111000Y-122000D02*
X111175Y-121825D01*
X-130715Y-217750D02*
X-126550D01*
D16*
X-134497Y-194500D02*
G03*
X-152000Y-201750I0J-24753D01*
G01*
X-2460Y-152298D02*
G03*
X-14406Y-147350I-11947J-11947D01*
G01*
X0Y-158237D02*
G03*
X-2460Y-152298I-8398J0D01*
G01*
X-125000Y-140000D02*
G03*
X-131450Y-155572I15572J-15572D01*
G01*
X113000Y-198000D02*
G03*
X124950Y-193050I0J16899D01*
G01*
X99000Y-196000D02*
G03*
X103828Y-198000I4828J4828D01*
G01*
X96000Y-188757D02*
G03*
X99000Y-196000I10243J0D01*
G01*
X126818Y-191182D02*
G03*
X130000Y-183500I-7682J7682D01*
G01*
X-45000Y-155000D02*
G03*
X-32808Y-160050I12192J12192D01*
G01*
X-45000Y-155000D02*
G03*
X-55864Y-150500I-10864J-10864D01*
G01*
X46500Y-154400D02*
G03*
X29480Y-147350I-17020J-17020D01*
G01*
X96691Y-158804D02*
G03*
X96000Y-162273I8356J-3469D01*
G01*
X98650Y-155875D02*
G03*
X96691Y-158804I6398J-6398D01*
G01*
X92000Y-118000D02*
G03*
X98650Y-101945I-16055J16055D01*
G01*
X79929Y-123000D02*
G03*
X92000Y-118000I0J17071D01*
G01*
X66485Y-123000D02*
G03*
X52000Y-129000I0J-20485D01*
G01*
D02*
G03*
X46500Y-142278I13278J-13278D01*
G01*
X-152000Y-201750D02*
X-151265D01*
X-132079Y-194826D02*
X-131753Y-194500D01*
X-134497D02*
X-131753D01*
X-27250Y-147350D02*
X-14406D01*
X0Y-185000D02*
Y-158237D01*
X-131450Y-175500D02*
Y-155572D01*
X103828Y-198000D02*
X113000D01*
X96000Y-188757D02*
Y-162273D01*
X124950Y-193050D02*
X126818Y-191182D01*
X85950Y-153800D02*
Y-137050D01*
Y-155875D02*
Y-153800D01*
X-27875Y-134650D02*
X-26875D01*
X-45650D02*
X-27875D01*
X-46000Y-135000D02*
X-45650Y-134650D01*
X-32808Y-160050D02*
X-26875D01*
X-58500Y-150500D02*
X-55864D01*
X28875Y-147350D02*
X29480D01*
X46500Y-154400D02*
Y-142278D01*
X66485Y-123000D02*
X79929D01*
X98650Y-101945D02*
Y-100125D01*
X85950Y-137050D02*
X86000Y-137000D01*
X84121Y-103000D02*
X85950Y-101171D01*
X65000Y-103000D02*
X84121D01*
X85950Y-101171D02*
Y-100125D01*
X-58500Y-150500D02*
X-58250Y-150250D01*
D18*
X27250Y-121950D02*
D03*
Y-160050D02*
D03*
Y-147350D02*
D03*
Y-134650D02*
D03*
X-27250Y-160050D02*
D03*
Y-147350D02*
D03*
Y-134650D02*
D03*
D19*
X111350Y-153800D02*
D03*
X85950D02*
D03*
X98650D02*
D03*
X124050D02*
D03*
Y-102200D02*
D03*
X111350D02*
D03*
X98650D02*
D03*
X85950D02*
D03*
D20*
X-58750Y-169500D02*
D03*
X-81610Y-159975D02*
D03*
X-58750Y-150450D02*
D03*
D21*
X-131450Y-185000D02*
D03*
Y-194500D02*
D03*
Y-175500D02*
D03*
X-108550Y-194500D02*
D03*
Y-175500D02*
D03*
D22*
X-27250Y-121950D02*
D03*
D34*
X172750Y-104600D02*
D03*
X55000Y-70000D02*
D03*
X-182500Y-87250D02*
D03*
X-55000Y-70000D02*
D03*
X-90000Y-101900D02*
D03*
X-152000Y-201750D02*
D03*
X-24000Y-100000D02*
D03*
X200500Y-89250D02*
D03*
X172750Y-28400D02*
D03*
X145000Y-103000D02*
D03*
X65000D02*
D03*
X46500Y-154400D02*
D03*
Y-230600D02*
D03*
X-105000Y-220000D02*
D03*
X-90000Y-178100D02*
D03*
X-125000Y-140000D02*
D03*
Y-216200D02*
D03*
D35*
X145000Y-153000D02*
D03*
X65000D02*
D03*
X-152000Y-151750D02*
D03*
X-182500Y-37250D02*
D03*
X200500Y-39250D02*
D03*
D36*
X-55000Y-220000D02*
D03*
X26000Y-100000D02*
D03*
X-105000Y-70000D02*
D03*
X105000D02*
D03*
D39*
X-165000Y-225000D02*
D03*
D40*
X-190400D02*
D03*
D41*
X80000Y-50000D02*
D03*
Y-11500D02*
D03*
Y-37250D02*
D03*
Y-24250D02*
D03*
X-80000Y-50000D02*
D03*
Y-11500D02*
D03*
Y-37250D02*
D03*
Y-24250D02*
D03*
X-219000Y-20250D02*
D03*
Y5500D02*
D03*
Y-33000D02*
D03*
Y-7250D02*
D03*
D42*
X-15000Y-1000D02*
D03*
X-96000Y139000D02*
D03*
X66000D02*
D03*
X25400Y-185000D02*
D03*
X0D02*
D03*
X-25400D02*
D03*
D43*
X-75000Y95000D02*
D03*
X125000D02*
D03*
X250000Y-15000D02*
D03*
X185000D02*
D03*
D44*
X159000Y-180500D02*
D03*
X85000D02*
D03*
X159000Y-228000D02*
D03*
X85000D02*
D03*
D45*
X106000Y-171500D02*
D03*
X138000D02*
D03*
X130000Y-183500D02*
D03*
X122000Y-171500D02*
D03*
X114000Y-183500D02*
D03*
D46*
X45000Y-177000D02*
D03*
X-46000Y-135000D02*
D03*
X111000Y-122000D02*
D03*
X86000Y-137000D02*
D03*
M02*
