G04*
G04 #@! TF.GenerationSoftware,Altium Limited,Altium Designer,25.5.2 (35)*
G04*
G04 Layer_Color=32896*
%FSLAX44Y44*%
%MOMM*%
G71*
G04*
G04 #@! TF.SameCoordinates,B6E77A7C-BDCE-411E-9E10-EA7D0F22C657*
G04*
G04*
G04 #@! TF.FilePolarity,Positive*
G04*
G01*
G75*
%ADD47C,0.0767*%
D47*
X221114Y-53135D02*
G03*
X218559Y-59381I12254J-8659D01*
G01*
X218559Y-59381D02*
G03*
X217355Y-70592I101961J-16617D01*
G01*
X213523Y-93095D02*
G03*
X217355Y-70592I-94371J27649D01*
G01*
X204673Y-112900D02*
G03*
X213523Y-93095I-68373J42430D01*
G01*
X-124806Y-79330D02*
G03*
X-123085Y-77966I-5954J9281D01*
G01*
X-147725Y-69474D02*
G03*
X-146370Y-74428I17396J2094D01*
G01*
X-148570Y-60220D02*
G03*
X-147725Y-69474I161821J10121D01*
G01*
X-152062Y-248314D02*
G03*
X-149283Y-243349I-23671J16505D01*
G01*
X-117502Y-235558D02*
G03*
X-149283Y-243349I-11995J-19786D01*
G01*
X-155854Y-252842D02*
G03*
X-152062Y-248314I-23643J23656D01*
G01*
X-133391Y-82369D02*
G03*
X-130682Y-81949I71J8493D01*
G01*
X-146370Y-74428D02*
G03*
X-143941Y-77660I8100J3559D01*
G01*
X-118549Y-68663D02*
G03*
X-118388Y-65279I-24260J2846D01*
G01*
X-139707Y-80394D02*
G03*
X-136074Y-81902I14952J30886D01*
G01*
X-136074Y-81902D02*
G03*
X-133391Y-82369I2753J7879D01*
G01*
X-143941Y-77660D02*
G03*
X-139707Y-80394I13225J15837D01*
G01*
X-126957Y-80500D02*
G03*
X-124806Y-79330I-7023J15470D01*
G01*
X-130682Y-81949D02*
G03*
X-126957Y-80500I-11253J34440D01*
G01*
X-123085Y-77966D02*
G03*
X-121648Y-76269I-7910J8159D01*
G01*
X-118388Y-65279D02*
G03*
X-118605Y-59235I-217948J-4802D01*
G01*
X-120348Y-74093D02*
G03*
X-119141Y-71255I-19752J10077D01*
G01*
X-121648Y-76269D02*
G03*
X-120348Y-74093I-15673J10835D01*
G01*
X-119141Y-71255D02*
G03*
X-118549Y-68663I-11669J4030D01*
G01*
X190679Y-129928D02*
G03*
X204673Y-112900I-56873J61006D01*
G01*
X193212Y-167823D02*
G03*
X177432Y-151490I-81400J-62852D01*
G01*
X205217Y-187389D02*
G03*
X193212Y-167823I-96925J-46005D01*
G01*
X177337Y-140650D02*
G03*
X177432Y-151490I5468J-5373D01*
G01*
X149076Y-243349D02*
G03*
X151854Y-248314I26450J11539D01*
G01*
X94017Y-246562D02*
G03*
X107298Y-241595I-19201J71579D01*
G01*
X79177Y-249301D02*
G03*
X94017Y-246562I-9751J94413D01*
G01*
X64120Y-249650D02*
G03*
X79177Y-249301I5343J94398D01*
G01*
X50199Y-247493D02*
G03*
X64120Y-249650I18022J70290D01*
G01*
X149755Y-244844D02*
G03*
X117219Y-235708I-20541J-10651D01*
G01*
X107298Y-241595D02*
G03*
X117295Y-235558I-28615J58682D01*
G01*
X151854Y-248314D02*
G03*
X155647Y-252842I27435J19129D01*
G01*
X155647Y-252842D02*
G03*
X160568Y-256998I27226J27241D01*
G01*
X118175Y-65269D02*
G03*
X118341Y-68659I24579J-501D01*
G01*
X139500Y-80394D02*
G03*
X143734Y-77660I-8990J18571D01*
G01*
X133183Y-82369D02*
G03*
X135867Y-81902I-69J8346D01*
G01*
X135867Y-81902D02*
G03*
X139500Y-80394I-11320J32394D01*
G01*
X130475Y-81949D02*
G03*
X133183Y-82369I2638J8074D01*
G01*
X143734Y-77660D02*
G03*
X146163Y-74428I-5670J6791D01*
G01*
X147518Y-69474D02*
G03*
X148363Y-60220I-160976J19374D01*
G01*
X118383Y-59235D02*
G03*
X118175Y-65269I216237J-10445D01*
G01*
X122878Y-77966D02*
G03*
X124599Y-79330I7675J7917D01*
G01*
X146163Y-74428D02*
G03*
X147518Y-69474I-16042J7048D01*
G01*
X121440Y-76269D02*
G03*
X122878Y-77966I9348J6462D01*
G01*
X118935Y-71257D02*
G03*
X120141Y-74093I20899J7211D01*
G01*
X118341Y-68659D02*
G03*
X118935Y-71257I12364J1463D01*
G01*
X124599Y-79330D02*
G03*
X126750Y-80500I9175J14299D01*
G01*
X120141Y-74093D02*
G03*
X121440Y-76269I16973J8659D01*
G01*
X126750Y-80500D02*
G03*
X130475Y-81949I14978J32991D01*
G01*
X-218766Y-59381D02*
G03*
X-221321Y-53135I-14809J-2413D01*
G01*
X-148570Y-60220D02*
G03*
X-149034Y-54734I-125710J-7862D01*
G01*
X-217562Y-70592D02*
G03*
X-218766Y-59381I-103165J-5406D01*
G01*
X-217562Y-70592D02*
G03*
X-213730Y-93095I98203J5146D01*
G01*
X-89746Y-247788D02*
G03*
X-70673Y-249812I18575J84136D01*
G01*
X-24229Y-235710D02*
G03*
X-14763Y-228440I-62723J91463D01*
G01*
X22073Y-234370D02*
G03*
X35836Y-242322I54204J77929D01*
G01*
X35836Y-242322D02*
G03*
X50199Y-247493I34441J73140D01*
G01*
X10048Y-224388D02*
G03*
X22073Y-234370I64519J65488D01*
G01*
X-33568Y-241168D02*
G03*
X-24229Y-235710I-33078J67311D01*
G01*
X6317Y-220600D02*
G03*
X-6557Y-220582I-6446J-6428D01*
G01*
X-14763Y-228440D02*
G03*
X-6557Y-220582I-67344J78543D01*
G01*
X-70673Y-249812D02*
G03*
X-51530Y-247567I-503J87026D01*
G01*
X-51530D02*
G03*
X-33568Y-241168I-18833J81275D01*
G01*
X-117502Y-235558D02*
G03*
X-107505Y-241595I38612J52645D01*
G01*
Y-241595D02*
G03*
X-89746Y-247788I34950J71674D01*
G01*
X-192588Y-260717D02*
G03*
X-179647Y-262972I12268J32142D01*
G01*
X-212711Y-208469D02*
G03*
X-214561Y-229277I76331J-17271D01*
G01*
X-205424Y-187388D02*
G03*
X-212711Y-208469I91510J-43435D01*
G01*
X-214561Y-229277D02*
G03*
X-213692Y-236975I57708J2611D01*
G01*
X-193419Y-167823D02*
G03*
X-205424Y-187389I84920J-65570D01*
G01*
X-204880Y-112900D02*
G03*
X-190886Y-129928I70868J43979D01*
G01*
X-177640Y-151490D02*
G03*
X-177545Y-140650I-5373J5468D01*
G01*
X-177639Y-151490D02*
G03*
X-193419Y-167823I65621J-79185D01*
G01*
X-213730Y-93095D02*
G03*
X-204880Y-112900I77223J22625D01*
G01*
X-203697Y-253778D02*
G03*
X-192588Y-260717I23240J24846D01*
G01*
X-211818Y-243068D02*
G03*
X-208615Y-248406I23158J10268D01*
G01*
X-208615Y-248406D02*
G03*
X-203697Y-253778I37036J28964D01*
G01*
X-179647Y-262972D02*
G03*
X-166772Y-260213I-677J34580D01*
G01*
Y-260213D02*
G03*
X-155854Y-252842I-13577J31881D01*
G01*
X-213692Y-236975D02*
G03*
X-211818Y-243068I26426J4793D01*
G01*
X178288Y-262728D02*
G03*
X185498Y-262519I2422J40928D01*
G01*
X213485Y-236975D02*
G03*
X214353Y-229277I-56840J10308D01*
G01*
X208408Y-248406D02*
G03*
X211611Y-243068I-19955J15605D01*
G01*
X212504Y-208469D02*
G03*
X205216Y-187389I-98798J-22354D01*
G01*
X211611Y-243068D02*
G03*
X213485Y-236975I-24552J10886D01*
G01*
X214354Y-229277D02*
G03*
X212504Y-208469I-78180J3537D01*
G01*
X203490Y-253778D02*
G03*
X208408Y-248406I-32118J34337D01*
G01*
X165797Y-259956D02*
G03*
X171613Y-261824I12140J27803D01*
G01*
X197904Y-258112D02*
G03*
X203490Y-253778I-20624J32355D01*
G01*
X171613Y-261824D02*
G03*
X178288Y-262728I9314J43702D01*
G01*
X191973Y-261008D02*
G03*
X197904Y-258112I-9781J27543D01*
G01*
X160568Y-256998D02*
G03*
X165797Y-259956I16921J23820D01*
G01*
X185498Y-262519D02*
G03*
X191973Y-261008I-3471J29522D01*
G01*
X264758Y-17113D02*
G03*
X264890Y-12283I-88355J4821D01*
G01*
X264361Y-4437D02*
G03*
X263549Y-1496I-19163J-3712D01*
G01*
X256670Y-35091D02*
G03*
X261476Y-27537I-32056J25701D01*
G01*
X259033Y7229D02*
G03*
X254965Y12045I-30572J-21701D01*
G01*
X250684Y-40716D02*
G03*
X256670Y-35091I-16869J23950D01*
G01*
X263341Y-23422D02*
G03*
X264309Y-20366I-17115J7102D01*
G01*
X264766Y-7720D02*
G03*
X264361Y-4437I-24069J-1301D01*
G01*
X264890Y-12283D02*
G03*
X264766Y-7720I-84700J-9D01*
G01*
X243181Y-44605D02*
G03*
X250684Y-40716I-10522J29479D01*
G01*
X263549Y-1496D02*
G03*
X262143Y1894I-38138J-13826D01*
G01*
X254965Y12045D02*
G03*
X250149Y16109I-26477J-26490D01*
G01*
X264309Y-20366D02*
G03*
X264758Y-17113I-19372J4335D01*
G01*
X250149Y16109D02*
G03*
X244819Y19210I-19882J-28044D01*
G01*
X261476Y-27537D02*
G03*
X263341Y-23422I-63218J31122D01*
G01*
X262143Y1894D02*
G03*
X259033Y7229I-31280J-14661D01*
G01*
X59550Y206658D02*
G03*
X51609Y209811I-47629J-108368D01*
G01*
X68868Y202328D02*
G03*
X59550Y206658I-108223J-220709D01*
G01*
X51609Y209811D02*
G03*
X43364Y212420I-40880J-114873D01*
G01*
X122792Y158097D02*
G03*
X98261Y183409I-123609J-95249D01*
G01*
Y183409D02*
G03*
X68868Y202328I-95877J-116665D01*
G01*
X-148797Y16885D02*
G03*
X-141488Y-1825I135055J41974D01*
G01*
X-141488D02*
G03*
X-130829Y-21595I199070J94566D01*
G01*
X-149034Y-54484D02*
G03*
X-149748Y-48854I-141376J-15068D01*
G01*
X-70729Y201753D02*
G03*
X-91420Y189022I68144J-133932D01*
G01*
X-155327Y57229D02*
G03*
X-153256Y36064I183438J7272D01*
G01*
X-91420Y189022D02*
G03*
X-110111Y172956I94072J-128345D01*
G01*
X-153256Y36064D02*
G03*
X-148797Y16885I133541J20939D01*
G01*
X-153384Y89389D02*
G03*
X-155327Y57229I159320J-25767D01*
G01*
X-110111Y172956D02*
G03*
X-130515Y147920I115286J-114791D01*
G01*
X-145069Y119858D02*
G03*
X-153384Y89389I138935J-54284D01*
G01*
X-130515Y147920D02*
G03*
X-145069Y119858I124641J-82447D01*
G01*
X-118605Y-58985D02*
G03*
X-119685Y-49197I-81848J-4077D01*
G01*
X-119686Y-49197D02*
G03*
X-121906Y-40239I-62368J-10707D01*
G01*
X220766Y21261D02*
G03*
X212617Y19728I7449J-62007D01*
G01*
X241299Y20663D02*
G03*
X238347Y21445I-5942J-16480D01*
G01*
X244819Y19210D02*
G03*
X241299Y20663I-17716J-37916D01*
G01*
X184069Y6735D02*
G03*
X179796Y3176I28244J-38253D01*
G01*
X188458Y9548D02*
G03*
X184069Y6735I19075J-34594D01*
G01*
X234921Y21792D02*
G03*
X229627Y21842I-3858J-127652D01*
G01*
Y21842D02*
G03*
X220766Y21261I922J-82016D01*
G01*
X179796Y3176D02*
G03*
X173566Y-2859I179747J-191785D01*
G01*
X238347Y21445D02*
G03*
X234921Y21792I-4164J-24032D01*
G01*
X173566Y-2859D02*
G03*
X167940Y-8693I163312J-163112D01*
G01*
X-11417Y218194D02*
G03*
X-23440Y217054I2077J-85870D01*
G01*
X-48050Y211091D02*
G03*
X-70729Y201753I46844J-145982D01*
G01*
X-23440Y217054D02*
G03*
X-48050Y211091I28571J-171693D01*
G01*
X21043Y217048D02*
G03*
X4814Y218104I-25859J-272255D01*
G01*
X33086Y215062D02*
G03*
X21043Y217048I-20440J-86416D01*
G01*
X43364Y212420D02*
G03*
X33085Y215062I-73406J-264252D01*
G01*
X4814Y218104D02*
G03*
X-11417Y218194I-9624J-273100D01*
G01*
X233854Y-46993D02*
G03*
X225777Y-49214I6024J-37709D01*
G01*
X225777Y-49214D02*
G03*
X221114Y-52885I3849J-9686D01*
G01*
X233854Y-46993D02*
G03*
X243181Y-44605I-8248J51628D01*
G01*
X154440Y80372D02*
G03*
X152554Y93725I-93023J-6334D01*
G01*
X141205Y127684D02*
G03*
X122792Y158097I-144263J-66564D01*
G01*
X152554Y32141D02*
G03*
X154440Y45494I-91136J19686D01*
G01*
X148939Y18209D02*
G03*
X152554Y32141I-167547J50905D01*
G01*
X154440Y45494D02*
G03*
X155033Y62933I-256133J17439D01*
G01*
X144299Y5126D02*
G03*
X148939Y18209I-140320J57126D01*
G01*
X155033Y62933D02*
G03*
X154440Y80372I-256726J-0D01*
G01*
X152554Y93725D02*
G03*
X141205Y127684I-159724J-34502D01*
G01*
X130732Y-21460D02*
G03*
X138335Y-7848I-195805J118286D01*
G01*
Y-7848D02*
G03*
X144299Y5126I-143285J73734D01*
G01*
X-259339Y-32046D02*
G03*
X-254480Y-37836I32629J22450D01*
G01*
D02*
G03*
X-248955Y-42084I20158J20498D01*
G01*
X-242307Y-45048D02*
G03*
X-234061Y-46993I17380J55237D01*
G01*
X-225984Y-49214D02*
G03*
X-234061Y-46993I-14101J-35488D01*
G01*
X-248955Y-42084D02*
G03*
X-242307Y-45048I16204J27402D01*
G01*
X-221321Y-52885D02*
G03*
X-225984Y-49214I-8512J-6015D01*
G01*
X-162787Y-15663D02*
G03*
X-181198Y4089I-72958J-49548D01*
G01*
X-125524Y-31312D02*
G03*
X-130829Y-21595I-108975J-53194D01*
G01*
X-121906Y-40239D02*
G03*
X-125524Y-31312I-66334J-21687D01*
G01*
X-149748Y-48854D02*
G03*
X-150614Y-43710I-124480J-18316D01*
G01*
X-151540Y-39786D02*
G03*
X-162787Y-15663I-80221J-22719D01*
G01*
X-150614Y-43710D02*
G03*
X-151540Y-39786I-44815J-8505D01*
G01*
X194882Y12880D02*
G03*
X188458Y9548I62111J-127626D01*
G01*
X161288Y-17374D02*
G03*
X158332Y-22673I74215J-44874D01*
G01*
X212617Y19728D02*
G03*
X204295Y17022I17662J-68473D01*
G01*
X167940Y-8693D02*
G03*
X164214Y-13095I44821J-41728D01*
G01*
X164214Y-13095D02*
G03*
X161288Y-17374I36834J-28321D01*
G01*
X204296Y17022D02*
G03*
X194882Y12880I49305J-124797D01*
G01*
X-245027Y19210D02*
G03*
X-257007Y10060I14945J-31986D01*
G01*
X-264068Y-3248D02*
G03*
X-264897Y-18215I33535J-9364D01*
G01*
X-241506Y20663D02*
G03*
X-245027Y19210I14195J-39369D01*
G01*
X-235128Y21792D02*
G03*
X-238555Y21445I737J-24379D01*
G01*
Y21445D02*
G03*
X-241506Y20663I2991J-17261D01*
G01*
X-229834Y21842D02*
G03*
X-235128Y21792I-1436J-127702D01*
G01*
X-257007Y10060D02*
G03*
X-264068Y-3248I26858J-22779D01*
G01*
X-204473Y17141D02*
G03*
X-229834Y21842I-26208J-70635D01*
G01*
X-181198Y4089D02*
G03*
X-204473Y17141I-53192J-67577D01*
G01*
X-264897Y-18215D02*
G03*
X-259339Y-32046I33630J5483D01*
G01*
X154148Y-31817D02*
G03*
X151283Y-40382I67976J-27499D01*
G01*
X158332Y-22673D02*
G03*
X154148Y-31817I100075J-51322D01*
G01*
X149442Y-49408D02*
G03*
X148363Y-59970I133577J-18983D01*
G01*
X121698Y-40329D02*
G03*
X119456Y-49294I60332J-19856D01*
G01*
Y-49294D02*
G03*
X118383Y-58985I77486J-13486D01*
G01*
X125362Y-31317D02*
G03*
X121699Y-40329I64157J-31332D01*
G01*
X130732Y-21460D02*
G03*
X125362Y-31317I107825J-65137D01*
G01*
X151283Y-40382D02*
G03*
X149442Y-49408I74208J-19835D01*
G01*
X177337Y-140650D02*
X190679Y-129928D01*
X6317Y-220600D02*
X10047Y-224388D01*
X-190886Y-129928D02*
X-177545Y-140650D01*
M02*
