G04*
G04 #@! TF.GenerationSoftware,Altium Limited,Altium Designer,25.5.2 (35)*
G04*
G04 Layer_Color=8388736*
%FSLAX44Y44*%
%MOMM*%
G71*
G04*
G04 #@! TF.SameCoordinates,B6E77A7C-BDCE-411E-9E10-EA7D0F22C657*
G04*
G04*
G04 #@! TF.FilePolarity,Negative*
G04*
G01*
G75*
%ADD23C,1.5500*%
%ADD24O,1.6540X0.8040*%
G04:AMPARAMS|DCode=25|XSize=1.964mm|YSize=0.804mm|CornerRadius=0.177mm|HoleSize=0mm|Usage=FLASHONLY|Rotation=90.000|XOffset=0mm|YOffset=0mm|HoleType=Round|Shape=RoundedRectangle|*
%AMROUNDEDRECTD25*
21,1,1.9640,0.4500,0,0,90.0*
21,1,1.6100,0.8040,0,0,90.0*
1,1,0.3540,0.2250,0.8050*
1,1,0.3540,0.2250,-0.8050*
1,1,0.3540,-0.2250,-0.8050*
1,1,0.3540,-0.2250,0.8050*
%
%ADD25ROUNDEDRECTD25*%
%ADD26R,0.9660X0.9660*%
%ADD27R,1.5240X0.7940*%
%ADD28R,1.6540X0.8040*%
%ADD29C,1.3000*%
%ADD30C,2.2040*%
%ADD31C,1.9000*%
%ADD32C,1.9040*%
%ADD33C,1.4040*%
%ADD34C,1.2000*%
%ADD35R,1.2000X1.2000*%
%ADD36R,1.2000X1.2000*%
%ADD37O,1.4000X2.5000*%
%ADD38C,1.3000*%
%ADD39R,1.4500X1.4500*%
%ADD40C,1.4500*%
G36*
X49451Y176617D02*
X49671Y176442D01*
X49714Y176267D01*
X49736Y176070D01*
X49692Y162010D01*
X49539Y161770D01*
X49342Y161704D01*
X49079Y161660D01*
X48948Y161704D01*
X44174Y161748D01*
X44108Y161813D01*
X44021Y162032D01*
X44043Y169237D01*
X43999Y169500D01*
X43867Y169719D01*
X43648Y169675D01*
X43539Y169434D01*
X43473Y169149D01*
X43386Y168930D01*
X43320Y168865D01*
X43188Y168558D01*
X43145Y168383D01*
X42707Y167463D01*
X42597Y167179D01*
X42312Y166631D01*
X42159Y166215D01*
X41918Y165755D01*
X41809Y165471D01*
X41612Y165098D01*
X41437Y164704D01*
X41349Y164485D01*
X40999Y163741D01*
X40889Y163456D01*
X40648Y162996D01*
X40560Y162777D01*
X40407Y162361D01*
X40210Y162032D01*
X40166Y161901D01*
X40144Y161879D01*
X40122Y161857D01*
X39969Y161704D01*
X33772Y161682D01*
X33619Y161748D01*
X33509Y161857D01*
X33465Y162032D01*
X33443Y176289D01*
X33487Y176464D01*
X33553Y176530D01*
X33597Y176617D01*
X33794Y176683D01*
X34626Y176639D01*
X38809Y176661D01*
X38962Y176595D01*
X39071Y176530D01*
X39115Y176442D01*
X39203Y176223D01*
X39159Y175785D01*
X39137Y168974D01*
X39159Y168952D01*
X39115Y168909D01*
X39159Y168777D01*
X39203Y168690D01*
X39400Y168668D01*
X39488Y168755D01*
X39575Y168799D01*
X39685Y168909D01*
X39772Y169128D01*
X39816Y169303D01*
X39925Y169587D01*
X40166Y170135D01*
X40210Y170310D01*
X40320Y170595D01*
X40560Y171098D01*
X40670Y171383D01*
X40758Y171602D01*
X40823Y171668D01*
X40955Y171975D01*
X41108Y172391D01*
X41196Y172610D01*
X41261Y172675D01*
X41393Y172982D01*
X41480Y173201D01*
X41590Y173486D01*
X41787Y173814D01*
X42028Y174493D01*
X42225Y174821D01*
X42312Y175040D01*
X42378Y175281D01*
X42466Y175500D01*
X42531Y175566D01*
X42575Y175653D01*
X42750Y176048D01*
X42926Y176354D01*
X43123Y176551D01*
X43210Y176595D01*
X43429Y176683D01*
X44524Y176639D01*
X44809Y176661D01*
X48816Y176639D01*
X48948Y176683D01*
X49451Y176617D01*
D02*
G37*
G36*
X30947Y176639D02*
X31122Y176595D01*
X31232Y176486D01*
X31275Y176311D01*
X31253Y175675D01*
X31275Y161945D01*
X31166Y161791D01*
X30947Y161704D01*
X30356Y161682D01*
X26260Y161704D01*
X26129Y161660D01*
X25800Y161726D01*
X25647Y161835D01*
X25582Y161901D01*
X25538Y162208D01*
X25560Y166478D01*
X25516Y167003D01*
X25406Y167157D01*
X25341Y167222D01*
X25165Y167266D01*
X24070Y167222D01*
X22078Y167244D01*
X21924Y167179D01*
X21771Y167025D01*
X21683Y166587D01*
X21727Y166456D01*
X21683Y161857D01*
X21574Y161748D01*
X21267Y161660D01*
X21092Y161704D01*
X16428Y161682D01*
X16209Y161770D01*
X16077Y161901D01*
X16034Y162076D01*
X16077Y176442D01*
X16274Y176639D01*
X16581Y176683D01*
X17019Y176639D01*
X21465Y176661D01*
X21618Y176551D01*
X21727Y176311D01*
X21771Y171712D01*
X21881Y171558D01*
X22056Y171515D01*
X22275Y171471D01*
X22406Y171515D01*
X23633Y171471D01*
X24815Y171515D01*
X24946Y171471D01*
X25341Y171515D01*
X25494Y171668D01*
X25538Y171843D01*
Y173902D01*
Y173945D01*
X25582Y176442D01*
X25735Y176595D01*
X25910Y176639D01*
X26217Y176683D01*
X26260Y176639D01*
X26304Y176683D01*
X26436Y176639D01*
X28691Y176661D01*
X30728Y176639D01*
X30815Y176683D01*
X30947Y176639D01*
D02*
G37*
G36*
X-30590Y176683D02*
X-29955Y176661D01*
X-18457Y176683D01*
X-18217Y176486D01*
X-18173Y176311D01*
X-18217Y173376D01*
X-18326Y173267D01*
X-18677Y173179D01*
X-19246Y173223D01*
X-24830Y173201D01*
X-25246Y173223D01*
X-25334Y173135D01*
X-25421Y173091D01*
X-25531Y172807D01*
X-25487Y172237D01*
X-25509Y171208D01*
X-25378Y171077D01*
X-25159Y170989D01*
X-19859D01*
X-18961Y171011D01*
X-18742Y170967D01*
X-18567Y170880D01*
X-18479Y170661D01*
X-18501Y170288D01*
X-18479Y168602D01*
X-18523Y168471D01*
X-18479Y168033D01*
X-18523Y167814D01*
X-18677Y167660D01*
X-19027Y167573D01*
X-19202Y167617D01*
X-25093Y167638D01*
X-25268Y167595D01*
X-25334Y167529D01*
X-25399Y167507D01*
X-25487Y167288D01*
X-25443Y165405D01*
X-25334Y165252D01*
X-24983Y165164D01*
X-24852Y165208D01*
X-18479Y165230D01*
X-18260Y165142D01*
X-18129Y165011D01*
X-18085Y164835D01*
X-18129Y164135D01*
X-18107Y163062D01*
X-18129Y162339D01*
X-18085Y162208D01*
X-18129Y161901D01*
X-18282Y161748D01*
X-18589Y161660D01*
X-18895Y161704D01*
X-31115Y161748D01*
X-31225Y161857D01*
X-31268Y162164D01*
X-31247Y162624D01*
X-31268Y176311D01*
X-31093Y176617D01*
X-31028Y176683D01*
X-30721Y176727D01*
X-30590Y176683D01*
D02*
G37*
G36*
X-67689Y181577D02*
X-67592Y181481D01*
X-67496Y181433D01*
X-67230Y181167D01*
X-67182Y181071D01*
X-67062Y180950D01*
X-66965Y180902D01*
X-66748Y180685D01*
X-66700Y180588D01*
X-66627Y180516D01*
X-66531Y180467D01*
X-65614Y179550D01*
X-65517Y179502D01*
X-65396Y179382D01*
X-65348Y179285D01*
X-65276Y179213D01*
X-65179Y179164D01*
X-64938Y178923D01*
X-64914Y178899D01*
X-64648Y178634D01*
X-64552Y178585D01*
X-64214Y178248D01*
X-64118Y178199D01*
X-64045Y178127D01*
X-63997Y178030D01*
X-63683Y177717D01*
X-63587Y177668D01*
X-63418Y177499D01*
X-63369Y177403D01*
X-63080Y177113D01*
X-63032Y177017D01*
X-62911Y176896D01*
X-62815Y176848D01*
X-60932Y174966D01*
X-60836Y174918D01*
X-60715Y174749D01*
X-60377Y174411D01*
X-60281Y174025D01*
X-60329Y173301D01*
X-60281Y173156D01*
X-60329Y172818D01*
X-60402Y172698D01*
X-60498Y172649D01*
X-60739Y172553D01*
X-61174Y172601D01*
X-61439Y172770D01*
X-61487Y172963D01*
X-61439Y173590D01*
X-61632Y173928D01*
X-61849Y174194D01*
X-61946Y174338D01*
X-62042Y174387D01*
X-62235Y174580D01*
X-62332Y174628D01*
X-62453Y174749D01*
X-62501Y174845D01*
X-63176Y175521D01*
X-63225Y175617D01*
X-63442Y175835D01*
X-63538Y175883D01*
X-64045Y176389D01*
X-64093Y176486D01*
X-64311Y176703D01*
X-64407Y176751D01*
X-64528Y176872D01*
X-64576Y176969D01*
X-64793Y177186D01*
X-64890Y177234D01*
X-65083Y177427D01*
X-65179Y177475D01*
X-65300Y177596D01*
X-65348Y177693D01*
X-66144Y178489D01*
X-66241Y178537D01*
X-66338Y178634D01*
X-66579Y178778D01*
X-66748Y178947D01*
X-66796Y179044D01*
X-66868Y179116D01*
X-66965Y179164D01*
X-67182Y179333D01*
X-67230Y179430D01*
X-67351Y179550D01*
X-67448Y179599D01*
X-67665Y179816D01*
X-67713Y179912D01*
X-67930Y180130D01*
X-68027Y180178D01*
X-68196Y180347D01*
X-68244Y180443D01*
X-68485Y180685D01*
X-68533Y180878D01*
X-68485Y181119D01*
X-68268Y181384D01*
X-68027Y181626D01*
X-67689Y181577D01*
D02*
G37*
G36*
X-69764Y179309D02*
X-69475Y179020D01*
X-69378Y178971D01*
X-69040Y178634D01*
X-68799Y178489D01*
X-68727Y178416D01*
X-68678Y178320D01*
X-68099Y177741D01*
X-68051Y177644D01*
X-67496Y177089D01*
X-67424Y177065D01*
X-67399Y176993D01*
X-67327Y176969D01*
X-67279Y176872D01*
X-67206Y176800D01*
X-67110Y176751D01*
X-66579Y176221D01*
X-66482Y176172D01*
X-66362Y176003D01*
X-66096Y175738D01*
X-66000Y175690D01*
X-65951Y175593D01*
X-65927Y175569D01*
X-65807Y175448D01*
X-65710Y175400D01*
X-65493Y175183D01*
X-65445Y175086D01*
X-65228Y174869D01*
X-65131Y174821D01*
X-64962Y174652D01*
X-64914Y174556D01*
X-64745Y174435D01*
X-64624Y174363D01*
X-64576Y174266D01*
X-64479Y174170D01*
X-64431Y174073D01*
X-64093Y173832D01*
X-64045Y173735D01*
X-63514Y173204D01*
X-63466Y173108D01*
X-63321Y172963D01*
X-63369Y172722D01*
X-63442Y172649D01*
X-63780Y172601D01*
X-63973Y172553D01*
X-64311Y172601D01*
X-64504Y172649D01*
X-64841Y172842D01*
X-65179Y173180D01*
X-65276Y173228D01*
X-66096Y174049D01*
X-66193Y174097D01*
X-66313Y174218D01*
X-66362Y174314D01*
X-66579Y174531D01*
X-66675Y174580D01*
X-66796Y174700D01*
X-66844Y174797D01*
X-67182Y175038D01*
X-67230Y175135D01*
X-67327Y175231D01*
X-67375Y175328D01*
X-67448Y175400D01*
X-67544Y175448D01*
X-68027Y175931D01*
X-68099Y175955D01*
X-68147Y176052D01*
X-68244Y176148D01*
X-68292Y176245D01*
X-68461Y176414D01*
X-68558Y176462D01*
X-68678Y176631D01*
X-68895Y176848D01*
X-68992Y176896D01*
X-69113Y177017D01*
X-69161Y177113D01*
X-69233Y177186D01*
X-69330Y177234D01*
X-69595Y177499D01*
X-69643Y177596D01*
X-69764Y177717D01*
X-69861Y177765D01*
X-70295Y178199D01*
X-70392Y178248D01*
X-70609Y178465D01*
X-70705Y178706D01*
X-70657Y178995D01*
X-70560Y179092D01*
X-70512Y179188D01*
X-70295Y179406D01*
X-70005Y179454D01*
X-69764Y179309D01*
D02*
G37*
G36*
X-72080Y177282D02*
X-71815Y177017D01*
X-71767Y176920D01*
X-71598Y176800D01*
X-71501Y176703D01*
X-71405Y176655D01*
X-71164Y176365D01*
X-71067Y176269D01*
X-70971Y176221D01*
X-70030Y175280D01*
X-69981Y175183D01*
X-69812Y175014D01*
X-69716Y174966D01*
X-69450Y174749D01*
X-68944Y174242D01*
X-68920Y174218D01*
X-68678Y173976D01*
X-68630Y173880D01*
X-68461Y173711D01*
X-68365Y173663D01*
X-68196Y173494D01*
X-68147Y173397D01*
X-67930Y173180D01*
X-67689Y173035D01*
X-67520Y172866D01*
X-67568Y172673D01*
X-67641Y172601D01*
X-67979Y172553D01*
X-68316Y172601D01*
X-68992Y172649D01*
X-69088Y172746D01*
X-69161Y172770D01*
X-69209Y172866D01*
X-69330Y172987D01*
X-69426Y173035D01*
X-69692Y173253D01*
X-69957Y173518D01*
X-70054Y173566D01*
X-71019Y174531D01*
X-71115Y174580D01*
X-71646Y175110D01*
X-71743Y175159D01*
X-71863Y175328D01*
X-73022Y176486D01*
X-72973Y176775D01*
X-72877Y176872D01*
X-72829Y176969D01*
X-72732Y177065D01*
X-72684Y177162D01*
X-72274Y177331D01*
X-72080Y177282D01*
D02*
G37*
G36*
X52145Y176639D02*
X66445Y176661D01*
X66620Y176617D01*
X66686Y176551D01*
X66774Y176508D01*
X66883Y176267D01*
X66839Y175303D01*
X66861Y172566D01*
X66752Y172412D01*
X66686Y172347D01*
X66336Y172259D01*
X65788Y172281D01*
X65591Y172259D01*
X65460Y172303D01*
X62657Y172259D01*
X62635Y172281D01*
X62175Y172303D01*
X61956Y172172D01*
X61846Y172062D01*
X61759Y171712D01*
X61803Y170748D01*
X61759Y161901D01*
X61606Y161748D01*
X61430Y161704D01*
X61167Y161660D01*
X61036Y161704D01*
X56459Y161682D01*
X56284Y161726D01*
X56109Y161901D01*
X56065Y162208D01*
X56109Y162514D01*
X56065Y172062D01*
X55956Y172215D01*
X55605Y172303D01*
X54861Y172259D01*
X54729Y172303D01*
X51291Y172281D01*
X51138Y172347D01*
X51072Y172412D01*
X50985Y172719D01*
X51028Y172894D01*
X51006Y176332D01*
X51160Y176573D01*
X51444Y176683D01*
X52145Y176639D01*
D02*
G37*
G36*
X-10618Y176902D02*
X-8296Y176858D01*
X-8165Y176814D01*
X-7836Y176749D01*
X-7464Y176639D01*
X-7114Y176551D01*
X-6785Y176486D01*
X-6610Y176442D01*
X-6391Y176354D01*
X-6019Y176201D01*
X-5712Y176113D01*
X-5493Y176026D01*
X-5187Y175851D01*
X-4880Y175632D01*
X-4793Y175588D01*
X-4683Y175478D01*
X-4639Y175391D01*
X-4289Y175040D01*
X-4245Y174953D01*
X-4157Y174865D01*
X-4114Y174778D01*
X-3851Y174296D01*
X-3676Y173989D01*
X-3588Y173683D01*
X-3500Y172719D01*
X-3544Y171843D01*
X-3588Y171712D01*
X-3654Y171427D01*
X-4092Y170726D01*
X-4333Y170485D01*
X-4376Y170398D01*
X-4464Y170310D01*
X-4508Y170223D01*
X-4573Y170157D01*
X-4661Y170113D01*
X-4880Y169894D01*
X-4968Y169850D01*
X-5274Y169719D01*
X-5559Y169609D01*
X-5690Y169390D01*
X-5646Y169215D01*
X-5581Y169149D01*
X-5296Y169040D01*
X-5055Y168930D01*
X-4705Y168799D01*
X-4464Y168602D01*
X-4311Y168493D01*
X-4070Y168295D01*
X-3588Y167814D01*
X-3544Y167726D01*
X-3325Y167376D01*
X-3282Y167288D01*
X-3150Y166982D01*
X-3106Y166675D01*
X-3063Y166237D01*
X-3019Y165668D01*
X-3063Y165492D01*
X-3106Y165011D01*
X-3150Y164879D01*
X-3260Y164594D01*
X-3610Y163894D01*
X-3676Y163828D01*
X-3720Y163741D01*
X-3851Y163609D01*
X-3895Y163521D01*
X-4026Y163390D01*
X-4070Y163302D01*
X-4179Y163193D01*
X-4267Y163149D01*
X-4486Y162930D01*
X-4573Y162886D01*
X-4749Y162711D01*
X-5406Y162361D01*
X-5800Y162186D01*
X-5975Y162142D01*
X-6325Y162010D01*
X-6632Y161879D01*
X-7245Y161791D01*
X-7420Y161748D01*
X-7705Y161682D01*
X-7880Y161638D01*
X-8143Y161594D01*
X-8712Y161551D01*
X-9238Y161463D01*
X-10158Y161419D01*
X-11318Y161397D01*
X-11450Y161441D01*
X-12720Y161485D01*
X-12851Y161529D01*
X-13421Y161572D01*
X-13552Y161616D01*
X-14297Y161704D01*
X-14472Y161748D01*
X-14888Y161813D01*
X-15589Y161901D01*
X-15764Y161945D01*
X-16005Y162054D01*
X-16399Y162273D01*
X-16465Y162339D01*
X-16509Y162514D01*
X-16465Y163478D01*
X-16487Y164989D01*
X-16465Y165361D01*
X-16509Y165492D01*
X-16465Y165799D01*
X-16399Y165865D01*
X-16224Y165909D01*
X-15983Y165843D01*
X-15764Y165755D01*
X-15392Y165646D01*
X-15019Y165580D01*
X-14581Y165492D01*
X-14231Y165405D01*
X-13859Y165295D01*
X-13684Y165252D01*
X-13070Y165164D01*
X-12216Y165098D01*
X-10968Y165076D01*
X-10837Y165120D01*
X-10223Y165164D01*
X-10092Y165208D01*
X-9435Y165558D01*
X-9348Y165646D01*
X-9260Y165690D01*
X-9194Y165755D01*
X-9150Y165843D01*
X-9063Y166062D01*
X-9019Y166237D01*
X-9063Y166982D01*
X-9260Y167222D01*
X-9610Y167573D01*
X-9829Y167660D01*
X-10005Y167704D01*
X-10333Y167770D01*
X-10683Y167857D01*
X-11275Y167923D01*
X-11756Y167967D01*
X-11888Y167923D01*
X-12348Y167901D01*
X-13026Y167923D01*
X-13114Y167879D01*
X-13246Y167923D01*
X-13640Y167879D01*
X-13924Y168033D01*
X-14012Y168339D01*
X-13990Y169368D01*
X-14012Y170485D01*
X-13859Y170770D01*
X-13552Y170858D01*
X-13333Y170814D01*
X-13202Y170858D01*
X-12501Y170814D01*
X-12370Y170858D01*
X-10837Y170814D01*
X-10705Y170858D01*
X-10333Y170923D01*
X-9895Y171011D01*
X-9676Y171098D01*
X-9523Y171208D01*
X-9369Y171361D01*
X-9326Y171449D01*
X-9260Y171515D01*
X-9194Y171537D01*
X-9150Y171624D01*
X-9063Y171843D01*
X-9107Y172456D01*
X-9194Y172544D01*
X-9238Y172631D01*
X-9610Y173004D01*
X-9698Y173048D01*
X-9917Y173135D01*
X-10092Y173179D01*
X-10771Y173288D01*
X-10946Y173332D01*
X-11165Y173376D01*
X-11516Y173420D01*
X-11800Y173442D01*
X-11932Y173398D01*
X-12698Y173332D01*
X-12961Y173288D01*
X-13311Y173245D01*
X-13793Y173201D01*
X-14056Y173157D01*
X-14231Y173113D01*
X-14669Y173026D01*
X-14844Y172982D01*
X-15129Y172872D01*
X-15436Y172785D01*
X-15786Y172697D01*
X-16005Y172741D01*
X-16114Y172850D01*
X-16158Y172982D01*
Y173026D01*
X-16114Y173726D01*
X-16070Y176179D01*
X-15917Y176376D01*
X-15611Y176464D01*
X-15436Y176508D01*
X-14778Y176551D01*
X-14647Y176595D01*
X-13924Y176749D01*
X-13333Y176814D01*
X-12764Y176858D01*
X-10771Y176924D01*
X-10749Y176946D01*
X-10618Y176902D01*
D02*
G37*
G36*
X-74252Y175062D02*
X-74156Y174966D01*
X-74059Y174918D01*
X-73842Y174700D01*
X-73794Y174604D01*
X-73721Y174531D01*
X-73625Y174483D01*
X-73311Y174170D01*
X-73166Y173928D01*
X-72756Y173518D01*
X-72660Y173470D01*
X-72225Y173035D01*
X-72129Y172987D01*
X-71743Y172601D01*
X-71646Y172553D01*
X-71477Y172384D01*
X-71429Y172287D01*
X-71236Y171853D01*
X-71188Y171129D01*
X-71139Y171081D01*
X-71236Y170791D01*
X-71308Y170719D01*
X-71646Y170767D01*
X-71912Y171033D01*
X-71960Y171129D01*
X-72249Y171419D01*
X-72298Y171515D01*
X-72418Y171636D01*
X-72515Y171684D01*
X-72611Y171781D01*
X-72708Y171829D01*
X-72829Y171998D01*
X-72925Y172094D01*
X-72973Y172191D01*
X-73142Y172311D01*
X-73263Y172480D01*
X-73456Y172673D01*
X-73480Y172698D01*
X-73697Y172866D01*
X-73721Y172939D01*
X-73818Y172987D01*
X-73963Y173132D01*
X-74059Y173180D01*
X-74397Y173518D01*
X-74494Y173566D01*
X-74614Y173687D01*
X-74662Y173783D01*
X-74831Y173952D01*
X-74928Y174001D01*
X-75024Y174097D01*
X-75097Y174121D01*
X-75145Y174314D01*
X-75097Y174604D01*
X-75000Y174700D01*
X-74952Y174797D01*
X-74687Y175062D01*
X-74494Y175110D01*
X-74252Y175062D01*
D02*
G37*
G36*
X-68799Y171105D02*
X-62863Y171057D01*
X-62573Y170960D01*
X-62549Y170936D01*
X-62308Y170840D01*
X-61922Y170695D01*
X-61512Y170285D01*
X-61415Y170236D01*
X-61294Y170116D01*
X-61077Y169512D01*
X-61005Y169247D01*
X-61053Y168861D01*
X-61487Y168040D01*
X-61705Y167823D01*
X-61801Y167775D01*
X-61946Y167630D01*
X-62042Y167582D01*
X-62187Y167437D01*
X-62284Y167389D01*
X-62380Y167292D01*
X-62621Y167196D01*
X-62959Y167099D01*
X-63394Y166858D01*
X-63731Y166713D01*
X-64045Y166641D01*
X-64238Y166593D01*
X-64479Y166496D01*
X-64745Y166376D01*
X-65131Y166279D01*
X-65589Y166110D01*
X-65831Y166014D01*
X-66096Y165941D01*
X-66362Y166014D01*
X-66627Y166134D01*
X-66820Y166182D01*
X-67086Y166255D01*
X-67303Y166424D01*
X-67641Y166569D01*
X-67834Y166617D01*
X-68075Y166713D01*
X-68340Y166930D01*
X-68630Y167220D01*
X-68678Y167558D01*
X-68630Y167703D01*
X-68606Y168016D01*
X-68630Y168813D01*
X-68461Y169078D01*
X-68268Y169126D01*
X-67448Y169174D01*
X-67303Y169126D01*
X-66507Y169150D01*
X-66265Y169054D01*
X-65976Y168764D01*
X-65638Y168137D01*
X-65469Y167968D01*
X-65228Y167871D01*
X-63587Y167920D01*
X-63345Y168016D01*
X-63249Y168064D01*
X-62983Y168282D01*
X-62694Y168475D01*
X-62501Y168909D01*
X-62453Y169150D01*
X-62597Y169488D01*
X-62646Y169585D01*
X-62815Y169802D01*
X-63249Y169995D01*
X-63587Y170091D01*
X-64069Y170140D01*
X-68582Y170164D01*
X-68823Y170116D01*
X-68992Y169995D01*
X-69064Y169923D01*
X-69113Y169585D01*
X-69137Y167051D01*
X-69088Y166858D01*
X-68968Y166689D01*
X-68847Y166569D01*
X-67834Y166086D01*
X-67592Y165989D01*
X-66965Y165700D01*
X-66651Y165627D01*
X-66482Y165555D01*
X-66362Y165434D01*
X-66217Y164952D01*
X-66265Y164180D01*
X-66241Y163673D01*
X-66265Y163649D01*
X-66217Y163600D01*
X-66265Y163456D01*
X-66313Y163214D01*
X-66482Y163046D01*
X-66675Y162997D01*
X-67665Y163021D01*
X-68365Y162997D01*
X-68509Y163046D01*
X-68847Y162997D01*
X-69861Y163046D01*
X-69981Y163118D01*
X-70078Y163359D01*
X-70126Y163697D01*
X-70078Y164035D01*
X-70126Y164614D01*
X-70078Y164759D01*
X-70102Y165941D01*
X-70078Y166737D01*
X-70126Y166882D01*
X-70102Y167534D01*
X-70126Y167703D01*
X-70078Y167847D01*
X-70102Y170719D01*
X-70054Y170912D01*
X-69933Y171081D01*
X-69716Y171153D01*
X-68799Y171105D01*
D02*
G37*
G36*
X-61222Y167003D02*
X-61125Y166955D01*
X-61005Y166834D01*
X-60957Y166641D01*
X-60981Y165072D01*
X-60957Y163456D01*
X-61005Y163311D01*
X-61150Y163070D01*
X-61367Y162997D01*
X-61560Y163046D01*
X-61680Y163166D01*
X-61729Y163649D01*
X-61777Y164517D01*
X-61898Y164686D01*
X-62042Y164734D01*
X-62260Y164517D01*
X-62332Y164349D01*
X-62356Y164324D01*
X-62404Y164131D01*
X-62428Y163962D01*
X-62404Y163311D01*
X-62621Y163094D01*
X-62863Y163142D01*
X-62935Y163214D01*
X-62983Y163407D01*
X-63032Y164324D01*
X-63152Y164542D01*
X-63345Y164590D01*
X-63466Y164469D01*
X-63563Y164228D01*
X-63587Y163962D01*
X-63563Y163311D01*
X-63707Y163070D01*
X-63925Y163046D01*
X-64093Y163214D01*
X-64142Y163697D01*
X-64093Y163842D01*
X-64142Y164324D01*
X-64359Y164638D01*
X-64600Y164590D01*
X-64721Y164469D01*
X-64817Y164083D01*
X-64769Y163745D01*
X-64817Y163263D01*
X-64914Y163166D01*
X-64962Y163070D01*
X-65179Y162997D01*
X-65324Y163046D01*
X-65445Y163166D01*
X-65493Y163359D01*
X-65445Y165193D01*
X-65276Y165458D01*
X-65083Y165507D01*
X-64407Y165555D01*
X-64311Y165651D01*
X-63973Y165796D01*
X-63659Y165917D01*
X-63201Y166134D01*
X-63080Y166255D01*
X-63032Y166351D01*
X-62911Y166472D01*
X-62597Y166544D01*
X-62356Y166593D01*
X-61970Y166737D01*
X-61849Y166858D01*
X-61753Y166906D01*
X-61512Y167003D01*
X-61367Y167051D01*
X-61222Y167003D01*
D02*
G37*
G36*
X-46926Y176639D02*
X-38254Y176595D01*
X-38123Y176551D01*
X-37400Y176486D01*
X-37137Y176442D01*
X-36962Y176398D01*
X-36743Y176311D01*
X-36678Y176245D01*
X-36371Y176157D01*
X-36196Y176113D01*
X-35955Y176048D01*
X-35736Y175960D01*
X-35583Y175851D01*
X-35320Y175675D01*
X-35013Y175500D01*
X-34882Y175369D01*
X-34794Y175325D01*
X-34575Y175106D01*
X-34488Y175062D01*
X-34400Y174975D01*
X-34378Y174953D01*
X-34247Y174821D01*
X-34203Y174734D01*
X-34028Y174559D01*
X-33984Y174471D01*
X-33896Y174383D01*
X-33853Y174296D01*
X-33568Y173880D01*
X-33458Y173639D01*
X-33415Y173464D01*
X-33327Y173245D01*
X-33152Y172982D01*
X-33064Y172675D01*
X-32998Y172259D01*
X-32955Y171734D01*
X-32933Y170792D01*
X-32977Y170661D01*
X-33042Y170245D01*
X-33086Y170069D01*
X-33217Y169719D01*
X-33371Y169347D01*
X-33524Y168930D01*
X-33699Y168668D01*
X-33853Y168471D01*
X-33896Y168383D01*
X-34093Y168142D01*
X-34247Y167989D01*
X-34290Y167901D01*
X-34838Y167354D01*
X-34926Y167310D01*
X-35495Y166916D01*
X-35714Y166828D01*
X-35802Y166784D01*
X-36108Y166565D01*
X-36349Y166500D01*
X-36568Y166456D01*
X-37335Y166215D01*
X-37619Y166149D01*
X-37838Y166106D01*
X-38232Y166062D01*
X-42130Y166018D01*
X-42371Y165865D01*
X-42437Y165668D01*
X-42415Y162186D01*
X-42459Y161967D01*
X-42634Y161748D01*
X-42809Y161704D01*
X-43116Y161660D01*
X-43291Y161704D01*
X-47824Y161682D01*
X-48043Y161770D01*
X-48087Y161857D01*
X-48175Y162076D01*
X-48131Y162777D01*
X-48153Y176289D01*
X-48065Y176508D01*
X-47934Y176639D01*
X-47758Y176683D01*
X-46926Y176639D01*
D02*
G37*
G36*
X7975Y176836D02*
X8237Y176792D01*
X8873Y176595D01*
X9551Y176442D01*
X9902Y176311D01*
X10274Y176157D01*
X10493Y176070D01*
X10668Y176026D01*
X10953Y175916D01*
X11062Y175807D01*
X11150Y175763D01*
X11238Y175675D01*
X11632Y175457D01*
X11763Y175325D01*
X11851Y175281D01*
X12223Y175040D01*
X12267Y174953D01*
X12573Y174646D01*
X12617Y174559D01*
X12880Y174296D01*
X12924Y174208D01*
X13187Y173945D01*
X13274Y173726D01*
X13493Y173332D01*
X13712Y172850D01*
X13822Y172566D01*
X13997Y172303D01*
X14063Y172062D01*
X14106Y171756D01*
X14172Y171471D01*
X14282Y171098D01*
X14325Y170923D01*
X14413Y170310D01*
X14457Y169215D01*
X14391Y167748D01*
X14347Y167485D01*
X14282Y167244D01*
X14194Y166938D01*
X14150Y166763D01*
X14106Y166675D01*
Y166631D01*
X14063Y166368D01*
X13800Y165755D01*
X13625Y165361D01*
X13406Y164967D01*
X13230Y164573D01*
X13187Y164485D01*
X12836Y164135D01*
X12793Y164047D01*
X12639Y163850D01*
X12552Y163806D01*
X12486Y163741D01*
X12442Y163653D01*
X12245Y163456D01*
X12157Y163412D01*
X11851Y163105D01*
X11544Y162930D01*
X11413Y162799D01*
X11325Y162755D01*
X10055Y162142D01*
X9836Y162054D01*
X9530Y161923D01*
X9223Y161835D01*
X8873Y161748D01*
X8588Y161682D01*
X8369Y161638D01*
X8106Y161594D01*
X7887Y161551D01*
X7646Y161485D01*
X6639Y161441D01*
X6507Y161397D01*
X5193Y161441D01*
X5062Y161485D01*
X4405Y161529D01*
X4274Y161572D01*
X4099Y161616D01*
X3814Y161682D01*
X3157Y161813D01*
X2982Y161857D01*
X2631Y161989D01*
X2347Y162098D01*
X2128Y162186D01*
X1843Y162295D01*
X1164Y162667D01*
X857Y162843D01*
X310Y163259D01*
X157Y163412D01*
X69Y163456D01*
X-172Y163697D01*
X-303Y163916D01*
X-500Y164156D01*
X-610Y164266D01*
X-654Y164354D01*
X-741Y164441D01*
X-785Y164529D01*
X-873Y164616D01*
X-916Y164704D01*
X-1092Y164967D01*
X-1267Y165273D01*
X-1617Y166018D01*
X-1792Y166456D01*
X-1836Y166631D01*
X-1880Y166938D01*
X-2033Y167617D01*
X-2099Y167857D01*
X-2143Y168033D01*
X-2186Y168733D01*
X-2143Y170442D01*
X-2055Y170661D01*
X-2011Y170836D01*
X-1858Y171558D01*
X-1814Y171777D01*
X-1727Y172128D01*
X-1639Y172347D01*
X-1442Y172807D01*
X-1332Y173091D01*
X-1223Y173201D01*
X-1179Y173288D01*
X-916Y173770D01*
X-851Y173880D01*
X-785Y173902D01*
X-741Y173989D01*
X-610Y174121D01*
X-566Y174208D01*
X-369Y174449D01*
X-172Y174646D01*
X-40Y174865D01*
X288Y175194D01*
X376Y175238D01*
X617Y175435D01*
X770Y175544D01*
X1164Y175763D01*
X1252Y175851D01*
X1339Y175894D01*
X1646Y176026D01*
X2325Y176267D01*
X2697Y176420D01*
X3004Y176508D01*
X3179Y176551D01*
X3551Y176617D01*
X3726Y176661D01*
X4230Y176814D01*
X4536Y176858D01*
X6420Y176902D01*
X7975Y176836D01*
D02*
G37*
G36*
X-65421Y183749D02*
X-65155Y183532D01*
X-65059Y183435D01*
X-65010Y183339D01*
X-64938Y183267D01*
X-64841Y183218D01*
X-63828Y182205D01*
X-63756Y182181D01*
X-63707Y182084D01*
X-63176Y181553D01*
X-63128Y181457D01*
X-61801Y180130D01*
X-61705Y180081D01*
X-61487Y179864D01*
X-61439Y179768D01*
X-61222Y179550D01*
X-61125Y179502D01*
X-60643Y179020D01*
X-60546Y178971D01*
X-60160Y178585D01*
X-60064Y178537D01*
X-59847Y178320D01*
X-59798Y178223D01*
X-59485Y177910D01*
X-59388Y177861D01*
X-59195Y177668D01*
X-59099Y177620D01*
X-58978Y177499D01*
X-58930Y177403D01*
X-58495Y176969D01*
X-58447Y176872D01*
X-57747Y176172D01*
X-57675Y176148D01*
X-57627Y176052D01*
X-57289Y175714D01*
X-57265Y175690D01*
X-57144Y175376D01*
X-57168Y174435D01*
X-57144Y174411D01*
X-57192Y174363D01*
X-57144Y174314D01*
X-57192Y174266D01*
X-57144Y174218D01*
X-57192Y174073D01*
X-57168Y173084D01*
X-57192Y173060D01*
X-57144Y172915D01*
X-57192Y172866D01*
X-57144Y172770D01*
X-57192Y172722D01*
X-57144Y172577D01*
X-57168Y169898D01*
X-57144Y169826D01*
X-57192Y169778D01*
X-57144Y169729D01*
X-57192Y169633D01*
X-57144Y169585D01*
X-57192Y169440D01*
X-57144Y167799D01*
X-57168Y166761D01*
X-57144Y166062D01*
X-57192Y165917D01*
X-57144Y165434D01*
X-57023Y165217D01*
X-56927Y165169D01*
X-56613Y164855D01*
X-56565Y164759D01*
X-56396Y164590D01*
X-56323Y164566D01*
X-56275Y164469D01*
X-56106Y164300D01*
X-56010Y164252D01*
X-54562Y162804D01*
X-54490Y162780D01*
X-54441Y162684D01*
X-54079Y162321D01*
X-53983Y162273D01*
X-53862Y162153D01*
X-53669Y161767D01*
X-53886Y161501D01*
X-54224Y161260D01*
X-54465Y161163D01*
X-54707Y161308D01*
X-54996Y161598D01*
X-55093Y161646D01*
X-55213Y161767D01*
X-55262Y161863D01*
X-55334Y161935D01*
X-55431Y161984D01*
X-55913Y162466D01*
X-56010Y162515D01*
X-56227Y162732D01*
X-56275Y162828D01*
X-56396Y162949D01*
X-56492Y162997D01*
X-56661Y163166D01*
X-56686Y163239D01*
X-56782Y163287D01*
X-57096Y163600D01*
X-57144Y163697D01*
X-57216Y163769D01*
X-57313Y163818D01*
X-57796Y164300D01*
X-57892Y164349D01*
X-57964Y164421D01*
X-58013Y164517D01*
X-58230Y164783D01*
X-58351Y165048D01*
X-58302Y165917D01*
X-58351Y166062D01*
X-58302Y166255D01*
X-58351Y175038D01*
X-58544Y175376D01*
X-58616Y175448D01*
X-58712Y175497D01*
X-58930Y175714D01*
X-58978Y175810D01*
X-59050Y175883D01*
X-59147Y175931D01*
X-59629Y176414D01*
X-59726Y176462D01*
X-59967Y176751D01*
X-60233Y176969D01*
X-60450Y177234D01*
X-60546Y177282D01*
X-60764Y177499D01*
X-60812Y177596D01*
X-60932Y177717D01*
X-61029Y177765D01*
X-61512Y178248D01*
X-61608Y178296D01*
X-61680Y178368D01*
X-61729Y178465D01*
X-61898Y178634D01*
X-61994Y178682D01*
X-62235Y178923D01*
X-62332Y178971D01*
X-62428Y179068D01*
X-62525Y179116D01*
X-62742Y179333D01*
X-62790Y179430D01*
X-62863Y179502D01*
X-62959Y179550D01*
X-63128Y179719D01*
X-63176Y179816D01*
X-63466Y180105D01*
X-63514Y180202D01*
X-63611Y180299D01*
X-63659Y180395D01*
X-63828Y180516D01*
X-64093Y180733D01*
X-64576Y181215D01*
X-64600Y181288D01*
X-64697Y181336D01*
X-65228Y181867D01*
X-65324Y181915D01*
X-65541Y182132D01*
X-65589Y182229D01*
X-65662Y182301D01*
X-65759Y182350D01*
X-66096Y182687D01*
X-66193Y182736D01*
X-66313Y182856D01*
X-66362Y183049D01*
X-66313Y183291D01*
X-66096Y183556D01*
X-66000Y183653D01*
X-65903Y183701D01*
X-65662Y183797D01*
X-65421Y183749D01*
D02*
G37*
G36*
X-59388Y163287D02*
X-59267Y163166D01*
X-59219Y163070D01*
X-59002Y162852D01*
X-58905Y162804D01*
X-58737Y162635D01*
Y162587D01*
X-58712Y162563D01*
X-58447Y162297D01*
X-58399Y162201D01*
X-58278Y162080D01*
X-58182Y162032D01*
X-57964Y161815D01*
X-57916Y161718D01*
X-57699Y161501D01*
X-57603Y161453D01*
X-57313Y161163D01*
X-57216Y161115D01*
X-56299Y160198D01*
X-56203Y160150D01*
X-56034Y159981D01*
X-55986Y159788D01*
X-56034Y159498D01*
X-56130Y159402D01*
X-56179Y159305D01*
X-56299Y159185D01*
X-56396Y159136D01*
X-56637Y159040D01*
X-56878Y159088D01*
X-57048Y159209D01*
X-57096Y159305D01*
X-57675Y159884D01*
X-57699Y159957D01*
X-57796Y160005D01*
X-58206Y160415D01*
X-58254Y160512D01*
X-58809Y161067D01*
X-58905Y161115D01*
X-58978Y161187D01*
X-59026Y161284D01*
X-59099Y161356D01*
X-59195Y161405D01*
X-59340Y161549D01*
X-59436Y161598D01*
X-59678Y161887D01*
X-59847Y162056D01*
X-59895Y162394D01*
X-59847Y163359D01*
X-59629Y163431D01*
X-59388Y163287D01*
D02*
G37*
G36*
X-62766Y161598D02*
X-62187Y161549D01*
X-61825Y161332D01*
X-61777Y161236D01*
X-61608Y161067D01*
X-61512Y161019D01*
X-61246Y160753D01*
X-61198Y160657D01*
X-61125Y160584D01*
X-61029Y160536D01*
X-60764Y160271D01*
X-60715Y160174D01*
X-60643Y160102D01*
X-60546Y160053D01*
X-60160Y159667D01*
X-60064Y159619D01*
X-59895Y159450D01*
X-59847Y159354D01*
X-59581Y159088D01*
X-59509Y159064D01*
X-59461Y158967D01*
X-59243Y158750D01*
X-59147Y158702D01*
X-58930Y158485D01*
X-58881Y158388D01*
X-58761Y158268D01*
X-58664Y158219D01*
X-58495Y158099D01*
X-58447Y158002D01*
X-58254Y157809D01*
X-58206Y157713D01*
X-58157Y157568D01*
X-58206Y157375D01*
X-58544Y156940D01*
X-58616Y156868D01*
X-58809Y156820D01*
X-59147Y157013D01*
X-59871Y157737D01*
X-59895Y157761D01*
X-59967Y157833D01*
X-60064Y157882D01*
X-60281Y158099D01*
X-60329Y158195D01*
X-60402Y158268D01*
X-60498Y158316D01*
X-61512Y159329D01*
X-61608Y159378D01*
X-61849Y159667D01*
X-61946Y159764D01*
X-62042Y159812D01*
X-62163Y159981D01*
X-62332Y160150D01*
X-62428Y160198D01*
X-62646Y160415D01*
X-62694Y160512D01*
X-62766Y160584D01*
X-62863Y160632D01*
X-63297Y161067D01*
X-63394Y161115D01*
X-63514Y161236D01*
X-63563Y161429D01*
X-63442Y161598D01*
X-63249Y161646D01*
X-62766Y161598D01*
D02*
G37*
G36*
X-66579Y161549D02*
X-66313Y161332D01*
X-66144Y161163D01*
X-66048Y161115D01*
X-65782Y160898D01*
X-64890Y160005D01*
X-64866Y159981D01*
X-64118Y159233D01*
X-64045Y159209D01*
X-63997Y159112D01*
X-63538Y158654D01*
X-63442Y158605D01*
X-63176Y158340D01*
X-63128Y158244D01*
X-62983Y158099D01*
X-62959Y158026D01*
X-62863Y157978D01*
X-62501Y157616D01*
X-62453Y157520D01*
X-62284Y157399D01*
X-62066Y157182D01*
X-62018Y157085D01*
X-61946Y157013D01*
X-61849Y156965D01*
X-60691Y155806D01*
X-60595Y155758D01*
X-60426Y155589D01*
X-60377Y155396D01*
X-60426Y155155D01*
X-60643Y154938D01*
X-60739Y154889D01*
X-60884Y154745D01*
X-61077Y154696D01*
X-61174Y154745D01*
X-61367Y154938D01*
X-61463Y154986D01*
X-61898Y155420D01*
X-61994Y155469D01*
X-62260Y155686D01*
X-62815Y156241D01*
X-62911Y156289D01*
X-63080Y156458D01*
X-63128Y156554D01*
X-63273Y156699D01*
X-63297Y156772D01*
X-63394Y156820D01*
X-63611Y157037D01*
X-63659Y157134D01*
X-63828Y157303D01*
X-63925Y157351D01*
X-64142Y157568D01*
X-64190Y157664D01*
X-64262Y157737D01*
X-64359Y157785D01*
X-65131Y158557D01*
X-65228Y158605D01*
X-65396Y158774D01*
X-65445Y158871D01*
X-65710Y159136D01*
X-65807Y159185D01*
X-66024Y159402D01*
X-66072Y159498D01*
X-66193Y159619D01*
X-66289Y159667D01*
X-66965Y160343D01*
X-67062Y160391D01*
X-67665Y160994D01*
X-67713Y161187D01*
X-67665Y161477D01*
X-67544Y161598D01*
X-66579Y161549D01*
D02*
G37*
G36*
X-69861D02*
X-69692Y161380D01*
X-69643Y161043D01*
X-69595Y160319D01*
X-69523Y160198D01*
X-69426Y160150D01*
X-69330Y160053D01*
X-69233Y160005D01*
X-69161Y159933D01*
X-69113Y159836D01*
X-68413Y159136D01*
X-68316Y159088D01*
X-68244Y159016D01*
X-68196Y158919D01*
X-67979Y158654D01*
X-67592Y158268D01*
X-67496Y158219D01*
X-67327Y158050D01*
X-67279Y157954D01*
X-67062Y157737D01*
X-66965Y157689D01*
X-66096Y156820D01*
X-66000Y156772D01*
X-65927Y156699D01*
X-65879Y156603D01*
X-65662Y156385D01*
X-65565Y156337D01*
X-65445Y156217D01*
X-65396Y156120D01*
X-65131Y155855D01*
X-65034Y155806D01*
X-64697Y155469D01*
X-64600Y155420D01*
X-64383Y155203D01*
X-64335Y155107D01*
X-63925Y154696D01*
X-63828Y154648D01*
X-63176Y153997D01*
X-63128Y153900D01*
X-63032Y153804D01*
X-63008Y153731D01*
X-62911Y153683D01*
X-62646Y153466D01*
X-62597Y153321D01*
X-62646Y153031D01*
X-62863Y152766D01*
X-62959Y152669D01*
X-63201Y152573D01*
X-63442Y152621D01*
X-63659Y152790D01*
X-63707Y152887D01*
X-63828Y153007D01*
X-63852Y153031D01*
X-63973Y153152D01*
X-64069Y153200D01*
X-65855Y154986D01*
X-65951Y155034D01*
X-66434Y155517D01*
X-66531Y155565D01*
X-66796Y155782D01*
X-67496Y156482D01*
X-67592Y156530D01*
X-67713Y156651D01*
X-67761Y156748D01*
X-67930Y156916D01*
X-68027Y156965D01*
X-68099Y157037D01*
X-68147Y157134D01*
X-68292Y157278D01*
X-68316Y157351D01*
X-68413Y157399D01*
X-68533Y157520D01*
X-68582Y157616D01*
X-68799Y157833D01*
X-68895Y157882D01*
X-69113Y158099D01*
X-69161Y158195D01*
X-69233Y158268D01*
X-69330Y158316D01*
X-69547Y158485D01*
X-69595Y158581D01*
X-70247Y159233D01*
X-70343Y159281D01*
X-70464Y159402D01*
X-70512Y159498D01*
X-70753Y159740D01*
X-70802Y159836D01*
X-70850Y159981D01*
X-70874Y161067D01*
X-70826Y161260D01*
X-70705Y161429D01*
X-70585Y161549D01*
X-70392Y161598D01*
X-69861Y161549D01*
D02*
G37*
G36*
X-76472Y172939D02*
X-76279Y172746D01*
X-76183Y172698D01*
X-75579Y172094D01*
X-75531Y171998D01*
X-75410Y171877D01*
X-75314Y171829D01*
X-74687Y171201D01*
X-74590Y171153D01*
X-73311Y169874D01*
X-73263Y169778D01*
X-72925Y169440D01*
X-72829Y169199D01*
X-72853Y168113D01*
X-72829Y163263D01*
X-72877Y163118D01*
X-72829Y162973D01*
X-72853Y159329D01*
X-72804Y159136D01*
X-72636Y158871D01*
X-72515Y158750D01*
X-72418Y158702D01*
X-71960Y158244D01*
X-71912Y158147D01*
X-71646Y157882D01*
X-71550Y157833D01*
X-70536Y156820D01*
X-70440Y156772D01*
X-69281Y155613D01*
X-69185Y155565D01*
X-68702Y155082D01*
X-68606Y155034D01*
X-68292Y154720D01*
X-68268Y154696D01*
X-68147Y154576D01*
X-68123Y154503D01*
X-68027Y154455D01*
X-67858Y154286D01*
X-67810Y154190D01*
X-66724Y153104D01*
X-66627Y153055D01*
X-66362Y152790D01*
X-66313Y152694D01*
X-66144Y152573D01*
X-65927Y152356D01*
X-65903Y152283D01*
X-65807Y152235D01*
X-64817Y151246D01*
X-64769Y151053D01*
X-64817Y150860D01*
X-64914Y150763D01*
X-64962Y150667D01*
X-65179Y150449D01*
X-65517Y150353D01*
X-65710Y150401D01*
X-65879Y150570D01*
X-65927Y150667D01*
X-66193Y150932D01*
X-66289Y150980D01*
X-66410Y151101D01*
X-66458Y151198D01*
X-66531Y151270D01*
X-66627Y151318D01*
X-66893Y151584D01*
X-66941Y151680D01*
X-67110Y151801D01*
X-67592Y152283D01*
X-67689Y152332D01*
X-67810Y152501D01*
X-68196Y152887D01*
X-68244Y152983D01*
X-68461Y153200D01*
X-68558Y153249D01*
X-68727Y153418D01*
X-68775Y153514D01*
X-68895Y153635D01*
X-68992Y153683D01*
X-69161Y153852D01*
X-69209Y153948D01*
X-69281Y154021D01*
X-69378Y154069D01*
X-69595Y154286D01*
X-69643Y154383D01*
X-69812Y154552D01*
X-69909Y154600D01*
X-70778Y155469D01*
X-70874Y155517D01*
X-71212Y155855D01*
X-71308Y155903D01*
X-71405Y155999D01*
X-71501Y156048D01*
X-73311Y157858D01*
X-73359Y157954D01*
X-73577Y158171D01*
X-73673Y158219D01*
X-73745Y158292D01*
X-73842Y158533D01*
X-73890Y158726D01*
X-73939Y168668D01*
X-74156Y168933D01*
X-74276Y169054D01*
X-74325Y169150D01*
X-74494Y169319D01*
X-74566Y169343D01*
X-74614Y169440D01*
X-74928Y169754D01*
X-75024Y169802D01*
X-75242Y170019D01*
X-75290Y170116D01*
X-75410Y170236D01*
X-75507Y170285D01*
X-76424Y171201D01*
X-76521Y171250D01*
X-77365Y172094D01*
X-77413Y172287D01*
X-77365Y172577D01*
X-77244Y172698D01*
X-77148Y172746D01*
X-76955Y172939D01*
X-76762Y172987D01*
X-76472Y172939D01*
D02*
G37*
G36*
X-29515Y144202D02*
X-29443Y144178D01*
X-29075Y144143D01*
X-28861Y144119D01*
X-28718Y144095D01*
X-28623Y144072D01*
X-28493Y144036D01*
X-28255Y143965D01*
X-28089Y143917D01*
X-27899Y143869D01*
X-27685Y143774D01*
X-26758Y143299D01*
X-26687Y143228D01*
X-26639Y143204D01*
X-26544Y143109D01*
X-26497Y143085D01*
X-26271Y142931D01*
X-26211Y142872D01*
X-26164Y142848D01*
X-26021Y142705D01*
X-25974Y142681D01*
X-25902Y142610D01*
X-25855Y142586D01*
X-25724Y142456D01*
X-25700Y142408D01*
X-25582Y142242D01*
X-25558Y142194D01*
X-25391Y142028D01*
X-25368Y141980D01*
X-25225Y141838D01*
X-25083Y141576D01*
X-24987Y141434D01*
X-24940Y141315D01*
X-24845Y141149D01*
X-24702Y140840D01*
X-24607Y140626D01*
X-24560Y140459D01*
X-24536Y140364D01*
X-24500Y140210D01*
X-24417Y139937D01*
X-24370Y139770D01*
X-24346Y139533D01*
X-24322Y139438D01*
X-24286Y138974D01*
X-24275Y127342D01*
X-24298Y127271D01*
X-24334Y126736D01*
X-24358Y126546D01*
X-24381Y126451D01*
X-24429Y126332D01*
X-24453Y126237D01*
X-24488Y126130D01*
X-24512Y126035D01*
X-24548Y125880D01*
X-24572Y125762D01*
X-24619Y125643D01*
X-24679Y125512D01*
X-24726Y125393D01*
X-24892Y125084D01*
X-25083Y124728D01*
X-25154Y124609D01*
X-25201Y124490D01*
X-25273Y124372D01*
X-25463Y124181D01*
X-25487Y124134D01*
X-25605Y124015D01*
X-25629Y123967D01*
X-25891Y123706D01*
X-25902Y123670D01*
X-25950Y123647D01*
X-26116Y123480D01*
X-26164Y123456D01*
X-26235Y123385D01*
X-26283Y123362D01*
X-26401Y123243D01*
X-26568Y123148D01*
X-26639Y123076D01*
X-26687Y123053D01*
X-26734Y123005D01*
X-26782Y122981D01*
X-26924Y122886D01*
X-27281Y122720D01*
X-27495Y122601D01*
X-27851Y122435D01*
X-28017Y122387D01*
X-28112Y122363D01*
X-28279Y122316D01*
X-28433Y122280D01*
X-28814Y122185D01*
X-28956Y122161D01*
X-29277Y122126D01*
X-29515Y122102D01*
X-29681Y122078D01*
X-41301Y122102D01*
X-41373Y122126D01*
X-41860Y122185D01*
X-41979Y122209D01*
X-42264Y122280D01*
X-42394Y122316D01*
X-42680Y122387D01*
X-42905Y122470D01*
X-43024Y122518D01*
X-43226Y122625D01*
X-43630Y122815D01*
X-43844Y122934D01*
X-44141Y123160D01*
X-44284Y123254D01*
X-44367Y123314D01*
X-44462Y123409D01*
X-44509Y123433D01*
X-44581Y123504D01*
X-44628Y123528D01*
X-44771Y123670D01*
X-44818Y123694D01*
X-44878Y123754D01*
X-44901Y123801D01*
X-45044Y123944D01*
X-45068Y123991D01*
X-45115Y124039D01*
X-45139Y124086D01*
X-45187Y124110D01*
X-45210Y124158D01*
X-45448Y124395D01*
X-45519Y124562D01*
X-45638Y124775D01*
X-45686Y124823D01*
X-45971Y125417D01*
X-46018Y125536D01*
X-46090Y125702D01*
X-46161Y125940D01*
X-46185Y126035D01*
X-46220Y126189D01*
X-46256Y126320D01*
X-46304Y126439D01*
X-46351Y126724D01*
X-46375Y127033D01*
X-46399Y127271D01*
X-46422Y127651D01*
X-46399Y139200D01*
X-46375Y139271D01*
X-46339Y139640D01*
X-46315Y139782D01*
X-46292Y139877D01*
X-46256Y140008D01*
X-46185Y140246D01*
X-46149Y140400D01*
X-46125Y140495D01*
X-46054Y140685D01*
X-45995Y140816D01*
X-45911Y141042D01*
X-45816Y141184D01*
X-45674Y141469D01*
X-45567Y141624D01*
X-45543Y141671D01*
X-45424Y141885D01*
X-45258Y142052D01*
X-45234Y142099D01*
X-45068Y142266D01*
X-44973Y142432D01*
X-44747Y142658D01*
X-44700Y142681D01*
X-44581Y142800D01*
X-44533Y142824D01*
X-44438Y142919D01*
X-44391Y142943D01*
X-44319Y143014D01*
X-44272Y143038D01*
X-44105Y143157D01*
X-44058Y143180D01*
X-43963Y143275D01*
X-43915Y143299D01*
X-43868Y143347D01*
X-42893Y143822D01*
X-42775Y143869D01*
X-42394Y143965D01*
X-42157Y144036D01*
X-42014Y144083D01*
X-41990D01*
X-41705Y144131D01*
X-41194Y144190D01*
X-40862Y144214D01*
X-40256Y144226D01*
X-40184Y144202D01*
X-37095Y144226D01*
X-29515Y144202D01*
D02*
G37*
G36*
X16017D02*
X16088Y144178D01*
X16183Y144155D01*
X16444Y144012D01*
X16658Y143846D01*
X16718Y143786D01*
X16741Y143739D01*
X16837Y143596D01*
X16860Y143549D01*
X16908Y143501D01*
X16955Y143382D01*
X16979Y143145D01*
X17003Y142836D01*
X16979Y142075D01*
X16932Y141957D01*
X16908Y141909D01*
X16718Y141553D01*
X16539Y141374D01*
X16492Y141351D01*
X16397Y141256D01*
X16349Y141232D01*
X16183Y141160D01*
X16017Y141113D01*
X15850Y141089D01*
X15613Y141065D01*
X15434Y141077D01*
X10753Y141053D01*
X10670Y140994D01*
X10634Y140887D01*
X10611Y135707D01*
X10587Y135635D01*
X10515Y135469D01*
X10492Y135421D01*
X10290Y135125D01*
X10100Y134934D01*
X10052Y134911D01*
X9838Y134816D01*
X9684Y134780D01*
X9363Y134744D01*
X8507Y134768D01*
X8436Y134792D01*
X8246Y134816D01*
X8020Y134970D01*
X7913Y135077D01*
X7866Y135101D01*
X7735Y135231D01*
X7711Y135279D01*
X7616Y135493D01*
X7533Y135719D01*
X7474Y135873D01*
X7450Y137798D01*
X7367Y137881D01*
X7272Y137905D01*
X7212Y137917D01*
X5466Y137905D01*
X5394Y137929D01*
X5204Y137952D01*
X5085Y138000D01*
X4919Y138095D01*
X4788Y138202D01*
X4705Y138261D01*
X4575Y138392D01*
X4551Y138440D01*
X4479Y138558D01*
X4337Y139010D01*
X4313Y139319D01*
X4301Y139497D01*
X4325Y139949D01*
X4349Y140091D01*
X4372Y140186D01*
X4456Y140388D01*
X4575Y140602D01*
X4705Y140733D01*
X4753Y140757D01*
X4800Y140804D01*
X4848Y140828D01*
X4895Y140875D01*
X4943Y140899D01*
X5157Y140994D01*
X5252Y141018D01*
X5561Y141042D01*
X6582D01*
X7367Y141065D01*
X7426Y141125D01*
X7474Y141315D01*
X7497Y143240D01*
X7545Y143359D01*
X7664Y143620D01*
X7759Y143786D01*
X7913Y143941D01*
X7961Y143965D01*
X8187Y144119D01*
X8389Y144178D01*
X8626Y144202D01*
X8935Y144226D01*
X16017Y144202D01*
D02*
G37*
G36*
X190D02*
X261Y144178D01*
X665Y143965D01*
X796Y143858D01*
X820Y143810D01*
X939Y143644D01*
X962Y143596D01*
X1034Y143477D01*
X1081Y143311D01*
X1105Y143216D01*
X1129Y142622D01*
X1105Y142170D01*
X1081Y142099D01*
X1046Y141945D01*
X974Y141755D01*
X784Y141469D01*
X618Y141303D01*
X214Y141113D01*
X47Y141089D01*
X-333Y141065D01*
X-1022Y141089D01*
X-1093Y141113D01*
X-1248Y141172D01*
X-1450Y141279D01*
X-1616Y141398D01*
X-1723Y141505D01*
X-1747Y141553D01*
X-1866Y141719D01*
X-1913Y141838D01*
X-1961Y142004D01*
X-2008Y142289D01*
X-1984Y143335D01*
X-1961Y143406D01*
X-1818Y143667D01*
X-1723Y143810D01*
X-1699Y143858D01*
X-1604Y143953D01*
X-1592Y143965D01*
X-1331Y144107D01*
X-1164Y144178D01*
X-927Y144202D01*
X-618Y144226D01*
X190Y144202D01*
D02*
G37*
G36*
X-6179D02*
X-6107Y144178D01*
X-6012Y144155D01*
X-5989D01*
X-5822Y144060D01*
X-5775Y144012D01*
X-5727Y143988D01*
X-5561Y143869D01*
X-5477Y143786D01*
X-5454Y143739D01*
X-5287Y143382D01*
X-5240Y143216D01*
X-5216Y143050D01*
X-5204Y142800D01*
X-5216Y142788D01*
X-5192Y142765D01*
X-5216Y142717D01*
X-5192Y142669D01*
X-5216Y142646D01*
X-5192Y142574D01*
X-5216Y142194D01*
X-5264Y142075D01*
X-5394Y141707D01*
X-5513Y141517D01*
X-5656Y141374D01*
X-5703Y141351D01*
X-5775Y141279D01*
X-5822Y141256D01*
X-6083Y141137D01*
X-6274Y141089D01*
X-6868Y141065D01*
X-10016Y141077D01*
X-10361Y141065D01*
X-10432Y141089D01*
X-10599Y141113D01*
X-10670Y141137D01*
X-10824Y141196D01*
X-10907Y141232D01*
X-11038Y141339D01*
X-11098Y141398D01*
X-11145Y141422D01*
X-11276Y141553D01*
X-11490Y142004D01*
X-11514Y142099D01*
X-11537Y142551D01*
X-11514Y143335D01*
X-11466Y143454D01*
X-11442Y143501D01*
X-11347Y143644D01*
X-11323Y143691D01*
X-11193Y143893D01*
X-11145Y143917D01*
X-10979Y144036D01*
X-10717Y144155D01*
X-10527Y144202D01*
X-10005Y144226D01*
X-6179Y144202D01*
D02*
G37*
G36*
X3042Y137857D02*
X3446Y137834D01*
X3564Y137786D01*
X3778Y137667D01*
X3826Y137620D01*
X3873Y137596D01*
X3957Y137536D01*
X3980Y137489D01*
X4194Y137180D01*
X4242Y137014D01*
X4266Y136847D01*
X4289Y136467D01*
X4266Y135754D01*
X4242Y135683D01*
X4218Y135588D01*
X4159Y135433D01*
X3980Y135184D01*
X3909Y135065D01*
X3873Y135029D01*
X3826Y135006D01*
X3755Y134934D01*
X3529Y134827D01*
X3517Y134816D01*
X3232Y134768D01*
X2923Y134744D01*
X-1069Y134768D01*
X-1141Y134792D01*
X-1295Y134851D01*
X-1497Y134958D01*
X-1628Y135065D01*
X-1699Y135136D01*
X-1770Y135255D01*
X-1889Y135421D01*
X-1937Y135588D01*
X-1961Y135683D01*
X-2008Y135968D01*
X-1984Y136990D01*
X-1961Y137061D01*
X-1794Y137370D01*
X-1628Y137584D01*
X-1592Y137620D01*
X-1545Y137643D01*
X-1402Y137739D01*
X-1236Y137810D01*
X-951Y137857D01*
X-428Y137881D01*
X2959Y137869D01*
X2970Y137881D01*
X3042Y137857D01*
D02*
G37*
G36*
X-6202D02*
X-6131Y137834D01*
X-5977Y137798D01*
X-5858Y137750D01*
X-5822Y137715D01*
X-5775Y137691D01*
X-5703Y137620D01*
X-5656Y137596D01*
X-5608Y137548D01*
X-5561Y137525D01*
X-5525Y137489D01*
X-5501Y137442D01*
X-5430Y137370D01*
X-5406Y137323D01*
X-5311Y137109D01*
X-5216Y136800D01*
X-5192Y136443D01*
Y136420D01*
X-5216Y135873D01*
X-5240Y135802D01*
X-5335Y135493D01*
X-5383Y135374D01*
X-5406Y135326D01*
X-5477Y135255D01*
X-5501Y135208D01*
X-5620Y135089D01*
X-5644Y135041D01*
X-5727Y134982D01*
X-5775Y134934D01*
X-5822Y134911D01*
X-6036Y134816D01*
X-6131Y134792D01*
X-6464Y134744D01*
X-7390Y134768D01*
X-7462Y134792D01*
X-7557Y134816D01*
X-7676Y134863D01*
X-7842Y134958D01*
X-7961Y135077D01*
X-7997Y135089D01*
X-8020Y135136D01*
X-8068Y135184D01*
X-8091Y135231D01*
X-8258Y135469D01*
X-8305Y135659D01*
X-8353Y135992D01*
X-8329Y137014D01*
X-8282Y137133D01*
X-8187Y137299D01*
X-8139Y137346D01*
X-8115Y137394D01*
X-7997Y137560D01*
X-7747Y137739D01*
X-7628Y137786D01*
X-7343Y137857D01*
X-6820Y137881D01*
X-6202Y137857D01*
D02*
G37*
G36*
X-12452Y141018D02*
X-12381Y140994D01*
X-12226Y140935D01*
X-12167Y140875D01*
X-12119Y140852D01*
X-12072Y140804D01*
X-12025Y140780D01*
X-11894Y140673D01*
X-11799Y140578D01*
X-11775Y140531D01*
X-11561Y140079D01*
X-11549Y139735D01*
X-11561Y139675D01*
X-11537Y139604D01*
Y136253D01*
Y136229D01*
X-11561Y135826D01*
X-11656Y135588D01*
X-11716Y135433D01*
X-11763Y135315D01*
X-11799Y135279D01*
X-11823Y135231D01*
X-12119Y134934D01*
X-12167Y134911D01*
X-12381Y134816D01*
X-12476Y134792D01*
X-12880Y134744D01*
X-13735Y134768D01*
X-13807Y134792D01*
X-13902Y134816D01*
X-14021Y134863D01*
X-14187Y134958D01*
X-14389Y135160D01*
X-14413Y135208D01*
X-14484Y135279D01*
X-14508Y135326D01*
X-14674Y135683D01*
X-14698Y135921D01*
X-14674Y140222D01*
X-14579Y140388D01*
X-14484Y140531D01*
X-14460Y140578D01*
X-14413Y140626D01*
X-14389Y140673D01*
X-14330Y140733D01*
X-14282Y140757D01*
X-14187Y140852D01*
X-14139Y140875D01*
X-13878Y140994D01*
X-13545Y141042D01*
X-12452Y141018D01*
D02*
G37*
G36*
X19035Y137857D02*
X19308Y137822D01*
X19403Y137798D01*
X19522Y137750D01*
X19557Y137715D01*
X19605Y137691D01*
X19653Y137643D01*
X19700Y137620D01*
X19795Y137525D01*
X19843Y137501D01*
X19878Y137465D01*
X19902Y137418D01*
X19950Y137370D01*
X20140Y136966D01*
X20164Y136729D01*
X20175Y136289D01*
X20152Y132701D01*
X20116Y132475D01*
X19902Y132071D01*
X19783Y131952D01*
X19760Y131904D01*
X19700Y131845D01*
X19653Y131821D01*
X19605Y131774D01*
X19557Y131750D01*
X19415Y131655D01*
X19249Y131631D01*
X19153Y131608D01*
X18488Y131584D01*
X13985Y131596D01*
X13902Y131560D01*
X13842Y131501D01*
X13819Y131334D01*
X13795Y129409D01*
X13771Y129338D01*
X13735Y129207D01*
X13628Y129029D01*
X13605Y128982D01*
X13438Y128768D01*
X13236Y128566D01*
X13070Y128494D01*
X12880Y128447D01*
X12571Y128423D01*
X11549Y128447D01*
X11478Y128471D01*
X11383Y128494D01*
X11086Y128720D01*
X10919Y128886D01*
X10896Y128934D01*
X10729Y129291D01*
X10682Y129457D01*
X10658Y129623D01*
X10682Y133806D01*
X10919Y134257D01*
X11050Y134388D01*
X11098Y134412D01*
X11228Y134518D01*
X11407Y134626D01*
X11573Y134673D01*
X11810Y134697D01*
X12547Y134720D01*
X13177Y134709D01*
X13403Y134720D01*
X13474Y134697D01*
X14009Y134709D01*
X14734Y134697D01*
X14805Y134720D01*
X15185Y134697D01*
X15613D01*
X16694Y134709D01*
X16872Y134697D01*
X16979Y134804D01*
X17003Y134970D01*
X17027Y136966D01*
X17050Y137037D01*
X17193Y137299D01*
X17312Y137465D01*
X17336Y137513D01*
X17478Y137632D01*
X17561Y137691D01*
X17704Y137786D01*
X17858Y137822D01*
X17977Y137845D01*
X18286Y137869D01*
X18963Y137881D01*
X19035Y137857D01*
D02*
G37*
G36*
X6297Y134697D02*
X6582Y134673D01*
X6701Y134626D01*
X6963Y134483D01*
X7010Y134435D01*
X7058Y134412D01*
X7189Y134281D01*
X7212Y134233D01*
X7379Y133996D01*
X7426Y133829D01*
X7450Y133592D01*
X7426Y132499D01*
X7402Y132427D01*
X7343Y132273D01*
X7307Y132237D01*
X7284Y132190D01*
X7236Y132142D01*
X7212Y132095D01*
X7058Y131869D01*
X7010Y131845D01*
X6939Y131774D01*
X6891Y131750D01*
X6678Y131655D01*
X6582Y131631D01*
X6416Y131608D01*
X6036Y131584D01*
X5275Y131608D01*
X5204Y131631D01*
X5074Y131667D01*
X4955Y131714D01*
X4919Y131750D01*
X4872Y131774D01*
X4824Y131821D01*
X4776Y131845D01*
X4717Y131904D01*
X4705Y131916D01*
X4646Y131976D01*
X4622Y132023D01*
X4503Y132142D01*
X4384Y132522D01*
X4337Y132712D01*
X4313Y132879D01*
X4337Y133758D01*
X4408Y133924D01*
X4456Y134043D01*
X4575Y134257D01*
X4729Y134412D01*
X4776Y134435D01*
X4824Y134483D01*
X4872Y134507D01*
X4919Y134554D01*
X5085Y134626D01*
X5252Y134673D01*
X5418Y134697D01*
X6179Y134720D01*
X6202Y134697D01*
X6226Y134720D01*
X6297Y134697D01*
D02*
G37*
G36*
X-3113D02*
X-3018Y134673D01*
X-2840Y134637D01*
X-2721Y134590D01*
X-2578Y134495D01*
X-2543Y134459D01*
X-2495Y134435D01*
X-2269Y134210D01*
X-2246Y134162D01*
X-2198Y134115D01*
X-2151Y133996D01*
X-2103Y133829D01*
X-2056Y133544D01*
X-2032Y132950D01*
X-2056Y132855D01*
X-2091Y132582D01*
X-2139Y132392D01*
X-2210Y132202D01*
X-2293Y132118D01*
X-2317Y132071D01*
X-2365Y132023D01*
X-2388Y131976D01*
X-2436Y131928D01*
X-2460Y131881D01*
X-2495Y131845D01*
X-2543Y131821D01*
X-2614Y131750D01*
X-2662Y131726D01*
X-2828Y131655D01*
X-3113Y131608D01*
X-3208Y131584D01*
X-4254Y131608D01*
X-4325Y131631D01*
X-4456Y131667D01*
X-4693Y131810D01*
X-4776Y131869D01*
X-4884Y131976D01*
X-4979Y132142D01*
X-5097Y132309D01*
X-5157Y132605D01*
X-5181Y132914D01*
X-5192Y133378D01*
X-5169Y133449D01*
X-5145Y133877D01*
X-5002Y134138D01*
X-4884Y134305D01*
X-4860Y134352D01*
X-4800Y134412D01*
X-4765Y134424D01*
X-4753Y134435D01*
X-4515Y134602D01*
X-4384Y134637D01*
X-4289Y134661D01*
X-4171Y134685D01*
X-3980Y134709D01*
X-3731Y134720D01*
X-3660Y134697D01*
X-3351Y134720D01*
X-3113Y134697D01*
D02*
G37*
G36*
X-9446Y134685D02*
X-9304Y134661D01*
X-9185Y134637D01*
X-9066Y134590D01*
X-8983Y134530D01*
X-8935Y134483D01*
X-8888Y134459D01*
X-8840Y134412D01*
X-8793Y134388D01*
X-8721Y134317D01*
X-8674Y134293D01*
X-8614Y134210D01*
X-8472Y133901D01*
X-8424Y133782D01*
X-8377Y133616D01*
X-8353Y128506D01*
X-8293Y128423D01*
X-8175Y128376D01*
X-7878Y128387D01*
X-6214Y128364D01*
X-6119Y128340D01*
X-6000Y128292D01*
X-5798Y128186D01*
X-5727Y128114D01*
X-5680Y128090D01*
X-5632Y128043D01*
X-5584Y128019D01*
X-5454Y127912D01*
X-5335Y127651D01*
X-5240Y127413D01*
X-5216Y127247D01*
X-5204Y123409D01*
X-5228Y123195D01*
X-5252Y123100D01*
X-5275Y122981D01*
X-5347Y122791D01*
X-5454Y122589D01*
X-5620Y122375D01*
X-5680Y122316D01*
X-5893Y122197D01*
X-6060Y122126D01*
X-6155Y122102D01*
X-6321Y122078D01*
X-6773Y122055D01*
X-7367Y122078D01*
X-7438Y122102D01*
X-7569Y122138D01*
X-7973Y122375D01*
X-8044Y122447D01*
X-8068Y122494D01*
X-8187Y122708D01*
X-8234Y122755D01*
X-8305Y122922D01*
X-8329Y123160D01*
X-8353Y123326D01*
X-8377Y125108D01*
X-8460Y125215D01*
X-8555Y125239D01*
X-11371Y125251D01*
X-11454Y125215D01*
X-11514Y125156D01*
X-11537Y124989D01*
X-11549Y124478D01*
X-11537Y121021D01*
X-11561Y120949D01*
X-11537Y120237D01*
X-11561Y120165D01*
X-11585Y119856D01*
X-11846Y119357D01*
X-11953Y119227D01*
X-12025Y119155D01*
X-12238Y119037D01*
X-12452Y118941D01*
X-12547Y118918D01*
X-12785Y118894D01*
X-13783Y118918D01*
X-13902Y118965D01*
X-14258Y119155D01*
X-14365Y119262D01*
X-14389Y119310D01*
X-14436Y119357D01*
X-14555Y119571D01*
X-14627Y119690D01*
X-14674Y119809D01*
X-14698Y120118D01*
Y125821D01*
Y125845D01*
X-14674Y130693D01*
X-14532Y130954D01*
X-14436Y131120D01*
X-14377Y131180D01*
X-14330Y131203D01*
X-14282Y131251D01*
X-14246Y131263D01*
X-14223Y131310D01*
X-14139Y131370D01*
X-13925Y131465D01*
X-13795Y131501D01*
X-13700Y131524D01*
X-13367Y131548D01*
X-12357Y131560D01*
X-12286Y131536D01*
X-11977Y131560D01*
X-11620Y131584D01*
X-11585Y131619D01*
X-11561Y131667D01*
X-11537Y131738D01*
X-11514Y131904D01*
X-11537Y132000D01*
X-11525Y133390D01*
X-11537Y133544D01*
X-11514Y133616D01*
X-11490Y133877D01*
X-11442Y133996D01*
X-11418Y134043D01*
X-11300Y134210D01*
X-11276Y134257D01*
X-11193Y134364D01*
X-11145Y134388D01*
X-11098Y134435D01*
X-11050Y134459D01*
X-10979Y134530D01*
X-10931Y134554D01*
X-10765Y134626D01*
X-10575Y134673D01*
X-10409Y134697D01*
X-10314Y134720D01*
X-9814Y134697D01*
X-9743Y134720D01*
X-9446Y134685D01*
D02*
G37*
G36*
X-15803Y134697D02*
X-15732Y134673D01*
X-15458Y134614D01*
X-15328Y134530D01*
X-15197Y134424D01*
X-15114Y134364D01*
X-14959Y134210D01*
X-14769Y133806D01*
X-14745Y133711D01*
X-14722Y133259D01*
X-14745Y132594D01*
X-14793Y132475D01*
X-14852Y132320D01*
X-14959Y132118D01*
X-15007Y132071D01*
X-15030Y132023D01*
X-15280Y131774D01*
X-15328Y131750D01*
X-15375Y131702D01*
X-15613Y131631D01*
X-15886Y131596D01*
X-16753Y131584D01*
X-16825Y131608D01*
X-17039Y131631D01*
X-17110Y131655D01*
X-17324Y131774D01*
X-17454Y131881D01*
X-17621Y132047D01*
X-17644Y132095D01*
X-17740Y132261D01*
X-17835Y132475D01*
X-17858Y132570D01*
X-17882Y132736D01*
X-17870Y133722D01*
X-17858Y133734D01*
X-17835Y133924D01*
X-17740Y134067D01*
X-17716Y134115D01*
X-17561Y134340D01*
X-17181Y134602D01*
X-17015Y134649D01*
X-16730Y134697D01*
X-16635Y134720D01*
X-16183Y134697D01*
X-16112Y134720D01*
X-15803Y134697D01*
D02*
G37*
G36*
X15910Y128364D02*
X16029Y128340D01*
X16124Y128316D01*
X16314Y128245D01*
X16397Y128186D01*
X16492Y128114D01*
X16504Y128102D01*
X16563Y128043D01*
X16611Y128019D01*
X16741Y127912D01*
X16765Y127865D01*
X16860Y127698D01*
X16955Y127485D01*
X16979Y127389D01*
X17003Y126510D01*
X16979Y126439D01*
X16955Y126154D01*
X16718Y125702D01*
X16492Y125476D01*
X16444Y125453D01*
X16278Y125334D01*
X15993Y125263D01*
X15613Y125239D01*
X14781Y125263D01*
X14710Y125286D01*
X14579Y125322D01*
X14448Y125405D01*
X14234Y125571D01*
X14080Y125726D01*
X13890Y126130D01*
X13866Y126225D01*
X13842Y126391D01*
X13819Y126843D01*
X13854Y127425D01*
X13878Y127520D01*
X14080Y127888D01*
X14104Y127936D01*
X14163Y127995D01*
X14211Y128019D01*
X14341Y128126D01*
X14425Y128186D01*
X14567Y128281D01*
X14698Y128316D01*
X14935Y128364D01*
X15720Y128387D01*
X15910Y128364D01*
D02*
G37*
G36*
X35099Y144202D02*
X38485Y144214D01*
X40244Y144190D01*
X40458Y144167D01*
X40648Y144143D01*
X40862Y144119D01*
X41099Y144072D01*
X41194Y144048D01*
X41456Y143976D01*
X41551Y143953D01*
X41681Y143917D01*
X41776Y143893D01*
X41931Y143834D01*
X42050Y143786D01*
X42252Y143703D01*
X42941Y143347D01*
X43238Y143121D01*
X43274Y143085D01*
X43321Y143062D01*
X43488Y142943D01*
X43535Y142895D01*
X43583Y142872D01*
X43749Y142705D01*
X43796Y142681D01*
X43844Y142634D01*
X43892Y142610D01*
X44070Y142432D01*
X44093Y142384D01*
X44260Y142170D01*
X44331Y142099D01*
X44355Y142052D01*
X44402Y142004D01*
X44426Y141957D01*
X44569Y141814D01*
X44735Y141505D01*
X44783Y141458D01*
X44830Y141339D01*
X44949Y141125D01*
X45020Y141006D01*
X45068Y140887D01*
X45127Y140733D01*
X45175Y140614D01*
X45234Y140459D01*
X45270Y140281D01*
X45317Y140091D01*
X45377Y139889D01*
X45424Y139699D01*
X45448Y139461D01*
X45472Y139366D01*
X45507Y138903D01*
X45519Y127437D01*
X45496Y127366D01*
X45460Y126878D01*
X45436Y126665D01*
X45412Y126546D01*
X45389Y126451D01*
X45305Y126177D01*
X45282Y126082D01*
X45246Y125928D01*
X45198Y125738D01*
X45139Y125607D01*
X45068Y125441D01*
X45008Y125286D01*
X44913Y125144D01*
X44747Y124811D01*
X44688Y124728D01*
X44616Y124562D01*
X44521Y124395D01*
X44355Y124229D01*
X44331Y124181D01*
X44165Y124015D01*
X44141Y123967D01*
X44034Y123837D01*
X43820Y123623D01*
X43773Y123599D01*
X43654Y123480D01*
X43606Y123456D01*
X43535Y123385D01*
X43488Y123362D01*
X43369Y123243D01*
X43202Y123148D01*
X43107Y123053D01*
X43060Y123029D01*
X43012Y122981D01*
X42965Y122957D01*
X42751Y122839D01*
X42585Y122767D01*
X41990Y122482D01*
X41872Y122435D01*
X41634Y122363D01*
X41539Y122340D01*
X41408Y122304D01*
X41123Y122233D01*
X41004Y122209D01*
X40909Y122185D01*
X40719Y122161D01*
X40505Y122138D01*
X40363Y122114D01*
X40101Y122090D01*
X28730Y122078D01*
X28659Y122102D01*
X28338Y122138D01*
X28101Y122161D01*
X27839Y122209D01*
X27720Y122233D01*
X27530Y122280D01*
X27399Y122316D01*
X27114Y122387D01*
X26960Y122447D01*
X26841Y122494D01*
X26580Y122613D01*
X26425Y122696D01*
X25879Y122981D01*
X25665Y123148D01*
X25498Y123266D01*
X25451Y123290D01*
X25356Y123385D01*
X25308Y123409D01*
X25213Y123504D01*
X25166Y123528D01*
X25023Y123670D01*
X24976Y123694D01*
X24845Y123825D01*
X24821Y123872D01*
X24750Y123944D01*
X24726Y123991D01*
X24607Y124110D01*
X24583Y124158D01*
X24346Y124395D01*
X23918Y125203D01*
X23823Y125417D01*
X23704Y125679D01*
X23657Y125845D01*
X23621Y125976D01*
X23597Y126094D01*
X23562Y126225D01*
X23467Y126534D01*
X23443Y126700D01*
X23372Y127627D01*
Y130289D01*
Y130312D01*
X23395Y139224D01*
X23419Y139295D01*
X23455Y139640D01*
X23502Y139901D01*
X23609Y140246D01*
X23645Y140400D01*
X23669Y140519D01*
X23764Y140757D01*
X23847Y140958D01*
X23989Y141220D01*
X24156Y141529D01*
X24251Y141671D01*
X24275Y141719D01*
X24370Y141885D01*
X24536Y142052D01*
X24560Y142099D01*
X24679Y142218D01*
X24702Y142266D01*
X24750Y142313D01*
X24774Y142361D01*
X24928Y142563D01*
X24976Y142586D01*
X25071Y142681D01*
X25118Y142705D01*
X25285Y142872D01*
X25332Y142895D01*
X25403Y142966D01*
X25451Y142990D01*
X25498Y143038D01*
X25617Y143109D01*
X25748Y143216D01*
X25831Y143275D01*
X26045Y143418D01*
X26211Y143489D01*
X26948Y143846D01*
X27067Y143893D01*
X27245Y143929D01*
X27340Y143953D01*
X27613Y144036D01*
X27898Y144107D01*
X28065Y144131D01*
X28374Y144155D01*
X28469Y144178D01*
X28849Y144202D01*
X30299Y144226D01*
X35099Y144202D01*
D02*
G37*
G36*
X-18845Y128352D02*
X-18726Y128304D01*
X-18417Y128138D01*
X-18298Y128019D01*
X-18250Y127995D01*
X-18144Y127888D01*
X-18025Y127675D01*
X-17930Y127461D01*
X-17906Y127223D01*
X-17930Y123017D01*
X-17953Y122946D01*
X-18001Y122827D01*
X-18048Y122779D01*
X-18072Y122732D01*
X-18167Y122565D01*
X-18274Y122435D01*
X-18417Y122292D01*
X-18821Y122102D01*
X-19201Y122078D01*
X-20175Y122102D01*
X-20294Y122149D01*
X-20342Y122173D01*
X-20508Y122292D01*
X-20627Y122363D01*
X-20758Y122494D01*
X-20781Y122542D01*
X-20876Y122708D01*
X-21019Y123017D01*
X-21043Y123112D01*
X-21067Y123350D01*
X-21043Y127485D01*
X-20948Y127651D01*
X-20805Y127912D01*
X-20698Y128019D01*
X-20651Y128043D01*
X-20603Y128090D01*
X-20556Y128114D01*
X-20532Y128138D01*
X-20520Y128150D01*
X-20484Y128186D01*
X-20175Y128328D01*
X-20080Y128352D01*
X-19914Y128376D01*
X-18845Y128352D01*
D02*
G37*
G36*
X166Y125191D02*
X380Y125096D01*
X428Y125072D01*
X594Y124977D01*
X725Y124871D01*
X784Y124811D01*
X820Y124799D01*
X844Y124752D01*
X891Y124704D01*
X915Y124657D01*
X1058Y124348D01*
X1105Y124158D01*
X1117Y123433D01*
X1093Y123171D01*
X1046Y122886D01*
X998Y122767D01*
X962Y122732D01*
X939Y122684D01*
X820Y122518D01*
X713Y122340D01*
X665Y122316D01*
X356Y122149D01*
X238Y122102D01*
X0Y122078D01*
X-404Y122055D01*
X-452Y122078D01*
X-523Y122055D01*
X-1046Y122078D01*
X-1058Y122090D01*
X-1176Y122114D01*
X-1545Y122316D01*
X-1592Y122340D01*
X-1699Y122447D01*
X-1818Y122661D01*
X-1866Y122708D01*
X-1937Y122874D01*
X-1961Y122969D01*
X-2008Y123302D01*
X-1984Y124300D01*
X-1937Y124419D01*
X-1770Y124728D01*
X-1664Y124859D01*
X-1616Y124882D01*
X-1568Y124930D01*
X-1521Y124954D01*
X-1473Y125001D01*
X-1426Y125025D01*
X-1117Y125168D01*
X-1022Y125191D01*
X-499Y125215D01*
X166Y125191D01*
D02*
G37*
G36*
X-3018Y122007D02*
X-2947Y121983D01*
X-2792Y121924D01*
X-2555Y121781D01*
X-2471Y121722D01*
X-2246Y121496D01*
X-2151Y121282D01*
X-2079Y121045D01*
X-2056Y120949D01*
X-2032Y120308D01*
X-2056Y120237D01*
X-2079Y119904D01*
X-2103Y119833D01*
X-2210Y119536D01*
X-2269Y119452D01*
X-2293Y119429D01*
Y119405D01*
X-2341Y119357D01*
X-2365Y119310D01*
X-2471Y119179D01*
X-2519Y119131D01*
X-2875Y118965D01*
X-3065Y118918D01*
X-3303Y118894D01*
X-4230Y118918D01*
X-4301Y118941D01*
X-4456Y119001D01*
X-4800Y119179D01*
X-4860Y119239D01*
X-5026Y119547D01*
X-5121Y119761D01*
X-5145Y119856D01*
X-5169Y120094D01*
X-5181Y120629D01*
X-5157Y121056D01*
X-5133Y121175D01*
X-5062Y121365D01*
X-5026Y121401D01*
X-4931Y121567D01*
X-4824Y121698D01*
X-4776Y121746D01*
X-4729Y121769D01*
X-4539Y121888D01*
X-4420Y121936D01*
X-4254Y121983D01*
X-4159Y122007D01*
X-3921Y122031D01*
X-3018Y122007D01*
D02*
G37*
G36*
X-44224Y118823D02*
X-44153Y118799D01*
X-43749Y118585D01*
X-43618Y118478D01*
X-43547Y118407D01*
X-43523Y118359D01*
X-43357Y118003D01*
X-43309Y117884D01*
X-43285Y117646D01*
X-43309Y116743D01*
X-43381Y116577D01*
X-43440Y116423D01*
X-43488Y116304D01*
X-43523Y116268D01*
X-43547Y116221D01*
X-43594Y116173D01*
X-43618Y116125D01*
X-43773Y115971D01*
X-43987Y115852D01*
X-44153Y115781D01*
X-44248Y115757D01*
X-44414Y115733D01*
X-44735Y115721D01*
X-45008Y115733D01*
X-45032Y115710D01*
X-45104Y115733D01*
X-45531Y115757D01*
X-45935Y115971D01*
X-46066Y116078D01*
X-46185Y116244D01*
X-46209Y116292D01*
X-46304Y116434D01*
X-46351Y116553D01*
X-46399Y116743D01*
X-46422Y117052D01*
X-46399Y117884D01*
Y117908D01*
X-46375Y118050D01*
X-46280Y118217D01*
X-46232Y118264D01*
X-46137Y118431D01*
X-45959Y118609D01*
X-45911Y118632D01*
X-45555Y118799D01*
X-45270Y118846D01*
X-44224Y118823D01*
D02*
G37*
G36*
X-166Y118846D02*
X238Y118823D01*
X404Y118728D01*
X713Y118561D01*
X820Y118454D01*
X844Y118407D01*
X1010Y118169D01*
X1081Y117931D01*
X1129Y117456D01*
X1105Y116815D01*
X1081Y116743D01*
X1046Y116589D01*
X1022Y116494D01*
X879Y116256D01*
X749Y116054D01*
X642Y115947D01*
X523Y115900D01*
X214Y115757D01*
X119Y115733D01*
X-475Y115710D01*
X-1046Y115733D01*
X-1117Y115757D01*
X-1426Y115900D01*
X-1473Y115923D01*
X-1640Y116042D01*
X-1675Y116078D01*
X-1699Y116125D01*
X-1866Y116363D01*
X-1913Y116482D01*
X-1961Y116648D01*
X-1984Y116743D01*
X-2008Y116981D01*
Y117456D01*
Y117480D01*
X-1984Y117955D01*
X-1961Y118027D01*
X-1794Y118336D01*
X-1628Y118549D01*
X-1592Y118585D01*
X-1545Y118609D01*
X-1093Y118823D01*
X-927Y118846D01*
X-238Y118870D01*
X-166Y118846D01*
D02*
G37*
G36*
X-18821Y118823D02*
X-18369Y118585D01*
X-18167Y118383D01*
X-18144Y118336D01*
X-17977Y118098D01*
X-17930Y117931D01*
X-17906Y117551D01*
Y116957D01*
Y116933D01*
X-17942Y116660D01*
X-17989Y116541D01*
X-18227Y116137D01*
X-18441Y115923D01*
X-18702Y115805D01*
X-18868Y115757D01*
X-18963Y115733D01*
X-19272Y115710D01*
X-20033Y115733D01*
X-20104Y115757D01*
X-20235Y115793D01*
X-20354Y115840D01*
X-20389Y115876D01*
X-20603Y115995D01*
X-20710Y116102D01*
X-20734Y116149D01*
X-20805Y116221D01*
X-20829Y116268D01*
X-21019Y116672D01*
X-21043Y116767D01*
X-21067Y116933D01*
X-21043Y117931D01*
X-20805Y118383D01*
X-20698Y118514D01*
X-20663Y118526D01*
X-20651Y118561D01*
X-20603Y118585D01*
X-20461Y118680D01*
X-20199Y118799D01*
X-20104Y118823D01*
X-19795Y118846D01*
X-18821Y118823D01*
D02*
G37*
G36*
X-25166D02*
X-24714Y118585D01*
X-24583Y118478D01*
X-24560Y118431D01*
X-24512Y118383D01*
X-24488Y118336D01*
X-24370Y118169D01*
X-24322Y118050D01*
X-24298Y117955D01*
X-24275Y117789D01*
X-24298Y116648D01*
X-24346Y116529D01*
X-24465Y116316D01*
X-24560Y116173D01*
X-24583Y116125D01*
X-24738Y115971D01*
X-24785Y115947D01*
X-24999Y115828D01*
X-25118Y115781D01*
X-25308Y115733D01*
X-25689Y115710D01*
X-26093Y115733D01*
X-26164Y115710D01*
X-27994D01*
X-29538Y115733D01*
X-29609Y115757D01*
X-29740Y115793D01*
X-29859Y115840D01*
X-30097Y115983D01*
X-30311Y116197D01*
X-30334Y116244D01*
X-30406Y116363D01*
X-30453Y116482D01*
X-30536Y116708D01*
X-30560Y116803D01*
X-30584Y117017D01*
X-30596Y117029D01*
X-30572Y117052D01*
X-30596Y117123D01*
X-30572Y117195D01*
X-30548Y117884D01*
X-30524Y117955D01*
X-30465Y118110D01*
X-30417Y118229D01*
X-30299Y118419D01*
X-30132Y118585D01*
X-29681Y118799D01*
X-29586Y118823D01*
X-29419Y118846D01*
X-25166Y118823D01*
D02*
G37*
G36*
X-34695D02*
X-34386Y118680D01*
X-34339Y118656D01*
X-34160Y118549D01*
X-34137Y118502D01*
X-34065Y118431D01*
X-34042Y118383D01*
X-33994Y118336D01*
X-33970Y118288D01*
X-33875Y118145D01*
X-33839Y118015D01*
X-33816Y117896D01*
X-33792Y117611D01*
X-33780Y116886D01*
X-33804Y116815D01*
X-33839Y116636D01*
X-33911Y116446D01*
X-34053Y116209D01*
X-34148Y116066D01*
X-34244Y115971D01*
X-34647Y115781D01*
X-34838Y115733D01*
X-35194Y115710D01*
X-35218D01*
X-35384Y115733D01*
X-35622Y115710D01*
X-35788Y115733D01*
X-36002Y115757D01*
X-36263Y115876D01*
X-36477Y115995D01*
X-36584Y116102D01*
X-36608Y116149D01*
X-36774Y116411D01*
X-36822Y116529D01*
X-36869Y116720D01*
X-36893Y116886D01*
X-36869Y117979D01*
X-36822Y118098D01*
X-36703Y118312D01*
X-36537Y118526D01*
X-36453Y118609D01*
X-36097Y118775D01*
X-35931Y118823D01*
X-35622Y118846D01*
X-34695Y118823D01*
D02*
G37*
G36*
X44581Y115638D02*
X44700Y115591D01*
X44866Y115520D01*
X45080Y115401D01*
X45234Y115246D01*
X45258Y115199D01*
X45412Y114973D01*
X45472Y114842D01*
X45496Y114747D01*
X45519Y114153D01*
X45496Y113535D01*
X45472Y113464D01*
X45234Y113012D01*
X44985Y112763D01*
X44818Y112692D01*
X44581Y112597D01*
X44414Y112573D01*
X43297Y112597D01*
X43179Y112644D01*
X43012Y112739D01*
X42798Y112906D01*
X42751Y112953D01*
X42703Y112977D01*
X42644Y113036D01*
X42573Y113202D01*
X42549Y113298D01*
X42430Y113559D01*
X42406Y113725D01*
X42382Y114106D01*
X42406Y114700D01*
X42490Y114878D01*
X42501Y114890D01*
X42596Y115127D01*
X42620Y115175D01*
X42727Y115306D01*
X42893Y115424D01*
X42941Y115448D01*
X43131Y115567D01*
X43297Y115615D01*
X43392Y115638D01*
X43701Y115662D01*
X44581Y115638D01*
D02*
G37*
G36*
X-15755Y115662D02*
X-15684Y115638D01*
X-15530Y115603D01*
X-15126Y115365D01*
X-14983Y115222D01*
X-14840Y114961D01*
X-14769Y114795D01*
X-14745Y114700D01*
X-14722Y114034D01*
X-14757Y113523D01*
X-14805Y113405D01*
X-14840Y113369D01*
X-14935Y113155D01*
X-15030Y112989D01*
X-15114Y112906D01*
X-15161Y112882D01*
X-15280Y112763D01*
X-15328Y112739D01*
X-15470Y112644D01*
X-15565Y112620D01*
X-15637Y112597D01*
X-15732Y112573D01*
X-16041Y112549D01*
X-16920Y112573D01*
X-16991Y112597D01*
X-17181Y112668D01*
X-17407Y112822D01*
X-17538Y112953D01*
X-17585Y112977D01*
X-17692Y113155D01*
X-17858Y113511D01*
X-17882Y113749D01*
X-17858Y114818D01*
X-17846Y114830D01*
X-17799Y114949D01*
X-17763Y114985D01*
X-17740Y115032D01*
X-17644Y115199D01*
X-17538Y115329D01*
X-17466Y115401D01*
X-17419Y115424D01*
X-17252Y115520D01*
X-17039Y115615D01*
X-16944Y115638D01*
X-16777Y115662D01*
X-16682Y115686D01*
X-15755Y115662D01*
D02*
G37*
G36*
X-31570Y115650D02*
X-31475Y115626D01*
X-31356Y115579D01*
X-31154Y115472D01*
X-30988Y115353D01*
X-30881Y115246D01*
X-30857Y115199D01*
X-30738Y115032D01*
X-30691Y114914D01*
X-30643Y114747D01*
X-30619Y114367D01*
X-30643Y113511D01*
X-30667Y113440D01*
X-30726Y113286D01*
X-30964Y112906D01*
X-31059Y112810D01*
X-31107Y112787D01*
X-31249Y112692D01*
X-31344Y112668D01*
X-31439Y112620D01*
X-31451Y112608D01*
X-31582Y112573D01*
X-31820Y112549D01*
X-32818Y112573D01*
X-33222Y112787D01*
X-33352Y112894D01*
X-33471Y113012D01*
X-33495Y113060D01*
X-33590Y113202D01*
X-33649Y113357D01*
X-33685Y113488D01*
X-33709Y113583D01*
X-33733Y113820D01*
X-33756Y114224D01*
X-33733Y114296D01*
X-33709Y114771D01*
X-33614Y115009D01*
X-33519Y115175D01*
X-33412Y115306D01*
X-33293Y115424D01*
X-32841Y115638D01*
X-32675Y115662D01*
X-32081Y115686D01*
X-31570Y115650D01*
D02*
G37*
G36*
X-41159Y115662D02*
X-41087Y115638D01*
X-40933Y115603D01*
X-40814Y115555D01*
X-40672Y115460D01*
X-40481Y115341D01*
X-40363Y115222D01*
X-40339Y115175D01*
X-40196Y114866D01*
X-40149Y114700D01*
X-40125Y114533D01*
X-40101Y114153D01*
X-40125Y113678D01*
X-40149Y113607D01*
X-40184Y113476D01*
X-40232Y113357D01*
X-40315Y113131D01*
X-40422Y113000D01*
X-40481Y112941D01*
X-40493Y112906D01*
X-40541Y112882D01*
X-40636Y112787D01*
X-40683Y112763D01*
X-40826Y112668D01*
X-40945Y112620D01*
X-41135Y112573D01*
X-41444Y112549D01*
X-42276Y112573D01*
X-42347Y112597D01*
X-42573Y112680D01*
X-42763Y112799D01*
X-42798Y112834D01*
X-42846Y112858D01*
X-42977Y112989D01*
X-43000Y113036D01*
X-43214Y113488D01*
X-43238Y113797D01*
Y114486D01*
Y114509D01*
X-43214Y114818D01*
X-43167Y114937D01*
X-43143Y114985D01*
X-43024Y115151D01*
X-42929Y115317D01*
X-42846Y115401D01*
X-42798Y115424D01*
X-42632Y115520D01*
X-42585Y115543D01*
X-42466Y115591D01*
X-42276Y115638D01*
X-41943Y115686D01*
X-41159Y115662D01*
D02*
G37*
G36*
X2661Y128376D02*
X9327Y128387D01*
X9589Y128364D01*
X9779Y128316D01*
X10016Y128221D01*
X10052Y128186D01*
X10100Y128162D01*
X10218Y128043D01*
X10266Y128019D01*
X10373Y127936D01*
X10397Y127888D01*
X10515Y127698D01*
X10587Y127532D01*
X10611Y127366D01*
X10634Y126843D01*
X10611Y126201D01*
X10587Y126130D01*
X10527Y125976D01*
X10325Y125655D01*
X10242Y125548D01*
X10195Y125524D01*
X10123Y125453D01*
X10076Y125429D01*
X10028Y125381D01*
X9862Y125310D01*
X9707Y125274D01*
X9387Y125239D01*
X7557Y125215D01*
X7497Y125156D01*
X7474Y125061D01*
X7450Y124894D01*
X7474Y122161D01*
X7581Y122055D01*
X7818Y122031D01*
X10551Y122055D01*
X10611Y122114D01*
X10634Y122209D01*
X10658Y122375D01*
X10682Y124276D01*
X10848Y124633D01*
X10919Y124752D01*
X11003Y124835D01*
X11050Y124859D01*
X11181Y124965D01*
X11323Y125061D01*
X11573Y125168D01*
X11810Y125191D01*
X11870Y125203D01*
X11882Y125191D01*
X11953Y125215D01*
X12832Y125191D01*
X12904Y125168D01*
X13070Y125096D01*
X13284Y124977D01*
X13403Y124859D01*
X13450Y124835D01*
X13521Y124763D01*
X13557Y124752D01*
X13581Y124704D01*
X13700Y124514D01*
X13771Y124348D01*
X13795Y124181D01*
X13819Y123516D01*
X13795Y119880D01*
X13771Y119809D01*
X13712Y119654D01*
X13676Y119619D01*
X13652Y119571D01*
X13557Y119405D01*
X13391Y119191D01*
X13331Y119131D01*
X12927Y118941D01*
X12832Y118918D01*
X12595Y118894D01*
X7581Y118870D01*
X7497Y118787D01*
X7450Y118597D01*
X7474Y115840D01*
X7581Y115710D01*
X7747Y115686D01*
X12856Y115662D01*
X12927Y115638D01*
X13046Y115591D01*
X13094Y115567D01*
X13308Y115448D01*
X13355Y115401D01*
X13403Y115377D01*
X13533Y115246D01*
X13557Y115199D01*
X13712Y114973D01*
X13771Y114842D01*
X13795Y114747D01*
X13807Y114403D01*
X13795Y114367D01*
X13819Y114296D01*
X13842Y112585D01*
X13902Y112525D01*
X13997Y112501D01*
X16041Y112478D01*
X16112Y112454D01*
X16243Y112418D01*
X16433Y112299D01*
X16575Y112204D01*
X16611Y112169D01*
X16658Y112145D01*
X16694Y112109D01*
X16718Y112062D01*
X16837Y111872D01*
X16860Y111824D01*
X16908Y111777D01*
X16955Y111658D01*
X16979Y111420D01*
X16991Y110862D01*
X16979Y110042D01*
X17003Y109971D01*
X16991Y109792D01*
X17003Y109757D01*
X16979Y109733D01*
X17003Y109662D01*
X17027Y109400D01*
X17086Y109341D01*
X17181Y109317D01*
X17431Y109329D01*
X19165Y109305D01*
X19308Y109282D01*
X19498Y109210D01*
X19534Y109175D01*
X19581Y109151D01*
X19629Y109103D01*
X19676Y109080D01*
X19748Y109008D01*
X19795Y108984D01*
X19902Y108877D01*
X19926Y108830D01*
X20116Y108497D01*
X20140Y108402D01*
X20164Y108236D01*
X20187Y106264D01*
X20235Y106216D01*
X20247Y106180D01*
X20413Y106133D01*
X20579Y106157D01*
X23288Y106180D01*
X23324Y106216D01*
X23372Y106382D01*
X23348Y109258D01*
X23288Y109341D01*
X23122Y109389D01*
X22813Y109365D01*
X21684Y109376D01*
X21387Y109365D01*
X21316Y109389D01*
X21126Y109412D01*
X21007Y109460D01*
X20853Y109519D01*
X20710Y109614D01*
X20603Y109721D01*
X20556Y109745D01*
X20449Y109852D01*
X20235Y110303D01*
X20211Y110398D01*
X20187Y110850D01*
X20164Y112466D01*
X20104Y112525D01*
X20009Y112549D01*
X17965Y112573D01*
X17894Y112597D01*
X17775Y112644D01*
X17728Y112668D01*
X17561Y112763D01*
X17514Y112810D01*
X17466Y112834D01*
X17264Y113036D01*
X17050Y113488D01*
X17027Y113583D01*
X17003Y114391D01*
X17027Y124300D01*
X17264Y124752D01*
X17300Y124787D01*
X17348Y124811D01*
X17395Y124859D01*
X17443Y124882D01*
X17561Y125001D01*
X17823Y125120D01*
X17941Y125168D01*
X18179Y125191D01*
X18702Y125215D01*
X19082Y125191D01*
X19332Y125132D01*
X19451Y125084D01*
X19593Y124989D01*
X19676Y124930D01*
X19724Y124882D01*
X19771Y124859D01*
X19843Y124787D01*
X19890Y124763D01*
X19926Y124728D01*
X20140Y124276D01*
X20164Y124110D01*
X20187Y118977D01*
X20270Y118870D01*
X20366Y118846D01*
X20663Y118858D01*
X22231Y118834D01*
X22492Y118787D01*
X22611Y118739D01*
X22754Y118644D01*
X22944Y118526D01*
X23110Y118359D01*
X23277Y118003D01*
X23324Y117813D01*
X23348Y117432D01*
X23372Y115793D01*
X23431Y115710D01*
X23550Y115662D01*
X23930Y115686D01*
X25201Y115674D01*
X25998Y115686D01*
X26069Y115662D01*
X26164Y115686D01*
X26449Y115710D01*
X26508Y115769D01*
X26556Y115888D01*
X26580Y118003D01*
X26722Y118264D01*
X26877Y118490D01*
X26972Y118585D01*
X27019Y118609D01*
X27376Y118775D01*
X27542Y118823D01*
X27780Y118846D01*
X28707Y118823D01*
X28778Y118799D01*
X28932Y118739D01*
X29134Y118632D01*
X29348Y118466D01*
X29431Y118383D01*
X29455Y118336D01*
X29598Y118027D01*
X29645Y117860D01*
X29669Y117622D01*
X29681Y113024D01*
X29669Y112775D01*
X29693Y112704D01*
X29716Y112608D01*
X29800Y112525D01*
X29895Y112501D01*
X30608D01*
X32746Y112525D01*
X32853Y112608D01*
X32877Y112704D01*
X32901Y112870D01*
X32925Y114795D01*
X32972Y114914D01*
X33067Y115080D01*
X33269Y115377D01*
X33768Y115615D01*
X33863Y115638D01*
X34030Y115662D01*
X34350Y115674D01*
X34457Y115662D01*
X34529Y115686D01*
X34909Y115662D01*
X35004Y115638D01*
X35170Y115615D01*
X35574Y115401D01*
X35681Y115317D01*
X35705Y115270D01*
X35800Y115127D01*
X35824Y115080D01*
X35871Y115032D01*
X35942Y114866D01*
X35990Y114581D01*
X36014Y112656D01*
X36097Y112549D01*
X36216Y112501D01*
X36394Y112490D01*
X37475Y112501D01*
X37547Y112478D01*
X38069Y112501D01*
X41301Y112478D01*
X41373Y112454D01*
X41551Y112418D01*
X41670Y112371D01*
X41931Y112204D01*
X42014Y112145D01*
X42204Y111860D01*
X42287Y111705D01*
X42311Y111610D01*
X42335Y110945D01*
X42359Y106264D01*
X42418Y106180D01*
X42585Y106133D01*
X44604Y106109D01*
X44676Y106085D01*
X44806Y106050D01*
X44925Y106002D01*
X45008Y105919D01*
X45056Y105895D01*
X45258Y105693D01*
X45282Y105646D01*
X45401Y105479D01*
X45472Y105313D01*
X45496Y105147D01*
X45519Y104267D01*
X45484Y104018D01*
X45412Y103828D01*
X45377Y103745D01*
X45222Y103519D01*
X45187Y103483D01*
X45163Y103436D01*
X45032Y103305D01*
X44985Y103281D01*
X44937Y103234D01*
X44890Y103210D01*
X44723Y103139D01*
X44557Y103091D01*
X44248Y103067D01*
X40161Y103091D01*
X40089Y103115D01*
X39994Y103139D01*
X39828Y103234D01*
X39697Y103341D01*
X39614Y103400D01*
X39531Y103483D01*
X39507Y103531D01*
X39412Y103626D01*
X39341Y103863D01*
X39281Y104018D01*
X39246Y104149D01*
X39222Y104244D01*
X39234Y104517D01*
X39222Y105836D01*
X39246Y105907D01*
X39198Y106097D01*
X39115Y106180D01*
X38996Y106228D01*
X38473Y106204D01*
X37737Y106228D01*
X37535Y106216D01*
X37107Y106240D01*
X36964Y106264D01*
X36703Y106359D01*
X36667Y106394D01*
X36620Y106418D01*
X36572Y106466D01*
X36525Y106489D01*
X36323Y106691D01*
X36299Y106739D01*
X36251Y106786D01*
X36180Y106953D01*
X36133Y107119D01*
X36097Y107274D01*
X36073Y107464D01*
X36049Y109151D01*
X36026Y109246D01*
X35966Y109329D01*
X35836Y109389D01*
X30120Y109376D01*
X29871Y109389D01*
X29716Y109282D01*
X29669Y109163D01*
X29681Y108913D01*
X29669Y108545D01*
X29693Y108474D01*
X29669Y108236D01*
X29681Y107915D01*
X29669Y107856D01*
X29693Y107784D01*
X29669Y107689D01*
X29645Y107262D01*
X29598Y107143D01*
X29562Y107012D01*
X29491Y106822D01*
X29455Y106786D01*
X29431Y106739D01*
X29360Y106667D01*
X29336Y106620D01*
X29206Y106489D01*
X29158Y106466D01*
X29063Y106370D01*
X28897Y106299D01*
X28730Y106252D01*
X28564Y106228D01*
X28326Y106204D01*
X26699Y106216D01*
X26568Y106133D01*
X26508Y106002D01*
X26485Y104077D01*
X26390Y103863D01*
X26366Y103768D01*
X26247Y103554D01*
X26176Y103483D01*
X26152Y103436D01*
X26021Y103305D01*
X25974Y103281D01*
X25926Y103234D01*
X25879Y103210D01*
X25617Y103091D01*
X25142Y103044D01*
X23514Y103055D01*
X23395Y102984D01*
X23348Y102818D01*
X23324Y100964D01*
X23300Y100893D01*
X23241Y100738D01*
X23170Y100548D01*
X23051Y100358D01*
X22968Y100275D01*
X22944Y100227D01*
X22884Y100168D01*
X22837Y100144D01*
X22718Y100026D01*
X22552Y99954D01*
X22457Y99930D01*
X22219Y99907D01*
X22124Y99883D01*
X11597Y99907D01*
X11525Y99930D01*
X11395Y99966D01*
X11252Y100061D01*
X11216Y100097D01*
X11169Y100121D01*
X11038Y100227D01*
X11014Y100275D01*
X10896Y100394D01*
X10801Y100608D01*
X10705Y100845D01*
X10658Y101131D01*
X10682Y102057D01*
X10943Y102556D01*
X11050Y102663D01*
X11098Y102687D01*
X11169Y102758D01*
X11216Y102782D01*
X11264Y102830D01*
X11312Y102853D01*
X11478Y102925D01*
X11573Y102949D01*
X11810Y102972D01*
X12262Y102996D01*
X12607Y102984D01*
X13070Y102996D01*
X13141Y102972D01*
X15696Y102984D01*
X16088Y102972D01*
X16159Y102996D01*
X16492Y102972D01*
X16563Y102996D01*
X16872Y102972D01*
X16979Y103079D01*
X17003Y103174D01*
X17027Y103436D01*
X17003Y103507D01*
X17027Y104030D01*
X17003Y104838D01*
X17015Y105967D01*
X16991Y106085D01*
X16932Y106168D01*
X16896Y106204D01*
X16801Y106228D01*
X16563Y106204D01*
X11597Y106228D01*
X11525Y106252D01*
X11371Y106311D01*
X11335Y106347D01*
X11288Y106370D01*
X11240Y106418D01*
X11193Y106442D01*
X11121Y106513D01*
X11074Y106537D01*
X10919Y106691D01*
X10896Y106739D01*
X10705Y107167D01*
X10682Y107262D01*
X10658Y107570D01*
X10634Y109258D01*
X10575Y109341D01*
X10456Y109389D01*
X10005Y109365D01*
X8531Y109389D01*
X8460Y109412D01*
X8305Y109448D01*
X8187Y109495D01*
X8103Y109555D01*
X7973Y109662D01*
X7937Y109697D01*
X7890Y109721D01*
X7818Y109792D01*
X7771Y109816D01*
X7735Y109852D01*
X7664Y110018D01*
X7581Y110244D01*
X7521Y110375D01*
X7474Y110565D01*
X7450Y112442D01*
X7367Y112525D01*
X7272Y112549D01*
X6951Y112537D01*
X4515Y112549D01*
X4444Y112525D01*
X4396Y112501D01*
X4313Y112442D01*
X4289Y112347D01*
X4277Y111290D01*
X4289Y110898D01*
X4266Y110826D01*
X4289Y110731D01*
X4266Y110493D01*
X4230Y110268D01*
X4111Y110006D01*
X4076Y109971D01*
X3957Y109757D01*
X3850Y109650D01*
X3802Y109626D01*
X3755Y109579D01*
X3707Y109555D01*
X3493Y109460D01*
X3327Y109412D01*
X3232Y109389D01*
X2852Y109365D01*
X-7390Y109389D01*
X-7628Y109483D01*
X-7676Y109507D01*
X-7842Y109602D01*
X-7890Y109650D01*
X-7937Y109674D01*
X-8091Y109828D01*
X-8210Y110042D01*
X-8282Y110208D01*
X-8305Y110303D01*
X-8329Y110470D01*
X-8353Y110707D01*
X-8377Y112418D01*
X-8412Y112478D01*
X-8460Y112501D01*
X-8579Y112549D01*
X-10599Y112573D01*
X-10717Y112620D01*
X-11026Y112787D01*
X-11121Y112882D01*
X-11169Y112906D01*
X-11276Y113012D01*
X-11490Y113464D01*
X-11514Y113630D01*
X-11525Y117539D01*
X-11502Y117943D01*
X-11478Y118038D01*
X-11430Y118157D01*
X-11335Y118300D01*
X-11252Y118431D01*
X-11169Y118538D01*
X-11121Y118561D01*
X-11074Y118609D01*
X-10670Y118799D01*
X-10515Y118834D01*
X-10278Y118858D01*
X-9719Y118870D01*
X-9648Y118846D01*
X-9292Y118823D01*
X-9173Y118775D01*
X-8959Y118656D01*
X-8745Y118490D01*
X-8591Y118336D01*
X-8543Y118217D01*
X-8472Y118050D01*
X-8424Y117931D01*
X-8377Y117646D01*
X-8353Y115793D01*
X-8246Y115686D01*
X-8044Y115674D01*
X-3232Y115686D01*
X-3161Y115662D01*
X-2947Y115638D01*
X-2875Y115615D01*
X-2519Y115424D01*
X-2388Y115317D01*
X-2341Y115270D01*
X-2317Y115222D01*
X-2269Y115175D01*
X-2246Y115127D01*
X-2103Y114818D01*
X-2056Y114628D01*
X-2044Y113951D01*
X-2056Y113915D01*
X-2032Y113844D01*
X-2044Y113191D01*
X-2032Y113060D01*
X-2056Y112989D01*
X-2032Y112680D01*
X-1972Y112573D01*
X-1925Y112549D01*
X-1806Y112501D01*
X998Y112525D01*
X1081Y112585D01*
X1105Y112632D01*
X1129Y112704D01*
X1153Y112799D01*
X1176Y114747D01*
X1271Y114985D01*
X1366Y115151D01*
X1533Y115365D01*
X1592Y115424D01*
X2044Y115638D01*
X2281Y115662D01*
X2376Y115686D01*
X4182Y115710D01*
X4242Y115745D01*
X4289Y115864D01*
X4313Y115959D01*
X4289Y118763D01*
X4242Y118811D01*
X4230Y118846D01*
X4182Y118870D01*
X4111Y118894D01*
X2091Y118918D01*
X2020Y118941D01*
X1568Y119179D01*
X1485Y119262D01*
X1461Y119310D01*
X1343Y119476D01*
X1319Y119524D01*
X1271Y119642D01*
X1200Y119880D01*
X1153Y120213D01*
X1141Y120605D01*
X1176Y121068D01*
X1224Y121187D01*
X1307Y121413D01*
X1390Y121544D01*
X1616Y121769D01*
X1663Y121793D01*
X1806Y121888D01*
X1925Y121936D01*
X2091Y121983D01*
X2186Y122007D01*
X2424Y122031D01*
X4182Y122055D01*
X4266Y122138D01*
X4313Y122304D01*
X4289Y125084D01*
X4206Y125215D01*
X4111Y125239D01*
X4028Y125251D01*
X2281Y125239D01*
X2210Y125263D01*
X1972Y125286D01*
X1759Y125405D01*
X1533Y125560D01*
X1366Y125773D01*
X1248Y126035D01*
X1212Y126166D01*
X1164Y126403D01*
X1153Y127271D01*
X1176Y127342D01*
X1212Y127520D01*
X1283Y127710D01*
X1426Y127948D01*
X1473Y127995D01*
X1521Y128019D01*
X1568Y128067D01*
X1616Y128090D01*
X1687Y128162D01*
X1735Y128186D01*
X1854Y128257D01*
X1972Y128304D01*
X2257Y128376D01*
X2590Y128399D01*
X2661Y128376D01*
D02*
G37*
G36*
X-12476Y112478D02*
X-12405Y112454D01*
X-12250Y112395D01*
X-12191Y112335D01*
X-12143Y112311D01*
X-11918Y112157D01*
X-11823Y112062D01*
X-11799Y112014D01*
X-11680Y111800D01*
X-11585Y111587D01*
X-11561Y111420D01*
X-11537Y111111D01*
X-11561Y111040D01*
X-11549Y110482D01*
X-11561Y109685D01*
X-11537Y109614D01*
X-11561Y109543D01*
X-11549Y107630D01*
X-11585Y107190D01*
X-11727Y106881D01*
X-11846Y106667D01*
X-12025Y106489D01*
X-12072Y106466D01*
X-12143Y106394D01*
X-12191Y106370D01*
X-12333Y106275D01*
X-12488Y106240D01*
X-12809Y106204D01*
X-13712Y106228D01*
X-13735D01*
X-13866Y106264D01*
X-13985Y106311D01*
X-14175Y106430D01*
X-14258Y106513D01*
X-14306Y106537D01*
X-14436Y106667D01*
X-14603Y106976D01*
X-14674Y107143D01*
X-14698Y107380D01*
X-14674Y111682D01*
X-14579Y111848D01*
X-14460Y112014D01*
X-14436Y112062D01*
X-14353Y112169D01*
X-14306Y112192D01*
X-14234Y112264D01*
X-14187Y112288D01*
X-14044Y112383D01*
X-13878Y112454D01*
X-13712Y112478D01*
X-13617Y112501D01*
X-12476Y112478D01*
D02*
G37*
G36*
X-22029D02*
X-21958Y112454D01*
X-21768Y112383D01*
X-21470Y112181D01*
X-21352Y112062D01*
X-21328Y112014D01*
X-21209Y111848D01*
X-21185Y111800D01*
X-21114Y111634D01*
X-21090Y111040D01*
X-21067Y109424D01*
X-20983Y109341D01*
X-20817Y109317D01*
X-20746Y109341D01*
X-20437Y109317D01*
X-20057Y109341D01*
X-19605Y109317D01*
X-18773Y109293D01*
X-18655Y109246D01*
X-18441Y109127D01*
X-18369Y109056D01*
X-18322Y109032D01*
X-18167Y108877D01*
X-18144Y108830D01*
X-17989Y108604D01*
X-17930Y108450D01*
X-17906Y108141D01*
X-17882Y106240D01*
X-17799Y106157D01*
X-17668Y106145D01*
X-15969Y106157D01*
X-15898Y106133D01*
X-15541Y106109D01*
X-15280Y105967D01*
X-15232Y105919D01*
X-15185Y105895D01*
X-15114Y105824D01*
X-15066Y105800D01*
X-15030Y105765D01*
X-15007Y105717D01*
X-14959Y105669D01*
X-14769Y105265D01*
X-14745Y105170D01*
X-14722Y104790D01*
X-14745Y104030D01*
X-14888Y103721D01*
X-14912Y103673D01*
X-15066Y103448D01*
X-15185Y103329D01*
X-15221Y103317D01*
X-15232Y103281D01*
X-15280Y103257D01*
X-15351Y103186D01*
X-15518Y103115D01*
X-15803Y103067D01*
X-15898Y103044D01*
X-17740Y103055D01*
X-17823Y103020D01*
X-17858Y102984D01*
X-17906Y102818D01*
X-17930Y100845D01*
X-17953Y100774D01*
X-18013Y100620D01*
X-18048Y100584D01*
X-18144Y100418D01*
X-18310Y100204D01*
X-18441Y100073D01*
X-18488Y100049D01*
X-18750Y99930D01*
X-18916Y99907D01*
X-19011Y99883D01*
X-23288Y99907D01*
X-23360Y99930D01*
X-23514Y99966D01*
X-23657Y100061D01*
X-23764Y100168D01*
X-23811Y100192D01*
X-23918Y100299D01*
X-23942Y100346D01*
X-24037Y100441D01*
X-24084Y100560D01*
X-24168Y100786D01*
X-24203Y100917D01*
X-24227Y101012D01*
X-24251Y101606D01*
X-24239Y102402D01*
X-24263Y102877D01*
X-24298Y102960D01*
X-24381Y103044D01*
X-30465Y103020D01*
X-30513Y102972D01*
X-30548Y102960D01*
X-30572Y102913D01*
X-30619Y102794D01*
X-30596Y96806D01*
X-30536Y96722D01*
X-30370Y96675D01*
X-28445Y96651D01*
X-28374Y96627D01*
X-28112Y96532D01*
X-27946Y96413D01*
X-27732Y96247D01*
X-27697Y96212D01*
X-27601Y96045D01*
X-27483Y95784D01*
X-27459Y95617D01*
X-27447Y94988D01*
X-27459Y94976D01*
X-27435Y94904D01*
X-27447Y94275D01*
X-27435Y93906D01*
X-27459Y93835D01*
X-27435Y93645D01*
X-27352Y93538D01*
X-27186Y93490D01*
X-18868Y93467D01*
X-18631Y93372D01*
X-18464Y93277D01*
X-18334Y93170D01*
X-18250Y93087D01*
X-18203Y93063D01*
X-18167Y93027D01*
X-18144Y92980D01*
X-18025Y92789D01*
X-18001Y92742D01*
X-17930Y92576D01*
X-17906Y92267D01*
X-17882Y87229D01*
X-17799Y87146D01*
X-17668Y87134D01*
X-15922Y87146D01*
X-15850Y87122D01*
X-15625Y87086D01*
X-15434Y87015D01*
X-15197Y86872D01*
X-15066Y86742D01*
X-15019Y86718D01*
X-14793Y86326D01*
X-14745Y86136D01*
X-14722Y85470D01*
X-14745Y85019D01*
X-14959Y84567D01*
X-14983Y84520D01*
X-15090Y84389D01*
X-15209Y84270D01*
X-15256Y84247D01*
X-15446Y84128D01*
X-15601Y84068D01*
X-15720Y84045D01*
X-15862Y84021D01*
X-19962Y84009D01*
X-20033Y84033D01*
X-20211Y84068D01*
X-20413Y84175D01*
X-20579Y84270D01*
X-20781Y84472D01*
X-21019Y84971D01*
X-21067Y85161D01*
X-21090Y87086D01*
X-21138Y87134D01*
X-21150Y87169D01*
X-21245Y87193D01*
X-21542Y87181D01*
X-23158Y87205D01*
X-23300Y87229D01*
X-23395Y87253D01*
X-23514Y87300D01*
X-23799Y87490D01*
X-23989Y87680D01*
X-24061Y87847D01*
X-24108Y87965D01*
X-24203Y88179D01*
X-24227Y88346D01*
X-24251Y88797D01*
X-24275Y90271D01*
X-24358Y90354D01*
X-24524Y90378D01*
X-24619Y90354D01*
X-30489Y90330D01*
X-30572Y90247D01*
X-30619Y90080D01*
X-30643Y88156D01*
X-30667Y88084D01*
X-30738Y87894D01*
X-30857Y87728D01*
X-30976Y87514D01*
X-31059Y87431D01*
X-31226Y87360D01*
X-31534Y87217D01*
X-31772Y87193D01*
X-32841Y87217D01*
X-33340Y87478D01*
X-33400Y87538D01*
X-33424Y87585D01*
X-33590Y87847D01*
X-33637Y87965D01*
X-33685Y88132D01*
X-33733Y88417D01*
X-33756Y88869D01*
X-33733Y89035D01*
X-33744Y93609D01*
X-33733Y95190D01*
X-33756Y95261D01*
X-33744Y95368D01*
X-33756Y95403D01*
X-33733Y95475D01*
X-33744Y95629D01*
X-33733Y95760D01*
X-33756Y95831D01*
X-33733Y95855D01*
X-33756Y95903D01*
X-33733Y95974D01*
X-33756Y96520D01*
X-33828Y96639D01*
X-33887Y96699D01*
X-34125Y96722D01*
X-34410Y96699D01*
X-34481Y96722D01*
X-36049Y96746D01*
X-36121Y96770D01*
X-36382Y96912D01*
X-36537Y97020D01*
X-36560Y97067D01*
X-36679Y97233D01*
X-36703Y97281D01*
X-36751Y97328D01*
X-36798Y97447D01*
X-36846Y97613D01*
X-36893Y97899D01*
X-36905Y98291D01*
X-36893Y98303D01*
X-36917Y98326D01*
X-36893Y98398D01*
X-36869Y98920D01*
X-36846Y98992D01*
X-36786Y99146D01*
X-36667Y99336D01*
X-36572Y99479D01*
X-36263Y99693D01*
X-36145Y99740D01*
X-35978Y99788D01*
X-35741Y99812D01*
X-35515Y99824D01*
X-35503Y99812D01*
X-35432Y99835D01*
X-33887Y99859D01*
X-33804Y99919D01*
X-33780Y99966D01*
X-33756Y100037D01*
X-33733Y100133D01*
X-33756Y100465D01*
X-33733Y100536D01*
X-33744Y100643D01*
X-33733Y100774D01*
X-33756Y100798D01*
X-33733Y100869D01*
X-33744Y101404D01*
X-33733Y101440D01*
X-33756Y101487D01*
X-33733Y101558D01*
X-33744Y101950D01*
X-33733Y105479D01*
X-33756Y105551D01*
X-33733Y106002D01*
X-33839Y106157D01*
X-33958Y106204D01*
X-43072Y106216D01*
X-43190Y106168D01*
X-43262Y106050D01*
X-43285Y105883D01*
X-43274Y105610D01*
X-43297Y104137D01*
X-43369Y103947D01*
X-43488Y103614D01*
X-43547Y103554D01*
X-43571Y103507D01*
X-43797Y103281D01*
X-43844Y103257D01*
X-43892Y103210D01*
X-43939Y103186D01*
X-44153Y103091D01*
X-44319Y103067D01*
X-44557Y103044D01*
X-45460Y103067D01*
X-45531Y103091D01*
X-45626Y103115D01*
X-45888Y103257D01*
X-45935Y103305D01*
X-45983Y103329D01*
X-46137Y103483D01*
X-46161Y103531D01*
X-46280Y103697D01*
X-46351Y103863D01*
X-46399Y104053D01*
X-46422Y104291D01*
X-46399Y111658D01*
X-46280Y111872D01*
X-46232Y111919D01*
X-46209Y111967D01*
X-46054Y112192D01*
X-46006Y112216D01*
X-45959Y112264D01*
X-45911Y112288D01*
X-45769Y112383D01*
X-45650Y112430D01*
X-45519Y112466D01*
X-45198Y112501D01*
X-44200Y112478D01*
X-44129Y112454D01*
X-44010Y112407D01*
X-43773Y112240D01*
X-43654Y112169D01*
X-43547Y112062D01*
X-43523Y112014D01*
X-43333Y111610D01*
X-43297Y111385D01*
X-43285Y110208D01*
Y110184D01*
X-43262Y109495D01*
X-43155Y109341D01*
X-42989Y109317D01*
X-42786Y109329D01*
X-37190Y109317D01*
X-37119Y109341D01*
X-37024Y109365D01*
X-36941Y109448D01*
X-36917Y109543D01*
X-36893Y109828D01*
X-36917Y109899D01*
X-36893Y110280D01*
X-36869Y111634D01*
X-36846Y111705D01*
X-36703Y111967D01*
X-36655Y112014D01*
X-36560Y112181D01*
X-36525Y112216D01*
X-36477Y112240D01*
X-36311Y112335D01*
X-36049Y112454D01*
X-35883Y112478D01*
X-35574Y112501D01*
X-34719Y112478D01*
X-34647Y112454D01*
X-34552Y112430D01*
X-34386Y112335D01*
X-34196Y112216D01*
X-34148Y112192D01*
X-34113Y112157D01*
X-34089Y112109D01*
X-33970Y111943D01*
X-33946Y111896D01*
X-33828Y111634D01*
X-33780Y111159D01*
X-33756Y109472D01*
X-33697Y109389D01*
X-33578Y109341D01*
X-33412Y109317D01*
X-32806Y109329D01*
X-32794Y109317D01*
X-32770Y109341D01*
X-32746Y109317D01*
X-32723Y109341D01*
X-32651Y109317D01*
X-31463Y109293D01*
X-31297Y109222D01*
X-31249Y109198D01*
X-31023Y109044D01*
X-30905Y108925D01*
X-30881Y108877D01*
X-30833Y108830D01*
X-30810Y108783D01*
X-30762Y108735D01*
X-30667Y108521D01*
X-30619Y108188D01*
X-30596Y106311D01*
X-30489Y106180D01*
X-30251Y106157D01*
X-24465Y106145D01*
X-24370Y106168D01*
X-24298Y106216D01*
X-24251Y106335D01*
X-24239Y108699D01*
X-24263Y109246D01*
X-24322Y109329D01*
X-24453Y109389D01*
X-24904Y109365D01*
X-29538Y109389D01*
X-29609Y109412D01*
X-29705Y109436D01*
X-29859Y109495D01*
X-30049Y109614D01*
X-30085Y109650D01*
X-30132Y109674D01*
X-30334Y109876D01*
X-30358Y109923D01*
X-30453Y110137D01*
X-30477Y110232D01*
X-30524Y110351D01*
X-30572Y110517D01*
X-30548Y111539D01*
X-30524Y111610D01*
X-30465Y111765D01*
X-30429Y111848D01*
X-30311Y112062D01*
X-30132Y112240D01*
X-29966Y112335D01*
X-29705Y112454D01*
X-29372Y112501D01*
X-22029Y112478D01*
D02*
G37*
G36*
X35147Y106109D02*
X35265Y106061D01*
X35479Y105943D01*
X35681Y105788D01*
X35705Y105741D01*
X35895Y105456D01*
X35942Y105337D01*
X35966Y105170D01*
X35990Y104790D01*
X35966Y104030D01*
X35942Y103958D01*
X35919Y103863D01*
X35776Y103602D01*
X35681Y103459D01*
X35657Y103412D01*
X35574Y103329D01*
X35527Y103305D01*
X35479Y103257D01*
X35432Y103234D01*
X35170Y103115D01*
X34885Y103067D01*
X34624Y103044D01*
X34552Y103067D01*
X34137Y103055D01*
X33899Y103079D01*
X33780Y103103D01*
X33685Y103127D01*
X33566Y103174D01*
X33412Y103257D01*
X33400Y103269D01*
X33317Y103352D01*
X33269Y103376D01*
X33210Y103459D01*
X33043Y103697D01*
X32996Y103816D01*
X32972Y103911D01*
X32925Y104077D01*
X32901Y104244D01*
X32925Y105218D01*
X32948Y105289D01*
X32984Y105420D01*
X33103Y105610D01*
X33198Y105753D01*
X33257Y105836D01*
X33317Y105895D01*
X33483Y105990D01*
X33697Y106085D01*
X33792Y106109D01*
X34101Y106133D01*
X35147Y106109D01*
D02*
G37*
G36*
X-37927Y102972D02*
X-37856Y102949D01*
X-37725Y102913D01*
X-37606Y102865D01*
X-37523Y102806D01*
X-37392Y102699D01*
X-37250Y102580D01*
X-37202Y102533D01*
X-37178Y102485D01*
X-37107Y102414D01*
X-37060Y102295D01*
X-37012Y102129D01*
X-36964Y101938D01*
X-36941Y101487D01*
X-36964Y100964D01*
X-36988Y100893D01*
X-37024Y100762D01*
X-37048Y100667D01*
X-37119Y100477D01*
X-37202Y100394D01*
X-37226Y100346D01*
X-37273Y100299D01*
X-37297Y100251D01*
X-37452Y100097D01*
X-37499Y100073D01*
X-37547Y100026D01*
X-37713Y99954D01*
X-37903Y99907D01*
X-38497Y99883D01*
X-39162Y99907D01*
X-39234Y99930D01*
X-39388Y99990D01*
X-39590Y100097D01*
X-39638Y100144D01*
X-39685Y100168D01*
X-39721Y100204D01*
X-39745Y100251D01*
X-39899Y100477D01*
X-39982Y100632D01*
X-40030Y100822D01*
X-40054Y100988D01*
X-40078Y101368D01*
X-40042Y102069D01*
X-40018Y102188D01*
X-39959Y102343D01*
X-39852Y102473D01*
X-39757Y102616D01*
X-39662Y102711D01*
X-39626Y102723D01*
X-39614Y102735D01*
X-39543Y102806D01*
X-39495Y102830D01*
X-39329Y102901D01*
X-39162Y102949D01*
X-38996Y102972D01*
X-38473Y102996D01*
X-37927Y102972D01*
D02*
G37*
G36*
X44533Y99788D02*
X44604Y99764D01*
X44830Y99681D01*
X45020Y99562D01*
X45080Y99503D01*
X45127Y99479D01*
X45198Y99408D01*
X45234Y99396D01*
X45258Y99348D01*
X45353Y99206D01*
X45472Y98944D01*
X45496Y98778D01*
X45519Y97970D01*
X45496Y97875D01*
X45472Y97613D01*
X45282Y97257D01*
X45115Y97043D01*
X45032Y96960D01*
X44985Y96936D01*
X44937Y96889D01*
X44890Y96865D01*
X44723Y96794D01*
X44628Y96770D01*
X44462Y96746D01*
X43511Y96722D01*
X42596Y96734D01*
X42477Y96711D01*
X42394Y96651D01*
X42359Y96615D01*
X42335Y96449D01*
X42311Y91316D01*
X42287Y91245D01*
X42228Y91090D01*
X42169Y91031D01*
X42145Y90983D01*
X42026Y90770D01*
X41872Y90615D01*
X41824Y90591D01*
X41515Y90449D01*
X41420Y90425D01*
X41087Y90378D01*
X40232Y90401D01*
X40161Y90425D01*
X40018Y90449D01*
X39852Y90544D01*
X39626Y90698D01*
X39531Y90793D01*
X39507Y90841D01*
X39460Y90888D01*
X39436Y90936D01*
X39365Y91102D01*
X39269Y91411D01*
X39246Y91506D01*
X39222Y91673D01*
X39234Y91922D01*
X39222Y96021D01*
X39246Y96093D01*
X39210Y96556D01*
X39174Y96639D01*
X39115Y96699D01*
X38925Y96746D01*
X38758Y96722D01*
X36275Y96734D01*
X36156Y96711D01*
X36073Y96651D01*
X36014Y96592D01*
X35990Y96354D01*
X35966Y94572D01*
X35942Y94501D01*
X35907Y94346D01*
X35859Y94227D01*
X35824Y94192D01*
X35800Y94144D01*
X35705Y94001D01*
X35610Y93835D01*
X35313Y93657D01*
X35194Y93609D01*
X35028Y93586D01*
X34933Y93562D01*
X32164Y93550D01*
X31558Y93562D01*
X31487Y93538D01*
X30667Y93574D01*
X30572Y93597D01*
X30453Y93645D01*
X30132Y93823D01*
X30049Y93906D01*
X29930Y94120D01*
X29835Y94263D01*
X29788Y94429D01*
X29764Y94524D01*
X29740Y94904D01*
X29764Y98944D01*
X29788Y99016D01*
X29930Y99277D01*
X30097Y99491D01*
X30156Y99550D01*
X30204Y99574D01*
X30346Y99669D01*
X30512Y99740D01*
X30703Y99788D01*
X30869Y99812D01*
X32841D01*
X44533Y99788D01*
D02*
G37*
G36*
X-12547Y102972D02*
X-12476Y102949D01*
X-12333Y102925D01*
X-12167Y102830D01*
X-12096Y102758D01*
X-12048Y102735D01*
X-12001Y102687D01*
X-11953Y102663D01*
X-11799Y102509D01*
X-11775Y102461D01*
X-11585Y102057D01*
X-11561Y101962D01*
X-11549Y100691D01*
X-11561Y98160D01*
X-11537Y98136D01*
X-11561Y98065D01*
X-11585Y97709D01*
X-11656Y97542D01*
X-11751Y97305D01*
X-11775Y97257D01*
X-11882Y97126D01*
X-12072Y96936D01*
X-12119Y96912D01*
X-12191Y96841D01*
X-12238Y96818D01*
X-12357Y96770D01*
X-12452Y96746D01*
X-12761Y96722D01*
X-13854Y96746D01*
X-13925Y96770D01*
X-14187Y96912D01*
X-14341Y97067D01*
X-14365Y97114D01*
X-14460Y97210D01*
X-14484Y97257D01*
X-14603Y97447D01*
X-14650Y97566D01*
X-14698Y97851D01*
X-14674Y102152D01*
X-14532Y102414D01*
X-14365Y102628D01*
X-14282Y102711D01*
X-14258D01*
X-14246Y102723D01*
X-14234Y102758D01*
X-14187Y102782D01*
X-14116Y102853D01*
X-13807Y102949D01*
X-13712Y102972D01*
X-13260Y102996D01*
X-12547Y102972D01*
D02*
G37*
G36*
X-25237Y99812D02*
X-25118Y99764D01*
X-24892Y99681D01*
X-24857Y99645D01*
X-24809Y99622D01*
X-24762Y99574D01*
X-24714Y99550D01*
X-24643Y99479D01*
X-24595Y99455D01*
X-24536Y99396D01*
X-24512Y99348D01*
X-24393Y99182D01*
X-24370Y99134D01*
X-24322Y99016D01*
X-24298Y98920D01*
X-24275Y98683D01*
Y98374D01*
Y98350D01*
X-24298Y97661D01*
X-24322Y97590D01*
X-24381Y97435D01*
X-24524Y97198D01*
X-24560Y97162D01*
X-24583Y97114D01*
X-24809Y96889D01*
X-24857Y96865D01*
X-25118Y96746D01*
X-25498Y96722D01*
X-26544Y96746D01*
X-26615Y96770D01*
X-26829Y96889D01*
X-26877Y96936D01*
X-26924Y96960D01*
X-27174Y97210D01*
X-27197Y97257D01*
X-27269Y97423D01*
X-27328Y97578D01*
X-27388Y97780D01*
X-27411Y98018D01*
X-27388Y98849D01*
X-27316Y99016D01*
X-27269Y99134D01*
X-27126Y99396D01*
X-27019Y99503D01*
X-26972Y99527D01*
X-26687Y99717D01*
X-26449Y99788D01*
X-26283Y99812D01*
X-25974Y99835D01*
X-25237Y99812D01*
D02*
G37*
G36*
X22124Y96651D02*
X22314Y96627D01*
X22385Y96604D01*
X22564Y96568D01*
X22754Y96449D01*
X22861Y96342D01*
X23027Y96247D01*
X23086Y96188D01*
X23277Y95784D01*
X23324Y95594D01*
X23348Y95095D01*
X23324Y95023D01*
X23336Y91566D01*
X23312Y91423D01*
X23288Y91328D01*
X23241Y91209D01*
X23122Y90948D01*
X23027Y90805D01*
X22837Y90615D01*
X22789Y90591D01*
X22647Y90496D01*
X22635Y90484D01*
X22480Y90425D01*
X22148Y90378D01*
X19142Y90366D01*
X18488Y90378D01*
X18441Y90354D01*
X18369Y90378D01*
X17894Y90401D01*
X17538Y90591D01*
X17407Y90698D01*
X17336Y90770D01*
X17312Y90817D01*
X17074Y91197D01*
X17027Y91482D01*
X17050Y95808D01*
X17146Y95974D01*
X17264Y96164D01*
X17288Y96212D01*
X17348Y96271D01*
X17395Y96295D01*
X17538Y96437D01*
X17585Y96461D01*
X17751Y96556D01*
X17870Y96604D01*
X18155Y96651D01*
X19308Y96663D01*
X21886Y96651D01*
X21958Y96675D01*
X22124Y96651D01*
D02*
G37*
G36*
X12666D02*
X12880Y96627D01*
X12999Y96580D01*
X13153Y96520D01*
X13284Y96437D01*
X13450Y96271D01*
X13498Y96247D01*
X13557Y96188D01*
X13581Y96140D01*
X13676Y95998D01*
X13700Y95950D01*
X13771Y95784D01*
X13795Y95546D01*
X13771Y94453D01*
X13723Y94334D01*
X13700Y94287D01*
X13605Y94144D01*
X13533Y94025D01*
X13367Y93811D01*
X13331Y93776D01*
X13284Y93752D01*
X13236Y93704D01*
X13023Y93609D01*
X12832Y93562D01*
X12310Y93538D01*
X11573Y93562D01*
X11502Y93586D01*
X11383Y93633D01*
X11145Y93799D01*
X11098Y93823D01*
X11014Y93906D01*
X10991Y93954D01*
X10896Y94049D01*
X10753Y94382D01*
X10705Y94501D01*
X10658Y94786D01*
X10682Y95712D01*
X10872Y96116D01*
X10896Y96164D01*
X10979Y96271D01*
X11026Y96295D01*
X11240Y96461D01*
X11383Y96556D01*
X11549Y96604D01*
X11573D01*
X11585Y96615D01*
X11704Y96639D01*
X11918Y96663D01*
X12595Y96675D01*
X12666Y96651D01*
D02*
G37*
G36*
X-44319Y99812D02*
X-44248Y99788D01*
X-44117Y99752D01*
X-43927Y99681D01*
X-43868Y99622D01*
X-43820Y99598D01*
X-43773Y99550D01*
X-43725Y99527D01*
X-43678Y99479D01*
X-43630Y99455D01*
X-43523Y99348D01*
X-43381Y99039D01*
X-43309Y98802D01*
X-43285Y98635D01*
X-43274Y97103D01*
X-43285Y96877D01*
X-43190Y96711D01*
X-43036Y96651D01*
X-42798Y96675D01*
X-41159Y96651D01*
X-41087Y96627D01*
X-40992Y96604D01*
X-40767Y96520D01*
X-40660Y96413D01*
X-40612Y96390D01*
X-40565Y96342D01*
X-40517Y96318D01*
X-40386Y96212D01*
X-40339Y96164D01*
X-40315Y96116D01*
X-40244Y95950D01*
X-40196Y95831D01*
X-40149Y95665D01*
X-40125Y95570D01*
X-40101Y94904D01*
X-40137Y94679D01*
X-40208Y94394D01*
X-40303Y94132D01*
X-40363Y94049D01*
X-40469Y93918D01*
X-40636Y93752D01*
X-40683Y93728D01*
X-40731Y93681D01*
X-40778Y93657D01*
X-40945Y93586D01*
X-41218Y93550D01*
X-42989Y93538D01*
X-43036Y93562D01*
X-43107Y93538D01*
X-43226Y93467D01*
X-43262Y93336D01*
X-43285Y92956D01*
X-43309Y91388D01*
X-43357Y91269D01*
X-43416Y91114D01*
X-43464Y90995D01*
X-43583Y90805D01*
X-43797Y90591D01*
X-43915Y90520D01*
X-44177Y90401D01*
X-44450Y90366D01*
X-45222Y90354D01*
X-45294Y90378D01*
X-45579Y90401D01*
X-45793Y90520D01*
X-46018Y90674D01*
X-46066Y90698D01*
X-46090Y90746D01*
X-46137Y90793D01*
X-46256Y91007D01*
X-46304Y91055D01*
X-46375Y91221D01*
X-46399Y91388D01*
X-46422Y91673D01*
Y91696D01*
X-46399Y98944D01*
X-46351Y99063D01*
X-46256Y99229D01*
X-46161Y99372D01*
X-46137Y99420D01*
X-46078Y99479D01*
X-46030Y99503D01*
X-45959Y99574D01*
X-45911Y99598D01*
X-45840Y99669D01*
X-45721Y99717D01*
X-45555Y99764D01*
X-45365Y99812D01*
X-44913Y99835D01*
X-44319Y99812D01*
D02*
G37*
G36*
X570Y107440D02*
X642Y107416D01*
X939Y107380D01*
X1058Y107357D01*
X1343Y107309D01*
X1533Y107262D01*
X1889Y107190D01*
X2151Y107095D01*
X2281Y107060D01*
X2507Y106976D01*
X2697Y106905D01*
X2816Y106858D01*
X2970Y106798D01*
X3196Y106715D01*
X3374Y106608D01*
X3493Y106561D01*
X3648Y106501D01*
X4099Y106240D01*
X4135Y106204D01*
X4349Y106109D01*
X4515Y106014D01*
X4563Y105967D01*
X4610Y105943D01*
X4776Y105824D01*
X4824Y105800D01*
X4955Y105693D01*
X4990Y105658D01*
X5038Y105634D01*
X5501Y105289D01*
X5680Y105111D01*
X5727Y105087D01*
X5822Y104992D01*
X5870Y104968D01*
X6048Y104790D01*
X6072Y104743D01*
X6369Y104446D01*
X6416Y104422D01*
X6452Y104386D01*
X6476Y104339D01*
X6523Y104291D01*
X6547Y104244D01*
X6594Y104196D01*
X6618Y104149D01*
X6761Y104006D01*
X6784Y103958D01*
X6856Y103887D01*
X6880Y103840D01*
X6975Y103673D01*
X7141Y103507D01*
X7165Y103459D01*
X7284Y103245D01*
X7331Y103198D01*
X7474Y102937D01*
X7521Y102889D01*
X7545Y102842D01*
X7759Y102438D01*
X7878Y102176D01*
X8091Y101725D01*
X8115Y101582D01*
X8282Y101226D01*
X8341Y100952D01*
X8389Y100834D01*
X8412Y100738D01*
X8436Y100620D01*
X8460Y100525D01*
X8543Y100323D01*
X8567Y100014D01*
X8602Y99788D01*
X8662Y99586D01*
X8709Y99420D01*
X8733Y99253D01*
X8757Y98113D01*
X8733Y98041D01*
X8745Y97554D01*
X8721Y97245D01*
X8674Y97008D01*
X8638Y96877D01*
X8591Y96711D01*
X8567Y96615D01*
X8543Y96212D01*
X8448Y95974D01*
X8400Y95784D01*
X8365Y95629D01*
X8329Y95499D01*
X8282Y95309D01*
X8139Y95000D01*
X8068Y94714D01*
X7949Y94501D01*
X7854Y94287D01*
X7735Y94073D01*
X7640Y93859D01*
X7521Y93645D01*
X7474Y93597D01*
X7450Y93550D01*
X7307Y93289D01*
X7189Y93122D01*
X7165Y93075D01*
X6820Y92611D01*
X6761Y92552D01*
X6737Y92504D01*
X6630Y92374D01*
X6571Y92314D01*
X6547Y92267D01*
X6452Y92172D01*
X6440Y92136D01*
X6404Y92124D01*
X6392Y92088D01*
X6345Y92065D01*
X6309Y92029D01*
X6297Y91993D01*
X6250Y91970D01*
X6143Y91863D01*
X6119Y91815D01*
X5822Y91518D01*
X5775Y91494D01*
X5727Y91447D01*
X5680Y91423D01*
X5620Y91364D01*
X5596Y91316D01*
X5561Y91280D01*
X5513Y91257D01*
X5347Y91090D01*
X5299Y91067D01*
X5074Y90912D01*
X5038Y90877D01*
X4990Y90853D01*
X4895Y90758D01*
X4848Y90734D01*
X4776Y90663D01*
X4729Y90639D01*
X4515Y90520D01*
X4444Y90449D01*
X4396Y90425D01*
X4087Y90259D01*
X3945Y90164D01*
X3446Y89926D01*
X3291Y89867D01*
X2947Y89712D01*
X2578Y89581D01*
X2329Y89474D01*
X2234Y89451D01*
X2067Y89427D01*
X1687Y89308D01*
X1485Y89272D01*
X1366Y89249D01*
X1224Y89225D01*
X915Y89177D01*
X677Y89130D01*
X582Y89106D01*
X297Y89059D01*
X-273Y89035D01*
X-665Y89023D01*
X-737Y89047D01*
X-1355Y89071D01*
X-1426Y89094D01*
X-1699Y89154D01*
X-1842Y89177D01*
X-1961Y89201D01*
X-2269Y89249D01*
X-2626Y89320D01*
X-2721Y89344D01*
X-2840Y89391D01*
X-2935Y89415D01*
X-3054Y89439D01*
X-3196Y89463D01*
X-3386Y89534D01*
X-3588Y89617D01*
X-3743Y89677D01*
X-3873Y89712D01*
X-4277Y89902D01*
X-4503Y89985D01*
X-4753Y90116D01*
X-4967Y90235D01*
X-5014Y90282D01*
X-5062Y90306D01*
X-5323Y90449D01*
X-5489Y90568D01*
X-5703Y90686D01*
X-5822Y90805D01*
X-5870Y90829D01*
X-5941Y90900D01*
X-5989Y90924D01*
X-6060Y90995D01*
X-6274Y91114D01*
X-6440Y91280D01*
X-6488Y91304D01*
X-6523Y91340D01*
X-6547Y91388D01*
X-6582Y91423D01*
X-6630Y91447D01*
X-6725Y91542D01*
X-6773Y91566D01*
X-6820Y91613D01*
X-6868Y91637D01*
X-6903Y91673D01*
X-6927Y91720D01*
X-7355Y92148D01*
X-7379Y92195D01*
X-7474Y92290D01*
X-7497Y92338D01*
X-7592Y92433D01*
X-7616Y92481D01*
X-7723Y92611D01*
X-7806Y92695D01*
X-7830Y92742D01*
X-8068Y93075D01*
X-8091Y93122D01*
X-8282Y93407D01*
X-8400Y93621D01*
X-8448Y93669D01*
X-8472Y93716D01*
X-8567Y93930D01*
X-8650Y94085D01*
X-8662Y94096D01*
X-8805Y94405D01*
X-8995Y94809D01*
X-9054Y95059D01*
X-9161Y95237D01*
X-9197Y95368D01*
X-9244Y95558D01*
X-9280Y95689D01*
X-9304Y95784D01*
X-9339Y95938D01*
X-9410Y96128D01*
X-9434Y96223D01*
X-9458Y96342D01*
X-9482Y96675D01*
X-9541Y96877D01*
X-9589Y97043D01*
X-9624Y97245D01*
X-9648Y98148D01*
X-9660Y98564D01*
X-9636Y98635D01*
X-9612Y99467D01*
X-9589Y99538D01*
X-9494Y99847D01*
X-9470Y100014D01*
X-9446Y100323D01*
X-9351Y100560D01*
X-9304Y100750D01*
X-9280Y100893D01*
X-9256Y100964D01*
X-9232Y101059D01*
X-9185Y101226D01*
X-9018Y101582D01*
X-8995Y101677D01*
X-8959Y101832D01*
X-8781Y102176D01*
X-8721Y102331D01*
X-8626Y102473D01*
X-8567Y102580D01*
X-8519Y102699D01*
X-8424Y102865D01*
X-8377Y102913D01*
X-8353Y102960D01*
X-8234Y103174D01*
X-8115Y103341D01*
X-7997Y103554D01*
X-7854Y103697D01*
X-7735Y103911D01*
X-7616Y104030D01*
X-7592Y104077D01*
X-7474Y104196D01*
X-7450Y104244D01*
X-7402Y104291D01*
X-7379Y104339D01*
X-7331Y104386D01*
X-7307Y104434D01*
X-7272Y104469D01*
X-7224Y104493D01*
X-6951Y104766D01*
X-6927Y104814D01*
X-6773Y104968D01*
X-6725Y104992D01*
X-6606Y105111D01*
X-6559Y105135D01*
X-6345Y105349D01*
X-6297Y105372D01*
X-6202Y105467D01*
X-6155Y105491D01*
X-6107Y105539D01*
X-6060Y105562D01*
X-5917Y105658D01*
X-5870Y105681D01*
X-5798Y105753D01*
X-5763Y105765D01*
X-5751Y105800D01*
X-5703Y105824D01*
X-5477Y105978D01*
X-5335Y106073D01*
X-5216Y106121D01*
X-5133Y106157D01*
X-4967Y106275D01*
X-4919Y106299D01*
X-4705Y106418D01*
X-4396Y106561D01*
X-3945Y106774D01*
X-3790Y106834D01*
X-3672Y106881D01*
X-3517Y106941D01*
X-2935Y107143D01*
X-2733Y107202D01*
X-2638Y107226D01*
X-2436Y107262D01*
X-2246Y107309D01*
X-2127Y107333D01*
X-1842Y107380D01*
X-1521Y107416D01*
X-1355Y107440D01*
X-760Y107464D01*
X570Y107440D01*
D02*
G37*
G36*
X34980Y90282D02*
X35051Y90259D01*
X35277Y90176D01*
X35550Y90021D01*
X35681Y89914D01*
X35729Y89867D01*
X35752Y89819D01*
X35871Y89629D01*
X35919Y89510D01*
X35966Y89344D01*
X35990Y89035D01*
X35966Y88227D01*
X35942Y88156D01*
X35919Y88013D01*
X35824Y87847D01*
X35776Y87799D01*
X35610Y87490D01*
X35432Y87383D01*
X35313Y87336D01*
X35147Y87264D01*
X34861Y87217D01*
X34612Y87205D01*
X34362Y87217D01*
X34291Y87193D01*
X33923Y87229D01*
X33804Y87253D01*
X33709Y87276D01*
X33293Y87478D01*
X33233Y87538D01*
X33210Y87585D01*
X33091Y87799D01*
X32996Y87942D01*
X32925Y88346D01*
X32901Y88797D01*
Y89082D01*
X32913Y89094D01*
X32936Y89379D01*
X32960Y89474D01*
X33079Y89736D01*
X33115Y89772D01*
X33138Y89819D01*
X33186Y89867D01*
X33210Y89914D01*
X33293Y89997D01*
X33340Y90021D01*
X33507Y90140D01*
X33602Y90164D01*
X33768Y90235D01*
X33958Y90282D01*
X34267Y90306D01*
X34980Y90282D01*
D02*
G37*
G36*
X28635D02*
X28707Y90259D01*
X28802Y90235D01*
X29027Y90152D01*
X29063Y90116D01*
X29111Y90092D01*
X29182Y90021D01*
X29229Y89997D01*
X29277Y89950D01*
X29324Y89926D01*
X29455Y89795D01*
X29526Y89629D01*
X29621Y89391D01*
X29645Y89225D01*
X29669Y88702D01*
X29633Y88286D01*
X29562Y88001D01*
X29514Y87882D01*
X29396Y87692D01*
X29301Y87550D01*
X29206Y87455D01*
X29158Y87431D01*
X28802Y87264D01*
X28647Y87229D01*
X28433Y87205D01*
X28041Y87193D01*
X28017Y87217D01*
X27946Y87193D01*
X24334Y87217D01*
X24215Y87264D01*
X23954Y87383D01*
X23787Y87478D01*
X23704Y87562D01*
X23681Y87609D01*
X23562Y87823D01*
X23467Y87965D01*
X23419Y88132D01*
X23395Y88370D01*
X23372Y88892D01*
X23395Y88987D01*
Y89106D01*
Y89130D01*
X23419Y89463D01*
X23585Y89772D01*
X23692Y89902D01*
X23883Y90092D01*
X24096Y90187D01*
X24215Y90235D01*
X24381Y90282D01*
X24619Y90306D01*
X28635Y90282D01*
D02*
G37*
G36*
X-41171Y90294D02*
X-41076Y90271D01*
X-40957Y90247D01*
X-40885Y90223D01*
X-40873Y90211D01*
X-40707Y90116D01*
X-40386Y89890D01*
X-40363Y89843D01*
X-40315Y89795D01*
X-40268Y89677D01*
X-40184Y89451D01*
X-40149Y89344D01*
X-40125Y89249D01*
X-40101Y88536D01*
X-40125Y88464D01*
X-40149Y88227D01*
X-40173Y88156D01*
X-40303Y87787D01*
X-40398Y87645D01*
X-40458Y87585D01*
X-40481Y87538D01*
X-40565Y87455D01*
X-40612Y87431D01*
X-40802Y87312D01*
X-40921Y87264D01*
X-41111Y87217D01*
X-41277Y87193D01*
X-42323Y87217D01*
X-42442Y87264D01*
X-42846Y87478D01*
X-42905Y87514D01*
X-42929Y87562D01*
X-43024Y87704D01*
X-43119Y87870D01*
X-43167Y87989D01*
X-43214Y88156D01*
X-43238Y88464D01*
X-43214Y89439D01*
X-43167Y89558D01*
X-43024Y89819D01*
X-42917Y89950D01*
X-42870Y89997D01*
X-42822Y90021D01*
X-42775Y90069D01*
X-42727Y90092D01*
X-42585Y90187D01*
X-42347Y90259D01*
X-42252Y90282D01*
X-42085Y90306D01*
X-41384Y90318D01*
X-41171Y90294D01*
D02*
G37*
G36*
X44462Y90282D02*
X44652Y90235D01*
X44771Y90187D01*
X45032Y90045D01*
X45175Y89902D01*
X45222Y89879D01*
X45258Y89843D01*
X45282Y89795D01*
X45377Y89629D01*
X45472Y89415D01*
X45496Y89320D01*
X45519Y86801D01*
X45507Y82488D01*
X45519Y82191D01*
X45496Y82120D01*
X45472Y81763D01*
X45234Y81312D01*
X44985Y81062D01*
X44818Y80991D01*
X44581Y80896D01*
X44414Y80872D01*
X43998Y80860D01*
X43321Y80872D01*
X43274Y80848D01*
X43226Y80872D01*
X43155Y80848D01*
X43084Y80872D01*
X40719Y80860D01*
X40291Y80884D01*
X40173Y80908D01*
X40077Y80931D01*
X39887Y81003D01*
X39745Y81098D01*
X39685Y81157D01*
X39638Y81181D01*
X39483Y81335D01*
X39460Y81383D01*
X39365Y81597D01*
X39329Y81728D01*
X39269Y81882D01*
X39234Y82179D01*
X39222Y82904D01*
X39246Y82975D01*
X39222Y85518D01*
X39246Y85589D01*
X39269Y86207D01*
X39365Y86445D01*
X39483Y86658D01*
X39662Y86837D01*
X39709Y86861D01*
X39852Y86955D01*
X39899Y86979D01*
X40066Y87051D01*
X40256Y87098D01*
X40565Y87122D01*
X42192Y87110D01*
X42311Y87157D01*
X42382Y87324D01*
X42406Y87419D01*
X42382Y87585D01*
X42406Y87894D01*
X42430Y89391D01*
X42525Y89558D01*
X42585Y89712D01*
X42632Y89831D01*
X42703Y89902D01*
X42751Y89926D01*
X42881Y90033D01*
X42893Y90045D01*
X42941Y90069D01*
X43084Y90164D01*
X43202Y90211D01*
X43392Y90259D01*
X43559Y90282D01*
X44010Y90306D01*
X44462Y90282D01*
D02*
G37*
G36*
X12809Y87122D02*
X12880Y87098D01*
X12975Y87074D01*
X13331Y86884D01*
X13533Y86682D01*
X13557Y86635D01*
X13723Y86397D01*
X13771Y86231D01*
X13795Y86064D01*
X13771Y84948D01*
X13581Y84591D01*
X13427Y84365D01*
X13308Y84247D01*
X13260Y84223D01*
X12951Y84080D01*
X12761Y84033D01*
X12310Y84009D01*
X11395Y84021D01*
X10931Y84009D01*
X10860Y84033D01*
X10717Y83985D01*
X10634Y83902D01*
X10611Y83664D01*
X10634Y83593D01*
X10611Y83522D01*
X10587Y81763D01*
X10325Y81264D01*
X10171Y81110D01*
X10123Y81086D01*
X10076Y81038D01*
X9814Y80920D01*
X9648Y80872D01*
X9482Y80848D01*
X8484Y80872D01*
X8412Y80896D01*
X8282Y80931D01*
X8163Y80979D01*
X8127Y81015D01*
X8080Y81038D01*
X8032Y81086D01*
X7985Y81110D01*
X7866Y81229D01*
X7818Y81252D01*
X7759Y81312D01*
X7735Y81359D01*
X7640Y81573D01*
X7521Y81882D01*
X7497Y82048D01*
X7474Y82642D01*
X7485Y82797D01*
X7474Y83165D01*
X7497Y83237D01*
X7462Y83890D01*
X7402Y83973D01*
X7248Y84033D01*
X7010Y84009D01*
X3113D01*
X1236Y83985D01*
X1153Y83902D01*
X1105Y83736D01*
X1081Y81834D01*
X1058Y81763D01*
X1022Y81632D01*
X879Y81395D01*
X760Y81205D01*
X642Y81086D01*
X594Y81062D01*
X190Y80872D01*
X24Y80848D01*
X-1117Y80872D01*
X-1568Y81110D01*
X-1699Y81240D01*
X-1723Y81288D01*
X-1889Y81549D01*
X-1961Y81787D01*
X-1984Y81882D01*
X-2008Y82333D01*
X-1984Y86207D01*
X-1961Y86278D01*
X-1901Y86433D01*
X-1782Y86623D01*
X-1723Y86706D01*
X-1616Y86837D01*
X-1568Y86884D01*
X-1117Y87098D01*
X-1022Y87122D01*
X-428Y87146D01*
X12809Y87122D01*
D02*
G37*
G36*
X-9410D02*
X-9339Y87098D01*
X-9185Y87063D01*
X-8983Y86955D01*
X-8686Y86730D01*
X-8638Y86682D01*
X-8614Y86635D01*
X-8472Y86326D01*
X-8424Y86207D01*
X-8377Y85874D01*
Y85280D01*
Y85256D01*
X-8400Y85066D01*
X-8472Y84900D01*
X-8519Y84781D01*
X-8579Y84627D01*
X-8698Y84437D01*
X-8864Y84270D01*
X-8911Y84247D01*
X-9078Y84128D01*
X-9232Y84068D01*
X-9351Y84045D01*
X-9672Y84009D01*
X-10575Y84033D01*
X-10812Y84128D01*
X-11026Y84247D01*
X-11157Y84353D01*
X-11252Y84448D01*
X-11490Y84948D01*
X-11514Y85185D01*
X-11490Y86302D01*
X-11347Y86563D01*
X-11228Y86730D01*
X-11193Y86789D01*
X-11145Y86813D01*
X-11074Y86884D01*
X-11026Y86908D01*
X-10907Y86979D01*
X-10694Y87074D01*
X-10503Y87122D01*
X-10195Y87146D01*
X-9410Y87122D01*
D02*
G37*
G36*
X-25213D02*
X-25142Y87098D01*
X-24690Y86861D01*
X-24560Y86730D01*
X-24536Y86682D01*
X-24488Y86635D01*
X-24393Y86468D01*
X-24346Y86421D01*
X-24310Y86290D01*
X-24286Y86171D01*
X-24275Y85114D01*
X-24298Y85043D01*
X-24322Y84853D01*
X-24417Y84686D01*
X-24512Y84544D01*
X-24583Y84425D01*
X-24690Y84294D01*
X-24833Y84199D01*
X-25094Y84080D01*
X-25261Y84033D01*
X-25641Y84009D01*
X-26425Y84033D01*
X-26497Y84056D01*
X-26651Y84116D01*
X-26853Y84223D01*
X-26984Y84330D01*
X-27174Y84520D01*
X-27245Y84686D01*
X-27304Y84840D01*
X-27388Y85114D01*
X-27399Y85149D01*
X-27411Y85161D01*
X-27388Y86159D01*
X-27293Y86373D01*
X-27233Y86528D01*
X-27197Y86611D01*
X-27091Y86742D01*
X-26972Y86861D01*
X-26924Y86884D01*
X-26782Y86979D01*
X-26568Y87074D01*
X-26378Y87122D01*
X-26069Y87146D01*
X-25213Y87122D01*
D02*
G37*
G36*
X-37891Y87110D02*
X-37701Y87039D01*
X-37380Y86861D01*
X-37178Y86658D01*
X-37155Y86611D01*
X-37012Y86302D01*
X-36976Y86148D01*
X-36953Y86005D01*
X-36941Y85209D01*
X-36964Y85138D01*
X-36988Y85043D01*
X-37036Y84876D01*
X-37060Y84781D01*
X-37202Y84520D01*
X-37250Y84472D01*
X-37273Y84425D01*
X-37380Y84294D01*
X-37547Y84199D01*
X-37903Y84033D01*
X-38426Y84009D01*
X-39139Y84033D01*
X-39258Y84080D01*
X-39662Y84294D01*
X-39745Y84377D01*
X-39769Y84425D01*
X-39982Y84781D01*
X-40030Y84948D01*
X-40078Y85280D01*
X-40054Y86231D01*
X-40030Y86302D01*
X-39982Y86421D01*
X-39959Y86468D01*
X-39840Y86635D01*
X-39769Y86754D01*
X-39745Y86777D01*
X-39733Y86789D01*
X-39614Y86908D01*
X-39186Y87098D01*
X-39091Y87122D01*
X-38426Y87146D01*
X-37891Y87110D01*
D02*
G37*
G36*
X-44272Y87122D02*
X-44200Y87098D01*
X-44105Y87074D01*
X-44082Y87051D01*
X-44058D01*
X-43892Y86955D01*
X-43666Y86801D01*
X-43523Y86658D01*
X-43404Y86397D01*
X-43333Y86231D01*
X-43285Y86041D01*
X-43309Y85043D01*
X-43381Y84876D01*
X-43428Y84757D01*
X-43488Y84603D01*
X-43583Y84460D01*
X-43689Y84353D01*
X-43713Y84306D01*
X-43797Y84247D01*
X-43963Y84151D01*
X-44177Y84056D01*
X-44414Y84033D01*
X-44509Y84009D01*
X-45460Y84033D01*
X-45531Y84056D01*
X-45650Y84104D01*
X-45697Y84128D01*
X-45959Y84270D01*
X-46030Y84341D01*
X-46078Y84365D01*
X-46173Y84508D01*
X-46315Y84746D01*
X-46375Y84900D01*
X-46422Y85233D01*
X-46399Y86278D01*
X-46256Y86540D01*
X-46137Y86706D01*
X-46113Y86754D01*
X-46030Y86837D01*
X-45983Y86861D01*
X-45911Y86932D01*
X-45650Y87051D01*
X-45531Y87098D01*
X-45365Y87122D01*
X-45056Y87146D01*
X-44272Y87122D01*
D02*
G37*
G36*
X31808Y83926D02*
X31998Y83878D01*
X32117Y83831D01*
X32390Y83676D01*
X32521Y83569D01*
X32544Y83522D01*
X32592Y83474D01*
X32782Y83070D01*
X32806Y82975D01*
X32829Y82595D01*
X32818Y77426D01*
X32829Y77391D01*
X32806Y77319D01*
X32829Y75418D01*
X32806Y75347D01*
X32829Y72186D01*
X32806Y72115D01*
X32829Y71877D01*
X32806Y71640D01*
X32829Y71569D01*
X32853Y71426D01*
X32960Y71295D01*
X33127Y71248D01*
X38212Y71224D01*
X38283Y71200D01*
X38438Y71165D01*
X38675Y71022D01*
X38758Y70939D01*
X38806Y70915D01*
X38842Y70879D01*
X38865Y70832D01*
X38960Y70737D01*
X38984Y70689D01*
X39032Y70642D01*
X39091Y70487D01*
X39115Y70392D01*
X39151Y70072D01*
X39127Y69121D01*
X39103Y69050D01*
X39079Y68955D01*
X38984Y68788D01*
X38865Y68622D01*
X38842Y68574D01*
X38735Y68444D01*
X38687Y68420D01*
X38545Y68325D01*
X38426Y68277D01*
X38259Y68230D01*
X38022Y68206D01*
X33281Y68194D01*
X33079Y68206D01*
X32913Y68111D01*
X32877Y68075D01*
X32829Y67957D01*
X32806Y67719D01*
X32829Y67648D01*
X32806Y67196D01*
X32829Y66531D01*
X32818Y66091D01*
X32829Y65723D01*
X32806Y65699D01*
X32829Y65651D01*
X32806Y65604D01*
X32829Y65533D01*
X32806Y65200D01*
X32925Y64986D01*
X33055Y64927D01*
X38236Y64903D01*
X38355Y64855D01*
X38663Y64689D01*
X38758Y64594D01*
X38806Y64570D01*
X38937Y64439D01*
X38960Y64392D01*
X39103Y64083D01*
X39127Y63988D01*
X39151Y63822D01*
X39127Y59592D01*
X39103Y59520D01*
X39044Y59366D01*
X38984Y59307D01*
X38960Y59259D01*
X38842Y59045D01*
X38711Y58914D01*
X38307Y58724D01*
X38212Y58700D01*
X37832Y58677D01*
X29800Y58653D01*
X29752Y58605D01*
X29716Y58594D01*
X29669Y58475D01*
X29657Y58011D01*
X29669Y56384D01*
X29645Y56312D01*
X29669Y55789D01*
X29645Y55766D01*
X29669Y55742D01*
X29645Y55694D01*
X29693Y55552D01*
X29776Y55445D01*
X29966Y55397D01*
X30204Y55421D01*
X30928Y55409D01*
X31534Y55421D01*
X31606Y55397D01*
X31915Y55374D01*
X32129Y55279D01*
X32390Y55136D01*
X32568Y54958D01*
X32592Y54910D01*
X32687Y54768D01*
X32734Y54649D01*
X32782Y54482D01*
X32806Y54316D01*
X32829Y53722D01*
X32806Y53366D01*
X32782Y53294D01*
X32758Y53199D01*
X32675Y52973D01*
X32639Y52938D01*
X32616Y52890D01*
X32497Y52724D01*
X32473Y52676D01*
X32366Y52569D01*
X31915Y52356D01*
X31677Y52332D01*
X31261Y52320D01*
X30774Y52332D01*
X30703Y52308D01*
X30322Y52332D01*
X29217Y52320D01*
X29206Y52332D01*
X29134Y52308D01*
X28718Y52320D01*
X28635Y52308D01*
X28611D01*
X27566Y52332D01*
X27495Y52356D01*
X27269Y52439D01*
X26948Y52617D01*
X26865Y52700D01*
X26841Y52748D01*
X26722Y52962D01*
X26603Y53223D01*
X26580Y53389D01*
X26556Y54055D01*
X26532Y61707D01*
X26473Y61790D01*
X26354Y61837D01*
X25225Y61849D01*
X24548Y61837D01*
X24477Y61861D01*
X24215Y61885D01*
X23859Y62075D01*
X23728Y62182D01*
X23633Y62325D01*
X23538Y62491D01*
X23467Y62610D01*
X23419Y62776D01*
X23395Y63014D01*
X23372Y63465D01*
X23395Y63536D01*
X23372Y64867D01*
X23312Y64974D01*
X23146Y65022D01*
X20247Y64998D01*
X20187Y64891D01*
X20164Y64725D01*
X20140Y62895D01*
X20116Y62824D01*
X20080Y62693D01*
X19997Y62515D01*
X19902Y62348D01*
X19795Y62218D01*
X19736Y62158D01*
X19712Y62111D01*
X19427Y61920D01*
X19296Y61885D01*
X19130Y61861D01*
X18750Y61837D01*
X17918Y61861D01*
X17846Y61885D01*
X17538Y62051D01*
X17490Y62099D01*
X17443Y62123D01*
X17383Y62182D01*
X17359Y62229D01*
X17288Y62301D01*
X17264Y62348D01*
X17169Y62515D01*
X17074Y62729D01*
X17050Y62824D01*
X17027Y63061D01*
X17003Y74373D01*
X16896Y74503D01*
X16777Y74527D01*
X16706Y74503D01*
X14828Y74527D01*
X14757Y74551D01*
X14626Y74587D01*
X14436Y74705D01*
X14353Y74765D01*
X14306Y74812D01*
X14258Y74836D01*
X14163Y74931D01*
X14128Y74943D01*
X14104Y74991D01*
X13890Y75442D01*
X13866Y75537D01*
X13842Y75846D01*
X13866Y83070D01*
X13985Y83284D01*
X14128Y83546D01*
X14258Y83676D01*
X14710Y83890D01*
X14805Y83914D01*
X14983Y83949D01*
X18987Y83961D01*
X19058Y83938D01*
X19284Y83902D01*
X19403Y83854D01*
X19748Y83652D01*
X19902Y83498D01*
X20068Y83189D01*
X20140Y83023D01*
X20164Y82642D01*
X20187Y80884D01*
X20294Y80777D01*
X23265Y80801D01*
X23324Y80836D01*
X23372Y80955D01*
X23395Y81692D01*
X23419Y83118D01*
X23538Y83332D01*
X23633Y83498D01*
X23681Y83546D01*
X23704Y83593D01*
X23787Y83676D01*
X23835Y83700D01*
X23954Y83771D01*
X24120Y83842D01*
X24239Y83890D01*
X24405Y83938D01*
X24857Y83961D01*
X25498Y83938D01*
X25570Y83914D01*
X25665Y83890D01*
X25974Y83724D01*
X26188Y83557D01*
X26295Y83450D01*
X26318Y83355D01*
X26413Y83141D01*
X26461Y83023D01*
X26485Y82928D01*
X26508Y82120D01*
X26497Y81585D01*
X26520Y80920D01*
X26580Y80836D01*
X26615Y80801D01*
X26710Y80777D01*
X29586Y80801D01*
X29716Y80908D01*
X29740Y81288D01*
X29764Y83070D01*
X29788Y83141D01*
X29954Y83450D01*
X30120Y83664D01*
X30299Y83771D01*
X30560Y83890D01*
X30655Y83914D01*
X30821Y83938D01*
X31119Y83949D01*
X31344Y83938D01*
X31416Y83961D01*
X31808Y83926D01*
D02*
G37*
G36*
X-12500Y83938D02*
X-12428Y83914D01*
X-12025Y83700D01*
X-11977Y83652D01*
X-11929Y83629D01*
X-11799Y83498D01*
X-11585Y83046D01*
X-11561Y82880D01*
X-11537Y82381D01*
Y82357D01*
X-11561Y81977D01*
X-11597Y81799D01*
X-11727Y81525D01*
X-11846Y81312D01*
X-12096Y81062D01*
X-12143Y81038D01*
X-12286Y80943D01*
X-12405Y80896D01*
X-12571Y80872D01*
X-12666Y80848D01*
X-13807Y80872D01*
X-14211Y81086D01*
X-14460Y81335D01*
X-14674Y81787D01*
X-14698Y81953D01*
X-14674Y83141D01*
X-14353Y83629D01*
X-14306Y83676D01*
X-14258Y83700D01*
X-14211Y83747D01*
X-13902Y83890D01*
X-13735Y83938D01*
X-13498Y83961D01*
X-12500Y83938D01*
D02*
G37*
G36*
X-28398D02*
X-28326Y83914D01*
X-28172Y83854D01*
X-27803Y83652D01*
X-27744Y83593D01*
X-27720Y83546D01*
X-27506Y83189D01*
X-27483Y83094D01*
X-27459Y82928D01*
X-27435Y82215D01*
X-27459Y82143D01*
X-27483Y81739D01*
X-27720Y81288D01*
X-27827Y81157D01*
X-28065Y80991D01*
X-28231Y80920D01*
X-28398Y80872D01*
X-28564Y80848D01*
X-29158Y80824D01*
X-30382Y80836D01*
X-30477Y80813D01*
X-30513Y80777D01*
X-30560Y80753D01*
X-30619Y80599D01*
X-30643Y78650D01*
X-30667Y78579D01*
X-30691Y78484D01*
X-30833Y78222D01*
X-30952Y78056D01*
X-30976Y78008D01*
X-31059Y77925D01*
X-31107Y77902D01*
X-31321Y77783D01*
X-31487Y77712D01*
X-31582Y77688D01*
X-31820Y77664D01*
X-35931Y77688D01*
X-36002Y77712D01*
X-36156Y77771D01*
X-36240Y77807D01*
X-36406Y77902D01*
X-36453Y77949D01*
X-36501Y77973D01*
X-36584Y78056D01*
X-36608Y78104D01*
X-36727Y78270D01*
X-36822Y78484D01*
X-36869Y78674D01*
X-36893Y78840D01*
X-36869Y79933D01*
X-36822Y80052D01*
X-36798Y80100D01*
X-36679Y80266D01*
X-36655Y80314D01*
X-36537Y80480D01*
X-36477Y80539D01*
X-36026Y80753D01*
X-35788Y80777D01*
X-35408Y80801D01*
X-33863Y80824D01*
X-33780Y80908D01*
X-33756Y81003D01*
X-33744Y81609D01*
X-33756Y81621D01*
X-33733Y81692D01*
X-33709Y83070D01*
X-33661Y83189D01*
X-33495Y83498D01*
X-33447Y83546D01*
X-33424Y83593D01*
X-33317Y83700D01*
X-33269Y83724D01*
X-32818Y83938D01*
X-32580Y83961D01*
X-30917D01*
X-28398Y83938D01*
D02*
G37*
G36*
X6155Y80777D02*
X6582Y80753D01*
X6987Y80539D01*
X7117Y80432D01*
X7212Y80290D01*
X7236Y80242D01*
X7367Y80064D01*
X7379Y80052D01*
X7426Y79862D01*
X7450Y79268D01*
X7438Y78971D01*
X7450Y78959D01*
X7426Y78888D01*
X7402Y78555D01*
X7212Y78199D01*
X7093Y78032D01*
X7010Y77949D01*
X6963Y77925D01*
X6915Y77878D01*
X6606Y77735D01*
X6440Y77688D01*
X6060Y77664D01*
X4420Y77640D01*
X4289Y77533D01*
X4266Y77367D01*
X4242Y75442D01*
X4218Y75371D01*
X4159Y75216D01*
X4076Y75086D01*
X3921Y74860D01*
X3826Y74765D01*
X3778Y74741D01*
X3731Y74693D01*
X3683Y74670D01*
X3422Y74551D01*
X3268Y74515D01*
X-297Y74492D01*
X-309Y74480D01*
X-333Y74503D01*
X-404Y74480D01*
X-677Y74492D01*
X-689Y74480D01*
X-760Y74503D01*
X-1117Y74527D01*
X-1521Y74741D01*
X-1652Y74848D01*
X-1770Y75014D01*
X-1794Y75062D01*
X-1842Y75109D01*
X-1913Y75276D01*
X-1961Y75442D01*
X-1984Y75608D01*
X-2008Y75917D01*
X-1984Y76701D01*
X-1961Y76773D01*
X-1901Y76927D01*
X-1782Y77117D01*
X-1640Y77308D01*
X-1592Y77331D01*
X-1545Y77379D01*
X-1497Y77403D01*
X-1355Y77498D01*
X-1188Y77569D01*
X-1022Y77593D01*
X-570Y77616D01*
X1022Y77640D01*
X1105Y77723D01*
X1153Y77842D01*
X1176Y79815D01*
X1200Y79886D01*
X1236Y80016D01*
X1343Y80218D01*
X1461Y80385D01*
X1485Y80432D01*
X1568Y80516D01*
X1782Y80634D01*
X2044Y80753D01*
X2353Y80777D01*
X5549Y80789D01*
X5584Y80777D01*
X5608Y80801D01*
X5680Y80777D01*
X5917Y80801D01*
X6155Y80777D01*
D02*
G37*
G36*
X-44509D02*
X-44153Y80753D01*
X-43892Y80611D01*
X-43666Y80456D01*
X-43547Y80337D01*
X-43381Y80028D01*
X-43333Y79910D01*
X-43309Y79815D01*
X-43285Y79577D01*
X-43274Y78995D01*
X-43297Y78781D01*
X-43321Y78686D01*
X-43369Y78567D01*
X-43488Y78258D01*
X-43571Y78127D01*
X-43725Y77973D01*
X-43773Y77949D01*
X-43868Y77854D01*
X-43915Y77830D01*
X-44034Y77759D01*
X-44153Y77712D01*
X-44319Y77688D01*
X-44557Y77664D01*
X-45484Y77688D01*
X-45650Y77759D01*
X-45769Y77807D01*
X-45781Y77818D01*
X-45923Y77913D01*
X-46030Y78020D01*
X-46078Y78044D01*
X-46137Y78104D01*
X-46161Y78151D01*
X-46280Y78341D01*
X-46351Y78507D01*
X-46399Y78698D01*
X-46422Y78935D01*
X-46399Y79957D01*
X-46304Y80124D01*
X-46232Y80195D01*
X-46113Y80409D01*
X-46006Y80516D01*
X-45959Y80539D01*
X-45911Y80587D01*
X-45602Y80729D01*
X-45412Y80777D01*
X-44604Y80801D01*
X-44509Y80777D01*
D02*
G37*
G36*
X38236Y80753D02*
X38307Y80729D01*
X38758Y80492D01*
X38865Y80385D01*
X38984Y80171D01*
X39079Y80028D01*
X39127Y79862D01*
X39151Y79482D01*
Y78294D01*
Y78270D01*
X39174Y77723D01*
X39281Y77616D01*
X39448Y77593D01*
X44604Y77569D01*
X44723Y77521D01*
X44878Y77462D01*
X45020Y77367D01*
X45282Y77105D01*
X45305Y77058D01*
X45448Y76820D01*
X45496Y76654D01*
X45472Y75418D01*
X45258Y75014D01*
X45151Y74884D01*
X45008Y74741D01*
X44961Y74717D01*
X44652Y74575D01*
X44557Y74551D01*
X44391Y74527D01*
X43844Y74503D01*
X43773Y74527D01*
X42608Y74503D01*
X42442Y74480D01*
X42359Y74396D01*
X42335Y74301D01*
X42323Y74194D01*
X42335Y72543D01*
X42311Y72472D01*
X42287Y72234D01*
X42074Y71830D01*
X41967Y71699D01*
X41872Y71604D01*
X41824Y71581D01*
X41753Y71509D01*
X41586Y71438D01*
X41301Y71390D01*
X41206Y71367D01*
X40624Y71355D01*
X40291Y71378D01*
X40030Y71426D01*
X39911Y71473D01*
X39828Y71533D01*
X39697Y71640D01*
X39662Y71676D01*
X39614Y71699D01*
X39531Y71782D01*
X39507Y71830D01*
X39436Y71901D01*
X39388Y72020D01*
X39341Y72186D01*
X39246Y72495D01*
X39222Y73802D01*
X39234Y74266D01*
X39210Y74361D01*
X39151Y74444D01*
X39115Y74480D01*
X38949Y74527D01*
X38640Y74503D01*
X38141Y74527D01*
X38069Y74503D01*
X37095Y74527D01*
X37024Y74551D01*
X36893Y74587D01*
X36774Y74634D01*
X36584Y74753D01*
X36501Y74812D01*
X36453Y74860D01*
X36418Y74872D01*
X36394Y74919D01*
X36346Y74967D01*
X36323Y75014D01*
X36228Y75157D01*
X36180Y75276D01*
X36133Y75442D01*
X36109Y75608D01*
X36085Y75703D01*
X36061Y76012D01*
X36085Y76773D01*
X36061Y76844D01*
X36073Y78995D01*
X36061Y79339D01*
X36085Y79411D01*
X36109Y79910D01*
X36133Y79981D01*
X36251Y80195D01*
X36406Y80421D01*
X36501Y80516D01*
X36953Y80729D01*
X37428Y80777D01*
X38236Y80753D01*
D02*
G37*
G36*
X-15779Y80777D02*
X-15708Y80753D01*
X-15541Y80729D01*
X-15328Y80611D01*
X-15102Y80456D01*
X-15030Y80385D01*
X-15007Y80337D01*
X-14912Y80171D01*
X-14864Y80124D01*
X-14840Y80076D01*
X-14769Y79910D01*
X-14745Y79815D01*
X-14722Y79078D01*
X-14698Y77700D01*
X-14638Y77640D01*
X-14543Y77616D01*
X-6155Y77593D01*
X-6083Y77569D01*
X-5953Y77533D01*
X-5810Y77438D01*
X-5632Y77308D01*
X-5584Y77284D01*
X-5454Y77153D01*
X-5430Y77105D01*
X-5311Y76844D01*
X-5240Y76606D01*
X-5216Y76226D01*
X-5240Y75561D01*
X-5264Y75490D01*
X-5347Y75264D01*
X-5406Y75109D01*
X-5573Y74896D01*
X-5751Y74717D01*
X-5798Y74693D01*
X-5846Y74646D01*
X-6012Y74575D01*
X-6179Y74527D01*
X-6274Y74503D01*
X-7082Y74480D01*
X-7105Y74503D01*
X-7129Y74480D01*
X-7153Y74503D01*
X-7200Y74480D01*
X-7272Y74503D01*
X-7331Y74492D01*
X-7343Y74503D01*
X-7414Y74480D01*
X-8210Y74492D01*
X-8353Y74373D01*
X-8377Y74278D01*
X-8400Y69264D01*
X-8424Y69192D01*
X-8579Y68753D01*
X-8638Y68669D01*
X-8781Y68527D01*
X-8805Y68479D01*
X-8888Y68420D01*
X-8983Y68325D01*
X-9030Y68301D01*
X-9197Y68230D01*
X-9422Y68194D01*
X-9660Y68170D01*
X-9909Y68158D01*
X-9957Y68182D01*
X-10028Y68158D01*
X-10112Y68170D01*
X-10314Y68158D01*
X-10385Y68182D01*
X-10646Y68206D01*
X-10717Y68230D01*
X-10872Y68289D01*
X-11003Y68372D01*
X-11098Y68467D01*
X-11145Y68491D01*
X-11205Y68551D01*
X-11228Y68598D01*
X-11276Y68646D01*
X-11347Y68764D01*
X-11466Y69026D01*
X-11490Y69121D01*
X-11514Y69287D01*
X-11525Y74028D01*
X-11514Y74278D01*
X-11537Y74349D01*
X-11561Y74396D01*
X-11644Y74480D01*
X-14009Y74492D01*
X-14401Y74480D01*
X-14472Y74503D01*
X-14615Y74480D01*
X-14698Y74396D01*
X-14722Y74301D01*
X-14734Y74171D01*
X-14722Y66174D01*
X-14745Y66103D01*
X-14769Y65937D01*
X-14912Y65628D01*
X-14983Y65509D01*
X-15102Y65390D01*
X-15126Y65342D01*
X-15256Y65212D01*
X-15304Y65188D01*
X-15375Y65117D01*
X-15494Y65069D01*
X-15660Y65045D01*
X-15755Y65022D01*
X-16136Y64998D01*
X-16920Y65022D01*
X-16991Y65045D01*
X-17146Y65081D01*
X-17229Y65117D01*
X-17359Y65224D01*
X-17443Y65283D01*
X-17621Y65461D01*
X-17644Y65509D01*
X-17763Y65723D01*
X-17835Y65889D01*
X-17882Y66079D01*
X-17906Y68052D01*
X-18013Y68182D01*
X-18108D01*
X-18346Y68158D01*
X-19047Y68170D01*
X-19059Y68158D01*
X-19130Y68182D01*
X-19439Y68158D01*
X-20069Y68194D01*
X-20211Y68218D01*
X-20401Y68289D01*
X-20461Y68349D01*
X-20508Y68372D01*
X-20639Y68479D01*
X-20710Y68551D01*
X-20734Y68598D01*
X-20829Y68693D01*
X-21019Y69097D01*
X-21043Y69264D01*
X-21067Y69359D01*
X-21043Y70380D01*
X-20853Y70737D01*
X-20746Y70891D01*
X-20698Y70915D01*
X-20579Y71034D01*
X-20532Y71058D01*
X-20484Y71105D01*
X-20437Y71129D01*
X-20270Y71200D01*
X-20104Y71248D01*
X-19653Y71272D01*
X-18072Y71260D01*
X-17953Y71307D01*
X-17906Y71426D01*
X-17882Y71592D01*
X-17906Y74373D01*
X-17989Y74480D01*
X-18084Y74503D01*
X-18393Y74480D01*
X-20057Y74503D01*
X-20128Y74527D01*
X-20354Y74610D01*
X-20389Y74646D01*
X-20508Y74717D01*
X-20639Y74824D01*
X-20781Y74967D01*
X-20805Y75014D01*
X-20972Y75323D01*
X-21019Y75442D01*
X-21043Y75537D01*
X-21067Y75917D01*
X-21090Y77557D01*
X-21150Y77640D01*
X-21245Y77664D01*
X-21304Y77676D01*
X-26330Y77664D01*
X-26401Y77688D01*
X-26544Y77712D01*
X-26806Y77854D01*
X-26936Y77961D01*
X-27019Y78020D01*
X-27174Y78175D01*
X-27245Y78341D01*
X-27328Y78567D01*
X-27388Y78769D01*
X-27411Y78935D01*
X-27388Y79838D01*
X-27340Y79957D01*
X-27102Y80409D01*
X-27019Y80492D01*
X-26972Y80516D01*
X-26782Y80634D01*
X-26734Y80658D01*
X-26520Y80753D01*
X-26354Y80777D01*
X-25617Y80801D01*
X-15779Y80777D01*
D02*
G37*
G36*
X44581Y71224D02*
X44652Y71200D01*
X44878Y71117D01*
X45008Y71034D01*
X45305Y70737D01*
X45329Y70689D01*
X45424Y70547D01*
X45472Y70380D01*
X45496Y70214D01*
X45507Y69513D01*
X45484Y69204D01*
X45460Y69085D01*
X45436Y68990D01*
X45234Y68646D01*
X45127Y68515D01*
X45008Y68396D01*
X44961Y68372D01*
X44700Y68253D01*
X44604Y68230D01*
X44438Y68206D01*
X43773Y68182D01*
X43701Y68206D01*
X43274Y68230D01*
X43202Y68253D01*
X42989Y68372D01*
X42917Y68444D01*
X42870Y68467D01*
X42727Y68610D01*
X42691Y68622D01*
X42668Y68669D01*
X42596Y68741D01*
X42525Y68978D01*
X42466Y69133D01*
X42418Y69323D01*
X42406Y70214D01*
X42430Y70285D01*
X42490Y70440D01*
X42537Y70559D01*
X42608Y70749D01*
X42775Y70915D01*
X42798D01*
X42893Y71010D01*
X42941Y71034D01*
X43012Y71105D01*
X43060Y71129D01*
X43179Y71176D01*
X43274Y71200D01*
X43678Y71248D01*
X44581Y71224D01*
D02*
G37*
G36*
X12523Y71248D02*
X12927Y71224D01*
X12999Y71200D01*
X13225Y71117D01*
X13581Y70761D01*
X13605Y70713D01*
X13723Y70523D01*
X13771Y70404D01*
Y70380D01*
X13795Y70143D01*
X13771Y69121D01*
X13747Y69050D01*
X13688Y68895D01*
X13652Y68860D01*
X13557Y68693D01*
X13450Y68562D01*
X13391Y68479D01*
X13308Y68396D01*
X13260Y68372D01*
X13213Y68325D01*
X13046Y68253D01*
X12856Y68206D01*
X12405Y68182D01*
X11573Y68206D01*
X11502Y68230D01*
X11407Y68253D01*
X11240Y68372D01*
X11193Y68420D01*
X11145Y68444D01*
X11003Y68586D01*
X10967Y68598D01*
X10943Y68646D01*
X10872Y68717D01*
X10789Y68943D01*
X10741Y69061D01*
X10705Y69192D01*
X10682Y69287D01*
X10658Y69525D01*
X10682Y70309D01*
X10729Y70428D01*
X10943Y70832D01*
X11050Y70939D01*
X11098Y70963D01*
X11169Y71034D01*
X11216Y71058D01*
X11288Y71129D01*
X11454Y71200D01*
X11620Y71224D01*
X11716Y71248D01*
X12452Y71272D01*
X12523Y71248D01*
D02*
G37*
G36*
X6582Y74408D02*
X6820Y74313D01*
X7117Y74088D01*
X7165Y74040D01*
X7189Y73992D01*
X7307Y73826D01*
X7331Y73779D01*
X7402Y73612D01*
X7426Y73446D01*
X7450Y72923D01*
X7438Y70487D01*
X7450Y69359D01*
X7426Y69287D01*
X7402Y69026D01*
X7236Y68717D01*
X7082Y68491D01*
X7034Y68467D01*
X6939Y68372D01*
X6891Y68349D01*
X6630Y68230D01*
X6464Y68206D01*
X6369Y68182D01*
X3042D01*
X-12Y68170D01*
X-356Y68182D01*
X-428Y68158D01*
X-998Y68182D01*
X-1069Y68206D01*
X-1236Y68230D01*
X-1450Y68349D01*
X-1652Y68503D01*
X-1675Y68551D01*
X-1889Y68860D01*
X-1937Y69026D01*
X-1961Y69192D01*
X-1984Y69287D01*
X-2008Y69596D01*
X-1984Y70309D01*
X-1961Y70380D01*
X-1937Y70523D01*
X-1818Y70737D01*
X-1723Y70832D01*
X-1699Y70879D01*
X-1545Y71034D01*
X-1497Y71058D01*
X-1450Y71105D01*
X-1236Y71200D01*
X-1046Y71248D01*
X-380Y71272D01*
X4182Y71295D01*
X4266Y71378D01*
X4313Y71545D01*
X4337Y73398D01*
X4361Y73470D01*
X4396Y73600D01*
X4468Y73790D01*
X4610Y74028D01*
X4729Y74147D01*
X4776Y74171D01*
X4824Y74218D01*
X4872Y74242D01*
X4919Y74289D01*
X4967Y74313D01*
X5133Y74385D01*
X5299Y74408D01*
X5537Y74432D01*
X6582Y74408D01*
D02*
G37*
G36*
X41325Y68063D02*
X41396Y68040D01*
X41575Y68004D01*
X41693Y67957D01*
X41776Y67897D01*
X42074Y67671D01*
X42240Y67362D01*
X42287Y67244D01*
X42311Y67077D01*
X42335Y66554D01*
X42311Y65984D01*
X42264Y65865D01*
X42240Y65770D01*
X42121Y65580D01*
X42097Y65533D01*
X41979Y65366D01*
X41872Y65259D01*
X41824Y65236D01*
X41776Y65188D01*
X41729Y65164D01*
X41681Y65117D01*
X41515Y65069D01*
X41444Y65045D01*
X41420D01*
X40755Y65022D01*
X40149Y65057D01*
X40030Y65081D01*
X39911Y65129D01*
X39828Y65188D01*
X39697Y65295D01*
X39662Y65331D01*
X39614Y65354D01*
X39555Y65437D01*
X39436Y65556D01*
X39388Y65675D01*
X39365Y65770D01*
X39246Y66150D01*
X39269Y67125D01*
X39293Y67196D01*
X39353Y67351D01*
X39424Y67541D01*
X39507Y67671D01*
X39590Y67755D01*
X39757Y67849D01*
X39852Y67945D01*
X39971Y67992D01*
X40137Y68040D01*
X40374Y68063D01*
X40683Y68087D01*
X41325Y68063D01*
D02*
G37*
G36*
X-18845Y64927D02*
X-18726Y64879D01*
X-18417Y64713D01*
X-18274Y64570D01*
X-18227Y64546D01*
X-18167Y64487D01*
X-18144Y64439D01*
X-18048Y64273D01*
X-17953Y64131D01*
X-17930Y63964D01*
X-17906Y63727D01*
X-17930Y62776D01*
X-17977Y62657D01*
X-18120Y62396D01*
X-18286Y62182D01*
X-18441Y62027D01*
X-18607Y61932D01*
X-18655Y61909D01*
X-18678D01*
X-18797Y61861D01*
X-19177Y61837D01*
X-19344Y61814D01*
X-20045Y61849D01*
X-20270Y61885D01*
X-20437Y61980D01*
X-20484Y62027D01*
X-20603Y62099D01*
X-20710Y62206D01*
X-20734Y62253D01*
X-20805Y62325D01*
X-20829Y62372D01*
X-21019Y62776D01*
X-21043Y62871D01*
X-21067Y63180D01*
X-21043Y64036D01*
X-20829Y64439D01*
X-20722Y64570D01*
X-20591Y64677D01*
X-20484Y64760D01*
X-20437Y64784D01*
X-20175Y64903D01*
X-20009Y64927D01*
X-19914Y64950D01*
X-18845Y64927D01*
D02*
G37*
G36*
X44557Y64903D02*
X44628Y64879D01*
X44640Y64867D01*
X44878Y64772D01*
X45020Y64677D01*
X45127Y64570D01*
X45175Y64546D01*
X45258Y64463D01*
X45282Y64416D01*
X45401Y64226D01*
X45472Y64059D01*
X45496Y63893D01*
X45507Y62669D01*
X45496Y61612D01*
X45519Y61540D01*
X45507Y61291D01*
X45519Y60970D01*
X45496Y60899D01*
X45507Y59889D01*
X45484Y59675D01*
X45460Y59556D01*
X45412Y59437D01*
X45175Y59057D01*
X45008Y58891D01*
X44652Y58724D01*
X44319Y58677D01*
X43345Y58700D01*
X43274Y58724D01*
X43179Y58748D01*
X42989Y58867D01*
X42941Y58891D01*
X42810Y58998D01*
X42668Y59140D01*
X42644Y59188D01*
X42525Y59449D01*
X42477Y59568D01*
X42430Y59734D01*
X42406Y59829D01*
X42430Y63988D01*
X42549Y64249D01*
X42608Y64404D01*
X42668Y64487D01*
X42727Y64546D01*
X42775Y64570D01*
X42989Y64736D01*
X43250Y64855D01*
X43345Y64879D01*
X43511Y64903D01*
X43606Y64927D01*
X44557Y64903D01*
D02*
G37*
G36*
X9315Y68087D02*
X9719Y68063D01*
X9791Y68040D01*
X10016Y67957D01*
X10052Y67921D01*
X10100Y67897D01*
X10171Y67826D01*
X10218Y67802D01*
X10349Y67695D01*
X10373Y67648D01*
X10539Y67386D01*
X10587Y67267D01*
X10611Y67030D01*
X10634Y65081D01*
X10694Y64998D01*
X10812Y64950D01*
X12832Y64927D01*
X13070Y64832D01*
X13284Y64713D01*
X13427Y64570D01*
X13474Y64546D01*
X13557Y64463D01*
X13581Y64416D01*
X13700Y64226D01*
X13771Y64059D01*
X13795Y63822D01*
X13771Y56407D01*
X13723Y56288D01*
X13700Y56241D01*
X13605Y56098D01*
X13510Y55932D01*
X13403Y55801D01*
X13308Y55706D01*
X12904Y55516D01*
X12666Y55492D01*
X10991Y55481D01*
X10789Y55492D01*
X10658Y55409D01*
X10634Y55243D01*
X10622Y55136D01*
X10634Y55100D01*
X10611Y55076D01*
X10634Y55029D01*
X10611Y54958D01*
X10622Y53686D01*
X10599Y53306D01*
X10575Y53187D01*
X10527Y53068D01*
X10432Y52926D01*
X10325Y52724D01*
X10218Y52593D01*
X10171Y52569D01*
X10123Y52522D01*
X9862Y52403D01*
X9624Y52332D01*
X9387Y52308D01*
X5252Y52332D01*
X4753Y52593D01*
X4670Y52676D01*
X4646Y52724D01*
X4575Y52795D01*
X4551Y52843D01*
X4432Y53104D01*
X4337Y53413D01*
X4313Y53508D01*
X4289Y55362D01*
X4182Y55469D01*
X4016Y55492D01*
X3778Y55469D01*
X1390Y55481D01*
X1271Y55457D01*
X1188Y55397D01*
X1153Y55362D01*
X1105Y55172D01*
X1081Y53294D01*
X1058Y53223D01*
X974Y52997D01*
X879Y52855D01*
X772Y52676D01*
X749Y52629D01*
X665Y52546D01*
X511Y52486D01*
X428Y52451D01*
X166Y52332D01*
X-285Y52308D01*
X-1093Y52332D01*
X-1497Y52522D01*
X-1545Y52546D01*
X-1652Y52629D01*
X-1675Y52676D01*
X-1770Y52819D01*
X-1794Y52867D01*
X-1889Y53009D01*
X-1961Y53247D01*
X-2008Y53579D01*
X-1984Y60827D01*
X-1961Y60899D01*
X-1901Y61053D01*
X-1854Y61172D01*
X-1759Y61315D01*
X-1592Y61481D01*
X-1545Y61505D01*
X-1497Y61552D01*
X-1450Y61576D01*
X-1093Y61742D01*
X-927Y61766D01*
X-356Y61790D01*
X-285Y61766D01*
X190Y61742D01*
X309Y61695D01*
X618Y61528D01*
X689Y61457D01*
X737Y61433D01*
X891Y61279D01*
X915Y61231D01*
X1034Y60970D01*
X1081Y60780D01*
X1105Y60400D01*
X1129Y58760D01*
X1212Y58653D01*
X1378Y58605D01*
X4182Y58629D01*
X4289Y58736D01*
X4313Y58903D01*
X4325Y60364D01*
X4313Y60400D01*
X4337Y60471D01*
X4361Y60851D01*
X4432Y61017D01*
X4479Y61136D01*
X4598Y61350D01*
X5014Y61647D01*
X5133Y61695D01*
X5299Y61742D01*
X5466Y61766D01*
X5846Y61790D01*
X6452Y61754D01*
X6713Y61659D01*
X6856Y61588D01*
X6998Y61493D01*
X7082Y61410D01*
X7129Y61386D01*
X7212Y61303D01*
X7236Y61255D01*
X7355Y61065D01*
X7402Y60899D01*
X7426Y60804D01*
X7450Y60352D01*
X7474Y58712D01*
X7557Y58629D01*
X7652Y58605D01*
X10468Y58594D01*
X10587Y58641D01*
X10611Y58689D01*
X10658Y58808D01*
Y59330D01*
Y59354D01*
X10634Y61707D01*
X10551Y61814D01*
X10456Y61837D01*
X8389Y61861D01*
X8317Y61885D01*
X8222Y61909D01*
X8056Y62027D01*
X8008Y62075D01*
X7961Y62099D01*
X7711Y62348D01*
X7664Y62467D01*
X7592Y62705D01*
X7545Y62824D01*
X7497Y63014D01*
X7485Y63643D01*
X7509Y67018D01*
X7533Y67137D01*
X7557Y67232D01*
X7699Y67588D01*
X7735Y67624D01*
X7759Y67671D01*
X7866Y67778D01*
X7913Y67802D01*
X8080Y67921D01*
X8222Y68016D01*
X8377Y68052D01*
X8519Y68075D01*
X8828Y68099D01*
X9244Y68111D01*
X9315Y68087D01*
D02*
G37*
G36*
X19118Y58570D02*
X19260Y58546D01*
X19498Y58451D01*
X19534Y58415D01*
X19581Y58392D01*
X19629Y58344D01*
X19676Y58320D01*
X19748Y58249D01*
X19795Y58225D01*
X19926Y58095D01*
X20140Y57643D01*
X20164Y57477D01*
X20140Y53318D01*
X20021Y53057D01*
X19878Y52795D01*
X19771Y52665D01*
X19653Y52546D01*
X19249Y52356D01*
X18999Y52320D01*
X18179Y52308D01*
X18108Y52332D01*
X17906Y52368D01*
X17716Y52439D01*
X17514Y52546D01*
X17466Y52593D01*
X17431Y52605D01*
X17407Y52653D01*
X17288Y52772D01*
X17146Y53033D01*
X17098Y53128D01*
X17086Y53140D01*
X17050Y53271D01*
X17027Y53437D01*
X17050Y57738D01*
X17169Y57928D01*
X17288Y58142D01*
X17395Y58249D01*
X17443Y58273D01*
X17561Y58392D01*
X17609Y58415D01*
X17823Y58510D01*
X17989Y58558D01*
X18155Y58582D01*
X18476Y58594D01*
X18536Y58582D01*
X18607Y58605D01*
X19118Y58570D01*
D02*
G37*
G36*
X-3065Y64927D02*
X-2994Y64903D01*
X-2864Y64867D01*
X-2745Y64820D01*
X-2602Y64725D01*
X-2567Y64689D01*
X-2519Y64665D01*
X-2388Y64558D01*
X-2269Y64439D01*
X-2246Y64392D01*
X-2127Y64131D01*
X-2091Y63976D01*
X-2056Y63655D01*
X-2079Y62895D01*
X-2103Y62824D01*
X-2139Y62669D01*
X-2222Y62443D01*
X-2329Y62313D01*
X-2519Y62075D01*
X-2567Y62051D01*
X-2733Y61932D01*
X-2970Y61861D01*
X-3208Y61837D01*
X-5085Y61814D01*
X-5169Y61730D01*
X-5192Y61635D01*
X-5216Y61398D01*
X-5240Y59710D01*
X-5287Y59592D01*
X-5323Y59461D01*
X-5371Y59342D01*
X-5513Y59104D01*
X-5573Y59045D01*
X-5596Y58998D01*
X-5680Y58914D01*
X-5727Y58891D01*
X-5989Y58724D01*
X-6179Y58677D01*
X-6488Y58653D01*
X-11454Y58629D01*
X-11514Y58570D01*
X-11537Y58404D01*
X-11561Y58308D01*
X-11549Y56823D01*
X-11573Y56562D01*
X-11597Y56467D01*
X-11644Y56348D01*
X-11823Y55956D01*
X-11870Y55908D01*
X-11894Y55861D01*
X-12001Y55754D01*
X-12167Y55659D01*
X-12310Y55564D01*
X-12476Y55516D01*
X-12714Y55492D01*
X-12880Y55469D01*
X-14603Y55481D01*
X-14638Y55445D01*
X-14674Y55433D01*
X-14722Y55267D01*
X-14745Y53318D01*
X-14769Y53247D01*
X-15030Y52748D01*
X-15232Y52546D01*
X-15280Y52522D01*
X-15446Y52427D01*
X-15565Y52379D01*
X-15755Y52332D01*
X-15922Y52308D01*
X-20152Y52332D01*
X-20603Y52569D01*
X-20710Y52676D01*
X-20734Y52724D01*
X-20805Y52795D01*
X-21019Y53247D01*
X-21043Y53342D01*
X-21067Y53579D01*
X-21043Y54506D01*
X-20805Y54958D01*
X-20722Y55065D01*
X-20674Y55088D01*
X-20579Y55184D01*
X-20532Y55207D01*
X-20128Y55397D01*
X-19890Y55421D01*
X-19415Y55445D01*
X-19344Y55421D01*
X-18678Y55445D01*
X-18607Y55421D01*
X-18239Y55433D01*
X-18037Y55421D01*
X-17930Y55504D01*
X-17882Y55671D01*
Y57501D01*
Y57524D01*
X-17858Y57738D01*
X-17763Y57905D01*
X-17621Y58166D01*
X-17561Y58225D01*
X-17514Y58249D01*
X-17466Y58297D01*
X-17419Y58320D01*
X-17348Y58392D01*
X-17300Y58415D01*
X-17039Y58534D01*
X-16884Y58570D01*
X-16765Y58594D01*
X-14840Y58617D01*
X-14745Y58689D01*
X-14722Y58784D01*
X-14698Y58950D01*
X-14674Y64083D01*
X-14508Y64392D01*
X-14377Y64570D01*
X-14330Y64594D01*
X-14187Y64736D01*
X-14139Y64760D01*
X-13878Y64879D01*
X-13712Y64927D01*
X-13474Y64950D01*
X-3065Y64927D01*
D02*
G37*
G36*
X41349Y58558D02*
X41468Y58510D01*
X41598Y58475D01*
X41800Y58368D01*
X41848Y58320D01*
X41895Y58297D01*
X42026Y58190D01*
X42097Y58118D01*
X42240Y57857D01*
Y57833D01*
X42311Y57667D01*
X42335Y57287D01*
X42311Y53294D01*
X42287Y53223D01*
X42228Y53068D01*
X42121Y52890D01*
X42026Y52724D01*
X41919Y52593D01*
X41872Y52569D01*
X41468Y52379D01*
X41373Y52356D01*
X41135Y52332D01*
X40184Y52356D01*
X40113Y52379D01*
X39959Y52439D01*
X39757Y52546D01*
X39626Y52653D01*
X39507Y52772D01*
X39483Y52819D01*
X39436Y52867D01*
X39388Y52985D01*
X39365Y53080D01*
X39317Y53199D01*
X39246Y53437D01*
X39222Y54886D01*
X39258Y57631D01*
X39388Y57952D01*
X39483Y58118D01*
X39590Y58225D01*
X39638Y58249D01*
X39685Y58297D01*
X39733Y58320D01*
X39780Y58368D01*
X39828Y58392D01*
X39947Y58463D01*
X40184Y58534D01*
X40279Y58558D01*
X40446Y58582D01*
X41349Y58558D01*
D02*
G37*
G36*
X-9719Y55421D02*
X-9339Y55397D01*
X-9268Y55374D01*
X-9113Y55314D01*
X-8923Y55195D01*
X-8840Y55136D01*
X-8709Y55029D01*
X-8591Y54910D01*
X-8448Y54554D01*
X-8400Y54364D01*
X-8377Y53841D01*
X-8400Y53342D01*
X-8519Y53080D01*
X-8579Y52926D01*
X-8698Y52736D01*
X-8888Y52546D01*
X-8935Y52522D01*
X-9078Y52427D01*
X-9197Y52379D01*
X-9292Y52356D01*
X-9446Y52320D01*
X-10480Y52308D01*
X-10551Y52332D01*
X-10682Y52368D01*
X-10801Y52415D01*
X-11003Y52522D01*
X-11205Y52676D01*
X-11228Y52724D01*
X-11323Y52867D01*
X-11490Y53223D01*
X-11514Y53461D01*
X-11490Y54601D01*
X-11407Y54756D01*
X-11395Y54768D01*
X-11371Y54815D01*
X-11216Y55041D01*
X-11098Y55160D01*
X-11050Y55184D01*
X-11003Y55231D01*
X-10836Y55302D01*
X-10717Y55350D01*
X-10551Y55397D01*
X-10456Y55421D01*
X-9791Y55445D01*
X-9719Y55421D01*
D02*
G37*
G36*
X-29467Y74408D02*
X-29004Y74373D01*
X-28790Y74349D01*
X-28671Y74325D01*
X-28576Y74301D01*
X-28089Y74147D01*
X-27899Y74099D01*
X-27590Y73957D01*
X-27435Y73897D01*
X-27245Y73779D01*
X-26912Y73612D01*
X-26627Y73422D01*
X-26544Y73363D01*
X-26497Y73315D01*
X-26449Y73291D01*
X-26318Y73184D01*
X-26235Y73125D01*
X-26164Y73054D01*
X-26116Y73030D01*
X-25998Y72911D01*
X-25950Y72888D01*
X-25855Y72792D01*
X-25807Y72769D01*
X-25748Y72709D01*
X-25724Y72662D01*
X-25677Y72614D01*
X-25582Y72448D01*
X-25344Y72210D01*
X-25320Y72163D01*
X-25249Y72091D01*
X-25130Y71877D01*
X-25011Y71711D01*
X-24940Y71545D01*
X-24845Y71378D01*
X-24726Y71117D01*
X-24667Y70963D01*
X-24560Y70713D01*
X-24536Y70618D01*
X-24500Y70440D01*
X-24477Y70345D01*
X-24417Y70190D01*
X-24370Y69905D01*
X-24346Y69810D01*
X-24298Y69287D01*
X-24275Y68978D01*
Y65129D01*
Y65105D01*
X-24298Y57310D01*
X-24322Y57239D01*
X-24346Y56835D01*
X-24370Y56764D01*
X-24393Y56669D01*
X-24429Y56538D01*
X-24512Y56265D01*
X-24560Y56075D01*
X-24595Y55920D01*
X-24726Y55647D01*
X-24774Y55528D01*
X-24869Y55362D01*
X-25083Y54958D01*
X-25273Y54601D01*
X-25463Y54411D01*
X-25487Y54364D01*
X-25629Y54221D01*
X-25653Y54174D01*
X-26116Y53710D01*
X-26164Y53686D01*
X-26211Y53639D01*
X-26259Y53615D01*
X-26390Y53508D01*
X-26425Y53472D01*
X-26473Y53449D01*
X-26520Y53401D01*
X-26568Y53377D01*
X-26615Y53330D01*
X-26663Y53306D01*
X-26734Y53235D01*
X-26782Y53211D01*
X-27423Y52878D01*
X-27590Y52783D01*
X-27827Y52688D01*
X-28136Y52593D01*
X-28303Y52546D01*
X-28433Y52510D01*
X-28528Y52486D01*
X-28885Y52415D01*
X-29206Y52379D01*
X-29372Y52356D01*
X-29467Y52332D01*
X-29847Y52308D01*
X-41277Y52332D01*
X-41349Y52356D01*
X-41622Y52391D01*
X-42050Y52463D01*
X-42169Y52486D01*
X-42264Y52510D01*
X-42394Y52546D01*
X-42727Y52641D01*
X-42953Y52724D01*
X-43072Y52772D01*
X-43274Y52878D01*
X-43915Y53211D01*
X-44046Y53318D01*
X-44082Y53354D01*
X-44129Y53377D01*
X-44343Y53544D01*
X-44414Y53615D01*
X-44462Y53639D01*
X-44676Y53805D01*
X-45044Y54174D01*
X-45068Y54221D01*
X-45115Y54269D01*
X-45139Y54316D01*
X-45448Y54625D01*
X-45519Y54791D01*
X-45614Y54958D01*
X-45805Y55314D01*
X-45900Y55457D01*
X-45947Y55576D01*
X-46006Y55730D01*
X-46090Y55932D01*
X-46137Y56098D01*
X-46209Y56384D01*
X-46304Y56716D01*
X-46351Y56906D01*
X-46375Y57287D01*
X-46399Y57453D01*
X-46422Y58047D01*
X-46399Y69382D01*
X-46375Y69454D01*
X-46351Y69834D01*
X-46327Y69905D01*
X-46292Y70107D01*
X-46268Y70202D01*
X-46209Y70357D01*
X-46125Y70749D01*
X-46006Y71010D01*
X-45911Y71272D01*
X-45876Y71307D01*
X-45781Y71473D01*
X-45591Y71830D01*
X-45496Y71972D01*
X-45401Y72139D01*
X-45329Y72210D01*
X-45306Y72258D01*
X-45068Y72495D01*
X-44973Y72662D01*
X-44925Y72709D01*
X-44913Y72745D01*
X-44866Y72769D01*
X-44771Y72864D01*
X-44723Y72888D01*
X-44604Y73006D01*
X-44557Y73030D01*
X-44462Y73125D01*
X-44414Y73149D01*
X-44319Y73244D01*
X-44272Y73268D01*
X-43892Y73553D01*
X-43749Y73648D01*
X-43594Y73707D01*
X-43404Y73826D01*
X-43107Y73957D01*
X-42846Y74076D01*
X-42561Y74147D01*
X-42264Y74254D01*
X-42133Y74289D01*
X-41943Y74337D01*
X-41705Y74361D01*
X-41539Y74385D01*
X-41171Y74420D01*
X-29538Y74432D01*
X-29467Y74408D01*
D02*
G37*
G36*
X-58807Y45884D02*
X-58769Y45770D01*
X-58731Y45504D01*
X-58769Y43642D01*
X-58750Y41000D01*
X-58769Y38358D01*
X-58731Y38244D01*
X-58769Y36040D01*
X-58864Y35945D01*
X-59054Y35869D01*
X-60536Y35907D01*
X-60669Y36002D01*
X-60708Y36154D01*
X-60688Y36629D01*
X-60726Y40012D01*
X-60784Y40145D01*
X-60879Y40240D01*
X-61145Y40278D01*
X-63691Y40240D01*
X-63824Y40107D01*
X-63900Y39803D01*
X-63881Y38985D01*
X-63900Y36458D01*
X-63862Y36344D01*
X-63900Y36040D01*
X-64033Y35907D01*
X-64299Y35869D01*
X-65668Y35907D01*
X-65763Y35964D01*
X-65801Y36040D01*
X-65839Y36078D01*
Y36116D01*
X-65801Y45808D01*
X-65630Y46017D01*
X-65364Y46055D01*
X-64071Y46017D01*
X-63938Y45884D01*
X-63900Y45618D01*
X-63862Y42159D01*
X-63691Y41950D01*
X-63425Y41874D01*
X-60917Y41912D01*
X-60746Y42083D01*
X-60708Y42349D01*
X-60688Y42558D01*
X-60708Y45010D01*
X-60669Y45124D01*
X-60708Y45618D01*
X-60669Y45846D01*
X-60594Y45922D01*
X-60574Y45979D01*
X-60308Y46055D01*
X-59453Y46036D01*
X-59016Y46055D01*
X-58807Y45884D01*
D02*
G37*
G36*
X-17180Y46010D02*
X-17104Y45972D01*
X-17009Y45877D01*
X-16971Y45725D01*
X-16952Y45250D01*
X-16971Y45003D01*
X-16933Y44889D01*
X-16971Y44737D01*
X-16952Y38788D01*
X-16971Y36527D01*
X-16933Y36413D01*
X-16971Y36032D01*
X-17066Y35937D01*
X-17333Y35861D01*
X-18891Y35899D01*
X-19024Y36032D01*
X-19138Y36298D01*
X-19404Y36869D01*
X-19537Y37230D01*
X-19594Y37287D01*
X-19632Y37363D01*
X-19746Y37629D01*
X-19879Y37990D01*
X-19974Y38123D01*
X-20126Y38465D01*
X-20164Y38617D01*
X-20506Y39339D01*
X-20601Y39586D01*
X-20658Y39643D01*
X-20848Y40061D01*
X-20981Y40423D01*
X-21153Y40708D01*
X-21323Y41183D01*
X-21381Y41240D01*
X-21418Y41316D01*
X-21570Y41658D01*
X-21704Y42019D01*
X-21780Y42095D01*
X-21913Y42114D01*
X-22027Y42038D01*
X-22065Y41772D01*
X-22103Y36032D01*
X-22236Y35899D01*
X-22502Y35861D01*
X-23908Y35899D01*
X-24041Y36032D01*
X-24079Y36184D01*
X-24060Y45136D01*
X-24079Y45649D01*
X-24003Y45877D01*
X-23870Y46010D01*
X-23604Y46048D01*
X-22160Y46010D01*
X-22027Y45915D01*
X-21989Y45839D01*
X-21761Y45421D01*
X-21647Y45155D01*
X-21514Y44794D01*
X-21305Y44395D01*
X-21209Y44148D01*
X-21153Y44015D01*
X-20962Y43748D01*
X-20905Y43539D01*
X-20867Y43387D01*
X-20791Y43197D01*
X-20696Y43064D01*
X-20582Y42798D01*
X-20449Y42437D01*
X-20164Y41886D01*
X-20126Y41734D01*
X-19898Y41316D01*
X-19784Y41050D01*
X-19727Y40841D01*
X-19442Y40213D01*
X-19347Y39966D01*
X-19195Y39814D01*
X-19005Y39852D01*
X-18948Y39909D01*
X-18910Y40974D01*
Y41240D01*
Y41278D01*
X-18929Y45402D01*
X-18891Y45820D01*
X-18796Y45953D01*
X-18739Y46010D01*
X-18359Y46048D01*
X-17922Y46029D01*
X-17294Y46048D01*
X-17180Y46010D01*
D02*
G37*
G36*
X8210D02*
X8267Y45953D01*
X8343Y45763D01*
X8362Y45440D01*
X8324Y44604D01*
X8229Y44471D01*
X8172Y44414D01*
X7792Y44376D01*
X7678Y44414D01*
X6044Y44376D01*
X5835Y44205D01*
X5796Y43824D01*
X5835Y43672D01*
X5796Y43406D01*
X5816Y42931D01*
X5796Y36451D01*
X5835Y36337D01*
X5796Y36032D01*
X5739Y35937D01*
X5549Y35861D01*
X4067Y35899D01*
X3934Y35994D01*
X3858Y36260D01*
X3896Y36413D01*
Y43824D01*
Y43862D01*
X3858Y44205D01*
X3725Y44338D01*
X3421Y44414D01*
X1881Y44395D01*
X1863Y44414D01*
X1824Y44376D01*
X1710Y44414D01*
X1558Y44452D01*
X1463Y44547D01*
X1387Y44813D01*
X1425Y45839D01*
X1558Y46010D01*
X1710Y46048D01*
X2471Y46010D01*
X2585Y46048D01*
X8210Y46010D01*
D02*
G37*
G36*
X68532Y45972D02*
X68703Y45801D01*
X68741Y45649D01*
X68703Y44661D01*
X68570Y44490D01*
X68266Y44414D01*
X67543Y44452D01*
X66840Y44433D01*
X66669Y44452D01*
X66555Y44414D01*
X66403Y44376D01*
X66232Y44205D01*
X66194Y43824D01*
X66213Y36127D01*
X66156Y35994D01*
X65947Y35899D01*
X65624Y35880D01*
X65605Y35899D01*
X65567Y35861D01*
X65453Y35899D01*
X64674Y35880D01*
X64446Y35918D01*
X64313Y36013D01*
X64255Y36070D01*
Y42380D01*
Y42418D01*
X64275Y44071D01*
X64237Y44224D01*
X64085Y44376D01*
X63818Y44452D01*
X63457Y44433D01*
X62488Y44452D01*
X62374Y44414D01*
X62032Y44452D01*
X61823Y44623D01*
X61785Y44775D01*
X61823Y45801D01*
X61956Y45972D01*
X62222Y46010D01*
X68532Y45972D01*
D02*
G37*
G36*
X57813Y46124D02*
X58269Y46086D01*
X58383Y46048D01*
X58535Y46010D01*
X58744Y45953D01*
X59352Y45649D01*
X59580Y45459D01*
X59713Y45364D01*
X59922Y45193D01*
X59960Y45117D01*
X60037Y45041D01*
X60074Y44965D01*
X60265Y44661D01*
X60303Y44585D01*
X60455Y44243D01*
X60531Y43938D01*
X60569Y43710D01*
X60645Y43520D01*
X60607Y43292D01*
X60550Y43235D01*
X60283Y43159D01*
X58877Y43197D01*
X58744Y43330D01*
X58706Y43482D01*
X58649Y43805D01*
X58554Y43938D01*
X58288Y44281D01*
X58117Y44452D01*
X57851Y44566D01*
X57699Y44604D01*
X57433Y44642D01*
X57110Y44585D01*
X56729Y44356D01*
X56596Y44262D01*
X56540Y44205D01*
X56501Y44128D01*
X56273Y43634D01*
X56235Y43406D01*
X56273Y43292D01*
X56311Y43026D01*
X56540Y42608D01*
X56711Y42437D01*
X56787Y42399D01*
X56901Y42285D01*
X56977Y42247D01*
X57053Y42171D01*
X57243Y42095D01*
X57965Y41753D01*
X58326Y41620D01*
X58611Y41449D01*
X58801Y41373D01*
X59143Y41183D01*
X59257Y41069D01*
X59333Y41031D01*
X59599Y40841D01*
X59751Y40689D01*
X59827Y40651D01*
X59941Y40536D01*
X59998Y40518D01*
X60037Y40442D01*
X60417Y39833D01*
X60474Y39624D01*
X60511Y39472D01*
X60550Y39244D01*
X60588Y39092D01*
X60626Y38864D01*
X60645Y38237D01*
X60607Y38123D01*
X60569Y37857D01*
X60474Y37458D01*
X60398Y37268D01*
X60340Y37211D01*
X60303Y37135D01*
X60113Y36793D01*
X60037Y36717D01*
X59998Y36641D01*
X59941Y36583D01*
X59865Y36546D01*
X59675Y36356D01*
X59599Y36318D01*
X59333Y36165D01*
X58839Y35937D01*
X58687Y35899D01*
X58421Y35861D01*
X58269Y35823D01*
X57775Y35785D01*
X57338Y35766D01*
X56958Y35804D01*
X56578Y35880D01*
X56273Y35956D01*
X56083Y35994D01*
X55893Y36070D01*
X55836Y36127D01*
X55760Y36165D01*
X55684Y36242D01*
X55437Y36337D01*
X55380Y36393D01*
X55304Y36432D01*
X55228Y36507D01*
X55152Y36546D01*
X54791Y36907D01*
X54753Y36983D01*
X54563Y37249D01*
X54525Y37325D01*
X54411Y37439D01*
X54335Y37629D01*
X54297Y37781D01*
X54259Y38047D01*
X54164Y38294D01*
X54107Y38503D01*
X54145Y38845D01*
X54240Y38940D01*
X54392Y38978D01*
X55836Y38940D01*
X55969Y38845D01*
X56045Y38655D01*
X56102Y38218D01*
X56273Y37895D01*
X56350Y37819D01*
X56388Y37743D01*
X56673Y37458D01*
X56863Y37382D01*
X57015Y37344D01*
X57680Y37325D01*
X58098Y37363D01*
X58307Y37496D01*
X58402Y37629D01*
X58554Y37781D01*
X58592Y37857D01*
X58668Y38047D01*
X58706Y38427D01*
X58668Y38997D01*
X58402Y39415D01*
X58364Y39491D01*
X58231Y39624D01*
X58155Y39662D01*
X58079Y39738D01*
X58003Y39776D01*
X57927Y39852D01*
X57661Y39966D01*
X57015Y40271D01*
X56711Y40385D01*
X56673D01*
X56406Y40575D01*
X56045Y40708D01*
X55836Y40841D01*
X55722Y40955D01*
X55646Y40993D01*
X55437Y41164D01*
X55304Y41259D01*
X55228Y41335D01*
X55152Y41373D01*
X55019Y41506D01*
X54981Y41582D01*
X54810Y41791D01*
X54753Y41848D01*
X54563Y42266D01*
X54411Y42608D01*
X54373Y42874D01*
X54335Y43026D01*
X54373Y43938D01*
X54449Y44128D01*
X54487Y44281D01*
X54677Y44699D01*
X54715Y44775D01*
X54886Y44984D01*
X55019Y45155D01*
X55057Y45231D01*
X55228Y45402D01*
X55418Y45516D01*
X55494Y45592D01*
X55570Y45630D01*
X56140Y45896D01*
X56635Y46048D01*
X57091Y46124D01*
X57699Y46162D01*
X57813Y46124D01*
D02*
G37*
G36*
X25714Y46105D02*
X25904Y46067D01*
X26208Y45991D01*
X26892Y45649D01*
X26949Y45592D01*
X27025Y45554D01*
X27139Y45440D01*
X27215Y45402D01*
X27291Y45326D01*
X27367Y45288D01*
X27462Y45193D01*
X27500Y45117D01*
X27576Y45041D01*
X27614Y44965D01*
X27861Y44604D01*
X27956Y44395D01*
X28032Y44128D01*
X28070Y43862D01*
X28184Y43482D01*
X28146Y43292D01*
X28051Y43197D01*
X27899Y43159D01*
X27652Y43140D01*
X26417Y43197D01*
X26284Y43292D01*
X26208Y43558D01*
X26151Y43805D01*
X25999Y44033D01*
X25942Y44091D01*
X25904Y44166D01*
X25657Y44414D01*
X25581Y44452D01*
X25315Y44566D01*
X25048Y44604D01*
X24630Y44566D01*
X24288Y44376D01*
X24079Y44205D01*
X23813Y43634D01*
X23794Y43463D01*
X23832Y43159D01*
X23946Y42855D01*
X24136Y42551D01*
X24250Y42437D01*
X24326Y42399D01*
X24402Y42323D01*
X24478Y42285D01*
X24554Y42209D01*
X24896Y42057D01*
X25543Y41753D01*
X25790Y41658D01*
X26341Y41373D01*
X26531Y41297D01*
X26740Y41126D01*
X26968Y40974D01*
X27101Y40879D01*
X27291Y40689D01*
X27367Y40651D01*
X27614Y40404D01*
X27766Y40138D01*
X27918Y39909D01*
X28070Y39415D01*
X28127Y39054D01*
X28184Y38541D01*
X28127Y38028D01*
X28089Y37800D01*
X28051Y37610D01*
X28013Y37458D01*
X27937Y37268D01*
X27785Y37040D01*
X27576Y36717D01*
X27177Y36318D01*
X26607Y36013D01*
X26417Y35937D01*
X26170Y35880D01*
X25942Y35842D01*
X25752Y35804D01*
X25447Y35766D01*
X24668Y35747D01*
X24554Y35785D01*
X24193Y35842D01*
X23585Y35994D01*
X23395Y36070D01*
X23338Y36127D01*
X23262Y36165D01*
X23072Y36279D01*
X22920Y36356D01*
X22901Y36374D01*
X22768Y36470D01*
X22692Y36546D01*
X22616Y36583D01*
X22293Y36907D01*
X22255Y36983D01*
X22008Y37344D01*
X21951Y37401D01*
X21913Y37477D01*
X21837Y37667D01*
X21742Y38104D01*
X21665Y38294D01*
X21609Y38503D01*
X21647Y38845D01*
X21742Y38940D01*
X22046Y39016D01*
X22654Y38978D01*
X23376Y38940D01*
X23509Y38845D01*
X23585Y38655D01*
X23642Y38218D01*
X23718Y38028D01*
X23775Y37971D01*
X23813Y37895D01*
X23889Y37819D01*
X23927Y37743D01*
X24174Y37496D01*
X24440Y37382D01*
X24706Y37344D01*
X25657Y37382D01*
X25866Y37553D01*
X25904Y37629D01*
X26056Y37781D01*
X26094Y37857D01*
X26170Y38047D01*
X26208Y38199D01*
X26246Y38693D01*
X26170Y38997D01*
X26018Y39263D01*
X25752Y39605D01*
X25695Y39662D01*
X25619Y39700D01*
X25543Y39776D01*
X25466Y39814D01*
X24592Y40233D01*
X24117Y40404D01*
X24022Y40499D01*
X23946Y40536D01*
X23680Y40651D01*
X23490Y40727D01*
X23281Y40898D01*
X23186Y40993D01*
X23110Y41031D01*
X22901Y41202D01*
X22730Y41335D01*
X22654Y41373D01*
X22521Y41506D01*
X22483Y41582D01*
X22312Y41791D01*
X22217Y41962D01*
X21951Y42532D01*
X21875Y42836D01*
X21837Y43216D01*
X21875Y43938D01*
X21913Y44053D01*
X22008Y44300D01*
X22084Y44490D01*
X22331Y44927D01*
X22445Y45041D01*
X22483Y45117D01*
X22559Y45193D01*
X22597Y45269D01*
X22692Y45364D01*
X22768Y45402D01*
X22977Y45573D01*
X23262Y45744D01*
X23528Y45858D01*
X23718Y45934D01*
X24098Y46048D01*
X24250Y46086D01*
X24516Y46124D01*
X25124Y46162D01*
X25714Y46105D01*
D02*
G37*
G36*
X17560Y46124D02*
X17674Y46086D01*
X18112Y46029D01*
X18302Y45953D01*
X18739Y45744D01*
X19005Y45592D01*
X19081Y45516D01*
X19157Y45478D01*
X19480Y45155D01*
X19518Y45079D01*
X19594Y45003D01*
X19632Y44927D01*
X19803Y44718D01*
X19974Y44433D01*
X20031Y44148D01*
X20069Y43995D01*
X20202Y43748D01*
X20240Y43596D01*
X20316Y43064D01*
X20278Y42836D01*
X20221Y42741D01*
X20031Y42665D01*
X18720Y42646D01*
X18587Y42703D01*
X18454Y42836D01*
X18378Y43102D01*
X18283Y43501D01*
X18226Y43710D01*
X18093Y44071D01*
X17865Y44300D01*
X17333Y44528D01*
X17028Y44604D01*
X16629Y44547D01*
X16325Y44433D01*
X16135Y44356D01*
X15926Y44224D01*
X15717Y44015D01*
X15679Y43938D01*
X15527Y43596D01*
X15451Y43330D01*
X15375Y43026D01*
X15318Y42665D01*
X15280Y42171D01*
X15261Y39833D01*
X15299Y39719D01*
X15337Y38997D01*
X15375Y38883D01*
X15432Y38522D01*
X15470Y38370D01*
X15546Y38180D01*
X15717Y37857D01*
X16002Y37572D01*
X16078Y37534D01*
X16154Y37458D01*
X16363Y37401D01*
X16553Y37363D01*
X17294Y37344D01*
X17408Y37382D01*
X17599Y37458D01*
X18074Y37819D01*
X18188Y38085D01*
X18264Y38389D01*
X18340Y38655D01*
X18378Y38807D01*
X18454Y38997D01*
X18587Y39130D01*
X18739Y39168D01*
X20183Y39130D01*
X20278Y39035D01*
X20316Y38883D01*
X20259Y38294D01*
X20221Y38142D01*
X20145Y37952D01*
X20050Y37743D01*
X19993Y37534D01*
X19955Y37382D01*
X19822Y37173D01*
X19461Y36698D01*
X19385Y36622D01*
X19309Y36583D01*
X19252Y36527D01*
X19214Y36451D01*
X19119Y36356D01*
X18321Y35975D01*
X18055Y35899D01*
X17903Y35861D01*
X17371Y35785D01*
X16762Y35747D01*
X16230Y35785D01*
X16116Y35823D01*
X15755Y35880D01*
X15603Y35918D01*
X15299Y36032D01*
X14919Y36260D01*
X14615Y36451D01*
X14444Y36622D01*
X14368Y36660D01*
X14235Y36793D01*
X14121Y37059D01*
X14083Y37135D01*
X13912Y37344D01*
X13817Y37515D01*
X13645Y37990D01*
X13513Y38313D01*
X13436Y38845D01*
X13398Y38997D01*
X13360Y40632D01*
X13398Y42950D01*
X13436Y43064D01*
X13493Y43501D01*
X13607Y43805D01*
X13779Y44205D01*
X13874Y44452D01*
X13969Y44585D01*
X14045Y44661D01*
X14083Y44737D01*
X14235Y45003D01*
X14349Y45117D01*
X14387Y45193D01*
X14520Y45326D01*
X14596Y45364D01*
X14672Y45440D01*
X14748Y45478D01*
X14862Y45592D01*
X14938Y45630D01*
X15014Y45706D01*
X15280Y45820D01*
X15660Y45972D01*
X15926Y46048D01*
X15964D01*
X15983Y46067D01*
X16173Y46105D01*
X16686Y46162D01*
X17560Y46124D01*
D02*
G37*
G36*
X-73359Y47188D02*
X-72675Y47150D01*
X-72485Y47074D01*
X-72276Y47017D01*
X-72105Y46960D01*
X-71515Y46751D01*
X-71325Y46675D01*
X-70793Y46409D01*
X-70489Y46219D01*
X-70109Y45991D01*
X-70052Y45934D01*
X-69976Y45896D01*
X-69824Y45744D01*
X-69748Y45706D01*
X-69558Y45516D01*
X-69482Y45478D01*
X-69121Y45117D01*
X-69083Y45041D01*
X-69007Y44965D01*
X-68969Y44889D01*
X-68779Y44699D01*
X-68741Y44623D01*
X-68665Y44547D01*
X-68627Y44471D01*
X-68361Y44091D01*
X-68133Y43672D01*
X-67905Y43178D01*
X-67676Y42646D01*
X-67619Y42437D01*
X-67581Y42209D01*
X-67505Y41829D01*
X-67448Y41620D01*
X-67372Y41354D01*
X-67334Y41088D01*
X-67296Y40708D01*
X-67334Y39415D01*
X-67372Y39301D01*
X-67429Y39092D01*
X-67581Y38712D01*
X-67676Y38465D01*
X-67847Y38256D01*
X-67943Y38123D01*
X-68038Y38028D01*
X-68113Y37990D01*
X-68190Y37914D01*
X-68266Y37876D01*
X-68342Y37800D01*
X-68418Y37762D01*
X-68722Y37572D01*
X-68874Y37534D01*
X-69064Y37458D01*
X-69216Y37420D01*
X-69577Y37401D01*
X-69672Y37420D01*
X-69748Y37382D01*
X-69862Y37420D01*
X-70242Y37458D01*
X-70888Y37800D01*
X-71097Y37971D01*
X-71192Y38066D01*
X-71268Y38104D01*
X-71458Y38180D01*
X-71800Y38142D01*
X-72066Y37990D01*
X-72333Y37800D01*
X-72580Y37705D01*
X-72789Y37610D01*
X-72979Y37534D01*
X-73245Y37458D01*
X-73625Y37420D01*
X-73777Y37382D01*
X-74537Y37420D01*
X-74651Y37458D01*
X-74898Y37553D01*
X-75316Y37743D01*
X-75697Y37971D01*
X-75792Y38066D01*
X-75868Y38104D01*
X-76210Y38370D01*
X-76305Y38503D01*
X-76476Y38750D01*
X-76533Y38769D01*
X-76571Y38845D01*
X-76647Y38921D01*
X-76989Y39643D01*
X-77065Y39948D01*
X-77103Y40328D01*
X-77065Y41392D01*
X-77027Y41506D01*
X-76970Y41753D01*
X-76856Y41981D01*
X-76723Y42228D01*
X-76533Y42570D01*
X-76419Y42684D01*
X-76381Y42760D01*
X-75981Y43159D01*
X-75906Y43197D01*
X-75830Y43273D01*
X-75753Y43311D01*
X-75411Y43539D01*
X-75145Y43653D01*
X-74803Y43805D01*
X-74537Y43881D01*
X-74043Y43919D01*
X-73207Y43881D01*
X-73093Y43843D01*
X-72846Y43748D01*
X-72523Y43615D01*
X-72181Y43425D01*
X-72066Y43311D01*
X-71990Y43273D01*
X-71724Y43083D01*
X-71648Y43045D01*
X-71515Y42874D01*
X-71477Y42798D01*
X-71325Y42646D01*
X-71287Y42570D01*
X-71097Y42304D01*
X-71059Y42228D01*
X-70983Y42152D01*
X-70907Y41962D01*
X-70869Y41810D01*
X-70812Y41563D01*
X-70698Y41259D01*
X-70660Y41107D01*
X-70603Y40594D01*
X-70565Y40442D01*
X-70527Y39643D01*
X-70375Y39377D01*
X-70280Y39282D01*
X-70204Y39244D01*
X-69938Y39130D01*
X-69672Y39092D01*
X-69425Y39187D01*
X-69292Y39282D01*
X-69197Y39377D01*
X-69083Y39643D01*
X-69045Y39795D01*
X-69007Y40404D01*
X-69045Y41544D01*
X-69083Y41658D01*
X-69121Y41962D01*
X-69273Y42304D01*
X-69387Y42684D01*
X-69463Y42874D01*
X-69615Y43140D01*
X-69691Y43216D01*
X-69919Y43634D01*
X-70185Y43976D01*
X-70698Y44490D01*
X-70774Y44528D01*
X-70888Y44642D01*
X-71306Y44870D01*
X-71382Y44946D01*
X-71572Y45022D01*
X-72105Y45250D01*
X-72485Y45364D01*
X-72637Y45402D01*
X-72675D01*
X-72789Y45440D01*
X-73169Y45478D01*
X-73701Y45554D01*
X-74765Y45516D01*
X-74879Y45478D01*
X-75240Y45421D01*
X-75697Y45307D01*
X-75887Y45231D01*
X-75943Y45174D01*
X-76286Y45022D01*
X-76628Y44832D01*
X-76742Y44718D01*
X-77008Y44566D01*
X-77160Y44414D01*
X-77236Y44376D01*
X-77445Y44166D01*
X-77483Y44091D01*
X-77825Y43748D01*
X-77863Y43672D01*
X-78053Y43406D01*
X-78091Y43330D01*
X-78357Y42836D01*
X-78509Y42494D01*
X-78566Y42247D01*
X-78623Y42038D01*
X-78699Y41772D01*
X-78737Y41506D01*
X-78775Y41354D01*
X-78813Y41088D01*
X-78775Y40023D01*
X-78737Y39909D01*
X-78680Y39586D01*
X-78623Y39377D01*
X-78509Y38921D01*
X-78205Y38275D01*
X-78053Y38009D01*
X-77863Y37743D01*
X-77711Y37477D01*
X-77616Y37382D01*
X-77540Y37344D01*
X-77445Y37211D01*
X-77274Y37002D01*
X-76932Y36736D01*
X-76628Y36546D01*
X-76552Y36507D01*
X-76324Y36356D01*
X-75525Y36013D01*
X-75373Y35975D01*
X-74727Y35861D01*
X-74176Y35804D01*
X-71553Y35766D01*
X-71401Y35728D01*
X-71344Y35671D01*
X-71268Y35633D01*
X-70945Y35386D01*
X-70869Y35120D01*
X-70907Y34588D01*
X-71078Y34379D01*
X-71268Y34189D01*
X-71458Y34113D01*
X-74727Y34151D01*
X-74841Y34189D01*
X-75107Y34265D01*
X-75487Y34379D01*
X-75753Y34455D01*
X-76058Y34531D01*
X-76305Y34626D01*
X-76362Y34683D01*
X-76742Y34835D01*
X-76989Y34930D01*
X-77445Y35234D01*
X-77578Y35329D01*
X-77692Y35443D01*
X-77768Y35481D01*
X-78034Y35633D01*
X-78338Y35937D01*
X-78414Y35975D01*
X-78471Y36032D01*
X-78509Y36109D01*
X-78965Y36565D01*
X-78984Y36622D01*
X-79060Y36660D01*
X-79117Y36717D01*
X-79155Y36793D01*
X-79345Y37135D01*
X-79516Y37344D01*
X-79802Y37857D01*
X-79953Y38199D01*
X-80011Y38446D01*
X-80087Y38636D01*
X-80258Y39035D01*
X-80334Y39491D01*
X-80372Y39871D01*
X-80410Y40138D01*
X-80372Y41772D01*
X-80334Y41886D01*
X-80277Y42209D01*
X-80239Y42361D01*
X-80125Y42665D01*
X-80030Y42912D01*
X-79992Y43064D01*
X-79859Y43425D01*
X-79706Y43653D01*
X-79630Y43843D01*
X-79440Y44148D01*
X-79345Y44243D01*
X-79307Y44319D01*
X-79060Y44680D01*
X-78889Y44851D01*
X-78851Y44927D01*
X-78699Y45079D01*
X-78680Y45136D01*
X-78623Y45155D01*
X-78585Y45231D01*
X-78376Y45440D01*
X-78300Y45478D01*
X-78072Y45706D01*
X-77996Y45744D01*
X-77787Y45915D01*
X-77654Y46010D01*
X-77578Y46086D01*
X-77502Y46124D01*
X-77293Y46295D01*
X-77046Y46428D01*
X-76799Y46523D01*
X-76324Y46770D01*
X-76171Y46808D01*
X-75792Y46922D01*
X-75259Y47074D01*
X-74955Y47150D01*
X-74689Y47188D01*
X-73511Y47226D01*
X-73359Y47188D01*
D02*
G37*
G36*
X52453Y45972D02*
X52473Y45953D01*
X52548Y45877D01*
X52625Y45611D01*
X52644Y36127D01*
X52548Y35994D01*
X52491Y35937D01*
X52339Y35899D01*
X52073Y35861D01*
X51693Y35899D01*
X51427Y35861D01*
X51313Y35899D01*
X50933Y35861D01*
X50743Y35975D01*
X50686Y36032D01*
X50648Y36298D01*
X50686Y36679D01*
X50724Y40556D01*
X50762Y40670D01*
X50800Y41734D01*
X50838Y41848D01*
X50800Y42190D01*
X50705Y42247D01*
X50496Y42038D01*
X50344Y41696D01*
X50230Y41316D01*
X50192Y41164D01*
X50135Y40803D01*
X49983Y40423D01*
X49945Y40233D01*
X49907Y40005D01*
X49831Y39700D01*
X49755Y39510D01*
X49660Y39263D01*
X49584Y38997D01*
X49546Y38845D01*
X49470Y38579D01*
X49432Y38275D01*
X49204Y37781D01*
X49147Y37420D01*
X49109Y37230D01*
X49071Y37078D01*
X48976Y36869D01*
X48861Y36489D01*
X48824Y36337D01*
X48767Y36127D01*
X48671Y35994D01*
X48615Y35937D01*
X48463Y35899D01*
X48196Y35861D01*
X47854Y35899D01*
X47740Y35861D01*
X47512Y35899D01*
X47417Y35956D01*
X47379Y36032D01*
X47303Y36223D01*
X47113Y36831D01*
X47075Y36983D01*
X46999Y37249D01*
X46923Y37553D01*
X46790Y37914D01*
X46695Y38123D01*
X46657Y38275D01*
X46581Y38769D01*
X46429Y39111D01*
X46353Y39415D01*
X46277Y39681D01*
X46163Y40138D01*
X46106Y40347D01*
X46011Y40594D01*
X45935Y40860D01*
X45878Y41221D01*
X45802Y41411D01*
X45631Y41696D01*
X45555Y41962D01*
X45460Y42209D01*
X45422Y42285D01*
X45289Y42266D01*
X45213Y42000D01*
X45251Y41430D01*
X45289Y41316D01*
X45327Y41164D01*
X45365Y38959D01*
X45403Y38845D01*
X45422Y36203D01*
X45384Y36051D01*
X45270Y35937D01*
X44966Y35861D01*
X44262Y35880D01*
X43863Y35861D01*
X43749Y35899D01*
X43559Y35937D01*
X43464Y36032D01*
X43426Y36184D01*
X43464Y36679D01*
X43426Y36793D01*
X43445Y37382D01*
X43426Y37591D01*
X43464Y37629D01*
X43426Y37667D01*
X43464Y37705D01*
X43426Y37743D01*
X43464Y37857D01*
X43426Y38237D01*
X43445Y39624D01*
X43426Y42456D01*
X43464Y42570D01*
X43426Y43140D01*
X43464Y43254D01*
X43445Y45022D01*
X43464Y45117D01*
X43426Y45231D01*
X43464Y45801D01*
X43635Y45972D01*
X43787Y46010D01*
X45916Y45972D01*
X45992Y45896D01*
X46049Y45877D01*
X46087Y45801D01*
X46163Y45611D01*
X46220Y45364D01*
X46258Y45212D01*
X46296Y45022D01*
X46372Y44718D01*
X46505Y44395D01*
X46581Y44091D01*
X46638Y43653D01*
X46676Y43501D01*
X46752Y43311D01*
X46847Y43102D01*
X46904Y42855D01*
X46942Y42627D01*
X47018Y42247D01*
X47075Y42038D01*
X47113Y41886D01*
X47170Y41677D01*
X47246Y41487D01*
X47303Y41278D01*
X47341Y41126D01*
X47398Y40727D01*
X47550Y40347D01*
X47607Y40138D01*
X47683Y39681D01*
X47721Y39529D01*
X47816Y39130D01*
X47892Y39016D01*
X48082Y39054D01*
X48177Y39149D01*
X48215Y39225D01*
X48291Y39301D01*
X48367Y39491D01*
X48405Y39643D01*
X48463Y40005D01*
X48500Y40195D01*
X48538Y40347D01*
X48710Y40898D01*
X48824Y41354D01*
X48957Y41981D01*
X49033Y42171D01*
X49128Y42418D01*
X49204Y42874D01*
X49299Y43273D01*
X49394Y43520D01*
X49470Y43824D01*
X49546Y44091D01*
X49603Y44338D01*
X49679Y44718D01*
X49888Y45383D01*
X49926Y45535D01*
X49983Y45820D01*
X50078Y45953D01*
X50249Y46010D01*
X52453Y45972D01*
D02*
G37*
G36*
X-152Y46010D02*
X-57Y45915D01*
X19Y45649D01*
X-19Y38351D01*
X-57Y38237D01*
X-114Y37762D01*
X-228Y37458D01*
X-285Y37401D01*
X-551Y36907D01*
X-665Y36793D01*
X-703Y36717D01*
X-1102Y36318D01*
X-1520Y36089D01*
X-1863Y35937D01*
X-2319Y35861D01*
X-2471Y35823D01*
X-2794Y35766D01*
X-3687Y35747D01*
X-3801Y35785D01*
X-4257Y35823D01*
X-4371Y35861D01*
X-4618Y35918D01*
X-4770Y35956D01*
X-4960Y36032D01*
X-5188Y36184D01*
X-5568Y36413D01*
X-5702Y36546D01*
X-5778Y36583D01*
X-5872Y36679D01*
X-5911Y36755D01*
X-6177Y37135D01*
X-6367Y37553D01*
X-6424Y37762D01*
X-6500Y37952D01*
X-6595Y38275D01*
X-6633Y39225D01*
X-6595Y45877D01*
X-6500Y46010D01*
X-6348Y46048D01*
X-4865Y46010D01*
X-4694Y45877D01*
X-4618Y45573D01*
Y40404D01*
Y40366D01*
X-4580Y38275D01*
X-4466Y38009D01*
X-4428Y37933D01*
X-4257Y37724D01*
X-3953Y37420D01*
X-3687Y37382D01*
X-3535Y37344D01*
X-2737Y37382D01*
X-2471Y37534D01*
X-2395Y37610D01*
X-2338Y37629D01*
X-2300Y37705D01*
X-2224Y37781D01*
X-2186Y37857D01*
X-2033Y38123D01*
X-1957Y38389D01*
X-1919Y38655D01*
X-1901Y40575D01*
X-1919Y41164D01*
X-1882Y41202D01*
X-1919Y41316D01*
X-1882Y41430D01*
X-1901Y44832D01*
X-1882Y45193D01*
X-1919Y45307D01*
X-1882Y45801D01*
X-1710Y46010D01*
X-1330Y46048D01*
X-152Y46010D01*
D02*
G37*
G36*
X39302Y45972D02*
X39416Y45934D01*
X39682Y45896D01*
X39872Y45820D01*
X40252Y45706D01*
X40518Y45554D01*
X40728Y45383D01*
X40956Y45193D01*
X41031Y45117D01*
X41070Y45041D01*
X41184Y44927D01*
X41222Y44851D01*
X41298Y44775D01*
X41336Y44699D01*
X41412Y44623D01*
X41488Y44433D01*
X41583Y43805D01*
X41640Y43292D01*
X41602Y42760D01*
X41564Y42646D01*
X41507Y42361D01*
X41469Y42209D01*
X41279Y41905D01*
X41222Y41848D01*
X41184Y41772D01*
X41013Y41563D01*
X40936Y41487D01*
X40861Y41449D01*
X40785Y41373D01*
X40708Y41335D01*
X40613Y41126D01*
X40728Y40936D01*
X40823Y40841D01*
X40898Y40803D01*
X41241Y40536D01*
X41412Y40366D01*
X41526Y40100D01*
X41621Y39852D01*
X41792Y39453D01*
X41830Y39073D01*
X41792Y38085D01*
X41678Y37819D01*
X41602Y37629D01*
X41469Y37268D01*
X41241Y36888D01*
X40974Y36622D01*
X40898Y36583D01*
X40633Y36318D01*
X40271Y36184D01*
X40062Y36089D01*
X39796Y36013D01*
X39530Y35975D01*
X38884Y35899D01*
X38162Y35861D01*
X36983Y35899D01*
X36717Y35861D01*
X35539Y35899D01*
X35368Y36032D01*
X35330Y36184D01*
X35349Y36622D01*
X35330Y39833D01*
X35368Y39948D01*
X35330Y40556D01*
X35368Y40936D01*
X35330Y41316D01*
X35349Y42209D01*
X35330Y43900D01*
X35368Y44015D01*
Y44319D01*
Y44356D01*
X35330Y44623D01*
X35349Y45212D01*
X35330Y45573D01*
X35368Y45687D01*
X35406Y45877D01*
X35501Y45972D01*
X35653Y46010D01*
X39302Y45972D01*
D02*
G37*
G36*
X11517Y46010D02*
X11688Y45877D01*
X11764Y45611D01*
X11745Y44984D01*
X11764Y44813D01*
Y44775D01*
X11745Y36507D01*
X11764Y36109D01*
X11631Y35937D01*
X11441Y35861D01*
X9959Y35899D01*
X9826Y35994D01*
X9787Y36146D01*
X9826Y45801D01*
X9997Y46010D01*
X10263Y46048D01*
X11517Y46010D01*
D02*
G37*
G36*
X-10719D02*
X-10548Y45877D01*
X-10396Y45535D01*
X-10320Y45269D01*
X-10282Y45117D01*
X-10225Y44908D01*
X-10149Y44718D01*
X-10016Y44395D01*
X-9977Y44243D01*
X-9883Y43843D01*
X-9768Y43539D01*
X-9674Y43216D01*
X-9597Y42950D01*
X-9483Y42570D01*
X-9388Y42323D01*
X-9293Y42114D01*
X-9217Y41810D01*
X-9160Y41487D01*
X-9084Y41297D01*
X-8913Y40898D01*
X-8875Y40670D01*
X-8837Y40556D01*
X-8799Y40404D01*
X-8628Y39928D01*
X-8552Y39738D01*
X-8476Y39434D01*
X-8438Y39244D01*
X-8305Y38883D01*
X-8191Y38617D01*
X-8096Y38180D01*
X-8020Y37990D01*
X-7982Y37838D01*
X-7735Y37059D01*
X-7678Y36812D01*
X-7564Y36507D01*
X-7507Y36451D01*
X-7431Y36260D01*
X-7469Y35956D01*
X-7526Y35899D01*
X-7678Y35861D01*
X-9312Y35899D01*
X-9521Y36070D01*
X-9578Y36279D01*
X-9654Y36660D01*
X-9711Y36869D01*
X-9787Y37059D01*
X-9863Y37325D01*
X-9902Y37477D01*
X-9959Y37686D01*
X-10016Y37819D01*
X-10073Y37914D01*
X-10263Y37990D01*
X-11308Y38009D01*
X-12714Y37971D01*
X-12847Y37876D01*
X-12904Y37819D01*
X-13018Y37553D01*
X-13113Y37306D01*
X-13170Y37135D01*
X-13246Y36679D01*
X-13303Y36432D01*
X-13341Y36279D01*
X-13532Y35975D01*
X-13607Y35899D01*
X-13759Y35861D01*
X-15356Y35899D01*
X-15451Y35994D01*
X-15489Y36146D01*
X-15432Y36356D01*
X-15337Y36565D01*
X-15280Y36812D01*
X-15204Y37002D01*
X-15109Y37211D01*
X-15033Y37515D01*
X-14995Y37819D01*
X-14919Y38009D01*
X-14881Y38085D01*
X-14767Y38351D01*
X-14691Y38655D01*
X-14577Y39035D01*
X-14539Y39187D01*
X-14406Y39548D01*
X-14349Y39719D01*
X-14311Y39871D01*
X-14216Y40271D01*
X-14140Y40461D01*
X-14045Y40670D01*
X-13969Y40936D01*
X-13893Y41240D01*
X-13798Y41487D01*
X-13759Y41639D01*
X-13589Y42190D01*
X-13550Y42342D01*
X-13493Y42551D01*
X-13418Y42741D01*
X-13322Y42950D01*
X-13208Y43406D01*
X-13151Y43615D01*
X-13113Y43767D01*
X-13056Y43900D01*
X-13037Y43919D01*
X-12961Y44110D01*
X-12885Y44414D01*
X-12828Y44623D01*
X-12752Y44927D01*
X-12676Y45117D01*
X-12524Y45459D01*
X-12429Y45858D01*
X-12334Y45991D01*
X-12163Y46048D01*
X-10719Y46010D01*
D02*
G37*
G36*
X-36793D02*
X-36679Y45972D01*
X-36470Y45915D01*
X-35710Y45649D01*
X-35501Y45516D01*
X-35425Y45440D01*
X-35349Y45402D01*
X-35140Y45231D01*
X-35064Y45155D01*
X-35026Y45079D01*
X-34836Y44889D01*
X-34798Y44813D01*
X-34494Y44166D01*
X-34418Y43900D01*
X-34380Y43748D01*
X-34342Y43368D01*
X-34380Y42114D01*
X-34418Y42000D01*
X-34475Y41753D01*
X-34551Y41563D01*
X-34760Y41164D01*
X-34912Y40898D01*
X-34988Y40822D01*
X-35026Y40746D01*
X-35235Y40536D01*
X-35311Y40499D01*
X-35425Y40385D01*
X-35501Y40347D01*
X-35710Y40138D01*
X-35672Y39795D01*
X-35520Y39453D01*
X-35425Y39206D01*
X-35349Y39016D01*
X-35178Y38731D01*
X-35102Y38427D01*
X-35007Y38180D01*
X-34950Y38123D01*
X-34912Y38047D01*
X-34836Y37971D01*
X-34760Y37705D01*
X-34703Y37496D01*
X-34494Y37097D01*
X-34456Y36983D01*
X-34437Y36964D01*
X-34399Y36812D01*
X-34285Y36507D01*
X-34190Y36413D01*
X-34152Y36337D01*
X-34076Y36146D01*
X-34114Y35956D01*
X-34209Y35861D01*
X-36033Y35899D01*
X-36204Y36032D01*
X-36394Y36451D01*
X-36508Y36717D01*
X-36546Y36869D01*
X-36679Y37230D01*
X-36774Y37363D01*
X-36888Y37629D01*
X-36927Y37781D01*
X-37041Y38085D01*
X-37269Y38579D01*
X-37402Y38940D01*
X-37573Y39263D01*
X-37706Y39510D01*
X-37782Y39548D01*
X-37896Y39586D01*
X-38656Y39548D01*
X-38789Y39415D01*
X-38827Y39149D01*
X-38789Y38769D01*
X-38827Y37819D01*
X-38789Y37667D01*
X-38808Y36432D01*
X-38789Y36109D01*
X-38922Y35937D01*
X-39188Y35861D01*
X-40632Y35899D01*
X-40803Y36070D01*
X-40766Y45801D01*
X-40595Y46010D01*
X-40214Y46048D01*
X-36793Y46010D01*
D02*
G37*
G36*
X-45460D02*
X-45270Y45934D01*
X-45023Y45877D01*
X-44776Y45782D01*
X-44528Y45725D01*
X-44338Y45649D01*
X-44205Y45554D01*
X-44091Y45440D01*
X-43825Y45288D01*
X-43749Y45212D01*
X-43673Y45174D01*
X-43274Y44775D01*
X-43236Y44699D01*
X-43122Y44585D01*
X-42970Y44319D01*
X-42628Y43596D01*
X-42514Y43330D01*
X-42438Y43026D01*
X-42400Y42532D01*
X-42362Y41810D01*
X-42400Y39035D01*
X-42438Y38921D01*
X-42495Y38636D01*
X-42609Y38332D01*
X-42704Y38123D01*
X-42780Y37933D01*
X-42875Y37686D01*
X-42970Y37591D01*
X-43008Y37515D01*
X-43198Y37249D01*
X-43236Y37173D01*
X-43540Y36869D01*
X-43578Y36793D01*
X-43635Y36736D01*
X-43711Y36698D01*
X-44243Y36318D01*
X-44490Y36223D01*
X-44681Y36146D01*
X-44889Y36051D01*
X-45536Y35937D01*
X-45688Y35899D01*
X-46410Y35861D01*
X-48728Y35899D01*
X-48900Y36032D01*
X-48938Y36298D01*
X-48900Y36679D01*
X-48919Y42437D01*
X-48900Y42874D01*
X-48938Y42988D01*
X-48919Y44300D01*
X-48938Y44319D01*
X-48900Y44433D01*
X-48919Y44528D01*
X-48881Y45820D01*
X-48786Y45953D01*
X-48728Y46010D01*
X-48500Y46048D01*
X-48463D01*
X-45460Y46010D01*
D02*
G37*
G36*
X-55589Y46029D02*
X-55437Y45991D01*
X-55304Y45896D01*
X-55247Y45839D01*
X-55133Y45459D01*
X-55000Y45098D01*
X-54905Y44889D01*
X-54829Y44623D01*
X-54791Y44471D01*
X-54620Y43995D01*
X-54525Y43748D01*
X-54468Y43539D01*
X-54392Y43235D01*
X-54240Y42855D01*
X-54183Y42798D01*
X-54126Y42589D01*
X-54088Y42437D01*
X-54050Y42247D01*
X-54012Y42095D01*
X-53879Y41886D01*
X-53727Y41848D01*
X-53594Y41905D01*
X-53461Y42038D01*
X-53385Y42228D01*
X-53347Y42494D01*
X-53271Y42798D01*
X-53081Y43216D01*
X-52929Y43748D01*
X-52833Y43995D01*
X-52681Y44376D01*
X-52530Y44984D01*
X-52320Y45459D01*
X-52263Y45706D01*
X-52130Y45915D01*
X-52073Y45972D01*
X-51921Y46010D01*
X-51541Y46048D01*
X-50876Y46029D01*
X-50287Y46048D01*
X-50154Y45953D01*
X-50116Y45801D01*
X-50154Y45573D01*
X-50306Y45307D01*
X-50420Y45041D01*
X-50458Y44889D01*
X-50762Y44243D01*
X-50800Y44091D01*
X-50895Y43843D01*
X-51104Y43406D01*
X-51256Y43026D01*
X-51446Y42608D01*
X-51522Y42418D01*
X-51579Y42209D01*
X-51636Y42076D01*
X-52092Y41088D01*
X-52168Y40898D01*
X-52263Y40651D01*
X-52377Y40347D01*
X-52586Y39909D01*
X-52701Y39453D01*
X-52720Y39054D01*
X-52701Y38845D01*
X-52739Y38731D01*
X-52720Y37496D01*
X-52739Y37173D01*
X-52701Y37059D01*
X-52720Y36507D01*
X-52701Y36109D01*
X-52872Y35899D01*
X-53138Y35861D01*
X-54544Y35899D01*
X-54715Y36032D01*
X-54753Y36298D01*
X-54715Y36451D01*
X-54753Y39567D01*
X-54791Y39681D01*
X-54829Y39833D01*
X-54905Y39985D01*
Y40023D01*
X-55057Y40290D01*
X-55228Y40765D01*
X-55304Y40955D01*
X-55551Y41506D01*
X-55646Y41753D01*
X-55817Y42076D01*
X-55893Y42342D01*
X-55969Y42532D01*
X-56197Y43026D01*
X-56293Y43273D01*
X-56368Y43463D01*
X-56616Y44015D01*
X-56787Y44490D01*
X-56844Y44547D01*
X-56958Y44813D01*
X-57015Y45022D01*
X-57129Y45250D01*
X-57300Y45649D01*
X-57338Y45801D01*
X-57300Y45953D01*
X-57205Y46048D01*
X-56996Y46067D01*
X-55589Y46029D01*
D02*
G37*
G36*
X34152Y35690D02*
X34190Y35424D01*
X34152Y34436D01*
X34057Y34303D01*
X33905Y34265D01*
X29039Y34303D01*
X28868Y34436D01*
X28830Y34588D01*
X28868Y35614D01*
X28925Y35709D01*
X29001Y35747D01*
X29115Y35785D01*
X29382Y35823D01*
X29819Y35804D01*
X30104Y35823D01*
X30218Y35785D01*
X31415Y35804D01*
X31434Y35785D01*
X31548Y35823D01*
X32612Y35785D01*
X32764Y35823D01*
X33107D01*
X33582Y35804D01*
X33981Y35823D01*
X34152Y35690D01*
D02*
G37*
G36*
X70470Y46010D02*
X71762Y45972D01*
X71895Y45839D01*
X71972Y45535D01*
X71953Y44984D01*
X71990Y38484D01*
X72028Y38294D01*
X72143Y37990D01*
X72200Y37857D01*
X72371Y37648D01*
X72580Y37477D01*
X72637Y37420D01*
X72941Y37344D01*
X73967Y37382D01*
X74309Y37648D01*
X74404Y37743D01*
X74442Y37819D01*
X74632Y38123D01*
X74689Y38370D01*
X74746Y38883D01*
X74784Y45839D01*
X74917Y45972D01*
X75069Y46010D01*
X76267Y46029D01*
X76419Y45991D01*
X76495Y45953D01*
X76533Y45877D01*
X76609Y45687D01*
X76571Y38313D01*
X76533Y38237D01*
Y38199D01*
X76495Y37743D01*
X76077Y36945D01*
X75963Y36831D01*
X75925Y36755D01*
X75772Y36603D01*
X75735Y36527D01*
X75564Y36356D01*
X74689Y35937D01*
X74423Y35899D01*
X74271Y35861D01*
X73948Y35804D01*
X72941Y35785D01*
X72827Y35823D01*
X72295Y35861D01*
X72181Y35899D01*
X71781Y35994D01*
X71477Y36184D01*
X71154Y36356D01*
X71002Y36507D01*
X70926Y36546D01*
X70717Y36755D01*
X70679Y36831D01*
X70337Y37401D01*
X70071Y38237D01*
X70033Y38503D01*
X69995Y39111D01*
X70033Y45839D01*
X70166Y46010D01*
X70318Y46048D01*
X70470Y46010D01*
D02*
G37*
G36*
X-28431Y46124D02*
X-28317Y46086D01*
X-28165Y46048D01*
X-27899Y45972D01*
X-27652Y45877D01*
X-27329Y45706D01*
X-27063Y45516D01*
X-26987Y45440D01*
X-26797Y45326D01*
X-26702Y45231D01*
X-26664Y45155D01*
X-26474Y44965D01*
X-26436Y44889D01*
X-26284Y44661D01*
X-26246Y44585D01*
X-26132Y44471D01*
X-26018Y44205D01*
X-25885Y43843D01*
X-25809Y43653D01*
X-25752Y43596D01*
X-25695Y43349D01*
X-25657Y43159D01*
X-25619Y42741D01*
X-25581Y42095D01*
X-25562Y39719D01*
X-25600Y39605D01*
X-25638Y38731D01*
X-25676Y38617D01*
X-25714Y38313D01*
X-25866Y38047D01*
X-25942Y37857D01*
X-26075Y37496D01*
X-26322Y37173D01*
X-26512Y36831D01*
X-26949Y36393D01*
X-27025Y36356D01*
X-27443Y36127D01*
X-27519Y36051D01*
X-27709Y35975D01*
X-27975Y35899D01*
X-28431Y35823D01*
X-28583Y35785D01*
X-28963Y35747D01*
X-29914Y35785D01*
X-30028Y35823D01*
X-30465Y35918D01*
X-30617Y35956D01*
X-30750Y36013D01*
X-31168Y36279D01*
X-31434Y36432D01*
X-31624Y36622D01*
X-31700Y36660D01*
X-31795Y36755D01*
X-31833Y36831D01*
X-31909Y36907D01*
X-31947Y36983D01*
X-32023Y37059D01*
X-32061Y37135D01*
X-32251Y37401D01*
X-32517Y37971D01*
X-32574Y38218D01*
X-32612Y38408D01*
X-32764Y38826D01*
X-32802Y39054D01*
X-32840Y39738D01*
X-32859Y41126D01*
X-32821Y41164D01*
X-32859Y41278D01*
X-32802Y42779D01*
X-32764Y42969D01*
X-32650Y43273D01*
X-32612Y43425D01*
X-32574Y43615D01*
X-32498Y43919D01*
X-32365Y44205D01*
X-32137Y44623D01*
X-31814Y45060D01*
X-31795Y45079D01*
X-31624Y45288D01*
X-31415Y45459D01*
X-31282Y45554D01*
X-31206Y45630D01*
X-31130Y45668D01*
X-30408Y46010D01*
X-30256Y46048D01*
X-29971Y46105D01*
X-29458Y46162D01*
X-28431Y46124D01*
D02*
G37*
%LPC*%
G36*
X-67303Y168209D02*
X-67544Y168064D01*
X-67617Y167992D01*
X-67665Y167799D01*
X-67592Y167534D01*
X-67399Y167341D01*
X-67086Y167220D01*
X-66820Y167099D01*
X-66627Y167051D01*
X-66338Y167099D01*
X-66265Y167172D01*
X-66313Y167558D01*
X-66434Y167727D01*
X-66458Y167751D01*
X-66507Y167847D01*
X-66724Y168064D01*
X-66965Y168161D01*
X-67303Y168209D01*
D02*
G37*
G36*
X-68847Y165410D02*
X-68944Y165362D01*
X-69064Y165241D01*
X-69113Y164904D01*
X-69161Y164710D01*
X-69113Y164421D01*
Y164373D01*
X-69064Y164276D01*
X-68944Y164156D01*
X-68702Y164059D01*
X-68220Y164011D01*
X-67448Y164059D01*
X-67327Y164131D01*
X-67230Y164373D01*
X-67279Y164710D01*
X-67448Y164879D01*
X-67689Y164976D01*
X-68123Y165169D01*
X-68365Y165265D01*
X-68847Y165410D01*
D02*
G37*
G36*
X-40926Y173223D02*
X-40970D01*
X-42459Y173179D01*
X-42612Y173026D01*
X-42656Y172719D01*
X-42612Y172281D01*
X-42634Y170726D01*
X-42612Y170529D01*
X-42656Y170398D01*
X-42612Y169785D01*
X-42415Y169544D01*
X-42065Y169456D01*
X-40838Y169500D01*
X-40707Y169544D01*
X-40400Y169587D01*
X-40050Y169675D01*
X-39831Y169763D01*
X-39349Y170026D01*
X-38977Y170398D01*
X-38802Y170792D01*
X-38736Y171033D01*
X-38692Y171296D01*
X-38670Y171537D01*
X-38714Y171668D01*
X-38802Y171887D01*
X-38867Y172128D01*
X-39021Y172369D01*
X-39240Y172588D01*
X-39284Y172675D01*
X-39612Y172872D01*
X-40181Y173135D01*
X-40598Y173201D01*
X-40926Y173223D01*
D02*
G37*
G36*
X6288Y173398D02*
X5807Y173354D01*
X5588Y173267D01*
X5412Y173223D01*
X4996Y173069D01*
X4515Y172588D01*
X4339Y172150D01*
X4164Y171756D01*
X4077Y171537D01*
X3923Y170464D01*
X3880Y170245D01*
X3858Y168427D01*
X3902Y168295D01*
X3967Y167617D01*
X4011Y167222D01*
X4055Y166960D01*
X4099Y166784D01*
X4120Y166763D01*
Y166719D01*
X4339Y166237D01*
X4449Y165952D01*
X4602Y165711D01*
X4668Y165646D01*
X4755Y165602D01*
X4843Y165514D01*
X4931Y165471D01*
X5062Y165339D01*
X5456Y165164D01*
X6069Y165076D01*
X6726Y165120D01*
X6858Y165164D01*
X7252Y165383D01*
X7340Y165471D01*
X7427Y165514D01*
X7756Y165755D01*
X7975Y166149D01*
X8150Y166412D01*
X8237Y166719D01*
X8281Y167025D01*
X8413Y167770D01*
X8456Y167945D01*
X8500Y168646D01*
X8544Y169215D01*
X8478Y170113D01*
X8413Y170704D01*
X8369Y170880D01*
X8303Y171383D01*
X8237Y171624D01*
X8150Y171931D01*
X7975Y172237D01*
X7887Y172325D01*
X7668Y172719D01*
X7602Y172785D01*
X7515Y172829D01*
X7252Y173091D01*
X7033Y173179D01*
X6858Y173223D01*
X6288Y173398D01*
D02*
G37*
G36*
X-31986Y141089D02*
X-32010Y141065D01*
X-32081Y141089D01*
X-34196Y141065D01*
X-34267Y141089D01*
X-34790Y141065D01*
X-36240Y141089D01*
X-39281Y141065D01*
X-39353Y141042D01*
X-39697Y141006D01*
X-40018Y140970D01*
X-40113Y140947D01*
X-40244Y140911D01*
X-40374Y140852D01*
X-40541Y140804D01*
X-40636Y140780D01*
X-41325Y140424D01*
X-41420Y140329D01*
X-41468Y140305D01*
X-41539Y140234D01*
X-41586Y140210D01*
X-41658Y140139D01*
X-41705Y140115D01*
X-41836Y140008D01*
X-41919Y139925D01*
X-41967Y139901D01*
X-42264Y139604D01*
X-42288Y139556D01*
X-42394Y139426D01*
X-42501Y139319D01*
X-42525Y139271D01*
X-42644Y139081D01*
X-42668Y139034D01*
X-42763Y138891D01*
X-42786Y138796D01*
X-42882Y138630D01*
X-42977Y138416D01*
X-43024Y138226D01*
X-43143Y137845D01*
X-43190Y137655D01*
X-43250Y137121D01*
X-43274Y136645D01*
X-43285Y136111D01*
X-43262Y136039D01*
X-43285Y135517D01*
X-43262Y133639D01*
X-43274Y132701D01*
X-43262Y132285D01*
X-43285Y132213D01*
X-43274Y131346D01*
X-43285Y130170D01*
Y130146D01*
X-43262Y129124D01*
X-43238Y129053D01*
X-43202Y128708D01*
X-43155Y128423D01*
X-43131Y128328D01*
X-43084Y128209D01*
X-42977Y127865D01*
X-42917Y127710D01*
X-42763Y127437D01*
X-42644Y127223D01*
X-42596Y127176D01*
X-42501Y127009D01*
X-42394Y126878D01*
X-42311Y126795D01*
X-42288Y126748D01*
X-42121Y126534D01*
X-42074Y126486D01*
X-42050Y126439D01*
X-41943Y126356D01*
X-41895Y126332D01*
X-41705Y126142D01*
X-41658Y126118D01*
X-41563Y126023D01*
X-41515Y125999D01*
X-41349Y125880D01*
X-41182Y125785D01*
X-40826Y125595D01*
X-40660Y125524D01*
X-40493Y125476D01*
X-40398Y125453D01*
X-40184Y125358D01*
X-39899Y125310D01*
X-39674Y125274D01*
X-39531Y125251D01*
X-39293Y125227D01*
X-39008Y125203D01*
X-37927Y125191D01*
X-37856Y125215D01*
X-37416Y125203D01*
X-37262Y125215D01*
X-37190Y125191D01*
X-37119Y125215D01*
X-36953Y125191D01*
X-36881Y125215D01*
X-36430Y125191D01*
X-35348Y125203D01*
X-33222Y125191D01*
X-33150Y125215D01*
X-32283Y125203D01*
X-31820Y125215D01*
X-31748Y125191D01*
X-31725Y125215D01*
X-31701Y125191D01*
X-31630Y125215D01*
X-31226Y125239D01*
X-31154Y125263D01*
X-30881Y125298D01*
X-30572Y125346D01*
X-30382Y125417D01*
X-30109Y125500D01*
X-29883Y125583D01*
X-29847Y125619D01*
X-29586Y125738D01*
X-29419Y125833D01*
X-29206Y125999D01*
X-29075Y126106D01*
X-28932Y126201D01*
X-28802Y126332D01*
X-28754Y126356D01*
X-28623Y126463D01*
X-28516Y126593D01*
X-28457Y126677D01*
X-28291Y126890D01*
X-28196Y126985D01*
X-28077Y127199D01*
X-28029Y127247D01*
X-28005Y127294D01*
X-27839Y127603D01*
X-27744Y127746D01*
X-27708Y127900D01*
X-27685Y127995D01*
X-27613Y128186D01*
X-27554Y128340D01*
X-27530Y128506D01*
X-27506Y128601D01*
X-27471Y128898D01*
X-27447Y129112D01*
X-27423Y129421D01*
X-27411Y136824D01*
X-27435Y136895D01*
X-27459Y137299D01*
X-27483Y137370D01*
X-27518Y137715D01*
X-27542Y137857D01*
X-27637Y138119D01*
X-27661Y138214D01*
X-27732Y138475D01*
X-27803Y138618D01*
X-27910Y138820D01*
X-28053Y139081D01*
X-28148Y139224D01*
X-28219Y139342D01*
X-28386Y139509D01*
X-28410Y139556D01*
X-28457Y139604D01*
X-28481Y139651D01*
X-28576Y139747D01*
X-28588Y139782D01*
X-28635Y139806D01*
X-28730Y139901D01*
X-28778Y139925D01*
X-28920Y140067D01*
X-28968Y140091D01*
X-29182Y140258D01*
X-29253Y140329D01*
X-29301Y140352D01*
X-29348Y140400D01*
X-29396Y140424D01*
X-29443Y140471D01*
X-30085Y140780D01*
X-30180Y140804D01*
X-30406Y140887D01*
X-30560Y140947D01*
X-30726Y140970D01*
X-31130Y141018D01*
X-31404Y141053D01*
X-31986Y141089D01*
D02*
G37*
%LPD*%
G36*
X-33008Y137834D02*
X-32936Y137810D01*
X-32663Y137750D01*
X-32140Y137489D01*
X-31998Y137394D01*
X-31796Y137287D01*
X-31725Y137216D01*
X-31677Y137192D01*
X-31582Y137097D01*
X-31534Y137073D01*
X-31404Y136942D01*
X-31380Y136895D01*
X-31332Y136847D01*
X-31309Y136800D01*
X-31190Y136681D01*
X-31166Y136634D01*
X-31119Y136586D01*
X-31023Y136420D01*
X-30928Y136277D01*
X-30845Y136051D01*
X-30738Y135802D01*
X-30691Y135612D01*
X-30643Y135208D01*
X-30619Y134970D01*
Y133117D01*
Y133093D01*
X-30643Y130930D01*
X-30667Y130859D01*
X-30703Y130633D01*
X-30726Y130538D01*
X-30821Y130277D01*
X-30905Y130075D01*
X-31071Y129766D01*
X-31237Y129552D01*
X-31332Y129457D01*
X-31356Y129409D01*
X-31404Y129362D01*
X-31428Y129314D01*
X-31558Y129184D01*
X-31606Y129160D01*
X-31820Y128994D01*
X-31867Y128946D01*
X-31915Y128922D01*
X-32081Y128827D01*
X-32224Y128732D01*
X-32378Y128673D01*
X-32497Y128625D01*
X-32651Y128566D01*
X-32841Y128518D01*
X-33127Y128471D01*
X-33293Y128447D01*
X-33673Y128423D01*
X-37475Y128447D01*
X-37547Y128471D01*
X-37772Y128506D01*
X-37915Y128530D01*
X-38010Y128554D01*
X-38200Y128625D01*
X-38331Y128685D01*
X-38485Y128744D01*
X-38628Y128839D01*
X-38806Y128946D01*
X-38854Y128970D01*
X-38972Y129088D01*
X-39020Y129112D01*
X-39151Y129219D01*
X-39234Y129279D01*
X-39293Y129362D01*
X-39341Y129409D01*
X-39365Y129457D01*
X-39531Y129623D01*
X-39555Y129671D01*
X-39674Y129837D01*
X-39697Y129885D01*
X-39816Y130146D01*
X-39911Y130360D01*
X-39959Y130526D01*
X-39982Y130621D01*
X-40018Y130776D01*
X-40042Y130990D01*
X-40066Y131251D01*
X-40078Y134923D01*
X-40054Y134994D01*
X-40030Y135517D01*
X-40006Y135588D01*
X-39971Y135742D01*
X-39876Y136004D01*
X-39757Y136265D01*
X-39674Y136396D01*
X-39578Y136538D01*
X-39471Y136717D01*
X-39436Y136729D01*
X-39412Y136776D01*
X-39341Y136847D01*
X-39317Y136895D01*
X-39210Y137026D01*
X-39139Y137097D01*
X-39091Y137121D01*
X-39020Y137192D01*
X-38972Y137216D01*
X-38877Y137311D01*
X-38616Y137453D01*
X-38473Y137548D01*
X-38355Y137596D01*
X-38046Y137739D01*
X-37879Y137786D01*
X-37713Y137810D01*
X-37618Y137834D01*
X-37238Y137857D01*
X-33008Y137834D01*
D02*
G37*
%LPC*%
G36*
X37951Y141089D02*
X30952Y141077D01*
X30917Y141089D01*
X30845Y141065D01*
X30762Y141077D01*
X30501Y141053D01*
X30180Y141018D01*
X29645Y140935D01*
X29407Y140840D01*
X29277Y140804D01*
X29182Y140780D01*
X28493Y140424D01*
X28362Y140317D01*
X27934Y139984D01*
X27898Y139949D01*
X27851Y139925D01*
X27554Y139628D01*
X27530Y139580D01*
X27423Y139450D01*
X27293Y139319D01*
X27269Y139271D01*
X27102Y139010D01*
X27079Y138962D01*
X26817Y138416D01*
X26782Y138261D01*
X26758Y138166D01*
X26710Y138047D01*
X26651Y137893D01*
X26627Y137750D01*
Y137727D01*
X26603Y137632D01*
X26544Y137121D01*
X26520Y136479D01*
X26508Y136111D01*
X26532Y136039D01*
X26508Y135659D01*
X26532Y135208D01*
X26520Y129540D01*
X26544Y129136D01*
X26591Y128708D01*
X26639Y128399D01*
X26663Y128304D01*
X26722Y128174D01*
X26770Y128055D01*
X26817Y127865D01*
X26889Y127675D01*
X27007Y127508D01*
X27067Y127354D01*
X27352Y126926D01*
X27483Y126795D01*
X27506Y126748D01*
X27673Y126534D01*
X27780Y126403D01*
X27827Y126379D01*
X27875Y126332D01*
X27922Y126308D01*
X28089Y126142D01*
X28136Y126118D01*
X28207Y126047D01*
X28255Y126023D01*
X28303Y125976D01*
X28350Y125952D01*
X28588Y125785D01*
X28802Y125690D01*
X28849Y125667D01*
X29039Y125548D01*
X29134Y125524D01*
X29206Y125500D01*
X29301Y125476D01*
X29526Y125393D01*
X29681Y125334D01*
X29918Y125310D01*
X30204Y125263D01*
X30299Y125239D01*
X30738Y125203D01*
X38212Y125191D01*
X38283Y125215D01*
X38652Y125251D01*
X38960Y125298D01*
X39174Y125322D01*
X39269Y125346D01*
X39388Y125393D01*
X39543Y125453D01*
X39638Y125476D01*
X39864Y125560D01*
X40066Y125667D01*
X40374Y125833D01*
X40422Y125880D01*
X40541Y125952D01*
X40838Y126177D01*
X40921Y126237D01*
X41016Y126332D01*
X41064Y126356D01*
X41111Y126403D01*
X41159Y126427D01*
X41218Y126510D01*
X41325Y126641D01*
X41384Y126700D01*
X41456Y126819D01*
X41563Y126950D01*
X41622Y127009D01*
X41717Y127176D01*
X41836Y127342D01*
X42002Y127651D01*
X42074Y127817D01*
X42109Y127972D01*
X42181Y128162D01*
X42240Y128316D01*
X42287Y128506D01*
X42323Y128827D01*
X42347Y129017D01*
X42371Y129231D01*
X42382Y136942D01*
X42359Y137014D01*
X42335Y137394D01*
X42311Y137465D01*
X42276Y137786D01*
X42252Y137881D01*
X42181Y138071D01*
X42121Y138273D01*
X42097Y138368D01*
X42062Y138499D01*
X41884Y138843D01*
X41765Y139057D01*
X41670Y139200D01*
X41646Y139248D01*
X41539Y139378D01*
X41408Y139509D01*
X41384Y139556D01*
X41277Y139687D01*
X41242Y139723D01*
X41218Y139770D01*
X41111Y139877D01*
X41064Y139901D01*
X40921Y140044D01*
X40873Y140067D01*
X40826Y140115D01*
X40778Y140139D01*
X40731Y140186D01*
X40683Y140210D01*
X40588Y140305D01*
X40541Y140329D01*
X40410Y140436D01*
X40232Y140543D01*
X40077Y140602D01*
X39733Y140780D01*
X39578Y140816D01*
X39341Y140911D01*
X39234Y140947D01*
X39067Y140970D01*
X38663Y141018D01*
X38331Y141065D01*
X37951Y141089D01*
D02*
G37*
%LPD*%
G36*
X36762Y137834D02*
X36834Y137810D01*
X37036Y137774D01*
X37226Y137703D01*
X37499Y137572D01*
X37713Y137453D01*
X37761Y137406D01*
X38022Y137263D01*
X38093Y137192D01*
X38141Y137168D01*
X38236Y137073D01*
X38283Y137049D01*
X38366Y136966D01*
X38390Y136919D01*
X38438Y136871D01*
X38461Y136824D01*
X38509Y136776D01*
X38533Y136729D01*
X38652Y136610D01*
X38770Y136396D01*
X38818Y136348D01*
X38913Y136135D01*
X39008Y135897D01*
X39103Y135588D01*
X39151Y135255D01*
X39174Y134804D01*
X39151Y131002D01*
X39127Y130930D01*
X39103Y130693D01*
X39079Y130621D01*
X39020Y130467D01*
X38925Y130205D01*
X38854Y130015D01*
X38711Y129778D01*
X38592Y129588D01*
X38438Y129433D01*
X38414Y129386D01*
X38188Y129160D01*
X38141Y129136D01*
X38010Y129029D01*
X37974Y128994D01*
X37927Y128970D01*
X37784Y128875D01*
X37737Y128851D01*
X37594Y128756D01*
X37475Y128708D01*
X37321Y128649D01*
X37071Y128542D01*
X36905Y128518D01*
X36810Y128494D01*
X36406Y128447D01*
X36097Y128423D01*
X32319Y128447D01*
X32247Y128471D01*
X32045Y128506D01*
X31903Y128530D01*
X31808Y128554D01*
X31618Y128625D01*
X31463Y128685D01*
X31107Y128875D01*
X30881Y129029D01*
X30798Y129112D01*
X30750Y129136D01*
X30548Y129291D01*
X30524Y129338D01*
X30453Y129409D01*
X30429Y129457D01*
X30263Y129623D01*
X30239Y129671D01*
X30085Y129896D01*
X29895Y130324D01*
X29811Y130597D01*
X29788Y130693D01*
X29764Y130859D01*
X29728Y131227D01*
X29716Y135065D01*
X29740Y135136D01*
X29776Y135528D01*
X29800Y135647D01*
X29823Y135742D01*
X29918Y136004D01*
X29978Y136135D01*
X30144Y136443D01*
X30263Y136610D01*
Y136634D01*
X30275Y136645D01*
X30382Y136752D01*
X30406Y136800D01*
X30453Y136847D01*
X30477Y136895D01*
X30524Y136942D01*
X30548Y136990D01*
X30631Y137073D01*
X30679Y137097D01*
X30750Y137168D01*
X30798Y137192D01*
X30917Y137311D01*
X31226Y137477D01*
X31368Y137572D01*
X31523Y137632D01*
X31820Y137762D01*
X31915Y137786D01*
X32200Y137834D01*
X32509Y137857D01*
X36762Y137834D01*
D02*
G37*
%LPC*%
G36*
X2614Y101380D02*
X2139Y101356D01*
X2067Y101333D01*
X1842Y101249D01*
X1592Y101142D01*
X1461Y101107D01*
X1343Y101083D01*
X1224Y101035D01*
X950Y100905D01*
X856Y100881D01*
X689Y100834D01*
X392Y100727D01*
X143Y100620D01*
X-95Y100525D01*
X-261Y100453D01*
X-416Y100418D01*
X-511Y100394D01*
X-760Y100263D01*
X-927Y100216D01*
X-1105Y100180D01*
X-1224Y100133D01*
X-1497Y100002D01*
X-1664Y99954D01*
X-1818Y99919D01*
X-2091Y99788D01*
X-2210Y99740D01*
X-2305Y99717D01*
X-2424Y99669D01*
X-2792Y99538D01*
X-2923Y99479D01*
X-3018Y99455D01*
X-3137Y99408D01*
X-3351Y99313D01*
X-3541Y99265D01*
X-3767Y99182D01*
X-4064Y99051D01*
X-4242Y99016D01*
X-4396Y98956D01*
X-4444Y98909D01*
X-4610Y98837D01*
X-4765Y98802D01*
X-4884Y98778D01*
X-5157Y98647D01*
X-5323Y98552D01*
X-5383Y98493D01*
X-5454Y98326D01*
X-5477Y98231D01*
X-5442Y98101D01*
X-5406Y98018D01*
X-5299Y97887D01*
X-5133Y97768D01*
X-5085Y97744D01*
X-4301Y97364D01*
X-4087Y97269D01*
X-3755Y97150D01*
X-3541Y97055D01*
X-3137Y96984D01*
X-2970Y96960D01*
X-2733Y96984D01*
X-2531Y97020D01*
X-2412Y97067D01*
X-2376Y97103D01*
X-2329Y97126D01*
X-2163Y97221D01*
X-1925Y97388D01*
X-1759Y97483D01*
X-1640Y97602D01*
X-1426Y97720D01*
X-1093Y97958D01*
X-1046Y97982D01*
X-998Y98029D01*
X-951Y98053D01*
X-808Y98148D01*
X-760Y98172D01*
X-665Y98267D01*
X-404Y98410D01*
X-273Y98517D01*
X-238Y98552D01*
X-119Y98624D01*
X-24Y98719D01*
X238Y98861D01*
X309Y98932D01*
X356Y98956D01*
X475Y99004D01*
X618Y98980D01*
X654Y98944D01*
X630Y98754D01*
X535Y98612D01*
X511Y98564D01*
X416Y98469D01*
X392Y98421D01*
X345Y98374D01*
X321Y98326D01*
X-12Y97899D01*
X-59Y97851D01*
X-83Y97804D01*
X-249Y97590D01*
X-475Y97293D01*
X-535Y97233D01*
X-558Y97186D01*
X-725Y96972D01*
X-879Y96746D01*
X-1010Y96615D01*
X-1153Y96307D01*
X-1176Y96212D01*
X-1153Y95855D01*
X-962Y95499D01*
X-879Y95415D01*
X-832Y95392D01*
X-820Y95380D01*
X-808Y95368D01*
X-760Y95320D01*
X-713Y95297D01*
X-665Y95249D01*
X-618Y95225D01*
X-570Y95178D01*
X-523Y95154D01*
X-356Y95035D01*
X-59Y94809D01*
X0Y94750D01*
X261Y94607D01*
X309Y94560D01*
X356Y94536D01*
X452Y94441D01*
X499Y94417D01*
X962Y94073D01*
X1331Y93871D01*
X1426Y93847D01*
X1545Y93823D01*
X1616Y93847D01*
X1759Y93871D01*
X1806Y93918D01*
X1854Y93942D01*
X2056Y94144D01*
X2079Y94192D01*
X2174Y94334D01*
X2210Y94465D01*
X2234Y94560D01*
X2257Y94679D01*
X2305Y95106D01*
X2329Y95225D01*
X2353Y95415D01*
X2376Y95653D01*
X2400Y95914D01*
X2448Y96461D01*
X2471Y96580D01*
X2543Y96865D01*
X2567Y97008D01*
X2590Y97269D01*
X2638Y97887D01*
X2661Y98077D01*
X2757Y98719D01*
X2804Y98956D01*
X2840Y99277D01*
X2864Y99443D01*
X2899Y100073D01*
X2923Y100263D01*
X2947Y100382D01*
X2994Y100572D01*
X3030Y100869D01*
X3006Y100940D01*
X2816Y101297D01*
X2780Y101333D01*
X2614Y101380D01*
D02*
G37*
G36*
X29514Y77688D02*
X29491D01*
X20544Y77676D01*
X20294Y77688D01*
X20211Y77604D01*
X20164Y77438D01*
X20187Y68218D01*
X20247Y68135D01*
X20366Y68087D01*
X20663Y68099D01*
X29514Y68087D01*
X29681Y68206D01*
X29716Y68242D01*
X29740Y68408D01*
X29716Y77533D01*
X29633Y77640D01*
X29514Y77688D01*
D02*
G37*
%LPD*%
G36*
X25308Y74408D02*
X25665Y74385D01*
X25736Y74361D01*
X25902Y74266D01*
X26116Y74099D01*
X26271Y73945D01*
X26413Y73636D01*
X26449Y73505D01*
X26473Y73386D01*
X26497Y73196D01*
X26508Y72590D01*
Y72567D01*
X26485Y72400D01*
X26390Y72186D01*
X26295Y71925D01*
X26188Y71794D01*
X26152Y71759D01*
X26140Y71723D01*
X26104Y71711D01*
X26081Y71664D01*
X25998Y71604D01*
X25760Y71438D01*
X25594Y71390D01*
X25427Y71367D01*
X25118Y71343D01*
X24358Y71367D01*
X24286Y71390D01*
X24156Y71426D01*
X24037Y71473D01*
X23977Y71533D01*
X23930Y71557D01*
X23799Y71664D01*
X23728Y71711D01*
X23704Y71759D01*
X23657Y71806D01*
X23633Y71854D01*
X23538Y71996D01*
X23443Y72210D01*
X23407Y72365D01*
X23395Y73493D01*
X23419Y73565D01*
X23455Y73695D01*
X23514Y73779D01*
X23716Y74076D01*
X23835Y74194D01*
X23883Y74218D01*
X23930Y74266D01*
X23977Y74289D01*
X24144Y74361D01*
X24298Y74396D01*
X24536Y74420D01*
X25237Y74432D01*
X25308Y74408D01*
D02*
G37*
%LPC*%
G36*
X-38949Y71343D02*
X-39020Y71319D01*
X-39376Y71295D01*
X-39448Y71272D01*
X-39745Y71236D01*
X-40066Y71200D01*
X-40161Y71176D01*
X-40398Y71081D01*
X-40565Y71034D01*
X-40719Y70974D01*
X-41087Y70773D01*
X-41182Y70749D01*
X-41349Y70654D01*
X-41539Y70464D01*
X-41586Y70440D01*
X-41658Y70368D01*
X-41705Y70345D01*
X-41872Y70226D01*
X-41943Y70155D01*
X-41990Y70131D01*
X-42121Y70000D01*
X-42145Y69953D01*
X-42288Y69810D01*
X-42311Y69763D01*
X-42418Y69632D01*
X-42501Y69549D01*
X-42525Y69501D01*
X-42763Y69121D01*
X-42977Y68669D01*
X-43012Y68515D01*
X-43036Y68420D01*
X-43107Y68230D01*
X-43143Y68123D01*
X-43167Y68028D01*
X-43190Y67790D01*
X-43214Y67695D01*
X-43250Y67398D01*
X-43285Y66697D01*
X-43274Y61077D01*
X-43285Y59710D01*
X-43262Y59639D01*
X-43238Y59164D01*
X-43214Y59093D01*
X-43190Y58831D01*
X-43167Y58760D01*
X-43131Y58534D01*
X-43072Y58404D01*
X-43024Y58285D01*
X-42989Y58154D01*
X-42965Y58059D01*
X-42917Y57940D01*
X-42822Y57797D01*
X-42680Y57512D01*
X-42501Y57263D01*
X-42478Y57215D01*
X-42382Y57120D01*
X-42359Y57073D01*
X-42311Y57025D01*
X-42240Y56906D01*
X-42133Y56776D01*
X-41943Y56585D01*
X-41895Y56562D01*
X-41705Y56372D01*
X-41658Y56348D01*
X-41610Y56300D01*
X-41563Y56277D01*
X-41491Y56205D01*
X-41444Y56182D01*
X-41277Y56087D01*
X-41087Y55968D01*
X-40588Y55730D01*
X-40434Y55694D01*
X-40339Y55671D01*
X-40220Y55623D01*
X-40089Y55588D01*
X-39923Y55564D01*
X-39519Y55492D01*
X-39424Y55469D01*
X-38782Y55421D01*
X-38081Y55433D01*
X-37832Y55421D01*
X-37761Y55445D01*
X-35218D01*
X-32069Y55433D01*
X-31867Y55445D01*
X-31796Y55421D01*
X-31630Y55445D01*
X-31226Y55469D01*
X-31154Y55492D01*
X-30952Y55528D01*
X-30833Y55552D01*
X-30572Y55599D01*
X-30477Y55623D01*
X-30275Y55683D01*
X-30085Y55730D01*
X-29443Y56063D01*
X-29217Y56217D01*
X-29134Y56277D01*
X-29087Y56324D01*
X-29039Y56348D01*
X-28992Y56396D01*
X-28944Y56419D01*
X-28825Y56538D01*
X-28778Y56562D01*
X-28730Y56609D01*
X-28683Y56633D01*
X-28623Y56693D01*
X-28600Y56740D01*
X-28481Y56859D01*
X-28457Y56906D01*
X-28410Y56954D01*
X-28386Y57001D01*
X-28279Y57132D01*
X-28219Y57215D01*
X-28172Y57263D01*
X-28148Y57310D01*
X-28029Y57477D01*
X-28005Y57524D01*
X-27839Y57833D01*
X-27792Y57881D01*
X-27744Y58000D01*
X-27697Y58190D01*
X-27613Y58415D01*
X-27554Y58570D01*
X-27530Y58665D01*
X-27495Y58938D01*
X-27471Y59128D01*
X-27447Y59342D01*
X-27423Y59604D01*
X-27411Y67148D01*
X-27435Y67220D01*
X-27471Y67588D01*
X-27518Y67968D01*
X-27542Y68087D01*
X-27566Y68182D01*
X-27649Y68384D01*
X-27685Y68539D01*
X-27708Y68657D01*
X-27756Y68776D01*
X-27958Y69145D01*
X-28053Y69311D01*
X-28172Y69501D01*
X-28196Y69549D01*
X-28314Y69668D01*
X-28338Y69715D01*
X-28386Y69763D01*
X-28410Y69810D01*
X-28600Y70000D01*
X-28623Y70048D01*
X-28683Y70107D01*
X-28730Y70131D01*
X-28873Y70273D01*
X-28920Y70297D01*
X-29134Y70464D01*
X-29182Y70511D01*
X-29229Y70535D01*
X-29348Y70654D01*
X-29396Y70677D01*
X-30132Y71034D01*
X-30263Y71069D01*
X-30501Y71165D01*
X-30619Y71188D01*
X-30810Y71212D01*
X-30952Y71236D01*
X-31142Y71260D01*
X-31451Y71307D01*
X-38818Y71331D01*
X-38949Y71343D01*
D02*
G37*
%LPD*%
G36*
X-33127Y68087D02*
X-33055Y68063D01*
X-32758Y68004D01*
X-32532Y67921D01*
X-32034Y67659D01*
X-31867Y67564D01*
X-31736Y67457D01*
X-31701Y67422D01*
X-31653Y67398D01*
X-31582Y67327D01*
X-31534Y67303D01*
X-31404Y67172D01*
X-31380Y67125D01*
X-31261Y67006D01*
X-31237Y66958D01*
X-31190Y66911D01*
X-31166Y66863D01*
X-31012Y66638D01*
X-30976Y66602D01*
X-30905Y66436D01*
X-30845Y66281D01*
X-30738Y66032D01*
X-30715Y65937D01*
X-30691Y65770D01*
X-30667Y65675D01*
X-30643Y65437D01*
X-30619Y65129D01*
X-30643Y61208D01*
X-30667Y61136D01*
X-30691Y60899D01*
X-30715Y60827D01*
X-30750Y60697D01*
X-30821Y60507D01*
X-30928Y60257D01*
X-31047Y60043D01*
X-31166Y59877D01*
X-31190Y59829D01*
X-31380Y59639D01*
X-31404Y59592D01*
X-31511Y59461D01*
X-31677Y59342D01*
X-31725Y59318D01*
X-31772Y59271D01*
X-31820Y59247D01*
X-31891Y59176D01*
X-31938Y59152D01*
X-32105Y59033D01*
X-32152Y59009D01*
X-32366Y58914D01*
X-32818Y58772D01*
X-32948Y58736D01*
X-33091Y58712D01*
X-33210Y58689D01*
X-33400Y58665D01*
X-37285Y58653D01*
X-37357Y58677D01*
X-37594Y58700D01*
X-37665Y58724D01*
X-37820Y58760D01*
X-38010Y58808D01*
X-38271Y58903D01*
X-38461Y58974D01*
X-38806Y59176D01*
X-38925Y59295D01*
X-38972Y59318D01*
X-39269Y59544D01*
X-39293Y59592D01*
X-39400Y59722D01*
X-39531Y59853D01*
X-39555Y59901D01*
X-39721Y60162D01*
X-39816Y60400D01*
X-39935Y60661D01*
X-39982Y60851D01*
X-40018Y61006D01*
X-40042Y61220D01*
X-40066Y61552D01*
X-40078Y65200D01*
X-40054Y65271D01*
X-40030Y65723D01*
X-40006Y65794D01*
X-39947Y66044D01*
X-39899Y66162D01*
X-39864Y66245D01*
X-39769Y66483D01*
X-39697Y66602D01*
X-39650Y66649D01*
X-39626Y66697D01*
X-39531Y66863D01*
X-39424Y66994D01*
X-39388Y67030D01*
X-39365Y67077D01*
X-39246Y67196D01*
X-39222Y67244D01*
X-39186Y67279D01*
X-39139Y67303D01*
X-38996Y67446D01*
X-38949Y67469D01*
X-38901Y67517D01*
X-38854Y67541D01*
X-38580Y67719D01*
X-38568Y67731D01*
X-38450Y67778D01*
X-38046Y67968D01*
X-37879Y68016D01*
X-37594Y68063D01*
X-37499Y68087D01*
X-36976Y68111D01*
X-33127Y68087D01*
D02*
G37*
%LPC*%
G36*
X-73815Y42247D02*
X-74195Y42209D01*
X-74309Y42171D01*
X-74518Y42114D01*
X-74708Y42038D01*
X-75164Y41582D01*
X-75202Y41506D01*
X-75468Y40936D01*
X-75487Y40613D01*
X-75411Y40195D01*
X-75335Y40005D01*
X-75069Y39586D01*
X-74860Y39415D01*
X-74689Y39244D01*
X-74499Y39168D01*
X-74043Y39054D01*
X-73473Y39092D01*
X-73359Y39130D01*
X-73112Y39225D01*
X-72884Y39377D01*
X-72694Y39567D01*
X-72656Y39643D01*
X-72542Y39757D01*
X-72504Y39833D01*
X-72428Y39909D01*
X-72352Y40100D01*
X-72314Y40251D01*
X-72276Y40632D01*
X-72314Y41126D01*
X-72352Y41164D01*
Y41202D01*
X-72504Y41468D01*
X-72580Y41544D01*
X-72618Y41620D01*
X-72789Y41829D01*
X-72941Y41981D01*
X-73283Y42133D01*
X-73549Y42209D01*
X-73815Y42247D01*
D02*
G37*
G36*
X38732Y44414D02*
X38656D01*
X37516Y44376D01*
X37307Y44205D01*
X37269Y44053D01*
X37307Y42000D01*
X37440Y41791D01*
X37630Y41715D01*
X38808Y41753D01*
X39226Y41981D01*
X39435Y42152D01*
X39549Y42266D01*
X39663Y42532D01*
X39701Y42684D01*
X39739Y43330D01*
X39701Y43444D01*
X39644Y43729D01*
X39511Y43938D01*
X39150Y44300D01*
X38998Y44338D01*
X38884Y44376D01*
X38732Y44414D01*
D02*
G37*
G36*
X38884Y40347D02*
X37516Y40308D01*
X37345Y40175D01*
X37269Y39909D01*
X37307Y37705D01*
X37478Y37496D01*
X37744Y37458D01*
X38960Y37496D01*
X39454Y37762D01*
X39663Y37971D01*
X39739Y38161D01*
X39815Y38465D01*
X39853Y38959D01*
X39796Y39358D01*
X39720Y39776D01*
X39625Y39909D01*
X39340Y40195D01*
X39207Y40251D01*
X39188Y40271D01*
X38884Y40347D01*
D02*
G37*
G36*
X-11441Y42969D02*
X-11631Y42931D01*
X-11726Y42722D01*
X-11821Y42133D01*
X-11992Y41582D01*
Y41544D01*
X-12011Y41525D01*
X-12125Y41069D01*
X-12163Y40879D01*
X-12239Y40461D01*
X-12410Y40023D01*
X-12448Y39871D01*
X-12410Y39719D01*
X-12315Y39624D01*
X-12049Y39586D01*
X-10681Y39624D01*
X-10586Y39719D01*
X-10548Y39871D01*
X-10681Y40536D01*
X-10719Y40765D01*
X-10833Y41069D01*
X-10966Y41506D01*
X-11004Y41658D01*
X-11061Y41981D01*
X-11118Y42190D01*
X-11194Y42456D01*
X-11232Y42608D01*
X-11327Y42855D01*
X-11441Y42969D01*
D02*
G37*
G36*
X-38200Y44414D02*
X-38580Y44376D01*
X-38751Y44243D01*
X-38827Y43938D01*
X-38789Y43824D01*
X-38827Y43178D01*
X-38789Y43064D01*
X-38827Y42456D01*
X-38789Y41886D01*
X-38827Y41772D01*
X-38789Y41468D01*
X-38656Y41335D01*
X-38390Y41259D01*
X-37288Y41297D01*
X-37174Y41335D01*
X-36869Y41449D01*
X-36660Y41620D01*
X-36546Y41810D01*
X-36318Y42342D01*
X-36356Y43520D01*
X-36622Y44015D01*
X-36660Y44053D01*
X-36679Y44071D01*
X-36831Y44224D01*
X-37097Y44338D01*
X-37250Y44376D01*
X-38029Y44395D01*
X-38086Y44376D01*
X-38200Y44414D01*
D02*
G37*
G36*
X-46581Y44395D02*
X-46771Y44319D01*
X-46885Y44205D01*
X-46923Y44053D01*
X-46942Y41221D01*
X-46923Y40290D01*
X-46961Y40251D01*
X-46923Y40213D01*
X-46961Y40100D01*
X-46923Y39263D01*
X-46942Y38522D01*
X-46904Y37800D01*
X-46828Y37610D01*
X-46752Y37534D01*
X-46562Y37458D01*
X-45935Y37515D01*
X-45745Y37553D01*
X-45593Y37591D01*
X-45384Y37648D01*
X-45137Y37743D01*
X-45004Y37838D01*
X-44947Y37895D01*
X-44908Y37971D01*
X-44643Y38237D01*
X-44566Y38503D01*
X-44548Y38522D01*
X-44490Y38731D01*
X-44414Y38997D01*
X-44376Y39149D01*
X-44338Y39415D01*
X-44300Y39567D01*
X-44262Y40290D01*
X-44300Y42418D01*
X-44338Y42532D01*
X-44395Y42817D01*
X-44433Y42969D01*
X-44471Y43159D01*
X-44510Y43311D01*
X-44623Y43615D01*
X-44681Y43748D01*
X-44928Y43995D01*
X-45004Y44033D01*
X-45156Y44186D01*
X-45346Y44262D01*
X-45650Y44338D01*
X-45916Y44376D01*
X-46581Y44395D01*
D02*
G37*
G36*
X-29077Y44528D02*
X-29610Y44490D01*
X-29800Y44414D01*
X-30066Y44262D01*
X-30275Y44091D01*
X-30427Y43862D01*
X-30465Y43786D01*
X-30655Y43482D01*
X-30712Y43235D01*
X-30769Y42722D01*
X-30826Y42247D01*
X-30845Y40479D01*
Y40442D01*
X-30807Y39263D01*
X-30769Y39149D01*
X-30712Y38598D01*
X-30674Y38446D01*
X-30598Y38256D01*
X-30503Y38123D01*
X-30427Y38047D01*
X-30389Y37971D01*
X-30275Y37857D01*
X-30237Y37781D01*
X-30180Y37724D01*
X-30104Y37686D01*
X-29914Y37496D01*
X-29724Y37420D01*
X-29572Y37382D01*
X-29172Y37363D01*
X-28754Y37401D01*
X-28564Y37477D01*
X-28260Y37667D01*
X-28070Y37857D01*
X-28032Y37933D01*
X-27880Y38085D01*
X-27842Y38161D01*
X-27766Y38351D01*
X-27728Y38503D01*
X-27671Y38712D01*
X-27595Y38902D01*
X-27538Y39111D01*
X-27500Y39948D01*
X-27481Y41183D01*
X-27519Y42475D01*
X-27557Y42703D01*
X-27595Y42855D01*
X-27690Y43178D01*
X-27766Y43482D01*
X-27899Y43843D01*
X-28013Y43958D01*
X-28070Y43976D01*
X-28108Y44053D01*
X-28222Y44166D01*
X-28241Y44224D01*
X-28317Y44262D01*
X-28811Y44490D01*
X-29077Y44528D01*
D02*
G37*
%LPD*%
D23*
X123750Y37000D02*
G03*
X123750Y37000I-7750J0D01*
G01*
D24*
X27250Y-121950D02*
D03*
Y-160050D02*
D03*
Y-147350D02*
D03*
Y-134650D02*
D03*
X-27250Y-160050D02*
D03*
Y-147350D02*
D03*
Y-134650D02*
D03*
D25*
X111350Y-153800D02*
D03*
X85950D02*
D03*
X98650D02*
D03*
X124050D02*
D03*
Y-102200D02*
D03*
X111350D02*
D03*
X98650D02*
D03*
X85950D02*
D03*
D26*
X-58750Y-169500D02*
D03*
X-81610Y-159975D02*
D03*
X-58750Y-150450D02*
D03*
D27*
X-131450Y-185000D02*
D03*
Y-194500D02*
D03*
Y-175500D02*
D03*
X-108550Y-194500D02*
D03*
Y-175500D02*
D03*
D28*
X-27250Y-121950D02*
D03*
D29*
X80000Y-50000D02*
D03*
Y-11500D02*
D03*
Y-37250D02*
D03*
Y-24250D02*
D03*
X-80000Y-50000D02*
D03*
Y-11500D02*
D03*
Y-37250D02*
D03*
Y-24250D02*
D03*
X-219000Y-20250D02*
D03*
Y5500D02*
D03*
Y-33000D02*
D03*
Y-7250D02*
D03*
D30*
X-15000Y-1000D02*
D03*
X-96000Y139000D02*
D03*
X66000D02*
D03*
X25400Y-185000D02*
D03*
X0D02*
D03*
X-25400D02*
D03*
D31*
X-75000Y95000D02*
D03*
X250000Y-15000D02*
D03*
X185000D02*
D03*
D32*
X125000Y95000D02*
D03*
D33*
X172750Y-104600D02*
D03*
X-90000Y-101900D02*
D03*
X172750Y-28400D02*
D03*
X46500Y-154400D02*
D03*
Y-230600D02*
D03*
X-90000Y-178100D02*
D03*
X-125000Y-140000D02*
D03*
Y-216200D02*
D03*
D34*
X55000Y-70000D02*
D03*
X-182500Y-87250D02*
D03*
X-55000Y-70000D02*
D03*
X-152000Y-201750D02*
D03*
X-24000Y-100000D02*
D03*
X200500Y-89250D02*
D03*
X145000Y-103000D02*
D03*
X65000D02*
D03*
X-105000Y-220000D02*
D03*
D35*
X145000Y-153000D02*
D03*
X65000D02*
D03*
X-152000Y-151750D02*
D03*
X-182500Y-37250D02*
D03*
X200500Y-39250D02*
D03*
D36*
X-55000Y-220000D02*
D03*
X26000Y-100000D02*
D03*
X-105000Y-70000D02*
D03*
X105000D02*
D03*
D37*
X159000Y-180500D02*
D03*
X85000D02*
D03*
X159000Y-228000D02*
D03*
X85000D02*
D03*
D38*
X106000Y-171500D02*
D03*
X138000D02*
D03*
X130000Y-183500D02*
D03*
X122000Y-171500D02*
D03*
X114000Y-183500D02*
D03*
D39*
X-165000Y-225000D02*
D03*
D40*
X-190400D02*
D03*
M02*
