G04*
G04 #@! TF.GenerationSoftware,Altium Limited,Altium Designer,25.5.2 (35)*
G04*
G04 Layer_Color=16776960*
%FSLAX44Y44*%
%MOMM*%
G71*
G04*
G04 #@! TF.SameCoordinates,B6E77A7C-BDCE-411E-9E10-EA7D0F22C657*
G04*
G04*
G04 #@! TF.FilePolarity,Positive*
G04*
G01*
G75*
%ADD11C,0.2000*%
%ADD14C,0.1500*%
%ADD16C,0.2540*%
D11*
X141000Y87000D02*
G03*
X141000Y103000I0J8000D01*
G01*
Y120000D02*
G03*
X133000Y128000I-8000J0D01*
G01*
X94120Y127998D02*
G03*
X94119Y61999I-109120J-32998D01*
G01*
X133000Y62000D02*
G03*
X141000Y70000I0J8000D01*
G01*
X94120Y62000D02*
X133000D01*
X94121Y128000D02*
X133000D01*
X141000Y70000D02*
Y87000D01*
X213500Y-84250D02*
Y-44250D01*
X210250D02*
X213500D01*
X141000Y103000D02*
Y120000D01*
X187500Y-44250D02*
X190750D01*
X84182Y-57000D02*
X100000D01*
X60000D02*
X75818D01*
X60000Y-83000D02*
Y-79750D01*
Y-60250D02*
Y-57000D01*
X100000Y-60250D02*
Y-57000D01*
Y-83000D02*
Y-79750D01*
X210250Y-84250D02*
X213500D01*
X187500D02*
X190750D01*
X187500D02*
Y-44250D01*
X60000Y-83000D02*
X100000D01*
X-100000Y-210250D02*
Y-207000D01*
Y-233000D02*
X-60000D01*
X-100000Y-207000D02*
X-60000D01*
X-195500Y-82250D02*
X-192250D01*
X-195500Y-42250D02*
X-192250D01*
X-169500Y-82250D02*
Y-42250D01*
X-172750D02*
X-169500D01*
X-100000Y-233000D02*
Y-229750D01*
X-60000Y-210250D02*
Y-207000D01*
X-195500Y-82250D02*
Y-42250D01*
X-172750Y-82250D02*
X-169500D01*
X-60000Y-233000D02*
Y-229750D01*
X-165000Y-156750D02*
X-161750D01*
X-165000Y-196750D02*
X-161750D01*
X-139000D02*
Y-156750D01*
X-142250D02*
X-139000D01*
X-142250Y-196750D02*
X-139000D01*
X-165000D02*
Y-156750D01*
X-100000Y-60250D02*
Y-57000D01*
Y-83000D02*
Y-79750D01*
X52000Y-148000D02*
X55250D01*
X52000Y-108000D02*
X55250D01*
X78000Y-148000D02*
Y-108000D01*
X74750Y-148000D02*
X78000D01*
X52000D02*
Y-108000D01*
X132000Y-148000D02*
Y-108000D01*
X158000Y-148000D02*
Y-108000D01*
X154750Y-148000D02*
X158000D01*
X132000D02*
X135250D01*
X74750Y-108000D02*
X78000D01*
X154750D02*
X158000D01*
X132000D02*
X135250D01*
X-100000Y-83000D02*
X-60000D01*
Y-60250D02*
Y-57000D01*
X-76674D02*
X-60000D01*
Y-83000D02*
Y-79750D01*
X-100000Y-57000D02*
X-83326D01*
X21000Y-90250D02*
Y-87000D01*
X-19000D02*
X21000D01*
X-19000Y-90250D02*
Y-87000D01*
Y-113000D02*
X21000D01*
Y-109750D01*
X-19000Y-113000D02*
Y-109750D01*
X58731Y-25271D02*
Y-35268D01*
X53733D01*
X52067Y-33602D01*
Y-26937D01*
X53733Y-25271D01*
X58731D01*
X43736Y-35268D02*
X47069D01*
X48735Y-33602D01*
Y-30270D01*
X47069Y-28603D01*
X43736D01*
X42070Y-30270D01*
Y-31936D01*
X48735D01*
X38738Y-28603D02*
X35406Y-35268D01*
X32073Y-28603D01*
X23743Y-35268D02*
X27075D01*
X28741Y-33602D01*
Y-30270D01*
X27075Y-28603D01*
X23743D01*
X22077Y-30270D01*
Y-31936D01*
X28741D01*
X18744Y-35268D02*
X15412D01*
X17078D01*
Y-25271D01*
X18744D01*
X8748Y-35268D02*
X5415D01*
X3749Y-33602D01*
Y-30270D01*
X5415Y-28603D01*
X8748D01*
X10414Y-30270D01*
Y-33602D01*
X8748Y-35268D01*
X417Y-38600D02*
Y-28603D01*
X-4581D01*
X-6248Y-30270D01*
Y-33602D01*
X-4581Y-35268D01*
X417D01*
X-14578D02*
X-11246D01*
X-9580Y-33602D01*
Y-30270D01*
X-11246Y-28603D01*
X-14578D01*
X-16244Y-30270D01*
Y-31936D01*
X-9580D01*
X-26241Y-25271D02*
Y-35268D01*
X-21243D01*
X-19577Y-33602D01*
Y-30270D01*
X-21243Y-28603D01*
X-26241D01*
X-39570Y-25271D02*
Y-35268D01*
X-44569D01*
X-46235Y-33602D01*
Y-31936D01*
Y-30270D01*
X-44569Y-28603D01*
X-39570D01*
X-49567D02*
Y-33602D01*
X-51233Y-35268D01*
X-56231D01*
Y-36934D01*
X-54565Y-38600D01*
X-52899D01*
X-56231Y-35268D02*
Y-28603D01*
X42070Y-55396D02*
Y-48732D01*
X38738Y-45400D01*
X35406Y-48732D01*
Y-55396D01*
Y-50398D01*
X42070D01*
X32073Y-55396D02*
Y-48732D01*
X27075D01*
X25409Y-50398D01*
Y-55396D01*
X15412Y-45400D02*
Y-55396D01*
X20410D01*
X22077Y-53730D01*
Y-50398D01*
X20410Y-48732D01*
X15412D01*
X12080D02*
Y-55396D01*
Y-52064D01*
X10414Y-50398D01*
X8748Y-48732D01*
X7082D01*
X-2915Y-55396D02*
X417D01*
X2083Y-53730D01*
Y-50398D01*
X417Y-48732D01*
X-2915D01*
X-4581Y-50398D01*
Y-52064D01*
X2083D01*
X-7914Y-48732D02*
Y-53730D01*
X-9580Y-55396D01*
X-14578D01*
Y-57063D01*
X-12912Y-58729D01*
X-11246D01*
X-14578Y-55396D02*
Y-48732D01*
X-27907Y-55396D02*
Y-48732D01*
X-31240Y-45400D01*
X-34572Y-48732D01*
Y-55396D01*
Y-50398D01*
X-27907D01*
X-37904Y-55396D02*
Y-53730D01*
X-39570D01*
Y-55396D01*
X-37904D01*
X-721Y-168827D02*
X7151Y-162666D01*
X4071Y-158730D01*
X1732Y-158444D01*
X-892Y-160498D01*
X-1178Y-162837D01*
X1903Y-166773D01*
X-6882Y-160955D02*
X-1634Y-156847D01*
X-1064Y-152169D01*
X-5742Y-151599D01*
X-10990Y-155707D01*
X-7054Y-152626D01*
X-2946Y-157874D01*
X-5171Y-146921D02*
X-9279Y-141673D01*
X-10591Y-142700D01*
X-11732Y-152056D01*
X-13044Y-153082D01*
X25982Y-158694D02*
X28321Y-158980D01*
X30374Y-161604D01*
X30089Y-163943D01*
X24841Y-168050D01*
X22502Y-167765D01*
X20448Y-165141D01*
X20733Y-162802D01*
X23358Y-160748D01*
X25411Y-163372D01*
X17368Y-161205D02*
X25240Y-155043D01*
X13260Y-155957D01*
X21132Y-149795D01*
X19079Y-147171D02*
X11206Y-153332D01*
X8126Y-149396D01*
X8411Y-147057D01*
X13659Y-142950D01*
X15998Y-143235D01*
X19079Y-147171D01*
X-26471Y-169077D02*
X-18599Y-162916D01*
X-21679Y-158980D01*
X-24018Y-158694D01*
X-26642Y-160748D01*
X-26928Y-163087D01*
X-23847Y-167023D01*
X-32632Y-161205D02*
X-27384Y-157097D01*
X-26814Y-152419D01*
X-31492Y-151849D01*
X-36740Y-155957D01*
X-32804Y-152876D01*
X-28696Y-158124D01*
X-35029Y-141923D02*
X-34287Y-145574D01*
X-34858Y-150252D01*
X-37482Y-152305D01*
X-39821Y-152020D01*
X-41874Y-149396D01*
X-41589Y-147057D01*
X-40277Y-146030D01*
X-37938Y-146316D01*
X-34858Y-150252D01*
X106666Y-41668D02*
X108332Y-40002D01*
X111664D01*
X113331Y-41668D01*
Y-48332D01*
X111664Y-49998D01*
X108332D01*
X106666Y-48332D01*
X103334D02*
X101668Y-49998D01*
X98336D01*
X96669Y-48332D01*
Y-41668D01*
X98336Y-40002D01*
X101668D01*
X103334Y-41668D01*
Y-43334D01*
X101668Y-45000D01*
X96669D01*
X-102084Y-41168D02*
X-100418Y-39502D01*
X-97086D01*
X-95419Y-41168D01*
Y-47832D01*
X-97086Y-49498D01*
X-100418D01*
X-102084Y-47832D01*
X-105416Y-41168D02*
X-107082Y-39502D01*
X-110414D01*
X-112081Y-41168D01*
Y-42834D01*
X-110414Y-44500D01*
X-112081Y-46166D01*
Y-47832D01*
X-110414Y-49498D01*
X-107082D01*
X-105416Y-47832D01*
Y-46166D01*
X-107082Y-44500D01*
X-105416Y-42834D01*
Y-41168D01*
X-107082Y-44500D02*
X-110414D01*
X-182084Y-17668D02*
X-180418Y-16002D01*
X-177085D01*
X-175419Y-17668D01*
Y-24332D01*
X-177085Y-25998D01*
X-180418D01*
X-182084Y-24332D01*
X-185416Y-16002D02*
X-192081D01*
Y-17668D01*
X-185416Y-24332D01*
Y-25998D01*
X-150334Y-133418D02*
X-148668Y-131752D01*
X-145336D01*
X-143669Y-133418D01*
Y-140082D01*
X-145336Y-141748D01*
X-148668D01*
X-150334Y-140082D01*
X-160331Y-131752D02*
X-156998Y-133418D01*
X-153666Y-136750D01*
Y-140082D01*
X-155332Y-141748D01*
X-158665D01*
X-160331Y-140082D01*
Y-138416D01*
X-158665Y-136750D01*
X-153666D01*
X-63334Y-191668D02*
X-61668Y-190002D01*
X-58335D01*
X-56669Y-191668D01*
Y-198332D01*
X-58335Y-199998D01*
X-61668D01*
X-63334Y-198332D01*
X-73331Y-190002D02*
X-66666D01*
Y-195000D01*
X-69998Y-193334D01*
X-71665D01*
X-73331Y-195000D01*
Y-198332D01*
X-71665Y-199998D01*
X-68332D01*
X-66666Y-198332D01*
X-116669Y-129998D02*
Y-120002D01*
X-121668D01*
X-123334Y-121668D01*
Y-125000D01*
X-121668Y-126666D01*
X-116669D01*
X-120002D02*
X-123334Y-129998D01*
X-126666Y-121668D02*
X-128332Y-120002D01*
X-131664D01*
X-133331Y-121668D01*
Y-123334D01*
X-131664Y-125000D01*
X-129998D01*
X-131664D01*
X-133331Y-126666D01*
Y-128332D01*
X-131664Y-129998D01*
X-128332D01*
X-126666Y-128332D01*
X226500Y15582D02*
X228166Y17248D01*
X231498D01*
X233165Y15582D01*
Y13916D01*
X231498Y12250D01*
X228166D01*
X226500Y10584D01*
Y8918D01*
X228166Y7252D01*
X231498D01*
X233165Y8918D01*
X223168Y7252D02*
X219835D01*
X221502D01*
Y17248D01*
X223168Y15582D01*
X107002Y135668D02*
X105336Y134002D01*
X102003D01*
X100337Y135668D01*
Y142332D01*
X102003Y143998D01*
X105336D01*
X107002Y142332D01*
Y139000D01*
X103669D01*
X110334Y134002D02*
Y143998D01*
X115332D01*
X116998Y142332D01*
Y140666D01*
X115332Y139000D01*
X110334D01*
X115332D01*
X116998Y137334D01*
Y135668D01*
X115332Y134002D01*
X110334D01*
X120331Y143998D02*
X123663D01*
X121997D01*
Y134002D01*
X120331Y135668D01*
X195163Y-201002D02*
X188498Y-210998D01*
Y-201002D02*
X195163Y-210998D01*
X178502Y-202668D02*
X180168Y-201002D01*
X183500D01*
X185166Y-202668D01*
Y-204334D01*
X183500Y-206000D01*
X180168D01*
X178502Y-207666D01*
Y-209332D01*
X180168Y-210998D01*
X183500D01*
X185166Y-209332D01*
X175169Y-210998D02*
X171837D01*
X173503D01*
Y-201002D01*
X175169Y-202668D01*
X156081Y-94998D02*
Y-85002D01*
X151082D01*
X149416Y-86668D01*
Y-90000D01*
X151082Y-91666D01*
X156081D01*
X152748D02*
X149416Y-94998D01*
X139419D02*
X146084D01*
X139419Y-88334D01*
Y-86668D01*
X141086Y-85002D01*
X144418D01*
X146084Y-86668D01*
X-56669Y-119998D02*
Y-110002D01*
X-61668D01*
X-63334Y-111668D01*
Y-115000D01*
X-61668Y-116666D01*
X-56669D01*
X-60002D02*
X-63334Y-119998D01*
X-71665D02*
Y-110002D01*
X-66666Y-115000D01*
X-73331D01*
X29165Y-213248D02*
Y-203252D01*
X24166D01*
X22500Y-204918D01*
Y-208250D01*
X24166Y-209916D01*
X29165D01*
X25832D02*
X22500Y-213248D01*
X19168D02*
X15835D01*
X17502D01*
Y-203252D01*
X19168Y-204918D01*
X198666Y-99668D02*
X200332Y-98002D01*
X203664D01*
X205331Y-99668D01*
Y-106332D01*
X203664Y-107998D01*
X200332D01*
X198666Y-106332D01*
X190336Y-107998D02*
Y-98002D01*
X195334Y-103000D01*
X188669D01*
X36666Y-124668D02*
X38332Y-123002D01*
X41665D01*
X43331Y-124668D01*
Y-131332D01*
X41665Y-132998D01*
X38332D01*
X36666Y-131332D01*
X33334Y-124668D02*
X31668Y-123002D01*
X28335D01*
X26669Y-124668D01*
Y-126334D01*
X28335Y-128000D01*
X30002D01*
X28335D01*
X26669Y-129666D01*
Y-131332D01*
X28335Y-132998D01*
X31668D01*
X33334Y-131332D01*
X115000Y-124668D02*
X116666Y-123002D01*
X119998D01*
X121664Y-124668D01*
Y-131332D01*
X119998Y-132998D01*
X116666D01*
X115000Y-131332D01*
X111668Y-132998D02*
X108336D01*
X110002D01*
Y-123002D01*
X111668Y-124668D01*
X27666Y-71668D02*
X29332Y-70002D01*
X32664D01*
X34331Y-71668D01*
Y-78332D01*
X32664Y-79998D01*
X29332D01*
X27666Y-78332D01*
X17669Y-79998D02*
X24334D01*
X17669Y-73334D01*
Y-71668D01*
X19336Y-70002D01*
X22668D01*
X24334Y-71668D01*
D14*
X180750Y-34500D02*
X184180D01*
X161320D02*
X164750D01*
X184180Y-98500D02*
Y-34500D01*
X161320Y-98500D02*
Y-34500D01*
Y-98500D02*
X164750D01*
X180750D02*
X184180D01*
X-113570Y-210100D02*
Y-146100D01*
X-136430Y-210100D02*
Y-146100D01*
X-133000D01*
X-101430Y-172000D02*
X-98000D01*
X-101430D02*
Y-108000D01*
X-98000D01*
X-78570Y-172000D02*
Y-108000D01*
X35070Y-224500D02*
X38500D01*
X-82000Y-108000D02*
X-78570D01*
X-82000Y-172000D02*
X-78570D01*
X54500Y-160500D02*
X57250D01*
X57930Y-224500D02*
Y-160750D01*
X54500Y-224500D02*
X57930D01*
X35070Y-160500D02*
X38500D01*
X35070Y-178290D02*
Y-160500D01*
X-117000Y-146100D02*
X-113570D01*
X-117000Y-210100D02*
X-113570D01*
X-136430D02*
X-133000D01*
X35070Y-224500D02*
Y-191710D01*
D16*
X-24150Y-203000D02*
G03*
X-24150Y-203000I-1250J0D01*
G01*
M02*
